<svg xmlns="http://www.w3.org/2000/svg" xmlns:xlink="http://www.w3.org/1999/xlink" width="321" zoomAndPan="magnify" viewBox="0 0 240.75 141.750002" height="189" preserveAspectRatio="xMidYMid meet" version="1.0"><defs><g/><clipPath id="6affa7b1f9"><path d="M 0.0859375 0 L 240.414062 0 L 240.414062 141.5 L 0.0859375 141.5 Z M 0.0859375 0 " clip-rule="nonzero"/></clipPath><clipPath id="f7ab762e35"><path d="M 169.589844 32 L 188.308594 32 L 188.308594 88.613281 L 169.589844 88.613281 Z M 169.589844 32 " clip-rule="nonzero"/></clipPath><clipPath id="ba459af4b2"><path d="M 169.859375 32.035156 C 173.679688 43.667969 176.671875 53.703125 177.878906 75.519531 C 178.132812 80.070312 178.046875 84.417969 177.878906 88.535156 L 188.082031 88.535156 L 188.082031 32.035156 Z M 169.859375 32.035156 " clip-rule="nonzero"/></clipPath><clipPath id="ce44a46664"><path d="M 0.707031 0 L 19.15625 0 L 19.15625 56.613281 L 0.707031 56.613281 Z M 0.707031 0 " clip-rule="nonzero"/></clipPath><clipPath id="ae8331fce9"><path d="M 0.859375 0.0351562 C 4.679688 11.667969 7.671875 21.703125 8.878906 43.519531 C 9.132812 48.070312 9.046875 52.417969 8.878906 56.535156 L 19.082031 56.535156 L 19.082031 0.0351562 Z M 0.859375 0.0351562 " clip-rule="nonzero"/></clipPath><clipPath id="127a7cff03"><rect x="0" width="20" y="0" height="57"/></clipPath><clipPath id="eb7b81b7a8"><path d="M 117.179688 32 L 135.585938 32 L 135.585938 88.613281 L 117.179688 88.613281 Z M 117.179688 32 " clip-rule="nonzero"/></clipPath><clipPath id="425f570a76"><path d="M 125.25 75.519531 C 125.5 80.070312 125.417969 84.417969 125.25 88.539062 L 135.453125 88.539062 L 135.453125 32.035156 L 117.226562 32.035156 C 121.046875 43.667969 124.042969 53.703125 125.25 75.519531 " clip-rule="nonzero"/></clipPath><clipPath id="2b48cc18bb"><path d="M 0.179688 0 L 18.585938 0 L 18.585938 56.613281 L 0.179688 56.613281 Z M 0.179688 0 " clip-rule="nonzero"/></clipPath><clipPath id="efcb73c295"><path d="M 8.25 43.519531 C 8.5 48.070312 8.417969 52.417969 8.25 56.539062 L 18.453125 56.539062 L 18.453125 0.0351562 L 0.226562 0.0351562 C 4.046875 11.667969 7.042969 21.703125 8.25 43.519531 " clip-rule="nonzero"/></clipPath><clipPath id="b249368411"><rect x="0" width="19" y="0" height="57"/></clipPath><clipPath id="8067221740"><path d="M 120.300781 59.597656 L 152.433594 59.597656 L 152.433594 99.84375 L 120.300781 99.84375 Z M 120.300781 59.597656 " clip-rule="nonzero"/></clipPath><clipPath id="a52baf48da"><path d="M 120.445312 99.707031 C 125.105469 98.273438 130.085938 96.882812 134.324219 94.21875 C 144.136719 88.054688 142.839844 72.621094 141.1875 62.238281 C 141.019531 61.171875 140.863281 60.296875 140.707031 59.601562 L 148.675781 59.601562 L 149.453125 62.042969 C 153.082031 73.398438 153.082031 85.910156 149.453125 97.269531 L 148.675781 99.710938 Z M 120.445312 99.707031 " clip-rule="nonzero"/></clipPath><clipPath id="d64db49bd4"><path d="M 0.355469 0.597656 L 32.433594 0.597656 L 32.433594 40.84375 L 0.355469 40.84375 Z M 0.355469 0.597656 " clip-rule="nonzero"/></clipPath><clipPath id="637b62714a"><path d="M 0.445312 40.707031 C 5.105469 39.273438 10.085938 37.882812 14.324219 35.21875 C 24.136719 29.054688 22.839844 13.621094 21.1875 3.238281 C 21.019531 2.171875 20.863281 1.296875 20.707031 0.601562 L 28.675781 0.601562 L 29.453125 3.042969 C 33.082031 14.398438 33.082031 26.910156 29.453125 38.269531 L 28.675781 40.710938 Z M 0.445312 40.707031 " clip-rule="nonzero"/></clipPath><clipPath id="8625d9ebe7"><rect x="0" width="33" y="0" height="41"/></clipPath><clipPath id="21fa001430"><path d="M 173.648438 93.914062 L 188.308594 93.914062 L 188.308594 107.953125 L 173.648438 107.953125 Z M 173.648438 93.914062 " clip-rule="nonzero"/></clipPath><clipPath id="0d2eec5837"><path d="M 186.519531 94.742188 L 182.535156 94.742188 C 179.460938 94.742188 176.964844 97.492188 176.964844 100.871094 C 176.964844 101.164062 176.992188 101.445312 177.027344 101.722656 L 173.851562 101.722656 L 173.851562 107.75 L 175.414062 107.75 L 175.414062 107 L 188.082031 107 L 188.082031 100.976562 L 186.519531 100.976562 L 186.519531 101.722656 L 182.535156 101.722656 C 182.109375 101.722656 181.761719 101.339844 181.761719 100.871094 C 181.761719 100.40625 182.109375 100.023438 182.535156 100.023438 L 188.082031 100.023438 L 188.082031 93.992188 L 186.519531 93.992188 Z M 186.519531 94.742188 " clip-rule="nonzero"/></clipPath><clipPath id="f5925803fa"><path d="M 0.78125 0.914062 L 15.15625 0.914062 L 15.15625 14.808594 L 0.78125 14.808594 Z M 0.78125 0.914062 " clip-rule="nonzero"/></clipPath><clipPath id="46f7d18f49"><path d="M 13.519531 1.742188 L 9.535156 1.742188 C 6.460938 1.742188 3.964844 4.492188 3.964844 7.871094 C 3.964844 8.164062 3.992188 8.445312 4.027344 8.722656 L 0.851562 8.722656 L 0.851562 14.75 L 2.414062 14.75 L 2.414062 14 L 15.082031 14 L 15.082031 7.976562 L 13.519531 7.976562 L 13.519531 8.722656 L 9.535156 8.722656 C 9.109375 8.722656 8.761719 8.339844 8.761719 7.871094 C 8.761719 7.40625 9.109375 7.023438 9.535156 7.023438 L 15.082031 7.023438 L 15.082031 0.992188 L 13.519531 0.992188 Z M 13.519531 1.742188 " clip-rule="nonzero"/></clipPath><clipPath id="45e2ec3464"><rect x="0" width="16" y="0" height="15"/></clipPath><clipPath id="003a7fb3c2"><path d="M 53.226562 43.0625 L 118.425781 43.0625 L 118.425781 99.84375 L 53.226562 99.84375 Z M 53.226562 43.0625 " clip-rule="nonzero"/></clipPath><clipPath id="859edf3927"><path d="M 102.25 43.203125 C 102.25 43.203125 106.1875 56.308594 107.226562 62.21875 C 108.167969 67.539062 108.613281 72.996094 108.089844 78.40625 C 107.902344 80.375 107.816406 82.679688 106.886719 84.472656 C 105.441406 87.257812 102.617188 88.570312 99.867188 89 C 94.847656 89.792969 76.652344 88.941406 72.574219 88.464844 C 63.0625 87.355469 55.824219 78.488281 53.238281 75.003906 L 53.238281 99.703125 L 118.289062 99.703125 L 118.289062 43.203125 Z M 102.25 43.203125 " clip-rule="nonzero"/></clipPath><clipPath id="9631ade5cf"><path d="M 0.226562 0.125 L 65.425781 0.125 L 65.425781 56.84375 L 0.226562 56.84375 Z M 0.226562 0.125 " clip-rule="nonzero"/></clipPath><clipPath id="6d5b0c072a"><path d="M 49.25 0.203125 C 49.25 0.203125 53.1875 13.308594 54.226562 19.21875 C 55.167969 24.539062 55.613281 29.996094 55.089844 35.40625 C 54.902344 37.375 54.816406 39.679688 53.886719 41.472656 C 52.441406 44.257812 49.617188 45.570312 46.867188 46 C 41.847656 46.792969 23.652344 45.941406 19.574219 45.464844 C 10.0625 44.355469 2.824219 35.488281 0.238281 32.003906 L 0.238281 56.703125 L 65.289062 56.703125 L 65.289062 0.203125 Z M 49.25 0.203125 " clip-rule="nonzero"/></clipPath><clipPath id="57524b09a0"><rect x="0" width="66" y="0" height="57"/></clipPath><clipPath id="462d6be990"><path d="M 67 57.101562 L 92 57.101562 L 92 79.875 L 67 79.875 Z M 67 57.101562 " clip-rule="nonzero"/></clipPath><clipPath id="fd8782e54f"><path d="M 88.921875 57.351562 L 88.921875 58.433594 L 80.300781 58.433594 C 77.25 58.433594 74.765625 61.148438 74.738281 64.496094 L 74.738281 65.078125 C 74.765625 68.429688 77.253906 71.140625 80.300781 71.140625 L 80.84375 71.140625 L 85.847656 71.144531 L 86.390625 71.144531 C 86.804688 71.144531 87.148438 71.507812 87.164062 71.957031 L 87.164062 72.480469 C 87.148438 72.929688 86.804688 73.296875 86.390625 73.296875 L 67.113281 73.296875 L 67.113281 79.765625 L 70.152344 79.765625 L 70.152344 78.578125 L 86.398438 78.578125 C 89.449219 78.578125 91.933594 75.863281 91.960938 72.515625 L 91.960938 71.933594 C 91.933594 68.582031 89.449219 65.871094 86.398438 65.871094 L 85.851562 65.871094 L 80.847656 65.867188 L 80.300781 65.867188 C 79.886719 65.867188 79.542969 65.503906 79.527344 65.054688 L 79.527344 64.527344 C 79.542969 64.078125 79.886719 63.710938 80.300781 63.710938 L 91.957031 63.710938 L 91.957031 57.351562 Z M 88.921875 57.351562 " clip-rule="nonzero"/></clipPath><clipPath id="613cfe00f0"><path d="M 0 0.257812 L 25 0.257812 L 25 22.78125 L 0 22.78125 Z M 0 0.257812 " clip-rule="nonzero"/></clipPath><clipPath id="d9803968e5"><path d="M 21.921875 0.351562 L 21.921875 1.433594 L 13.300781 1.433594 C 10.25 1.433594 7.765625 4.148438 7.738281 7.496094 L 7.738281 8.078125 C 7.765625 11.429688 10.253906 14.140625 13.300781 14.140625 L 13.84375 14.140625 L 18.847656 14.144531 L 19.390625 14.144531 C 19.804688 14.144531 20.148438 14.507812 20.164062 14.957031 L 20.164062 15.480469 C 20.148438 15.929688 19.804688 16.296875 19.390625 16.296875 L 0.113281 16.296875 L 0.113281 22.765625 L 3.152344 22.765625 L 3.152344 21.578125 L 19.398438 21.578125 C 22.449219 21.578125 24.933594 18.863281 24.960938 15.515625 L 24.960938 14.933594 C 24.933594 11.582031 22.449219 8.871094 19.398438 8.871094 L 18.851562 8.871094 L 13.847656 8.867188 L 13.300781 8.867188 C 12.886719 8.867188 12.542969 8.503906 12.527344 8.054688 L 12.527344 7.527344 C 12.542969 7.078125 12.886719 6.710938 13.300781 6.710938 L 24.957031 6.710938 L 24.957031 0.351562 Z M 21.921875 0.351562 " clip-rule="nonzero"/></clipPath><clipPath id="c371d8a1f1"><rect x="0" width="25" y="0" height="23"/></clipPath><clipPath id="76b1fc77b8"><path d="M 153.058594 64.277344 L 171.464844 64.277344 L 171.464844 99.84375 L 153.058594 99.84375 Z M 153.058594 64.277344 " clip-rule="nonzero"/></clipPath><clipPath id="ffc911ee34"><path d="M 153.140625 99.707031 C 153.816406 98.96875 154.640625 98.019531 155.65625 96.789062 C 158.632812 93.1875 160.558594 89.929688 161.722656 86.542969 C 162.644531 83.863281 162.789062 81.230469 162.164062 78.722656 C 160.902344 73.65625 158.394531 69.128906 156.621094 66.171875 C 156.234375 65.527344 155.894531 64.988281 155.589844 64.53125 L 171.292969 64.53125 L 171.292969 99.707031 Z M 153.140625 99.707031 " clip-rule="nonzero"/></clipPath><clipPath id="7fe43e4219"><path d="M 0.0585938 0.445312 L 18.386719 0.445312 L 18.386719 35.84375 L 0.0585938 35.84375 Z M 0.0585938 0.445312 " clip-rule="nonzero"/></clipPath><clipPath id="a6bd4be535"><path d="M 0.140625 35.707031 C 0.816406 34.96875 1.640625 34.019531 2.65625 32.789062 C 5.632812 29.1875 7.558594 25.929688 8.722656 22.542969 C 9.644531 19.863281 9.789062 17.230469 9.164062 14.722656 C 7.902344 9.65625 5.394531 5.128906 3.621094 2.171875 C 3.234375 1.527344 2.894531 0.988281 2.589844 0.53125 L 18.292969 0.53125 L 18.292969 35.707031 Z M 0.140625 35.707031 " clip-rule="nonzero"/></clipPath><clipPath id="3f66b1483a"><rect x="0" width="19" y="0" height="36"/></clipPath><clipPath id="20c4b4417f"><path d="M 0.0742188 2 L 5 2 L 5 8 L 0.0742188 8 Z M 0.0742188 2 " clip-rule="nonzero"/></clipPath><clipPath id="22359972a5"><path d="M 74 3 L 79 3 L 79 9.644531 L 74 9.644531 Z M 74 3 " clip-rule="nonzero"/></clipPath><clipPath id="bb675fb056"><rect x="0" width="121" y="0" height="10"/></clipPath></defs><g clip-path="url(#6affa7b1f9)"><path fill="#ffffff" d="M 0.0859375 0 L 240.414062 0 L 240.414062 141.5 L 0.0859375 141.5 Z M 0.0859375 0 " fill-opacity="1" fill-rule="nonzero"/><path fill="#44b7e6" d="M 0.0859375 0 L 240.414062 0 L 240.414062 141.5 L 0.0859375 141.5 Z M 0.0859375 0 " fill-opacity="1" fill-rule="nonzero"/></g><g clip-path="url(#f7ab762e35)"><g clip-path="url(#ba459af4b2)"><g transform="matrix(1, 0, 0, 1, 169, 32)"><g clip-path="url(#127a7cff03)"><g clip-path="url(#ce44a46664)"><g clip-path="url(#ae8331fce9)"><rect x="-221.965" width="346.68" fill="#ffffff" height="204.120003" y="-63.185001" fill-opacity="1"/></g></g></g></g></g></g><g clip-path="url(#eb7b81b7a8)"><g clip-path="url(#425f570a76)"><g transform="matrix(1, 0, 0, 1, 117, 32)"><g clip-path="url(#b249368411)"><g clip-path="url(#2b48cc18bb)"><g clip-path="url(#efcb73c295)"><rect x="-169.965" width="346.68" fill="#ffffff" height="204.120003" y="-63.185001" fill-opacity="1"/></g></g></g></g></g></g><g clip-path="url(#8067221740)"><g clip-path="url(#a52baf48da)"><g transform="matrix(1, 0, 0, 1, 120, 59)"><g clip-path="url(#8625d9ebe7)"><g clip-path="url(#d64db49bd4)"><g clip-path="url(#637b62714a)"><rect x="-172.965" width="346.68" fill="#ffffff" height="204.120003" y="-90.185001" fill-opacity="1"/></g></g></g></g></g></g><g clip-path="url(#21fa001430)"><g clip-path="url(#0d2eec5837)"><g transform="matrix(1, 0, 0, 1, 173, 93)"><g clip-path="url(#45e2ec3464)"><g clip-path="url(#f5925803fa)"><g clip-path="url(#46f7d18f49)"><rect x="-225.965" width="346.68" fill="#ffffff" height="204.120003" y="-124.185001" fill-opacity="1"/></g></g></g></g></g></g><g clip-path="url(#003a7fb3c2)"><g clip-path="url(#859edf3927)"><g transform="matrix(1, 0, 0, 1, 53, 43)"><g clip-path="url(#57524b09a0)"><g clip-path="url(#9631ade5cf)"><g clip-path="url(#6d5b0c072a)"><rect x="-105.965" width="346.68" fill="#ffffff" height="204.120003" y="-74.185001" fill-opacity="1"/></g></g></g></g></g></g><g clip-path="url(#462d6be990)"><g clip-path="url(#fd8782e54f)"><g transform="matrix(1, 0, 0, 1, 67, 57)"><g clip-path="url(#c371d8a1f1)"><g clip-path="url(#613cfe00f0)"><g clip-path="url(#d9803968e5)"><rect x="-119.965" width="346.68" fill="#ffffff" height="204.120003" y="-88.185001" fill-opacity="1"/></g></g></g></g></g></g><g clip-path="url(#76b1fc77b8)"><g clip-path="url(#ffc911ee34)"><g transform="matrix(1, 0, 0, 1, 153, 64)"><g clip-path="url(#3f66b1483a)"><g clip-path="url(#7fe43e4219)"><g clip-path="url(#a6bd4be535)"><rect x="-205.965" width="346.68" fill="#ffffff" height="204.120003" y="-95.185001" fill-opacity="1"/></g></g></g></g></g></g><g transform="matrix(1, 0, 0, 1, 52, 102)"><g clip-path="url(#bb675fb056)"><g clip-path="url(#20c4b4417f)"><g fill="#ffffff" fill-opacity="1"><g transform="translate(0.555811, 7.769153)"><g><path d="M 3.625 -4.78125 C 3.601562 -4.75 3.578125 -4.722656 3.546875 -4.703125 C 3.523438 -4.679688 3.492188 -4.671875 3.453125 -4.671875 C 3.398438 -4.671875 3.34375 -4.691406 3.28125 -4.734375 C 3.226562 -4.773438 3.15625 -4.820312 3.0625 -4.875 C 2.96875 -4.9375 2.859375 -4.988281 2.734375 -5.03125 C 2.609375 -5.082031 2.453125 -5.109375 2.265625 -5.109375 C 2.097656 -5.109375 1.945312 -5.082031 1.8125 -5.03125 C 1.6875 -4.988281 1.578125 -4.925781 1.484375 -4.84375 C 1.398438 -4.757812 1.332031 -4.664062 1.28125 -4.5625 C 1.238281 -4.457031 1.21875 -4.34375 1.21875 -4.21875 C 1.21875 -4.0625 1.253906 -3.929688 1.328125 -3.828125 C 1.410156 -3.722656 1.515625 -3.632812 1.640625 -3.5625 C 1.773438 -3.488281 1.921875 -3.421875 2.078125 -3.359375 C 2.242188 -3.304688 2.410156 -3.25 2.578125 -3.1875 C 2.753906 -3.132812 2.921875 -3.070312 3.078125 -3 C 3.242188 -2.925781 3.390625 -2.832031 3.515625 -2.71875 C 3.640625 -2.613281 3.738281 -2.476562 3.8125 -2.3125 C 3.894531 -2.15625 3.9375 -1.957031 3.9375 -1.71875 C 3.9375 -1.46875 3.894531 -1.234375 3.8125 -1.015625 C 3.726562 -0.804688 3.601562 -0.617188 3.4375 -0.453125 C 3.28125 -0.296875 3.082031 -0.171875 2.84375 -0.078125 C 2.601562 0.015625 2.335938 0.0625 2.046875 0.0625 C 1.671875 0.0625 1.332031 -0.00390625 1.03125 -0.140625 C 0.726562 -0.273438 0.472656 -0.453125 0.265625 -0.671875 L 0.484375 -1.046875 C 0.503906 -1.066406 0.53125 -1.085938 0.5625 -1.109375 C 0.59375 -1.128906 0.625 -1.140625 0.65625 -1.140625 C 0.695312 -1.140625 0.738281 -1.125 0.78125 -1.09375 C 0.820312 -1.070312 0.867188 -1.039062 0.921875 -1 C 0.984375 -0.957031 1.046875 -0.910156 1.109375 -0.859375 C 1.179688 -0.804688 1.265625 -0.757812 1.359375 -0.71875 C 1.453125 -0.675781 1.554688 -0.640625 1.671875 -0.609375 C 1.785156 -0.585938 1.914062 -0.578125 2.0625 -0.578125 C 2.25 -0.578125 2.410156 -0.597656 2.546875 -0.640625 C 2.691406 -0.691406 2.8125 -0.765625 2.90625 -0.859375 C 3.007812 -0.953125 3.085938 -1.0625 3.140625 -1.1875 C 3.191406 -1.3125 3.21875 -1.453125 3.21875 -1.609375 C 3.21875 -1.785156 3.175781 -1.925781 3.09375 -2.03125 C 3.019531 -2.144531 2.921875 -2.238281 2.796875 -2.3125 C 2.671875 -2.382812 2.523438 -2.445312 2.359375 -2.5 C 2.191406 -2.550781 2.023438 -2.601562 1.859375 -2.65625 C 1.691406 -2.707031 1.523438 -2.769531 1.359375 -2.84375 C 1.191406 -2.914062 1.046875 -3.007812 0.921875 -3.125 C 0.796875 -3.238281 0.691406 -3.378906 0.609375 -3.546875 C 0.535156 -3.710938 0.5 -3.921875 0.5 -4.171875 C 0.5 -4.378906 0.535156 -4.578125 0.609375 -4.765625 C 0.691406 -4.953125 0.804688 -5.117188 0.953125 -5.265625 C 1.109375 -5.410156 1.296875 -5.523438 1.515625 -5.609375 C 1.734375 -5.691406 1.984375 -5.734375 2.265625 -5.734375 C 2.578125 -5.734375 2.863281 -5.679688 3.125 -5.578125 C 3.382812 -5.484375 3.613281 -5.34375 3.8125 -5.15625 Z M 3.625 -4.78125 "/></g></g></g></g><g fill="#ffffff" fill-opacity="1"><g transform="translate(6.749571, 7.769153)"><g><path d="M 0.5625 0 L 0.5625 -4.015625 L 0.984375 -4.015625 C 1.078125 -4.015625 1.140625 -3.960938 1.171875 -3.859375 L 1.21875 -3.453125 C 1.363281 -3.640625 1.53125 -3.789062 1.71875 -3.90625 C 1.90625 -4.019531 2.117188 -4.078125 2.359375 -4.078125 C 2.628906 -4.078125 2.847656 -4 3.015625 -3.84375 C 3.179688 -3.695312 3.300781 -3.492188 3.375 -3.234375 C 3.4375 -3.378906 3.507812 -3.503906 3.59375 -3.609375 C 3.6875 -3.722656 3.789062 -3.8125 3.90625 -3.875 C 4.019531 -3.945312 4.140625 -4 4.265625 -4.03125 C 4.398438 -4.0625 4.53125 -4.078125 4.65625 -4.078125 C 4.875 -4.078125 5.0625 -4.039062 5.21875 -3.96875 C 5.382812 -3.90625 5.523438 -3.804688 5.640625 -3.671875 C 5.753906 -3.546875 5.84375 -3.390625 5.90625 -3.203125 C 5.96875 -3.015625 6 -2.800781 6 -2.5625 L 6 0 L 5.296875 0 L 5.296875 -2.5625 C 5.296875 -2.875 5.222656 -3.109375 5.078125 -3.265625 C 4.941406 -3.429688 4.742188 -3.515625 4.484375 -3.515625 C 4.367188 -3.515625 4.257812 -3.492188 4.15625 -3.453125 C 4.050781 -3.410156 3.957031 -3.347656 3.875 -3.265625 C 3.800781 -3.191406 3.738281 -3.09375 3.6875 -2.96875 C 3.644531 -2.851562 3.625 -2.71875 3.625 -2.5625 L 3.625 0 L 2.921875 0 L 2.921875 -2.5625 C 2.921875 -2.875 2.851562 -3.109375 2.71875 -3.265625 C 2.59375 -3.429688 2.40625 -3.515625 2.15625 -3.515625 C 1.976562 -3.515625 1.816406 -3.46875 1.671875 -3.375 C 1.523438 -3.28125 1.390625 -3.148438 1.265625 -2.984375 L 1.265625 0 Z M 0.5625 0 "/></g></g></g><g fill="#ffffff" fill-opacity="1"><g transform="translate(15.246306, 7.769153)"><g><path d="M 2.734375 -1.8125 C 2.410156 -1.800781 2.132812 -1.773438 1.90625 -1.734375 C 1.675781 -1.691406 1.488281 -1.632812 1.34375 -1.5625 C 1.195312 -1.5 1.09375 -1.421875 1.03125 -1.328125 C 0.96875 -1.242188 0.9375 -1.144531 0.9375 -1.03125 C 0.9375 -0.925781 0.953125 -0.832031 0.984375 -0.75 C 1.015625 -0.675781 1.0625 -0.613281 1.125 -0.5625 C 1.1875 -0.519531 1.253906 -0.488281 1.328125 -0.46875 C 1.410156 -0.445312 1.5 -0.4375 1.59375 -0.4375 C 1.71875 -0.4375 1.832031 -0.445312 1.9375 -0.46875 C 2.039062 -0.488281 2.132812 -0.523438 2.21875 -0.578125 C 2.3125 -0.628906 2.398438 -0.6875 2.484375 -0.75 C 2.566406 -0.8125 2.648438 -0.882812 2.734375 -0.96875 Z M 0.453125 -3.453125 C 0.671875 -3.660156 0.910156 -3.816406 1.171875 -3.921875 C 1.429688 -4.023438 1.71875 -4.078125 2.03125 -4.078125 C 2.25 -4.078125 2.445312 -4.039062 2.625 -3.96875 C 2.800781 -3.894531 2.945312 -3.789062 3.0625 -3.65625 C 3.175781 -3.53125 3.265625 -3.375 3.328125 -3.1875 C 3.390625 -3 3.421875 -2.789062 3.421875 -2.5625 L 3.421875 0 L 3.109375 0 C 3.035156 0 2.976562 -0.0078125 2.9375 -0.03125 C 2.90625 -0.0507812 2.878906 -0.0976562 2.859375 -0.171875 L 2.78125 -0.546875 C 2.675781 -0.453125 2.570312 -0.363281 2.46875 -0.28125 C 2.375 -0.207031 2.269531 -0.144531 2.15625 -0.09375 C 2.050781 -0.0390625 1.929688 -0.00390625 1.796875 0.015625 C 1.671875 0.046875 1.535156 0.0625 1.390625 0.0625 C 1.234375 0.0625 1.082031 0.0390625 0.9375 0 C 0.800781 -0.0390625 0.679688 -0.101562 0.578125 -0.1875 C 0.484375 -0.28125 0.40625 -0.394531 0.34375 -0.53125 C 0.28125 -0.664062 0.25 -0.820312 0.25 -1 C 0.25 -1.15625 0.289062 -1.304688 0.375 -1.453125 C 0.46875 -1.597656 0.613281 -1.726562 0.8125 -1.84375 C 1.007812 -1.957031 1.265625 -2.050781 1.578125 -2.125 C 1.890625 -2.195312 2.273438 -2.238281 2.734375 -2.25 L 2.734375 -2.5625 C 2.734375 -2.875 2.664062 -3.109375 2.53125 -3.265625 C 2.394531 -3.429688 2.195312 -3.515625 1.9375 -3.515625 C 1.757812 -3.515625 1.613281 -3.488281 1.5 -3.4375 C 1.382812 -3.394531 1.28125 -3.347656 1.1875 -3.296875 C 1.101562 -3.242188 1.03125 -3.195312 0.96875 -3.15625 C 0.914062 -3.113281 0.859375 -3.09375 0.796875 -3.09375 C 0.742188 -3.09375 0.703125 -3.101562 0.671875 -3.125 C 0.640625 -3.15625 0.609375 -3.1875 0.578125 -3.21875 Z M 0.453125 -3.453125 "/></g></g></g><g fill="#ffffff" fill-opacity="1"><g transform="translate(21.167052, 7.769153)"><g><path d="M 1.234375 -3.203125 C 1.359375 -3.484375 1.507812 -3.695312 1.6875 -3.84375 C 1.875 -4 2.101562 -4.078125 2.375 -4.078125 C 2.457031 -4.078125 2.535156 -4.066406 2.609375 -4.046875 C 2.691406 -4.035156 2.765625 -4.007812 2.828125 -3.96875 L 2.765625 -3.4375 C 2.753906 -3.375 2.71875 -3.34375 2.65625 -3.34375 C 2.613281 -3.34375 2.554688 -3.347656 2.484375 -3.359375 C 2.421875 -3.378906 2.34375 -3.390625 2.25 -3.390625 C 2.125 -3.390625 2.007812 -3.367188 1.90625 -3.328125 C 1.8125 -3.296875 1.722656 -3.242188 1.640625 -3.171875 C 1.566406 -3.097656 1.5 -3.003906 1.4375 -2.890625 C 1.375 -2.785156 1.316406 -2.664062 1.265625 -2.53125 L 1.265625 0 L 0.5625 0 L 0.5625 -4.015625 L 0.96875 -4.015625 C 1.039062 -4.015625 1.09375 -4 1.125 -3.96875 C 1.15625 -3.9375 1.175781 -3.882812 1.1875 -3.8125 Z M 1.234375 -3.203125 "/></g></g></g><g fill="#ffffff" fill-opacity="1"><g transform="translate(26.035246, 7.769153)"><g><path d="M 1.796875 0.0625 C 1.472656 0.0625 1.222656 -0.0234375 1.046875 -0.203125 C 0.878906 -0.378906 0.796875 -0.632812 0.796875 -0.96875 L 0.796875 -3.421875 L 0.328125 -3.421875 C 0.273438 -3.421875 0.234375 -3.429688 0.203125 -3.453125 C 0.179688 -3.484375 0.171875 -3.523438 0.171875 -3.578125 L 0.171875 -3.859375 L 0.828125 -3.9375 L 0.984375 -5.1875 C 0.992188 -5.21875 1.007812 -5.242188 1.03125 -5.265625 C 1.0625 -5.296875 1.101562 -5.3125 1.15625 -5.3125 L 1.515625 -5.3125 L 1.515625 -3.9375 L 2.671875 -3.9375 L 2.671875 -3.421875 L 1.515625 -3.421875 L 1.515625 -1.015625 C 1.515625 -0.847656 1.550781 -0.722656 1.625 -0.640625 C 1.707031 -0.554688 1.816406 -0.515625 1.953125 -0.515625 C 2.023438 -0.515625 2.085938 -0.523438 2.140625 -0.546875 C 2.191406 -0.566406 2.238281 -0.585938 2.28125 -0.609375 C 2.320312 -0.628906 2.351562 -0.648438 2.375 -0.671875 C 2.40625 -0.691406 2.429688 -0.703125 2.453125 -0.703125 C 2.492188 -0.703125 2.53125 -0.679688 2.5625 -0.640625 L 2.765625 -0.296875 C 2.640625 -0.179688 2.488281 -0.09375 2.3125 -0.03125 C 2.144531 0.03125 1.972656 0.0625 1.796875 0.0625 Z M 1.796875 0.0625 "/></g></g></g><g fill="#ffffff" fill-opacity="1"><g transform="translate(30.859911, 7.769153)"><g/></g></g><g fill="#ffffff" fill-opacity="1"><g transform="translate(34.873399, 7.769153)"><g><path d="M 3.9375 -0.640625 L 3.9375 0 L 0.71875 0 L 0.71875 -5.671875 L 1.484375 -5.671875 L 1.484375 -0.640625 Z M 3.9375 -0.640625 "/></g></g></g><g fill="#ffffff" fill-opacity="1"><g transform="translate(40.635809, 7.769153)"><g><path d="M 3.25 -2.4375 C 3.25 -2.601562 3.222656 -2.753906 3.171875 -2.890625 C 3.128906 -3.023438 3.0625 -3.140625 2.96875 -3.234375 C 2.882812 -3.335938 2.773438 -3.414062 2.640625 -3.46875 C 2.515625 -3.53125 2.375 -3.5625 2.21875 -3.5625 C 1.882812 -3.5625 1.617188 -3.460938 1.421875 -3.265625 C 1.222656 -3.066406 1.097656 -2.789062 1.046875 -2.4375 Z M 3.8125 -0.5625 C 3.726562 -0.457031 3.625 -0.363281 3.5 -0.28125 C 3.375 -0.207031 3.242188 -0.144531 3.109375 -0.09375 C 2.972656 -0.0390625 2.828125 -0.00390625 2.671875 0.015625 C 2.523438 0.046875 2.378906 0.0625 2.234375 0.0625 C 1.960938 0.0625 1.707031 0.015625 1.46875 -0.078125 C 1.238281 -0.171875 1.035156 -0.304688 0.859375 -0.484375 C 0.691406 -0.671875 0.5625 -0.894531 0.46875 -1.15625 C 0.375 -1.425781 0.328125 -1.738281 0.328125 -2.09375 C 0.328125 -2.363281 0.367188 -2.617188 0.453125 -2.859375 C 0.546875 -3.109375 0.671875 -3.320312 0.828125 -3.5 C 0.984375 -3.675781 1.175781 -3.816406 1.40625 -3.921875 C 1.644531 -4.023438 1.910156 -4.078125 2.203125 -4.078125 C 2.441406 -4.078125 2.660156 -4.035156 2.859375 -3.953125 C 3.066406 -3.867188 3.242188 -3.75 3.390625 -3.59375 C 3.546875 -3.445312 3.664062 -3.257812 3.75 -3.03125 C 3.832031 -2.8125 3.875 -2.5625 3.875 -2.28125 C 3.875 -2.164062 3.863281 -2.085938 3.84375 -2.046875 C 3.820312 -2.015625 3.773438 -2 3.703125 -2 L 1.03125 -2 C 1.03125 -1.75 1.0625 -1.53125 1.125 -1.34375 C 1.1875 -1.15625 1.273438 -1 1.390625 -0.875 C 1.503906 -0.75 1.632812 -0.65625 1.78125 -0.59375 C 1.9375 -0.53125 2.109375 -0.5 2.296875 -0.5 C 2.472656 -0.5 2.625 -0.519531 2.75 -0.5625 C 2.882812 -0.601562 3 -0.644531 3.09375 -0.6875 C 3.1875 -0.738281 3.265625 -0.785156 3.328125 -0.828125 C 3.390625 -0.867188 3.441406 -0.890625 3.484375 -0.890625 C 3.535156 -0.890625 3.578125 -0.863281 3.609375 -0.8125 Z M 3.8125 -0.5625 "/></g></g></g><g fill="#ffffff" fill-opacity="1"><g transform="translate(46.801891, 7.769153)"><g><path d="M 2.734375 -1.8125 C 2.410156 -1.800781 2.132812 -1.773438 1.90625 -1.734375 C 1.675781 -1.691406 1.488281 -1.632812 1.34375 -1.5625 C 1.195312 -1.5 1.09375 -1.421875 1.03125 -1.328125 C 0.96875 -1.242188 0.9375 -1.144531 0.9375 -1.03125 C 0.9375 -0.925781 0.953125 -0.832031 0.984375 -0.75 C 1.015625 -0.675781 1.0625 -0.613281 1.125 -0.5625 C 1.1875 -0.519531 1.253906 -0.488281 1.328125 -0.46875 C 1.410156 -0.445312 1.5 -0.4375 1.59375 -0.4375 C 1.71875 -0.4375 1.832031 -0.445312 1.9375 -0.46875 C 2.039062 -0.488281 2.132812 -0.523438 2.21875 -0.578125 C 2.3125 -0.628906 2.398438 -0.6875 2.484375 -0.75 C 2.566406 -0.8125 2.648438 -0.882812 2.734375 -0.96875 Z M 0.453125 -3.453125 C 0.671875 -3.660156 0.910156 -3.816406 1.171875 -3.921875 C 1.429688 -4.023438 1.71875 -4.078125 2.03125 -4.078125 C 2.25 -4.078125 2.445312 -4.039062 2.625 -3.96875 C 2.800781 -3.894531 2.945312 -3.789062 3.0625 -3.65625 C 3.175781 -3.53125 3.265625 -3.375 3.328125 -3.1875 C 3.390625 -3 3.421875 -2.789062 3.421875 -2.5625 L 3.421875 0 L 3.109375 0 C 3.035156 0 2.976562 -0.0078125 2.9375 -0.03125 C 2.90625 -0.0507812 2.878906 -0.0976562 2.859375 -0.171875 L 2.78125 -0.546875 C 2.675781 -0.453125 2.570312 -0.363281 2.46875 -0.28125 C 2.375 -0.207031 2.269531 -0.144531 2.15625 -0.09375 C 2.050781 -0.0390625 1.929688 -0.00390625 1.796875 0.015625 C 1.671875 0.046875 1.535156 0.0625 1.390625 0.0625 C 1.234375 0.0625 1.082031 0.0390625 0.9375 0 C 0.800781 -0.0390625 0.679688 -0.101562 0.578125 -0.1875 C 0.484375 -0.28125 0.40625 -0.394531 0.34375 -0.53125 C 0.28125 -0.664062 0.25 -0.820312 0.25 -1 C 0.25 -1.15625 0.289062 -1.304688 0.375 -1.453125 C 0.46875 -1.597656 0.613281 -1.726562 0.8125 -1.84375 C 1.007812 -1.957031 1.265625 -2.050781 1.578125 -2.125 C 1.890625 -2.195312 2.273438 -2.238281 2.734375 -2.25 L 2.734375 -2.5625 C 2.734375 -2.875 2.664062 -3.109375 2.53125 -3.265625 C 2.394531 -3.429688 2.195312 -3.515625 1.9375 -3.515625 C 1.757812 -3.515625 1.613281 -3.488281 1.5 -3.4375 C 1.382812 -3.394531 1.28125 -3.347656 1.1875 -3.296875 C 1.101562 -3.242188 1.03125 -3.195312 0.96875 -3.15625 C 0.914062 -3.113281 0.859375 -3.09375 0.796875 -3.09375 C 0.742188 -3.09375 0.703125 -3.101562 0.671875 -3.125 C 0.640625 -3.15625 0.609375 -3.1875 0.578125 -3.21875 Z M 0.453125 -3.453125 "/></g></g></g><g fill="#ffffff" fill-opacity="1"><g transform="translate(52.722637, 7.769153)"><g><path d="M 1.234375 -3.203125 C 1.359375 -3.484375 1.507812 -3.695312 1.6875 -3.84375 C 1.875 -4 2.101562 -4.078125 2.375 -4.078125 C 2.457031 -4.078125 2.535156 -4.066406 2.609375 -4.046875 C 2.691406 -4.035156 2.765625 -4.007812 2.828125 -3.96875 L 2.765625 -3.4375 C 2.753906 -3.375 2.71875 -3.34375 2.65625 -3.34375 C 2.613281 -3.34375 2.554688 -3.347656 2.484375 -3.359375 C 2.421875 -3.378906 2.34375 -3.390625 2.25 -3.390625 C 2.125 -3.390625 2.007812 -3.367188 1.90625 -3.328125 C 1.8125 -3.296875 1.722656 -3.242188 1.640625 -3.171875 C 1.566406 -3.097656 1.5 -3.003906 1.4375 -2.890625 C 1.375 -2.785156 1.316406 -2.664062 1.265625 -2.53125 L 1.265625 0 L 0.5625 0 L 0.5625 -4.015625 L 0.96875 -4.015625 C 1.039062 -4.015625 1.09375 -4 1.125 -3.96875 C 1.15625 -3.9375 1.175781 -3.882812 1.1875 -3.8125 Z M 1.234375 -3.203125 "/></g></g></g><g fill="#ffffff" fill-opacity="1"><g transform="translate(57.590831, 7.769153)"><g><path d="M 1.21875 -3.4375 C 1.3125 -3.53125 1.40625 -3.613281 1.5 -3.6875 C 1.59375 -3.769531 1.691406 -3.835938 1.796875 -3.890625 C 1.910156 -3.953125 2.03125 -4 2.15625 -4.03125 C 2.28125 -4.0625 2.414062 -4.078125 2.5625 -4.078125 C 2.78125 -4.078125 2.972656 -4.039062 3.140625 -3.96875 C 3.304688 -3.894531 3.445312 -3.789062 3.5625 -3.65625 C 3.675781 -3.519531 3.757812 -3.359375 3.8125 -3.171875 C 3.875 -2.984375 3.90625 -2.78125 3.90625 -2.5625 L 3.90625 0 L 3.1875 0 L 3.1875 -2.5625 C 3.1875 -2.863281 3.117188 -3.097656 2.984375 -3.265625 C 2.847656 -3.429688 2.640625 -3.515625 2.359375 -3.515625 C 2.148438 -3.515625 1.953125 -3.460938 1.765625 -3.359375 C 1.585938 -3.265625 1.421875 -3.128906 1.265625 -2.953125 L 1.265625 0 L 0.5625 0 L 0.5625 -4.015625 L 0.984375 -4.015625 C 1.078125 -4.015625 1.140625 -3.960938 1.171875 -3.859375 Z M 1.21875 -3.4375 "/></g></g></g><g fill="#ffffff" fill-opacity="1"><g transform="translate(63.994327, 7.769153)"><g><path d="M 1.296875 -4.015625 L 1.296875 0 L 0.59375 0 L 0.59375 -4.015625 Z M 1.453125 -5.265625 C 1.453125 -5.203125 1.4375 -5.140625 1.40625 -5.078125 C 1.382812 -5.015625 1.347656 -4.960938 1.296875 -4.921875 C 1.253906 -4.878906 1.203125 -4.84375 1.140625 -4.8125 C 1.078125 -4.78125 1.007812 -4.765625 0.9375 -4.765625 C 0.875 -4.765625 0.8125 -4.78125 0.75 -4.8125 C 0.6875 -4.84375 0.632812 -4.878906 0.59375 -4.921875 C 0.550781 -4.960938 0.515625 -5.015625 0.484375 -5.078125 C 0.460938 -5.140625 0.453125 -5.203125 0.453125 -5.265625 C 0.453125 -5.335938 0.460938 -5.40625 0.484375 -5.46875 C 0.515625 -5.53125 0.550781 -5.582031 0.59375 -5.625 C 0.632812 -5.675781 0.6875 -5.710938 0.75 -5.734375 C 0.8125 -5.765625 0.875 -5.78125 0.9375 -5.78125 C 1.007812 -5.78125 1.078125 -5.765625 1.140625 -5.734375 C 1.203125 -5.710938 1.253906 -5.675781 1.296875 -5.625 C 1.347656 -5.582031 1.382812 -5.53125 1.40625 -5.46875 C 1.4375 -5.40625 1.453125 -5.335938 1.453125 -5.265625 Z M 1.453125 -5.265625 "/></g></g></g><g fill="#ffffff" fill-opacity="1"><g transform="translate(67.881195, 7.769153)"><g><path d="M 1.21875 -3.4375 C 1.3125 -3.53125 1.40625 -3.613281 1.5 -3.6875 C 1.59375 -3.769531 1.691406 -3.835938 1.796875 -3.890625 C 1.910156 -3.953125 2.03125 -4 2.15625 -4.03125 C 2.28125 -4.0625 2.414062 -4.078125 2.5625 -4.078125 C 2.78125 -4.078125 2.972656 -4.039062 3.140625 -3.96875 C 3.304688 -3.894531 3.445312 -3.789062 3.5625 -3.65625 C 3.675781 -3.519531 3.757812 -3.359375 3.8125 -3.171875 C 3.875 -2.984375 3.90625 -2.78125 3.90625 -2.5625 L 3.90625 0 L 3.1875 0 L 3.1875 -2.5625 C 3.1875 -2.863281 3.117188 -3.097656 2.984375 -3.265625 C 2.847656 -3.429688 2.640625 -3.515625 2.359375 -3.515625 C 2.148438 -3.515625 1.953125 -3.460938 1.765625 -3.359375 C 1.585938 -3.265625 1.421875 -3.128906 1.265625 -2.953125 L 1.265625 0 L 0.5625 0 L 0.5625 -4.015625 L 0.984375 -4.015625 C 1.078125 -4.015625 1.140625 -3.960938 1.171875 -3.859375 Z M 1.21875 -3.4375 "/></g></g></g><g clip-path="url(#22359972a5)"><g fill="#ffffff" fill-opacity="1"><g transform="translate(74.284691, 7.769153)"><g><path d="M 1.953125 -1.953125 C 2.097656 -1.953125 2.222656 -1.972656 2.328125 -2.015625 C 2.441406 -2.054688 2.535156 -2.113281 2.609375 -2.1875 C 2.679688 -2.257812 2.734375 -2.34375 2.765625 -2.4375 C 2.804688 -2.539062 2.828125 -2.648438 2.828125 -2.765625 C 2.828125 -3.015625 2.75 -3.210938 2.59375 -3.359375 C 2.445312 -3.503906 2.234375 -3.578125 1.953125 -3.578125 C 1.671875 -3.578125 1.453125 -3.503906 1.296875 -3.359375 C 1.148438 -3.210938 1.078125 -3.015625 1.078125 -2.765625 C 1.078125 -2.648438 1.097656 -2.539062 1.140625 -2.4375 C 1.179688 -2.34375 1.238281 -2.257812 1.3125 -2.1875 C 1.382812 -2.113281 1.472656 -2.054688 1.578125 -2.015625 C 1.691406 -1.972656 1.816406 -1.953125 1.953125 -1.953125 Z M 3.234375 0.21875 C 3.234375 0.125 3.203125 0.046875 3.140625 -0.015625 C 3.085938 -0.078125 3.015625 -0.125 2.921875 -0.15625 C 2.828125 -0.195312 2.71875 -0.222656 2.59375 -0.234375 C 2.46875 -0.242188 2.335938 -0.253906 2.203125 -0.265625 C 2.066406 -0.273438 1.925781 -0.285156 1.78125 -0.296875 C 1.632812 -0.304688 1.492188 -0.316406 1.359375 -0.328125 C 1.210938 -0.265625 1.09375 -0.179688 1 -0.078125 C 0.90625 0.0234375 0.859375 0.148438 0.859375 0.296875 C 0.859375 0.378906 0.878906 0.457031 0.921875 0.53125 C 0.972656 0.613281 1.046875 0.679688 1.140625 0.734375 C 1.234375 0.796875 1.351562 0.84375 1.5 0.875 C 1.644531 0.914062 1.816406 0.9375 2.015625 0.9375 C 2.203125 0.9375 2.367188 0.914062 2.515625 0.875 C 2.671875 0.84375 2.800781 0.796875 2.90625 0.734375 C 3.007812 0.671875 3.085938 0.59375 3.140625 0.5 C 3.203125 0.414062 3.234375 0.320312 3.234375 0.21875 Z M 3.9375 -3.859375 L 3.9375 -3.59375 C 3.9375 -3.507812 3.882812 -3.453125 3.78125 -3.421875 L 3.328125 -3.359375 C 3.410156 -3.191406 3.453125 -3 3.453125 -2.78125 C 3.453125 -2.59375 3.414062 -2.414062 3.34375 -2.25 C 3.269531 -2.09375 3.164062 -1.957031 3.03125 -1.84375 C 2.90625 -1.726562 2.75 -1.640625 2.5625 -1.578125 C 2.375 -1.523438 2.171875 -1.5 1.953125 -1.5 C 1.765625 -1.5 1.585938 -1.519531 1.421875 -1.5625 C 1.335938 -1.507812 1.273438 -1.453125 1.234375 -1.390625 C 1.191406 -1.328125 1.171875 -1.269531 1.171875 -1.21875 C 1.171875 -1.113281 1.207031 -1.035156 1.28125 -0.984375 C 1.351562 -0.941406 1.453125 -0.910156 1.578125 -0.890625 C 1.710938 -0.867188 1.859375 -0.851562 2.015625 -0.84375 C 2.179688 -0.84375 2.347656 -0.835938 2.515625 -0.828125 C 2.691406 -0.816406 2.859375 -0.796875 3.015625 -0.765625 C 3.179688 -0.734375 3.328125 -0.679688 3.453125 -0.609375 C 3.578125 -0.546875 3.675781 -0.457031 3.75 -0.34375 C 3.832031 -0.226562 3.875 -0.078125 3.875 0.109375 C 3.875 0.273438 3.832031 0.4375 3.75 0.59375 C 3.664062 0.757812 3.539062 0.90625 3.375 1.03125 C 3.21875 1.15625 3.019531 1.253906 2.78125 1.328125 C 2.550781 1.410156 2.289062 1.453125 2 1.453125 C 1.707031 1.453125 1.453125 1.421875 1.234375 1.359375 C 1.015625 1.296875 0.832031 1.21875 0.6875 1.125 C 0.539062 1.03125 0.429688 0.914062 0.359375 0.78125 C 0.285156 0.65625 0.25 0.523438 0.25 0.390625 C 0.25 0.191406 0.3125 0.0234375 0.4375 -0.109375 C 0.5625 -0.253906 0.726562 -0.367188 0.9375 -0.453125 C 0.820312 -0.503906 0.726562 -0.570312 0.65625 -0.65625 C 0.582031 -0.75 0.546875 -0.867188 0.546875 -1.015625 C 0.546875 -1.078125 0.554688 -1.140625 0.578125 -1.203125 C 0.609375 -1.265625 0.644531 -1.328125 0.6875 -1.390625 C 0.726562 -1.453125 0.78125 -1.507812 0.84375 -1.5625 C 0.90625 -1.613281 0.976562 -1.660156 1.0625 -1.703125 C 0.863281 -1.816406 0.707031 -1.960938 0.59375 -2.140625 C 0.488281 -2.328125 0.4375 -2.539062 0.4375 -2.78125 C 0.4375 -2.976562 0.472656 -3.15625 0.546875 -3.3125 C 0.617188 -3.476562 0.722656 -3.613281 0.859375 -3.71875 C 0.992188 -3.832031 1.15625 -3.921875 1.34375 -3.984375 C 1.53125 -4.046875 1.734375 -4.078125 1.953125 -4.078125 C 2.128906 -4.078125 2.289062 -4.054688 2.4375 -4.015625 C 2.59375 -3.984375 2.734375 -3.929688 2.859375 -3.859375 Z M 3.9375 -3.859375 "/></g></g></g></g><g fill="#ffffff" fill-opacity="1"><g transform="translate(80.387457, 7.769153)"><g/></g></g><g fill="#ffffff" fill-opacity="1"><g transform="translate(84.400945, 7.769153)"><g><path d="M 4.703125 -1.171875 C 4.742188 -1.171875 4.785156 -1.15625 4.828125 -1.125 L 5.125 -0.796875 C 4.894531 -0.523438 4.613281 -0.3125 4.28125 -0.15625 C 3.945312 -0.0078125 3.546875 0.0625 3.078125 0.0625 C 2.671875 0.0625 2.300781 -0.00390625 1.96875 -0.140625 C 1.632812 -0.285156 1.347656 -0.484375 1.109375 -0.734375 C 0.878906 -0.992188 0.695312 -1.300781 0.5625 -1.65625 C 0.4375 -2.007812 0.375 -2.40625 0.375 -2.84375 C 0.375 -3.269531 0.441406 -3.660156 0.578125 -4.015625 C 0.710938 -4.367188 0.898438 -4.671875 1.140625 -4.921875 C 1.390625 -5.179688 1.679688 -5.378906 2.015625 -5.515625 C 2.359375 -5.660156 2.738281 -5.734375 3.15625 -5.734375 C 3.5625 -5.734375 3.914062 -5.664062 4.21875 -5.53125 C 4.53125 -5.40625 4.800781 -5.234375 5.03125 -5.015625 L 4.78125 -4.671875 C 4.769531 -4.640625 4.75 -4.613281 4.71875 -4.59375 C 4.695312 -4.582031 4.664062 -4.578125 4.625 -4.578125 C 4.570312 -4.578125 4.507812 -4.601562 4.4375 -4.65625 C 4.375 -4.707031 4.285156 -4.765625 4.171875 -4.828125 C 4.066406 -4.890625 3.929688 -4.945312 3.765625 -5 C 3.597656 -5.050781 3.394531 -5.078125 3.15625 -5.078125 C 2.851562 -5.078125 2.582031 -5.023438 2.34375 -4.921875 C 2.101562 -4.816406 1.894531 -4.664062 1.71875 -4.46875 C 1.539062 -4.28125 1.398438 -4.046875 1.296875 -3.765625 C 1.203125 -3.492188 1.15625 -3.1875 1.15625 -2.84375 C 1.15625 -2.488281 1.207031 -2.171875 1.3125 -1.890625 C 1.414062 -1.609375 1.554688 -1.375 1.734375 -1.1875 C 1.910156 -1 2.113281 -0.851562 2.34375 -0.75 C 2.582031 -0.644531 2.84375 -0.59375 3.125 -0.59375 C 3.289062 -0.59375 3.441406 -0.601562 3.578125 -0.625 C 3.710938 -0.644531 3.835938 -0.675781 3.953125 -0.71875 C 4.066406 -0.757812 4.171875 -0.8125 4.265625 -0.875 C 4.367188 -0.945312 4.472656 -1.023438 4.578125 -1.109375 C 4.617188 -1.148438 4.660156 -1.171875 4.703125 -1.171875 Z M 4.703125 -1.171875 "/></g></g></g><g fill="#ffffff" fill-opacity="1"><g transform="translate(91.595817, 7.769153)"><g><path d="M 3.25 -2.4375 C 3.25 -2.601562 3.222656 -2.753906 3.171875 -2.890625 C 3.128906 -3.023438 3.0625 -3.140625 2.96875 -3.234375 C 2.882812 -3.335938 2.773438 -3.414062 2.640625 -3.46875 C 2.515625 -3.53125 2.375 -3.5625 2.21875 -3.5625 C 1.882812 -3.5625 1.617188 -3.460938 1.421875 -3.265625 C 1.222656 -3.066406 1.097656 -2.789062 1.046875 -2.4375 Z M 3.8125 -0.5625 C 3.726562 -0.457031 3.625 -0.363281 3.5 -0.28125 C 3.375 -0.207031 3.242188 -0.144531 3.109375 -0.09375 C 2.972656 -0.0390625 2.828125 -0.00390625 2.671875 0.015625 C 2.523438 0.046875 2.378906 0.0625 2.234375 0.0625 C 1.960938 0.0625 1.707031 0.015625 1.46875 -0.078125 C 1.238281 -0.171875 1.035156 -0.304688 0.859375 -0.484375 C 0.691406 -0.671875 0.5625 -0.894531 0.46875 -1.15625 C 0.375 -1.425781 0.328125 -1.738281 0.328125 -2.09375 C 0.328125 -2.363281 0.367188 -2.617188 0.453125 -2.859375 C 0.546875 -3.109375 0.671875 -3.320312 0.828125 -3.5 C 0.984375 -3.675781 1.175781 -3.816406 1.40625 -3.921875 C 1.644531 -4.023438 1.910156 -4.078125 2.203125 -4.078125 C 2.441406 -4.078125 2.660156 -4.035156 2.859375 -3.953125 C 3.066406 -3.867188 3.242188 -3.75 3.390625 -3.59375 C 3.546875 -3.445312 3.664062 -3.257812 3.75 -3.03125 C 3.832031 -2.8125 3.875 -2.5625 3.875 -2.28125 C 3.875 -2.164062 3.863281 -2.085938 3.84375 -2.046875 C 3.820312 -2.015625 3.773438 -2 3.703125 -2 L 1.03125 -2 C 1.03125 -1.75 1.0625 -1.53125 1.125 -1.34375 C 1.1875 -1.15625 1.273438 -1 1.390625 -0.875 C 1.503906 -0.75 1.632812 -0.65625 1.78125 -0.59375 C 1.9375 -0.53125 2.109375 -0.5 2.296875 -0.5 C 2.472656 -0.5 2.625 -0.519531 2.75 -0.5625 C 2.882812 -0.601562 3 -0.644531 3.09375 -0.6875 C 3.1875 -0.738281 3.265625 -0.785156 3.328125 -0.828125 C 3.390625 -0.867188 3.441406 -0.890625 3.484375 -0.890625 C 3.535156 -0.890625 3.578125 -0.863281 3.609375 -0.8125 Z M 3.8125 -0.5625 "/></g></g></g><g fill="#ffffff" fill-opacity="1"><g transform="translate(97.7619, 7.769153)"><g><path d="M 1.21875 -3.4375 C 1.3125 -3.53125 1.40625 -3.613281 1.5 -3.6875 C 1.59375 -3.769531 1.691406 -3.835938 1.796875 -3.890625 C 1.910156 -3.953125 2.03125 -4 2.15625 -4.03125 C 2.28125 -4.0625 2.414062 -4.078125 2.5625 -4.078125 C 2.78125 -4.078125 2.972656 -4.039062 3.140625 -3.96875 C 3.304688 -3.894531 3.445312 -3.789062 3.5625 -3.65625 C 3.675781 -3.519531 3.757812 -3.359375 3.8125 -3.171875 C 3.875 -2.984375 3.90625 -2.78125 3.90625 -2.5625 L 3.90625 0 L 3.1875 0 L 3.1875 -2.5625 C 3.1875 -2.863281 3.117188 -3.097656 2.984375 -3.265625 C 2.847656 -3.429688 2.640625 -3.515625 2.359375 -3.515625 C 2.148438 -3.515625 1.953125 -3.460938 1.765625 -3.359375 C 1.585938 -3.265625 1.421875 -3.128906 1.265625 -2.953125 L 1.265625 0 L 0.5625 0 L 0.5625 -4.015625 L 0.984375 -4.015625 C 1.078125 -4.015625 1.140625 -3.960938 1.171875 -3.859375 Z M 1.21875 -3.4375 "/></g></g></g><g fill="#ffffff" fill-opacity="1"><g transform="translate(104.109989, 7.769153)"><g><path d="M 1.796875 0.0625 C 1.472656 0.0625 1.222656 -0.0234375 1.046875 -0.203125 C 0.878906 -0.378906 0.796875 -0.632812 0.796875 -0.96875 L 0.796875 -3.421875 L 0.328125 -3.421875 C 0.273438 -3.421875 0.234375 -3.429688 0.203125 -3.453125 C 0.179688 -3.484375 0.171875 -3.523438 0.171875 -3.578125 L 0.171875 -3.859375 L 0.828125 -3.9375 L 0.984375 -5.1875 C 0.992188 -5.21875 1.007812 -5.242188 1.03125 -5.265625 C 1.0625 -5.296875 1.101562 -5.3125 1.15625 -5.3125 L 1.515625 -5.3125 L 1.515625 -3.9375 L 2.671875 -3.9375 L 2.671875 -3.421875 L 1.515625 -3.421875 L 1.515625 -1.015625 C 1.515625 -0.847656 1.550781 -0.722656 1.625 -0.640625 C 1.707031 -0.554688 1.816406 -0.515625 1.953125 -0.515625 C 2.023438 -0.515625 2.085938 -0.523438 2.140625 -0.546875 C 2.191406 -0.566406 2.238281 -0.585938 2.28125 -0.609375 C 2.320312 -0.628906 2.351562 -0.648438 2.375 -0.671875 C 2.40625 -0.691406 2.429688 -0.703125 2.453125 -0.703125 C 2.492188 -0.703125 2.53125 -0.679688 2.5625 -0.640625 L 2.765625 -0.296875 C 2.640625 -0.179688 2.488281 -0.09375 2.3125 -0.03125 C 2.144531 0.03125 1.972656 0.0625 1.796875 0.0625 Z M 1.796875 0.0625 "/></g></g></g><g fill="#ffffff" fill-opacity="1"><g transform="translate(108.914867, 7.769153)"><g><path d="M 3.25 -2.4375 C 3.25 -2.601562 3.222656 -2.753906 3.171875 -2.890625 C 3.128906 -3.023438 3.0625 -3.140625 2.96875 -3.234375 C 2.882812 -3.335938 2.773438 -3.414062 2.640625 -3.46875 C 2.515625 -3.53125 2.375 -3.5625 2.21875 -3.5625 C 1.882812 -3.5625 1.617188 -3.460938 1.421875 -3.265625 C 1.222656 -3.066406 1.097656 -2.789062 1.046875 -2.4375 Z M 3.8125 -0.5625 C 3.726562 -0.457031 3.625 -0.363281 3.5 -0.28125 C 3.375 -0.207031 3.242188 -0.144531 3.109375 -0.09375 C 2.972656 -0.0390625 2.828125 -0.00390625 2.671875 0.015625 C 2.523438 0.046875 2.378906 0.0625 2.234375 0.0625 C 1.960938 0.0625 1.707031 0.015625 1.46875 -0.078125 C 1.238281 -0.171875 1.035156 -0.304688 0.859375 -0.484375 C 0.691406 -0.671875 0.5625 -0.894531 0.46875 -1.15625 C 0.375 -1.425781 0.328125 -1.738281 0.328125 -2.09375 C 0.328125 -2.363281 0.367188 -2.617188 0.453125 -2.859375 C 0.546875 -3.109375 0.671875 -3.320312 0.828125 -3.5 C 0.984375 -3.675781 1.175781 -3.816406 1.40625 -3.921875 C 1.644531 -4.023438 1.910156 -4.078125 2.203125 -4.078125 C 2.441406 -4.078125 2.660156 -4.035156 2.859375 -3.953125 C 3.066406 -3.867188 3.242188 -3.75 3.390625 -3.59375 C 3.546875 -3.445312 3.664062 -3.257812 3.75 -3.03125 C 3.832031 -2.8125 3.875 -2.5625 3.875 -2.28125 C 3.875 -2.164062 3.863281 -2.085938 3.84375 -2.046875 C 3.820312 -2.015625 3.773438 -2 3.703125 -2 L 1.03125 -2 C 1.03125 -1.75 1.0625 -1.53125 1.125 -1.34375 C 1.1875 -1.15625 1.273438 -1 1.390625 -0.875 C 1.503906 -0.75 1.632812 -0.65625 1.78125 -0.59375 C 1.9375 -0.53125 2.109375 -0.5 2.296875 -0.5 C 2.472656 -0.5 2.625 -0.519531 2.75 -0.5625 C 2.882812 -0.601562 3 -0.644531 3.09375 -0.6875 C 3.1875 -0.738281 3.265625 -0.785156 3.328125 -0.828125 C 3.390625 -0.867188 3.441406 -0.890625 3.484375 -0.890625 C 3.535156 -0.890625 3.578125 -0.863281 3.609375 -0.8125 Z M 3.8125 -0.5625 "/></g></g></g><g fill="#ffffff" fill-opacity="1"><g transform="translate(115.080949, 7.769153)"><g><path d="M 1.234375 -3.203125 C 1.359375 -3.484375 1.507812 -3.695312 1.6875 -3.84375 C 1.875 -4 2.101562 -4.078125 2.375 -4.078125 C 2.457031 -4.078125 2.535156 -4.066406 2.609375 -4.046875 C 2.691406 -4.035156 2.765625 -4.007812 2.828125 -3.96875 L 2.765625 -3.4375 C 2.753906 -3.375 2.71875 -3.34375 2.65625 -3.34375 C 2.613281 -3.34375 2.554688 -3.347656 2.484375 -3.359375 C 2.421875 -3.378906 2.34375 -3.390625 2.25 -3.390625 C 2.125 -3.390625 2.007812 -3.367188 1.90625 -3.328125 C 1.8125 -3.296875 1.722656 -3.242188 1.640625 -3.171875 C 1.566406 -3.097656 1.5 -3.003906 1.4375 -2.890625 C 1.375 -2.785156 1.316406 -2.664062 1.265625 -2.53125 L 1.265625 0 L 0.5625 0 L 0.5625 -4.015625 L 0.96875 -4.015625 C 1.039062 -4.015625 1.09375 -4 1.125 -3.96875 C 1.15625 -3.9375 1.175781 -3.882812 1.1875 -3.8125 Z M 1.234375 -3.203125 "/></g></g></g></g></g></svg>