<svg xmlns="http://www.w3.org/2000/svg" xmlns:xlink="http://www.w3.org/1999/xlink" width="580" zoomAndPan="magnify" viewBox="0 0 434.88 434.999989" height="580" preserveAspectRatio="xMidYMid meet" version="1.0"><defs><clipPath id="99c07532f3"><path d="M 176 156 L 263 156 L 263 311 L 176 311 Z M 176 156 " clip-rule="nonzero"/></clipPath><clipPath id="e7373797d2"><path d="M 190.898438 107.828125 L 319.804688 184.445312 L 244.335938 311.417969 L 115.429688 234.800781 Z M 190.898438 107.828125 " clip-rule="nonzero"/></clipPath><clipPath id="d2fb42d45c"><path d="M 190.898438 107.828125 L 319.804688 184.445312 L 244.335938 311.417969 L 115.429688 234.800781 Z M 190.898438 107.828125 " clip-rule="nonzero"/></clipPath><clipPath id="20efc7c2ce"><path d="M 175 155 L 264 155 L 264 312 L 175 312 Z M 175 155 " clip-rule="nonzero"/></clipPath><clipPath id="41fbf79464"><path d="M 190.898438 107.828125 L 319.804688 184.445312 L 244.335938 311.417969 L 115.429688 234.800781 Z M 190.898438 107.828125 " clip-rule="nonzero"/></clipPath><clipPath id="38fdd1ba8c"><path d="M 190.898438 107.828125 L 319.804688 184.445312 L 244.335938 311.417969 L 115.429688 234.800781 Z M 190.898438 107.828125 " clip-rule="nonzero"/></clipPath><clipPath id="02a3182392"><path d="M 173 245 L 234 245 L 234 267 L 173 267 Z M 173 245 " clip-rule="nonzero"/></clipPath><clipPath id="2b552310bc"><path d="M 190.898438 107.828125 L 319.804688 184.445312 L 244.335938 311.417969 L 115.429688 234.800781 Z M 190.898438 107.828125 " clip-rule="nonzero"/></clipPath><clipPath id="80ec6c68b0"><path d="M 190.898438 107.828125 L 319.804688 184.445312 L 244.335938 311.417969 L 115.429688 234.800781 Z M 190.898438 107.828125 " clip-rule="nonzero"/></clipPath><clipPath id="7b1d736224"><path d="M 172 244 L 235 244 L 235 268 L 172 268 Z M 172 244 " clip-rule="nonzero"/></clipPath><clipPath id="34c270bbb1"><path d="M 190.898438 107.828125 L 319.804688 184.445312 L 244.335938 311.417969 L 115.429688 234.800781 Z M 190.898438 107.828125 " clip-rule="nonzero"/></clipPath><clipPath id="59fd5792da"><path d="M 190.898438 107.828125 L 319.804688 184.445312 L 244.335938 311.417969 L 115.429688 234.800781 Z M 190.898438 107.828125 " clip-rule="nonzero"/></clipPath><clipPath id="c92998c95d"><path d="M 231 226 L 263 226 L 263 311 L 231 311 Z M 231 226 " clip-rule="nonzero"/></clipPath><clipPath id="052d576907"><path d="M 190.898438 107.828125 L 319.804688 184.445312 L 244.335938 311.417969 L 115.429688 234.800781 Z M 190.898438 107.828125 " clip-rule="nonzero"/></clipPath><clipPath id="ec9d526978"><path d="M 190.898438 107.828125 L 319.804688 184.445312 L 244.335938 311.417969 L 115.429688 234.800781 Z M 190.898438 107.828125 " clip-rule="nonzero"/></clipPath><clipPath id="ef11e47907"><path d="M 230 225 L 264 225 L 264 312 L 230 312 Z M 230 225 " clip-rule="nonzero"/></clipPath><clipPath id="d3b145d39f"><path d="M 190.898438 107.828125 L 319.804688 184.445312 L 244.335938 311.417969 L 115.429688 234.800781 Z M 190.898438 107.828125 " clip-rule="nonzero"/></clipPath><clipPath id="a850e28234"><path d="M 190.898438 107.828125 L 319.804688 184.445312 L 244.335938 311.417969 L 115.429688 234.800781 Z M 190.898438 107.828125 " clip-rule="nonzero"/></clipPath><clipPath id="ea90d5b6fb"><path d="M 238 142 L 260 142 L 260 227 L 238 227 Z M 238 142 " clip-rule="nonzero"/></clipPath><clipPath id="d6cb00054b"><path d="M 190.898438 107.828125 L 319.804688 184.445312 L 244.335938 311.417969 L 115.429688 234.800781 Z M 190.898438 107.828125 " clip-rule="nonzero"/></clipPath><clipPath id="b782445da2"><path d="M 190.898438 107.828125 L 319.804688 184.445312 L 244.335938 311.417969 L 115.429688 234.800781 Z M 190.898438 107.828125 " clip-rule="nonzero"/></clipPath><clipPath id="93aa9874be"><path d="M 237 141 L 261 141 L 261 228 L 237 228 Z M 237 141 " clip-rule="nonzero"/></clipPath><clipPath id="1ffe0588a9"><path d="M 190.898438 107.828125 L 319.804688 184.445312 L 244.335938 311.417969 L 115.429688 234.800781 Z M 190.898438 107.828125 " clip-rule="nonzero"/></clipPath><clipPath id="c66b049c59"><path d="M 190.898438 107.828125 L 319.804688 184.445312 L 244.335938 311.417969 L 115.429688 234.800781 Z M 190.898438 107.828125 " clip-rule="nonzero"/></clipPath><clipPath id="6ab0b1ecc6"><path d="M 164 142 L 252 142 L 252 297 L 164 297 Z M 164 142 " clip-rule="nonzero"/></clipPath><clipPath id="ed84d18b12"><path d="M 190.898438 107.828125 L 319.804688 184.445312 L 244.335938 311.417969 L 115.429688 234.800781 Z M 190.898438 107.828125 " clip-rule="nonzero"/></clipPath><clipPath id="d53827f161"><path d="M 190.898438 107.828125 L 319.804688 184.445312 L 244.335938 311.417969 L 115.429688 234.800781 Z M 190.898438 107.828125 " clip-rule="nonzero"/></clipPath><clipPath id="b00e28f50f"><path d="M 163 141 L 252 141 L 252 298 L 163 298 Z M 163 141 " clip-rule="nonzero"/></clipPath><clipPath id="2cc58e1ba9"><path d="M 190.898438 107.828125 L 319.804688 184.445312 L 244.335938 311.417969 L 115.429688 234.800781 Z M 190.898438 107.828125 " clip-rule="nonzero"/></clipPath><clipPath id="1a6917c9c9"><path d="M 190.898438 107.828125 L 319.804688 184.445312 L 244.335938 311.417969 L 115.429688 234.800781 Z M 190.898438 107.828125 " clip-rule="nonzero"/></clipPath><clipPath id="ced333bef0"><path d="M 247 142 L 260 142 L 260 157 L 247 157 Z M 247 142 " clip-rule="nonzero"/></clipPath><clipPath id="7a8c84cb85"><path d="M 190.898438 107.828125 L 319.804688 184.445312 L 244.335938 311.417969 L 115.429688 234.800781 Z M 190.898438 107.828125 " clip-rule="nonzero"/></clipPath><clipPath id="4f7047f435"><path d="M 190.898438 107.828125 L 319.804688 184.445312 L 244.335938 311.417969 L 115.429688 234.800781 Z M 190.898438 107.828125 " clip-rule="nonzero"/></clipPath><clipPath id="e92f22a113"><path d="M 246 149 L 259 149 L 259 164 L 246 164 Z M 246 149 " clip-rule="nonzero"/></clipPath><clipPath id="69919ef506"><path d="M 190.898438 107.828125 L 319.804688 184.445312 L 244.335938 311.417969 L 115.429688 234.800781 Z M 190.898438 107.828125 " clip-rule="nonzero"/></clipPath><clipPath id="5064b59851"><path d="M 190.898438 107.828125 L 319.804688 184.445312 L 244.335938 311.417969 L 115.429688 234.800781 Z M 190.898438 107.828125 " clip-rule="nonzero"/></clipPath><clipPath id="446231bc75"><path d="M 245 156 L 259 156 L 259 172 L 245 172 Z M 245 156 " clip-rule="nonzero"/></clipPath><clipPath id="8385e216eb"><path d="M 190.898438 107.828125 L 319.804688 184.445312 L 244.335938 311.417969 L 115.429688 234.800781 Z M 190.898438 107.828125 " clip-rule="nonzero"/></clipPath><clipPath id="db8182dc5c"><path d="M 190.898438 107.828125 L 319.804688 184.445312 L 244.335938 311.417969 L 115.429688 234.800781 Z M 190.898438 107.828125 " clip-rule="nonzero"/></clipPath><clipPath id="f720980bab"><path d="M 244 163 L 258 163 L 258 179 L 244 179 Z M 244 163 " clip-rule="nonzero"/></clipPath><clipPath id="10aab2babf"><path d="M 190.898438 107.828125 L 319.804688 184.445312 L 244.335938 311.417969 L 115.429688 234.800781 Z M 190.898438 107.828125 " clip-rule="nonzero"/></clipPath><clipPath id="16890d3830"><path d="M 190.898438 107.828125 L 319.804688 184.445312 L 244.335938 311.417969 L 115.429688 234.800781 Z M 190.898438 107.828125 " clip-rule="nonzero"/></clipPath><clipPath id="2cb0b67e55"><path d="M 243 170 L 257 170 L 257 186 L 243 186 Z M 243 170 " clip-rule="nonzero"/></clipPath><clipPath id="14d6e42f1c"><path d="M 190.898438 107.828125 L 319.804688 184.445312 L 244.335938 311.417969 L 115.429688 234.800781 Z M 190.898438 107.828125 " clip-rule="nonzero"/></clipPath><clipPath id="79bfe30b25"><path d="M 190.898438 107.828125 L 319.804688 184.445312 L 244.335938 311.417969 L 115.429688 234.800781 Z M 190.898438 107.828125 " clip-rule="nonzero"/></clipPath><clipPath id="42a59a00bf"><path d="M 242 177 L 256 177 L 256 193 L 242 193 Z M 242 177 " clip-rule="nonzero"/></clipPath><clipPath id="5664851b0c"><path d="M 190.898438 107.828125 L 319.804688 184.445312 L 244.335938 311.417969 L 115.429688 234.800781 Z M 190.898438 107.828125 " clip-rule="nonzero"/></clipPath><clipPath id="c0bc27df3a"><path d="M 190.898438 107.828125 L 319.804688 184.445312 L 244.335938 311.417969 L 115.429688 234.800781 Z M 190.898438 107.828125 " clip-rule="nonzero"/></clipPath><clipPath id="d10584aa26"><path d="M 241 184 L 255 184 L 255 200 L 241 200 Z M 241 184 " clip-rule="nonzero"/></clipPath><clipPath id="0b20a2414f"><path d="M 190.898438 107.828125 L 319.804688 184.445312 L 244.335938 311.417969 L 115.429688 234.800781 Z M 190.898438 107.828125 " clip-rule="nonzero"/></clipPath><clipPath id="6255d2cf1d"><path d="M 190.898438 107.828125 L 319.804688 184.445312 L 244.335938 311.417969 L 115.429688 234.800781 Z M 190.898438 107.828125 " clip-rule="nonzero"/></clipPath><clipPath id="2068ecb1c1"><path d="M 240 192 L 254 192 L 254 208 L 240 208 Z M 240 192 " clip-rule="nonzero"/></clipPath><clipPath id="d10c9f4b9b"><path d="M 190.898438 107.828125 L 319.804688 184.445312 L 244.335938 311.417969 L 115.429688 234.800781 Z M 190.898438 107.828125 " clip-rule="nonzero"/></clipPath><clipPath id="8870f7ed0f"><path d="M 190.898438 107.828125 L 319.804688 184.445312 L 244.335938 311.417969 L 115.429688 234.800781 Z M 190.898438 107.828125 " clip-rule="nonzero"/></clipPath><clipPath id="fe930f4088"><path d="M 239 199 L 253 199 L 253 215 L 239 215 Z M 239 199 " clip-rule="nonzero"/></clipPath><clipPath id="44244c4cdf"><path d="M 190.898438 107.828125 L 319.804688 184.445312 L 244.335938 311.417969 L 115.429688 234.800781 Z M 190.898438 107.828125 " clip-rule="nonzero"/></clipPath><clipPath id="55bc9671a9"><path d="M 190.898438 107.828125 L 319.804688 184.445312 L 244.335938 311.417969 L 115.429688 234.800781 Z M 190.898438 107.828125 " clip-rule="nonzero"/></clipPath><clipPath id="2aab3314d3"><path d="M 238 206 L 252 206 L 252 222 L 238 222 Z M 238 206 " clip-rule="nonzero"/></clipPath><clipPath id="4033033ac3"><path d="M 190.898438 107.828125 L 319.804688 184.445312 L 244.335938 311.417969 L 115.429688 234.800781 Z M 190.898438 107.828125 " clip-rule="nonzero"/></clipPath><clipPath id="86d180d213"><path d="M 190.898438 107.828125 L 319.804688 184.445312 L 244.335938 311.417969 L 115.429688 234.800781 Z M 190.898438 107.828125 " clip-rule="nonzero"/></clipPath><clipPath id="6061379746"><path d="M 250 226 L 264 226 L 264 241 L 250 241 Z M 250 226 " clip-rule="nonzero"/></clipPath><clipPath id="b1d1529241"><path d="M 190.898438 107.828125 L 319.804688 184.445312 L 244.335938 311.417969 L 115.429688 234.800781 Z M 190.898438 107.828125 " clip-rule="nonzero"/></clipPath><clipPath id="afb9b3ea00"><path d="M 190.898438 107.828125 L 319.804688 184.445312 L 244.335938 311.417969 L 115.429688 234.800781 Z M 190.898438 107.828125 " clip-rule="nonzero"/></clipPath><clipPath id="26e4b96a51"><path d="M 248 232 L 262 232 L 262 248 L 248 248 Z M 248 232 " clip-rule="nonzero"/></clipPath><clipPath id="c6a7e6b11d"><path d="M 190.898438 107.828125 L 319.804688 184.445312 L 244.335938 311.417969 L 115.429688 234.800781 Z M 190.898438 107.828125 " clip-rule="nonzero"/></clipPath><clipPath id="fe356bcc1a"><path d="M 190.898438 107.828125 L 319.804688 184.445312 L 244.335938 311.417969 L 115.429688 234.800781 Z M 190.898438 107.828125 " clip-rule="nonzero"/></clipPath><clipPath id="681e561d4f"><path d="M 247 238 L 261 238 L 261 254 L 247 254 Z M 247 238 " clip-rule="nonzero"/></clipPath><clipPath id="b8b9a7943b"><path d="M 190.898438 107.828125 L 319.804688 184.445312 L 244.335938 311.417969 L 115.429688 234.800781 Z M 190.898438 107.828125 " clip-rule="nonzero"/></clipPath><clipPath id="2b3a2aeaa7"><path d="M 190.898438 107.828125 L 319.804688 184.445312 L 244.335938 311.417969 L 115.429688 234.800781 Z M 190.898438 107.828125 " clip-rule="nonzero"/></clipPath><clipPath id="6643983893"><path d="M 245 244 L 259 244 L 259 260 L 245 260 Z M 245 244 " clip-rule="nonzero"/></clipPath><clipPath id="ea27973208"><path d="M 190.898438 107.828125 L 319.804688 184.445312 L 244.335938 311.417969 L 115.429688 234.800781 Z M 190.898438 107.828125 " clip-rule="nonzero"/></clipPath><clipPath id="f3c196f334"><path d="M 190.898438 107.828125 L 319.804688 184.445312 L 244.335938 311.417969 L 115.429688 234.800781 Z M 190.898438 107.828125 " clip-rule="nonzero"/></clipPath><clipPath id="675bd14310"><path d="M 243 251 L 257 251 L 257 266 L 243 266 Z M 243 251 " clip-rule="nonzero"/></clipPath><clipPath id="6d6961f111"><path d="M 190.898438 107.828125 L 319.804688 184.445312 L 244.335938 311.417969 L 115.429688 234.800781 Z M 190.898438 107.828125 " clip-rule="nonzero"/></clipPath><clipPath id="b8209ddaf8"><path d="M 190.898438 107.828125 L 319.804688 184.445312 L 244.335938 311.417969 L 115.429688 234.800781 Z M 190.898438 107.828125 " clip-rule="nonzero"/></clipPath><clipPath id="1c30b6b326"><path d="M 241 257 L 255 257 L 255 273 L 241 273 Z M 241 257 " clip-rule="nonzero"/></clipPath><clipPath id="1ac8973088"><path d="M 190.898438 107.828125 L 319.804688 184.445312 L 244.335938 311.417969 L 115.429688 234.800781 Z M 190.898438 107.828125 " clip-rule="nonzero"/></clipPath><clipPath id="c6c517dc13"><path d="M 190.898438 107.828125 L 319.804688 184.445312 L 244.335938 311.417969 L 115.429688 234.800781 Z M 190.898438 107.828125 " clip-rule="nonzero"/></clipPath><clipPath id="5d0d3802dd"><path d="M 240 263 L 254 263 L 254 279 L 240 279 Z M 240 263 " clip-rule="nonzero"/></clipPath><clipPath id="0ab97301c4"><path d="M 190.898438 107.828125 L 319.804688 184.445312 L 244.335938 311.417969 L 115.429688 234.800781 Z M 190.898438 107.828125 " clip-rule="nonzero"/></clipPath><clipPath id="40cc534b81"><path d="M 190.898438 107.828125 L 319.804688 184.445312 L 244.335938 311.417969 L 115.429688 234.800781 Z M 190.898438 107.828125 " clip-rule="nonzero"/></clipPath><clipPath id="c03d871a1e"><path d="M 238 269 L 252 269 L 252 285 L 238 285 Z M 238 269 " clip-rule="nonzero"/></clipPath><clipPath id="fbf65b8e79"><path d="M 190.898438 107.828125 L 319.804688 184.445312 L 244.335938 311.417969 L 115.429688 234.800781 Z M 190.898438 107.828125 " clip-rule="nonzero"/></clipPath><clipPath id="35e9213cc1"><path d="M 190.898438 107.828125 L 319.804688 184.445312 L 244.335938 311.417969 L 115.429688 234.800781 Z M 190.898438 107.828125 " clip-rule="nonzero"/></clipPath><clipPath id="e8981d3304"><path d="M 236 276 L 250 276 L 250 291 L 236 291 Z M 236 276 " clip-rule="nonzero"/></clipPath><clipPath id="ddd53bee99"><path d="M 190.898438 107.828125 L 319.804688 184.445312 L 244.335938 311.417969 L 115.429688 234.800781 Z M 190.898438 107.828125 " clip-rule="nonzero"/></clipPath><clipPath id="b4f5582654"><path d="M 190.898438 107.828125 L 319.804688 184.445312 L 244.335938 311.417969 L 115.429688 234.800781 Z M 190.898438 107.828125 " clip-rule="nonzero"/></clipPath><clipPath id="5fa36f1de7"><path d="M 235 282 L 248 282 L 248 298 L 235 298 Z M 235 282 " clip-rule="nonzero"/></clipPath><clipPath id="94636cc0be"><path d="M 190.898438 107.828125 L 319.804688 184.445312 L 244.335938 311.417969 L 115.429688 234.800781 Z M 190.898438 107.828125 " clip-rule="nonzero"/></clipPath><clipPath id="94cf9f1962"><path d="M 190.898438 107.828125 L 319.804688 184.445312 L 244.335938 311.417969 L 115.429688 234.800781 Z M 190.898438 107.828125 " clip-rule="nonzero"/></clipPath><clipPath id="12d3e6c5e1"><path d="M 233 288 L 247 288 L 247 304 L 233 304 Z M 233 288 " clip-rule="nonzero"/></clipPath><clipPath id="92fbb77753"><path d="M 190.898438 107.828125 L 319.804688 184.445312 L 244.335938 311.417969 L 115.429688 234.800781 Z M 190.898438 107.828125 " clip-rule="nonzero"/></clipPath><clipPath id="2dc3414b1f"><path d="M 190.898438 107.828125 L 319.804688 184.445312 L 244.335938 311.417969 L 115.429688 234.800781 Z M 190.898438 107.828125 " clip-rule="nonzero"/></clipPath><clipPath id="8c7320ad27"><path d="M 231 294 L 245 294 L 245 310 L 231 310 Z M 231 294 " clip-rule="nonzero"/></clipPath><clipPath id="08a4728c17"><path d="M 190.898438 107.828125 L 319.804688 184.445312 L 244.335938 311.417969 L 115.429688 234.800781 Z M 190.898438 107.828125 " clip-rule="nonzero"/></clipPath><clipPath id="59ceb5b870"><path d="M 190.898438 107.828125 L 319.804688 184.445312 L 244.335938 311.417969 L 115.429688 234.800781 Z M 190.898438 107.828125 " clip-rule="nonzero"/></clipPath></defs><g clip-path="url(#99c07532f3)"><g clip-path="url(#e7373797d2)"><g clip-path="url(#d2fb42d45c)"><path fill="#ffffff" d="M 243.550781 310.382812 L 233.351562 266.527344 L 185.464844 259.425781 L 176.109375 168.195312 L 259.332031 156.179688 L 250.179688 226.722656 L 262.871094 240.285156 Z M 243.550781 310.382812 " fill-opacity="1" fill-rule="nonzero"/></g></g></g><g clip-path="url(#20efc7c2ce)"><g clip-path="url(#41fbf79464)"><g clip-path="url(#38fdd1ba8c)"><path fill="#ffffff" d="M 243.113281 311.113281 C 242.90625 310.992188 242.773438 310.8125 242.71875 310.574219 L 232.648438 267.289062 L 185.34375 260.265625 C 185.148438 260.242188 184.984375 260.15625 184.851562 260.015625 C 184.714844 259.875 184.636719 259.707031 184.621094 259.511719 L 175.265625 168.28125 C 175.238281 168.054688 175.296875 167.851562 175.4375 167.667969 C 175.578125 167.488281 175.761719 167.382812 175.988281 167.351562 L 259.226562 155.34375 C 259.359375 155.324219 259.488281 155.335938 259.617188 155.375 C 259.742188 155.417969 259.855469 155.488281 259.949219 155.582031 C 260.042969 155.675781 260.113281 155.785156 260.15625 155.910156 C 260.199219 156.039062 260.210938 156.167969 260.195312 156.300781 L 251.078125 226.433594 L 263.496094 239.703125 C 263.699219 239.929688 263.765625 240.1875 263.695312 240.484375 L 244.367188 310.582031 C 244.335938 310.710938 244.273438 310.828125 244.183594 310.925781 C 244.09375 311.027344 243.988281 311.101562 243.867188 311.148438 C 243.742188 311.199219 243.613281 311.21875 243.480469 311.207031 C 243.347656 311.195312 243.222656 311.15625 243.109375 311.085938 Z M 233.789062 265.792969 C 233.996094 265.917969 234.125 266.097656 234.179688 266.332031 L 243.617188 306.914062 L 261.910156 240.507812 L 249.546875 227.296875 C 249.347656 227.105469 249.265625 226.871094 249.304688 226.597656 L 258.300781 157.167969 L 177.042969 168.921875 L 186.257812 258.660156 L 233.484375 265.667969 C 233.59375 265.6875 233.695312 265.730469 233.789062 265.792969 Z M 233.789062 265.792969 " fill-opacity="1" fill-rule="nonzero"/></g></g></g><g clip-path="url(#02a3182392)"><g clip-path="url(#2b552310bc)"><g clip-path="url(#80ec6c68b0)"><path fill="#ffffff" d="M 221.585938 252.917969 L 233.351562 266.527344 L 185.464844 259.425781 L 173.703125 245.816406 Z M 221.585938 252.917969 " fill-opacity="1" fill-rule="nonzero"/></g></g></g><g clip-path="url(#7b1d736224)"><g clip-path="url(#34c270bbb1)"><g clip-path="url(#59fd5792da)"><path fill="#ffffff" d="M 185.03125 260.160156 C 184.953125 260.113281 184.882812 260.054688 184.824219 259.984375 L 173.058594 246.375 C 172.941406 246.242188 172.875 246.085938 172.855469 245.90625 C 172.835938 245.730469 172.871094 245.5625 172.957031 245.40625 C 173.042969 245.25 173.164062 245.132812 173.324219 245.054688 C 173.484375 244.972656 173.652344 244.945312 173.828125 244.972656 L 221.710938 252.078125 C 221.90625 252.117188 222.070312 252.214844 222.199219 252.367188 L 233.960938 265.976562 C 234.078125 266.113281 234.148438 266.269531 234.167969 266.445312 C 234.183594 266.621094 234.152344 266.789062 234.066406 266.945312 C 233.980469 267.101562 233.859375 267.21875 233.699219 267.300781 C 233.539062 267.378906 233.371094 267.40625 233.195312 267.378906 L 185.3125 260.273438 C 185.210938 260.253906 185.117188 260.21875 185.03125 260.160156 Z M 175.851562 246.996094 L 185.90625 258.628906 L 231.195312 265.34375 L 221.140625 253.710938 Z M 175.851562 246.996094 " fill-opacity="1" fill-rule="nonzero"/></g></g></g><g clip-path="url(#c92998c95d)"><g clip-path="url(#052d576907)"><g clip-path="url(#ec9d526978)"><path fill="#ffffff" d="M 251.109375 226.675781 L 262.871094 240.285156 L 243.550781 310.382812 L 231.785156 296.773438 Z M 251.109375 226.675781 " fill-opacity="1" fill-rule="nonzero"/></g></g></g><g clip-path="url(#ef11e47907)"><g clip-path="url(#d3b145d39f)"><g clip-path="url(#a850e28234)"><path fill="#ffffff" d="M 243.113281 311.113281 C 243.035156 311.070312 242.964844 311.011719 242.902344 310.945312 L 231.140625 297.335938 C 230.9375 297.109375 230.871094 296.847656 230.941406 296.554688 L 250.289062 226.449219 C 250.378906 226.117188 250.589844 225.917969 250.925781 225.84375 C 251.257812 225.769531 251.535156 225.859375 251.753906 226.121094 L 263.519531 239.730469 C 263.726562 239.953125 263.792969 240.214844 263.71875 240.511719 L 244.394531 310.609375 C 244.300781 310.9375 244.085938 311.136719 243.757812 311.210938 C 243.527344 311.269531 243.316406 311.238281 243.113281 311.113281 Z M 232.734375 296.558594 L 243.148438 308.617188 L 261.929688 240.5 L 251.507812 228.441406 Z M 232.734375 296.558594 " fill-opacity="1" fill-rule="nonzero"/></g></g></g><g clip-path="url(#ea90d5b6fb)"><g clip-path="url(#d6cb00054b)"><g clip-path="url(#b782445da2)"><path fill="#ffffff" d="M 250.179688 226.722656 L 238.417969 213.113281 L 247.570312 142.570312 L 259.332031 156.179688 Z M 250.179688 226.722656 " fill-opacity="1" fill-rule="nonzero"/></g></g></g><g clip-path="url(#93aa9874be)"><g clip-path="url(#1ffe0588a9)"><g clip-path="url(#c66b049c59)"><path fill="#ffffff" d="M 249.746094 227.453125 C 249.667969 227.410156 249.597656 227.351562 249.535156 227.285156 L 237.773438 213.675781 C 237.609375 213.480469 237.542969 213.257812 237.574219 213.007812 L 246.722656 142.457031 C 246.765625 142.089844 246.964844 141.855469 247.320312 141.753906 C 247.675781 141.644531 247.972656 141.730469 248.210938 142.011719 L 259.976562 155.621094 C 260.144531 155.8125 260.210938 156.035156 260.175781 156.289062 L 251.027344 226.832031 C 251.011719 226.976562 250.960938 227.105469 250.875 227.222656 C 250.792969 227.339844 250.683594 227.429688 250.554688 227.492188 C 250.425781 227.554688 250.289062 227.585938 250.144531 227.578125 C 250.003906 227.570312 249.867188 227.53125 249.746094 227.453125 Z M 239.3125 212.84375 L 249.582031 224.722656 L 258.410156 156.429688 L 248.164062 144.578125 Z M 239.3125 212.84375 " fill-opacity="1" fill-rule="nonzero"/></g></g></g><g clip-path="url(#6ab0b1ecc6)"><g clip-path="url(#ed84d18b12)"><g clip-path="url(#d53827f161)"><path fill="#e0d045" d="M 231.785156 296.773438 L 221.585938 252.917969 L 173.703125 245.816406 L 164.347656 154.585938 L 247.570312 142.570312 L 238.417969 213.113281 L 251.109375 226.675781 Z M 231.785156 296.773438 " fill-opacity="1" fill-rule="nonzero"/></g></g></g><g clip-path="url(#b00e28f50f)"><g clip-path="url(#2cc58e1ba9)"><g clip-path="url(#1a6917c9c9)"><path fill="#ffffff" d="M 231.351562 297.503906 C 231.140625 297.382812 231.011719 297.203125 230.957031 296.964844 L 220.882812 253.679688 L 173.578125 246.65625 C 173.386719 246.632812 173.222656 246.546875 173.085938 246.40625 C 172.953125 246.265625 172.875 246.097656 172.855469 245.902344 L 163.5 154.671875 C 163.476562 154.445312 163.535156 154.242188 163.675781 154.058594 C 163.816406 153.878906 164 153.773438 164.226562 153.742188 L 247.445312 141.722656 C 247.722656 141.683594 247.964844 141.761719 248.164062 141.957031 C 248.359375 142.15625 248.4375 142.394531 248.402344 142.671875 L 239.316406 212.824219 L 251.730469 226.09375 C 251.9375 226.320312 252.003906 226.578125 251.929688 226.875 L 232.605469 296.972656 C 232.570312 297.101562 232.507812 297.21875 232.421875 297.316406 C 232.332031 297.417969 232.226562 297.492188 232.101562 297.539062 C 231.976562 297.589844 231.851562 297.609375 231.71875 297.597656 C 231.585938 297.585938 231.460938 297.546875 231.347656 297.476562 Z M 222.023438 252.183594 C 222.230469 252.308594 222.363281 252.488281 222.417969 252.722656 L 231.855469 293.304688 L 250.148438 226.898438 L 237.785156 213.6875 C 237.582031 213.496094 237.503906 213.261719 237.539062 212.988281 L 246.539062 143.558594 L 165.277344 155.3125 L 174.496094 245.050781 L 221.722656 252.058594 C 221.832031 252.078125 221.933594 252.121094 222.023438 252.183594 Z M 222.023438 252.183594 " fill-opacity="1" fill-rule="nonzero"/></g></g></g><g clip-path="url(#ced333bef0)"><g clip-path="url(#7a8c84cb85)"><g clip-path="url(#4f7047f435)"><path fill="#ffffff" d="M 259.042969 156.667969 C 258.988281 156.636719 258.941406 156.597656 258.902344 156.550781 L 247.136719 142.941406 C 247.035156 142.820312 246.988281 142.683594 247 142.527344 C 247.011719 142.371094 247.074219 142.242188 247.195312 142.136719 C 247.3125 142.035156 247.449219 141.988281 247.609375 142 C 247.765625 142.011719 247.894531 142.074219 247.996094 142.195312 L 259.761719 155.804688 C 259.851562 155.910156 259.898438 156.03125 259.902344 156.171875 C 259.902344 156.3125 259.859375 156.433594 259.769531 156.542969 C 259.679688 156.648438 259.566406 156.714844 259.429688 156.738281 C 259.292969 156.761719 259.164062 156.738281 259.042969 156.667969 Z M 259.042969 156.667969 " fill-opacity="1" fill-rule="nonzero"/></g></g></g><g clip-path="url(#e92f22a113)"><g clip-path="url(#69919ef506)"><g clip-path="url(#5064b59851)"><path fill="#ffffff" d="M 258.113281 163.84375 C 258.058594 163.8125 258.011719 163.773438 257.96875 163.726562 L 246.207031 150.117188 C 246.105469 150 246.058594 149.859375 246.070312 149.703125 C 246.082031 149.546875 246.144531 149.417969 246.265625 149.3125 C 246.382812 149.210938 246.519531 149.164062 246.675781 149.175781 C 246.835938 149.1875 246.964844 149.253906 247.066406 149.371094 L 258.832031 162.980469 C 258.921875 163.085938 258.96875 163.207031 258.972656 163.347656 C 258.972656 163.488281 258.929688 163.609375 258.839844 163.71875 C 258.75 163.824219 258.636719 163.890625 258.5 163.914062 C 258.363281 163.9375 258.234375 163.914062 258.113281 163.84375 Z M 258.113281 163.84375 " fill-opacity="1" fill-rule="nonzero"/></g></g></g><g clip-path="url(#446231bc75)"><g clip-path="url(#8385e216eb)"><g clip-path="url(#db8182dc5c)"><path fill="#ffffff" d="M 257.183594 171.019531 C 257.125 171 257.070312 170.96875 257.027344 170.925781 L 245.261719 157.316406 C 245.160156 157.199219 245.113281 157.0625 245.125 156.90625 C 245.136719 156.746094 245.199219 156.617188 245.320312 156.515625 C 245.4375 156.414062 245.574219 156.367188 245.734375 156.378906 C 245.890625 156.386719 246.019531 156.453125 246.121094 156.570312 L 257.886719 170.179688 C 258.007812 170.28125 258.078125 170.414062 258.09375 170.570312 C 258.109375 170.730469 258.066406 170.867188 257.964844 170.992188 C 257.863281 171.113281 257.734375 171.183594 257.574219 171.199219 C 257.417969 171.214844 257.277344 171.171875 257.152344 171.070312 Z M 257.183594 171.019531 " fill-opacity="1" fill-rule="nonzero"/></g></g></g><g clip-path="url(#f720980bab)"><g clip-path="url(#10aab2babf)"><g clip-path="url(#16890d3830)"><path fill="#ffffff" d="M 256.253906 178.191406 C 256.199219 178.160156 256.148438 178.121094 256.109375 178.070312 L 244.34375 164.460938 C 244.242188 164.34375 244.195312 164.207031 244.207031 164.046875 C 244.21875 163.890625 244.28125 163.761719 244.402344 163.660156 C 244.519531 163.554688 244.660156 163.511719 244.816406 163.519531 C 244.972656 163.53125 245.101562 163.597656 245.203125 163.714844 L 256.96875 177.324219 C 257.09375 177.425781 257.164062 177.550781 257.183594 177.710938 C 257.199219 177.867188 257.160156 178.007812 257.0625 178.132812 C 256.964844 178.257812 256.835938 178.328125 256.675781 178.34375 C 256.519531 178.363281 256.378906 178.324219 256.253906 178.226562 Z M 256.253906 178.191406 " fill-opacity="1" fill-rule="nonzero"/></g></g></g><g clip-path="url(#2cb0b67e55)"><g clip-path="url(#14d6e42f1c)"><g clip-path="url(#79bfe30b25)"><path fill="#ffffff" d="M 255.324219 185.367188 C 255.269531 185.335938 255.21875 185.296875 255.179688 185.246094 L 243.414062 171.636719 C 243.3125 171.519531 243.265625 171.382812 243.277344 171.226562 C 243.289062 171.066406 243.351562 170.9375 243.472656 170.835938 C 243.589844 170.730469 243.726562 170.6875 243.886719 170.699219 C 244.042969 170.707031 244.171875 170.773438 244.273438 170.890625 L 256.039062 184.5 C 256.164062 184.601562 256.234375 184.726562 256.25 184.886719 C 256.269531 185.042969 256.230469 185.183594 256.132812 185.308594 C 256.03125 185.433594 255.90625 185.503906 255.746094 185.523438 C 255.589844 185.539062 255.449219 185.5 255.324219 185.402344 Z M 255.324219 185.367188 " fill-opacity="1" fill-rule="nonzero"/></g></g></g><g clip-path="url(#42a59a00bf)"><g clip-path="url(#5664851b0c)"><g clip-path="url(#c0bc27df3a)"><path fill="#ffffff" d="M 254.390625 192.542969 C 254.332031 192.519531 254.28125 192.488281 254.234375 192.449219 L 242.46875 178.839844 C 242.367188 178.71875 242.324219 178.582031 242.339844 178.421875 C 242.351562 178.265625 242.417969 178.136719 242.539062 178.035156 C 242.660156 177.9375 242.796875 177.890625 242.957031 177.90625 C 243.113281 177.917969 243.242188 177.988281 243.339844 178.105469 L 255.105469 191.714844 C 255.226562 191.816406 255.296875 191.945312 255.3125 192.105469 C 255.324219 192.261719 255.28125 192.402344 255.183594 192.527344 C 255.082031 192.648438 254.953125 192.71875 254.792969 192.730469 C 254.636719 192.746094 254.496094 192.703125 254.371094 192.605469 Z M 254.390625 192.542969 " fill-opacity="1" fill-rule="nonzero"/></g></g></g><g clip-path="url(#d10584aa26)"><g clip-path="url(#0b20a2414f)"><g clip-path="url(#6255d2cf1d)"><path fill="#ffffff" d="M 253.460938 199.71875 C 253.402344 199.695312 253.347656 199.664062 253.304688 199.625 L 241.539062 186.015625 C 241.414062 185.917969 241.34375 185.789062 241.328125 185.628906 C 241.3125 185.472656 241.351562 185.332031 241.449219 185.207031 C 241.550781 185.085938 241.679688 185.015625 241.835938 184.996094 C 241.992188 184.980469 242.132812 185.019531 242.257812 185.117188 C 242.3125 185.140625 242.363281 185.171875 242.410156 185.210938 L 254.171875 198.816406 C 254.265625 198.921875 254.3125 199.046875 254.3125 199.1875 C 254.316406 199.324219 254.269531 199.449219 254.179688 199.554688 C 254.09375 199.664062 253.980469 199.730469 253.839844 199.753906 C 253.703125 199.777344 253.574219 199.753906 253.453125 199.683594 Z M 253.460938 199.71875 " fill-opacity="1" fill-rule="nonzero"/></g></g></g><g clip-path="url(#2068ecb1c1)"><g clip-path="url(#d10c9f4b9b)"><g clip-path="url(#8870f7ed0f)"><path fill="#ffffff" d="M 252.53125 206.894531 C 252.472656 206.875 252.417969 206.84375 252.371094 206.800781 L 240.609375 193.191406 C 240.484375 193.09375 240.414062 192.964844 240.398438 192.808594 C 240.378906 192.648438 240.421875 192.507812 240.519531 192.386719 C 240.621094 192.261719 240.746094 192.191406 240.90625 192.171875 C 241.0625 192.15625 241.203125 192.195312 241.328125 192.296875 C 241.382812 192.316406 241.433594 192.347656 241.480469 192.386719 L 253.242188 205.996094 C 253.367188 206.097656 253.433594 206.226562 253.449219 206.382812 C 253.464844 206.542969 253.421875 206.683594 253.320312 206.804688 C 253.21875 206.925781 253.089844 206.996094 252.929688 207.011719 C 252.773438 207.027344 252.632812 206.984375 252.511719 206.882812 Z M 252.53125 206.894531 " fill-opacity="1" fill-rule="nonzero"/></g></g></g><g clip-path="url(#fe930f4088)"><g clip-path="url(#44244c4cdf)"><g clip-path="url(#55bc9671a9)"><path fill="#ffffff" d="M 251.597656 214.070312 C 251.542969 214.039062 251.496094 214 251.457031 213.953125 L 239.695312 200.34375 C 239.589844 200.226562 239.546875 200.085938 239.554688 199.929688 C 239.566406 199.773438 239.632812 199.644531 239.75 199.542969 C 239.871094 199.4375 240.007812 199.390625 240.164062 199.402344 C 240.320312 199.414062 240.449219 199.480469 240.554688 199.597656 L 252.316406 213.207031 C 252.441406 213.308594 252.507812 213.4375 252.523438 213.597656 C 252.539062 213.753906 252.496094 213.894531 252.394531 214.015625 C 252.292969 214.140625 252.164062 214.207031 252.003906 214.222656 C 251.847656 214.238281 251.707031 214.195312 251.585938 214.09375 Z M 251.597656 214.070312 " fill-opacity="1" fill-rule="nonzero"/></g></g></g><g clip-path="url(#2aab3314d3)"><g clip-path="url(#4033033ac3)"><g clip-path="url(#86d180d213)"><path fill="#ffffff" d="M 250.667969 221.246094 C 250.609375 221.226562 250.558594 221.195312 250.511719 221.152344 L 238.75 207.542969 C 238.644531 207.425781 238.601562 207.289062 238.613281 207.132812 C 238.625 206.976562 238.6875 206.84375 238.808594 206.742188 C 238.925781 206.640625 239.0625 206.59375 239.21875 206.605469 C 239.375 206.617188 239.507812 206.679688 239.609375 206.796875 L 251.371094 220.40625 C 251.496094 220.507812 251.5625 220.640625 251.578125 220.796875 C 251.59375 220.957031 251.550781 221.097656 251.449219 221.21875 C 251.347656 221.339844 251.21875 221.410156 251.0625 221.425781 C 250.902344 221.441406 250.761719 221.398438 250.640625 221.296875 Z M 250.667969 221.246094 " fill-opacity="1" fill-rule="nonzero"/></g></g></g><g clip-path="url(#6061379746)"><g clip-path="url(#b1d1529241)"><g clip-path="url(#afb9b3ea00)"><path fill="#ffffff" d="M 262.585938 240.777344 C 262.527344 240.757812 262.476562 240.726562 262.429688 240.683594 L 250.664062 227.074219 C 250.5625 226.957031 250.515625 226.820312 250.527344 226.660156 C 250.539062 226.503906 250.605469 226.375 250.722656 226.273438 C 250.84375 226.167969 250.980469 226.125 251.136719 226.136719 C 251.292969 226.144531 251.421875 226.210938 251.527344 226.328125 L 263.289062 239.9375 C 263.382812 240.042969 263.429688 240.167969 263.429688 240.304688 C 263.429688 240.445312 263.386719 240.570312 263.296875 240.675781 C 263.207031 240.785156 263.09375 240.847656 262.957031 240.871094 C 262.820312 240.898438 262.691406 240.871094 262.570312 240.800781 Z M 262.585938 240.777344 " fill-opacity="1" fill-rule="nonzero"/></g></g></g><g clip-path="url(#26e4b96a51)"><g clip-path="url(#c6a7e6b11d)"><g clip-path="url(#fe356bcc1a)"><path fill="#ffffff" d="M 260.859375 247.03125 C 260.800781 247.011719 260.75 246.980469 260.703125 246.9375 L 248.941406 233.328125 C 248.835938 233.210938 248.792969 233.074219 248.804688 232.914062 C 248.8125 232.757812 248.878906 232.628906 248.996094 232.527344 C 249.117188 232.421875 249.253906 232.375 249.410156 232.386719 C 249.566406 232.398438 249.699219 232.464844 249.800781 232.582031 L 261.566406 246.191406 C 261.65625 246.296875 261.703125 246.417969 261.703125 246.558594 C 261.707031 246.699219 261.664062 246.824219 261.574219 246.929688 C 261.484375 247.039062 261.371094 247.101562 261.234375 247.125 C 261.09375 247.148438 260.964844 247.125 260.847656 247.054688 Z M 260.859375 247.03125 " fill-opacity="1" fill-rule="nonzero"/></g></g></g><g clip-path="url(#681e561d4f)"><g clip-path="url(#b8b9a7943b)"><g clip-path="url(#2b3a2aeaa7)"><path fill="#ffffff" d="M 259.136719 253.292969 C 259.082031 253.261719 259.035156 253.222656 258.996094 253.175781 L 247.230469 239.566406 C 247.128906 239.449219 247.082031 239.308594 247.09375 239.152344 C 247.105469 238.996094 247.171875 238.867188 247.289062 238.761719 C 247.40625 238.660156 247.546875 238.613281 247.703125 238.625 C 247.859375 238.636719 247.988281 238.703125 248.09375 238.820312 L 259.855469 252.429688 C 259.976562 252.53125 260.046875 252.660156 260.0625 252.816406 C 260.078125 252.976562 260.035156 253.117188 259.933594 253.238281 C 259.832031 253.359375 259.703125 253.429688 259.542969 253.445312 C 259.386719 253.460938 259.246094 253.417969 259.121094 253.316406 Z M 259.136719 253.292969 " fill-opacity="1" fill-rule="nonzero"/></g></g></g><g clip-path="url(#6643983893)"><g clip-path="url(#ea27973208)"><g clip-path="url(#f3c196f334)"><path fill="#ffffff" d="M 257.414062 259.546875 C 257.359375 259.515625 257.308594 259.476562 257.269531 259.429688 L 245.507812 245.820312 C 245.402344 245.699219 245.359375 245.5625 245.371094 245.40625 C 245.382812 245.25 245.445312 245.121094 245.566406 245.015625 C 245.683594 244.914062 245.820312 244.867188 245.976562 244.878906 C 246.132812 244.890625 246.265625 244.957031 246.367188 245.074219 L 258.128906 258.683594 C 258.253906 258.785156 258.320312 258.914062 258.335938 259.070312 C 258.351562 259.230469 258.308594 259.371094 258.207031 259.492188 C 258.105469 259.617188 257.976562 259.683594 257.820312 259.699219 C 257.660156 259.714844 257.519531 259.671875 257.398438 259.570312 Z M 257.414062 259.546875 " fill-opacity="1" fill-rule="nonzero"/></g></g></g><g clip-path="url(#675bd14310)"><g clip-path="url(#6d6961f111)"><g clip-path="url(#b8209ddaf8)"><path fill="#ffffff" d="M 255.683594 265.804688 C 255.628906 265.773438 255.582031 265.734375 255.542969 265.6875 L 243.777344 252.078125 C 243.675781 251.960938 243.632812 251.824219 243.644531 251.667969 C 243.65625 251.511719 243.71875 251.382812 243.835938 251.28125 C 243.953125 251.175781 244.09375 251.128906 244.25 251.140625 C 244.40625 251.152344 244.535156 251.214844 244.640625 251.332031 L 256.402344 264.941406 C 256.496094 265.046875 256.539062 265.167969 256.542969 265.308594 C 256.542969 265.449219 256.5 265.570312 256.410156 265.679688 C 256.320312 265.785156 256.207031 265.851562 256.070312 265.875 C 255.933594 265.898438 255.804688 265.875 255.683594 265.804688 Z M 255.683594 265.804688 " fill-opacity="1" fill-rule="nonzero"/></g></g></g><g clip-path="url(#1c30b6b326)"><g clip-path="url(#1ac8973088)"><g clip-path="url(#c6c517dc13)"><path fill="#ffffff" d="M 253.960938 272.058594 C 253.902344 272.027344 253.855469 271.988281 253.816406 271.941406 L 242.054688 258.332031 C 241.949219 258.214844 241.90625 258.074219 241.917969 257.917969 C 241.925781 257.761719 241.992188 257.632812 242.109375 257.53125 C 242.230469 257.425781 242.367188 257.382812 242.523438 257.390625 C 242.679688 257.402344 242.8125 257.46875 242.914062 257.585938 L 254.675781 271.195312 C 254.769531 271.300781 254.816406 271.421875 254.816406 271.5625 C 254.820312 271.703125 254.773438 271.824219 254.6875 271.933594 C 254.597656 272.039062 254.484375 272.105469 254.34375 272.128906 C 254.207031 272.152344 254.078125 272.128906 253.960938 272.058594 Z M 253.960938 272.058594 " fill-opacity="1" fill-rule="nonzero"/></g></g></g><g clip-path="url(#5d0d3802dd)"><g clip-path="url(#0ab97301c4)"><g clip-path="url(#40cc534b81)"><path fill="#ffffff" d="M 252.234375 278.320312 C 252.179688 278.300781 252.125 278.269531 252.078125 278.226562 L 240.316406 264.617188 C 240.210938 264.5 240.167969 264.363281 240.179688 264.207031 C 240.1875 264.046875 240.253906 263.917969 240.371094 263.816406 C 240.492188 263.710938 240.628906 263.667969 240.785156 263.675781 C 240.941406 263.6875 241.074219 263.753906 241.175781 263.871094 L 252.941406 277.480469 C 253.03125 277.585938 253.078125 277.710938 253.078125 277.847656 C 253.082031 277.988281 253.039062 278.113281 252.949219 278.21875 C 252.859375 278.328125 252.746094 278.390625 252.609375 278.417969 C 252.46875 278.441406 252.339844 278.417969 252.222656 278.34375 Z M 252.234375 278.320312 " fill-opacity="1" fill-rule="nonzero"/></g></g></g><g clip-path="url(#c03d871a1e)"><g clip-path="url(#fbf65b8e79)"><g clip-path="url(#35e9213cc1)"><path fill="#ffffff" d="M 250.511719 284.574219 C 250.453125 284.554688 250.402344 284.523438 250.355469 284.480469 L 238.589844 270.871094 C 238.488281 270.753906 238.445312 270.617188 238.453125 270.460938 C 238.464844 270.304688 238.53125 270.175781 238.648438 270.074219 C 238.765625 269.96875 238.902344 269.921875 239.0625 269.933594 C 239.21875 269.945312 239.347656 270.007812 239.449219 270.125 L 251.214844 283.734375 C 251.304688 283.839844 251.351562 283.964844 251.355469 284.101562 C 251.355469 284.242188 251.3125 284.367188 251.222656 284.472656 C 251.132812 284.582031 251.019531 284.644531 250.882812 284.671875 C 250.746094 284.695312 250.617188 284.671875 250.496094 284.597656 Z M 250.511719 284.574219 " fill-opacity="1" fill-rule="nonzero"/></g></g></g><g clip-path="url(#e8981d3304)"><g clip-path="url(#ddd53bee99)"><g clip-path="url(#b4f5582654)"><path fill="#ffffff" d="M 248.785156 290.828125 C 248.726562 290.808594 248.675781 290.777344 248.628906 290.734375 L 236.867188 277.125 C 236.761719 277.007812 236.714844 276.871094 236.726562 276.710938 C 236.738281 276.554688 236.804688 276.425781 236.921875 276.324219 C 237.042969 276.21875 237.179688 276.175781 237.335938 276.183594 C 237.492188 276.195312 237.621094 276.261719 237.726562 276.378906 L 249.488281 289.988281 C 249.582031 290.09375 249.628906 290.21875 249.628906 290.355469 C 249.628906 290.496094 249.585938 290.621094 249.496094 290.726562 C 249.410156 290.835938 249.296875 290.898438 249.15625 290.921875 C 249.019531 290.949219 248.890625 290.925781 248.769531 290.851562 Z M 248.785156 290.828125 " fill-opacity="1" fill-rule="nonzero"/></g></g></g><g clip-path="url(#5fa36f1de7)"><g clip-path="url(#94636cc0be)"><g clip-path="url(#94cf9f1962)"><path fill="#ffffff" d="M 247.058594 297.085938 C 247.003906 297.058594 246.957031 297.019531 246.914062 296.96875 L 235.152344 283.359375 C 235.050781 283.242188 235.003906 283.105469 235.015625 282.945312 C 235.023438 282.789062 235.089844 282.660156 235.207031 282.558594 C 235.328125 282.453125 235.464844 282.410156 235.621094 282.417969 C 235.777344 282.429688 235.910156 282.496094 236.011719 282.613281 L 247.777344 296.222656 C 247.898438 296.324219 247.964844 296.453125 247.980469 296.613281 C 247.996094 296.769531 247.953125 296.910156 247.851562 297.035156 C 247.75 297.15625 247.621094 297.226562 247.464844 297.238281 C 247.304688 297.253906 247.164062 297.210938 247.042969 297.113281 Z M 247.058594 297.085938 " fill-opacity="1" fill-rule="nonzero"/></g></g></g><g clip-path="url(#12d3e6c5e1)"><g clip-path="url(#92fbb77753)"><g clip-path="url(#2dc3414b1f)"><path fill="#ffffff" d="M 245.335938 303.34375 C 245.28125 303.3125 245.230469 303.273438 245.191406 303.222656 L 233.425781 289.613281 C 233.304688 289.515625 233.234375 289.386719 233.214844 289.230469 C 233.199219 289.070312 233.238281 288.929688 233.335938 288.808594 C 233.4375 288.683594 233.566406 288.613281 233.722656 288.59375 C 233.878906 288.578125 234.019531 288.617188 234.144531 288.71875 C 234.199219 288.742188 234.25 288.769531 234.296875 288.808594 L 246.058594 302.417969 C 246.183594 302.515625 246.253906 302.644531 246.269531 302.800781 C 246.289062 302.960938 246.246094 303.101562 246.148438 303.222656 C 246.050781 303.347656 245.921875 303.417969 245.765625 303.4375 C 245.605469 303.453125 245.464844 303.414062 245.339844 303.3125 Z M 245.335938 303.34375 " fill-opacity="1" fill-rule="nonzero"/></g></g></g><g clip-path="url(#8c7320ad27)"><g clip-path="url(#08a4728c17)"><g clip-path="url(#59ceb5b870)"><path fill="#ffffff" d="M 243.609375 309.601562 C 243.554688 309.574219 243.507812 309.535156 243.46875 309.484375 L 231.703125 295.875 C 231.601562 295.757812 231.554688 295.621094 231.566406 295.460938 C 231.578125 295.304688 231.640625 295.175781 231.761719 295.074219 C 231.878906 294.96875 232.015625 294.921875 232.175781 294.933594 C 232.332031 294.945312 232.460938 295.011719 232.5625 295.128906 L 244.328125 308.738281 C 244.449219 308.839844 244.519531 308.96875 244.535156 309.128906 C 244.550781 309.285156 244.507812 309.425781 244.40625 309.550781 C 244.304688 309.671875 244.175781 309.742188 244.015625 309.757812 C 243.855469 309.769531 243.71875 309.726562 243.59375 309.628906 Z M 243.609375 309.601562 " fill-opacity="1" fill-rule="nonzero"/></g></g></g></svg>