<svg xmlns="http://www.w3.org/2000/svg" xmlns:xlink="http://www.w3.org/1999/xlink" width="580" zoomAndPan="magnify" viewBox="0 0 434.88 434.999989" height="580" preserveAspectRatio="xMidYMid meet" version="1.0"><defs><clipPath id="cf34b54ac4"><path d="M 248 145 L 304.414062 145 L 304.414062 176 L 248 176 Z M 248 145 " clip-rule="nonzero"/></clipPath><clipPath id="c92303830a"><path d="M 130.464844 140 L 284 140 L 284 294 L 130.464844 294 Z M 130.464844 140 " clip-rule="nonzero"/></clipPath><clipPath id="55ff8f30fb"><path d="M 251 166 L 304.414062 166 L 304.414062 206 L 251 206 Z M 251 166 " clip-rule="nonzero"/></clipPath><clipPath id="a4e8a99ce2"><path d="M 156 261 L 210 261 L 210 300.359375 L 156 300.359375 Z M 156 261 " clip-rule="nonzero"/></clipPath></defs><path fill="#ffffff" d="M 244.613281 190.777344 C 242.265625 190.582031 239.921875 190.566406 237.574219 190.730469 C 235.226562 190.894531 232.90625 191.238281 230.613281 191.757812 C 228.316406 192.277344 226.074219 192.964844 223.886719 193.828125 C 221.699219 194.6875 219.585938 195.710938 217.554688 196.894531 C 215.519531 198.078125 213.589844 199.410156 211.757812 200.886719 C 209.929688 202.367188 208.222656 203.976562 206.636719 205.714844 C 205.054688 207.453125 203.609375 209.304688 202.308594 211.265625 C 201.007812 213.222656 199.863281 215.269531 198.875 217.40625 C 197.886719 219.539062 197.0625 221.738281 196.410156 223.996094 C 195.757812 226.257812 195.28125 228.554688 194.976562 230.886719 C 194.675781 233.21875 194.550781 235.5625 194.605469 237.914062 C 194.660156 240.265625 194.894531 242.601562 195.304688 244.917969 C 195.71875 247.234375 196.304688 249.503906 197.0625 251.730469 C 197.820312 253.960938 198.742188 256.117188 199.832031 258.203125 C 200.921875 260.289062 202.160156 262.277344 203.550781 264.175781 C 204.945312 266.070312 206.472656 267.851562 208.136719 269.515625 L 187.246094 262.550781 C 186.25 261.554688 185.304688 260.519531 184.402344 259.4375 C 183.503906 258.355469 182.652344 257.238281 181.855469 256.078125 C 181.058594 254.917969 180.316406 253.726562 179.625 252.5 C 178.9375 251.273438 178.304688 250.019531 177.730469 248.734375 C 177.15625 247.449219 176.640625 246.144531 176.1875 244.8125 C 175.730469 243.480469 175.335938 242.132812 175.003906 240.765625 C 174.671875 239.398438 174.40625 238.019531 174.199219 236.628906 C 173.992188 235.234375 173.851562 233.835938 173.773438 232.433594 C 173.695312 231.027344 173.679688 229.625 173.730469 228.21875 C 173.777344 226.8125 173.894531 225.410156 174.070312 224.015625 C 174.25 222.621094 174.488281 221.234375 174.792969 219.863281 C 175.097656 218.488281 175.464844 217.132812 175.890625 215.792969 C 176.320312 214.453125 176.808594 213.136719 177.355469 211.839844 C 177.90625 210.542969 178.511719 209.277344 179.175781 208.035156 C 179.839844 206.796875 180.558594 205.589844 181.332031 204.414062 C 182.109375 203.238281 182.933594 202.101562 183.8125 201.003906 C 184.691406 199.90625 185.617188 198.847656 186.589844 197.835938 C 187.566406 196.820312 188.585938 195.851562 189.648438 194.929688 C 190.710938 194.007812 191.8125 193.136719 192.953125 192.316406 C 194.097656 191.496094 195.273438 190.730469 196.488281 190.015625 C 197.699219 189.304688 198.941406 188.644531 200.214844 188.046875 C 201.488281 187.445312 202.785156 186.90625 204.105469 186.425781 C 205.429688 185.941406 206.769531 185.523438 208.128906 185.164062 C 209.488281 184.804688 210.863281 184.507812 212.25 184.273438 C 213.636719 184.042969 215.03125 183.871094 216.433594 183.765625 C 217.835938 183.660156 219.242188 183.617188 220.648438 183.640625 C 222.054688 183.660156 223.457031 183.746094 224.855469 183.898438 C 226.253906 184.046875 227.644531 184.261719 229.023438 184.539062 C 230.402344 184.816406 231.765625 185.152344 233.113281 185.554688 C 234.460938 185.957031 235.789062 186.417969 237.097656 186.941406 C 238.402344 187.464844 239.679688 188.042969 240.933594 188.683594 C 242.1875 189.324219 243.410156 190.019531 244.597656 190.769531 Z M 244.613281 190.777344 " fill-opacity="1" fill-rule="nonzero"/><path fill="#ffffff" d="M 208.136719 270.558594 C 208.023438 270.558594 207.914062 270.539062 207.808594 270.503906 L 186.917969 263.539062 C 186.761719 263.488281 186.625 263.402344 186.507812 263.289062 C 185.492188 262.273438 184.523438 261.210938 183.605469 260.105469 C 182.6875 259 181.820312 257.855469 181.003906 256.671875 C 180.191406 255.488281 179.433594 254.265625 178.726562 253.015625 C 178.023438 251.761719 177.378906 250.476562 176.792969 249.164062 C 176.207031 247.851562 175.683594 246.515625 175.21875 245.15625 C 174.753906 243.796875 174.351562 242.417969 174.011719 241.019531 C 173.675781 239.625 173.398438 238.214844 173.191406 236.792969 C 172.980469 235.371094 172.835938 233.941406 172.753906 232.507812 C 172.675781 231.070312 172.660156 229.636719 172.710938 228.199219 C 172.761719 226.761719 172.878906 225.332031 173.0625 223.90625 C 173.242188 222.480469 173.488281 221.0625 173.800781 219.660156 C 174.109375 218.257812 174.484375 216.871094 174.921875 215.5 C 175.359375 214.132812 175.855469 212.785156 176.417969 211.460938 C 176.976562 210.136719 177.597656 208.84375 178.273438 207.574219 C 178.953125 206.308594 179.6875 205.074219 180.476562 203.875 C 181.269531 202.671875 182.113281 201.511719 183.007812 200.386719 C 183.90625 199.265625 184.851562 198.183594 185.847656 197.148438 C 186.84375 196.109375 187.882812 195.121094 188.96875 194.179688 C 190.054688 193.234375 191.179688 192.34375 192.347656 191.503906 C 193.511719 190.667969 194.714844 189.882812 195.953125 189.152344 C 197.191406 188.421875 198.460938 187.75 199.761719 187.136719 C 201.0625 186.523438 202.386719 185.96875 203.734375 185.476562 C 205.085938 184.980469 206.457031 184.550781 207.84375 184.183594 C 209.234375 183.8125 210.636719 183.511719 212.054688 183.269531 C 213.472656 183.03125 214.898438 182.855469 216.332031 182.742188 C 217.765625 182.632812 219.199219 182.589844 220.636719 182.609375 C 222.074219 182.628906 223.507812 182.714844 224.9375 182.867188 C 226.367188 183.019531 227.785156 183.234375 229.195312 183.515625 C 230.605469 183.796875 232 184.140625 233.378906 184.550781 C 234.753906 184.957031 236.113281 185.425781 237.449219 185.957031 C 238.78125 186.492188 240.089844 187.082031 241.371094 187.734375 C 242.65625 188.382812 243.902344 189.09375 245.121094 189.855469 C 245.335938 189.976562 245.492188 190.148438 245.585938 190.378906 C 245.679688 190.605469 245.691406 190.839844 245.617188 191.074219 C 245.546875 191.3125 245.410156 191.5 245.203125 191.636719 C 245 191.777344 244.773438 191.835938 244.527344 191.8125 C 242.238281 191.625 239.945312 191.613281 237.652344 191.773438 C 235.359375 191.933594 233.089844 192.269531 230.847656 192.777344 C 228.605469 193.285156 226.414062 193.960938 224.277344 194.800781 C 222.136719 195.644531 220.074219 196.644531 218.085938 197.800781 C 216.101562 198.960938 214.210938 200.261719 212.425781 201.707031 C 210.636719 203.152344 208.96875 204.722656 207.421875 206.425781 C 205.875 208.125 204.464844 209.933594 203.191406 211.847656 C 201.921875 213.761719 200.800781 215.761719 199.835938 217.847656 C 198.867188 219.9375 198.066406 222.082031 197.429688 224.292969 C 196.789062 226.5 196.324219 228.746094 196.027344 231.023438 C 195.730469 233.304688 195.609375 235.59375 195.664062 237.890625 C 195.71875 240.191406 195.945312 242.472656 196.347656 244.734375 C 196.75 247 197.320312 249.21875 198.0625 251.394531 C 198.804688 253.570312 199.707031 255.679688 200.769531 257.71875 C 201.832031 259.757812 203.042969 261.703125 204.402344 263.558594 C 205.761719 265.410156 207.257812 267.148438 208.882812 268.777344 C 209.03125 268.925781 209.125 269.105469 209.167969 269.3125 C 209.207031 269.519531 209.1875 269.722656 209.105469 269.917969 C 209.023438 270.113281 208.894531 270.269531 208.71875 270.386719 C 208.542969 270.503906 208.347656 270.558594 208.136719 270.558594 Z M 187.816406 261.636719 L 204.640625 267.25 C 203.207031 265.542969 201.898438 263.746094 200.714844 261.851562 C 199.535156 259.960938 198.492188 257.996094 197.589844 255.957031 C 196.6875 253.914062 195.933594 251.824219 195.328125 249.675781 C 194.722656 247.53125 194.269531 245.351562 193.972656 243.140625 C 193.671875 240.929688 193.53125 238.710938 193.550781 236.480469 C 193.566406 234.25 193.738281 232.03125 194.070312 229.828125 C 194.402344 227.621094 194.886719 225.449219 195.523438 223.3125 C 196.160156 221.175781 196.949219 219.09375 197.878906 217.066406 C 198.8125 215.042969 199.882812 213.089844 201.09375 211.21875 C 202.300781 209.34375 203.636719 207.5625 205.097656 205.878906 C 206.558594 204.191406 208.132812 202.617188 209.816406 201.15625 C 211.5 199.695312 213.277344 198.355469 215.152344 197.144531 C 217.023438 195.933594 218.972656 194.863281 220.996094 193.929688 C 223.023438 192.992188 225.101562 192.207031 227.238281 191.566406 C 229.375 190.925781 231.546875 190.4375 233.753906 190.105469 C 235.957031 189.773438 238.175781 189.597656 240.40625 189.578125 C 239.222656 188.976562 238.011719 188.429688 236.78125 187.933594 C 235.546875 187.441406 234.296875 187 233.023438 186.617188 C 231.753906 186.230469 230.464844 185.90625 229.167969 185.632812 C 227.867188 185.363281 226.554688 185.148438 225.238281 184.996094 C 223.917969 184.839844 222.59375 184.742188 221.265625 184.703125 C 219.9375 184.664062 218.613281 184.683594 217.285156 184.761719 C 215.960938 184.84375 214.640625 184.980469 213.324219 185.171875 C 212.011719 185.367188 210.710938 185.621094 209.417969 185.929688 C 208.125 186.238281 206.851562 186.605469 205.589844 187.027344 C 204.332031 187.449219 203.09375 187.925781 201.875 188.457031 C 200.660156 188.988281 199.46875 189.574219 198.300781 190.210938 C 197.136719 190.847656 196 191.53125 194.894531 192.269531 C 193.789062 193.007812 192.71875 193.789062 191.683594 194.621094 C 190.644531 195.453125 189.648438 196.328125 188.6875 197.246094 C 187.730469 198.164062 186.8125 199.125 185.9375 200.125 C 185.066406 201.125 184.234375 202.160156 183.453125 203.234375 C 182.667969 204.308594 181.9375 205.410156 181.25 206.550781 C 180.566406 207.6875 179.929688 208.851562 179.347656 210.046875 C 178.765625 211.242188 178.234375 212.457031 177.761719 213.699219 C 177.285156 214.9375 176.863281 216.195312 176.5 217.472656 C 176.136719 218.75 175.828125 220.042969 175.578125 221.347656 C 175.328125 222.652344 175.132812 223.964844 175 225.285156 C 174.863281 226.605469 174.789062 227.929688 174.769531 229.257812 C 174.753906 230.585938 174.792969 231.914062 174.890625 233.238281 C 174.992188 234.5625 175.148438 235.882812 175.363281 237.191406 C 175.578125 238.503906 175.851562 239.800781 176.179688 241.085938 C 176.511719 242.375 176.894531 243.644531 177.335938 244.898438 C 177.777344 246.148438 178.273438 247.378906 178.824219 248.589844 C 179.375 249.796875 179.976562 250.980469 180.632812 252.136719 C 181.285156 253.292969 181.992188 254.417969 182.746094 255.511719 C 183.5 256.605469 184.296875 257.664062 185.144531 258.6875 C 185.992188 259.710938 186.882812 260.695312 187.816406 261.636719 Z M 187.816406 261.636719 " fill-opacity="1" fill-rule="nonzero"/><path fill="#ffffff" d="M 303.246094 174.40625 L 282.355469 167.441406 C 277.746094 162.816406 272.6875 158.757812 267.171875 155.261719 C 261.660156 151.765625 255.828125 148.917969 249.683594 146.722656 L 269.179688 153.199219 L 269.402344 153.269531 C 275.777344 155.449219 281.824219 158.320312 287.539062 161.890625 C 293.253906 165.460938 298.492188 169.628906 303.246094 174.40625 Z M 303.246094 174.40625 " fill-opacity="1" fill-rule="nonzero"/><g clip-path="url(#cf34b54ac4)"><path fill="#ffffff" d="M 303.246094 175.449219 C 303.132812 175.445312 303.023438 175.429688 302.917969 175.394531 L 282.027344 168.429688 C 281.871094 168.378906 281.734375 168.292969 281.617188 168.179688 C 277.066406 163.601562 272.066406 159.585938 266.613281 156.128906 C 261.160156 152.675781 255.394531 149.867188 249.3125 147.707031 C 249.179688 147.660156 249.0625 147.589844 248.960938 147.496094 C 248.855469 147.40625 248.777344 147.296875 248.714844 147.171875 C 248.65625 147.042969 248.621094 146.914062 248.613281 146.773438 C 248.605469 146.636719 248.625 146.5 248.671875 146.367188 C 248.71875 146.238281 248.789062 146.121094 248.878906 146.015625 C 248.972656 145.914062 249.082031 145.832031 249.207031 145.773438 C 249.332031 145.710938 249.464844 145.679688 249.605469 145.671875 C 249.742188 145.664062 249.878906 145.683594 250.007812 145.726562 L 269.507812 152.203125 L 269.578125 152.203125 L 269.757812 152.265625 C 276.214844 154.464844 282.332031 157.371094 288.117188 160.988281 C 293.898438 164.601562 299.191406 168.828125 304 173.667969 C 304.148438 173.816406 304.242188 173.996094 304.285156 174.203125 C 304.324219 174.410156 304.304688 174.613281 304.222656 174.808594 C 304.140625 175.003906 304.011719 175.160156 303.835938 175.277344 C 303.660156 175.394531 303.464844 175.449219 303.253906 175.449219 Z M 282.917969 166.527344 L 299.125 171.925781 C 294.765625 167.984375 290.050781 164.527344 284.984375 161.554688 C 279.917969 158.578125 274.597656 156.148438 269.035156 154.265625 L 268.875 154.210938 L 268.707031 154.15625 L 265.84375 153.199219 C 272.082031 156.945312 277.773438 161.386719 282.917969 166.527344 Z M 282.917969 166.527344 " fill-opacity="1" fill-rule="nonzero"/></g><path fill="#a27ff4" d="M 282.355469 167.441406 L 252.613281 197.183594 C 250.183594 194.753906 247.515625 192.617188 244.613281 190.777344 C 243.421875 190.023438 242.203125 189.328125 240.949219 188.6875 C 239.695312 188.046875 238.414062 187.46875 237.109375 186.945312 C 235.804688 186.421875 234.476562 185.957031 233.128906 185.554688 C 231.78125 185.152344 230.414062 184.8125 229.035156 184.535156 C 227.65625 184.257812 226.269531 184.046875 224.867188 183.894531 C 223.46875 183.742188 222.066406 183.65625 220.660156 183.632812 C 219.253906 183.613281 217.847656 183.652344 216.445312 183.757812 C 215.042969 183.863281 213.648438 184.035156 212.257812 184.269531 C 210.871094 184.5 209.5 184.796875 208.136719 185.15625 C 206.777344 185.515625 205.4375 185.933594 204.113281 186.414062 C 202.792969 186.894531 201.492188 187.4375 200.222656 188.035156 C 198.949219 188.636719 197.707031 189.292969 196.492188 190.003906 C 195.28125 190.71875 194.101562 191.484375 192.957031 192.304688 C 191.816406 193.125 190.710938 193.996094 189.648438 194.917969 C 188.585938 195.839844 187.566406 196.808594 186.589844 197.824219 C 185.617188 198.835938 184.691406 199.894531 183.8125 200.992188 C 182.933594 202.09375 182.105469 203.230469 181.332031 204.402344 C 180.558594 205.578125 179.835938 206.785156 179.171875 208.027344 C 178.507812 209.265625 177.902344 210.535156 177.355469 211.828125 C 176.804688 213.125 176.316406 214.445312 175.886719 215.785156 C 175.460938 217.125 175.09375 218.480469 174.789062 219.855469 C 174.484375 221.226562 174.242188 222.613281 174.066406 224.007812 C 173.886719 225.40625 173.773438 226.804688 173.722656 228.210938 C 173.675781 229.617188 173.6875 231.023438 173.765625 232.429688 C 173.84375 233.832031 173.988281 235.230469 174.195312 236.625 C 174.398438 238.015625 174.667969 239.394531 175 240.761719 C 175.332031 242.128906 175.726562 243.476562 176.183594 244.808594 C 176.636719 246.140625 177.152344 247.449219 177.726562 248.734375 C 178.300781 250.015625 178.933594 251.273438 179.621094 252.5 C 180.3125 253.726562 181.054688 254.917969 181.855469 256.078125 C 182.652344 257.234375 183.5 258.355469 184.402344 259.4375 C 185.300781 260.519531 186.25 261.554688 187.246094 262.550781 L 166.019531 283.777344 L 157.496094 292.320312 C 150.945312 285.777344 145.550781 278.386719 141.320312 270.148438 C 141.296875 270.085938 141.269531 270.03125 141.238281 269.972656 C 140.980469 269.457031 140.714844 268.941406 140.464844 268.414062 L 140.289062 268.050781 C 140.09375 267.648438 139.90625 267.242188 139.726562 266.839844 C 139.238281 265.796875 138.773438 264.75 138.332031 263.664062 C 138.117188 263.148438 137.914062 262.632812 137.707031 262.117188 L 137.707031 262.0625 C 137.492188 261.527344 137.289062 260.992188 137.09375 260.449219 C 136.898438 259.90625 136.695312 259.359375 136.507812 258.816406 C 136.320312 258.273438 136.140625 257.730469 135.964844 257.1875 L 135.921875 257.070312 C 135.761719 256.570312 135.601562 256.054688 135.449219 255.546875 C 135.296875 255.035156 135.144531 254.515625 134.996094 254.007812 C 134.664062 252.828125 134.355469 251.652344 134.070312 250.460938 C 133.953125 249.945312 133.835938 249.425781 133.722656 248.910156 C 133.613281 248.394531 133.492188 247.84375 133.382812 247.3125 C 133.347656 247.125 133.3125 246.945312 133.269531 246.757812 C 133.199219 246.359375 133.117188 245.957031 133.046875 245.550781 C 132.949219 245.003906 132.851562 244.4375 132.761719 243.875 C 132.761719 243.789062 132.761719 243.707031 132.726562 243.625 C 132.652344 243.144531 132.582031 242.664062 132.511719 242.175781 C 132.441406 241.6875 132.359375 241.054688 132.289062 240.488281 C 132.21875 239.925781 132.15625 239.328125 132.101562 238.742188 C 131.996094 237.738281 131.914062 236.742188 131.855469 235.742188 C 131.855469 235.539062 131.820312 235.34375 131.816406 235.132812 C 131.816406 234.652344 131.757812 234.171875 131.738281 233.691406 C 131.71875 233.210938 131.703125 232.816406 131.695312 232.371094 C 131.519531 226.222656 131.984375 220.125 133.089844 214.078125 C 133.144531 213.742188 133.207031 213.378906 133.277344 213.058594 C 133.667969 210.894531 134.160156 208.757812 134.78125 206.625 C 134.921875 206.101562 135.066406 205.582031 135.21875 205.050781 C 135.375 204.523438 135.5625 203.902344 135.742188 203.324219 C 135.921875 202.746094 136.097656 202.238281 136.277344 201.6875 C 136.453125 201.167969 136.636719 200.644531 136.820312 200.121094 C 136.820312 200.121094 136.820312 200.078125 136.820312 200.050781 C 136.988281 199.585938 137.164062 199.117188 137.332031 198.660156 C 137.332031 198.597656 137.378906 198.527344 137.414062 198.457031 C 138.011719 196.863281 138.667969 195.285156 139.378906 193.714844 C 139.390625 193.675781 139.40625 193.640625 139.425781 193.601562 C 139.648438 193.09375 139.886719 192.585938 140.121094 192.085938 C 140.359375 191.585938 140.617188 191.035156 140.882812 190.519531 C 141.144531 190.003906 141.402344 189.480469 141.675781 188.964844 C 141.945312 188.449219 142.246094 187.867188 142.554688 187.328125 C 142.859375 186.792969 143.054688 186.425781 143.3125 185.972656 L 143.355469 185.894531 C 143.644531 185.386719 143.945312 184.878906 144.246094 184.382812 C 144.542969 183.890625 144.941406 183.21875 145.324219 182.636719 L 146.132812 181.394531 C 146.148438 181.367188 146.164062 181.335938 146.1875 181.3125 C 146.472656 180.867188 146.773438 180.429688 147.074219 179.996094 C 147.101562 179.949219 147.128906 179.90625 147.164062 179.863281 C 147.457031 179.425781 147.753906 179.007812 148.0625 178.582031 L 148.144531 178.472656 C 148.472656 178.011719 148.804688 177.550781 149.140625 177.078125 C 149.878906 176.082031 150.652344 175.109375 151.4375 174.132812 C 151.808594 173.6875 152.183594 173.226562 152.558594 172.796875 C 152.9375 172.363281 153.257812 171.972656 153.617188 171.5625 L 153.855469 171.300781 C 154.21875 170.886719 154.550781 170.476562 154.960938 170.074219 C 155.371094 169.667969 155.789062 169.183594 156.214844 168.742188 C 156.640625 168.304688 157.066406 167.878906 157.496094 167.449219 C 158.910156 166.035156 160.371094 164.667969 161.875 163.351562 C 163.382812 162.039062 164.929688 160.777344 166.523438 159.566406 C 168.113281 158.355469 169.746094 157.199219 171.414062 156.101562 C 173.085938 155.003906 174.789062 153.960938 176.53125 152.980469 C 178.273438 151.996094 180.042969 151.074219 181.847656 150.210938 C 183.652344 149.347656 185.484375 148.546875 187.339844 147.808594 C 189.199219 147.070312 191.082031 146.394531 192.984375 145.785156 C 194.886719 145.175781 196.808594 144.628906 198.75 144.148438 C 200.691406 143.671875 202.648438 143.257812 204.617188 142.910156 C 206.585938 142.5625 208.5625 142.285156 210.550781 142.070312 C 212.539062 141.859375 214.535156 141.714844 216.53125 141.636719 C 218.527344 141.5625 220.527344 141.550781 222.527344 141.609375 C 224.523438 141.671875 226.519531 141.796875 228.507812 141.992188 C 230.5 142.1875 232.480469 142.449219 234.453125 142.777344 C 236.421875 143.105469 238.382812 143.5 240.328125 143.964844 C 242.273438 144.425781 244.199219 144.953125 246.109375 145.546875 L 246.191406 145.546875 L 249.632812 146.6875 C 255.792969 148.886719 261.632812 151.738281 267.152344 155.238281 C 272.675781 158.738281 277.742188 162.808594 282.355469 167.441406 Z M 282.355469 167.441406 " fill-opacity="1" fill-rule="nonzero"/><g clip-path="url(#c92303830a)"><path fill="#ffffff" d="M 157.503906 293.34375 C 157.214844 293.34375 156.964844 293.242188 156.757812 293.039062 C 150.128906 286.414062 144.671875 278.9375 140.394531 270.601562 C 140.375 270.566406 140.359375 270.53125 140.34375 270.496094 L 140.304688 270.417969 L 140.109375 270.03125 C 139.914062 269.640625 139.710938 269.242188 139.523438 268.839844 L 139.355469 268.492188 C 139.15625 268.074219 138.960938 267.65625 138.777344 267.242188 C 138.296875 266.21875 137.816406 265.15625 137.386719 264.039062 C 137.234375 263.679688 137.085938 263.34375 136.933594 262.941406 L 136.753906 262.488281 L 136.710938 262.347656 C 136.515625 261.867188 136.304688 261.324219 136.113281 260.773438 L 135.910156 260.289062 C 135.777344 259.910156 135.636719 259.535156 135.511719 259.167969 L 135.40625 258.851562 C 135.253906 258.421875 135.109375 257.976562 134.96875 257.542969 C 134.96875 257.496094 134.96875 257.445312 134.921875 257.398438 C 134.753906 256.890625 134.59375 256.367188 134.441406 255.851562 C 134.285156 255.335938 134.125 254.8125 133.980469 254.296875 C 133.652344 253.128906 133.347656 251.957031 133.046875 250.710938 C 132.921875 250.183594 132.804688 249.652344 132.691406 249.132812 C 132.582031 248.609375 132.496094 248.234375 132.398438 247.78125 L 132.351562 247.535156 C 132.308594 247.335938 132.28125 247.167969 132.238281 246.988281 L 132.128906 246.359375 C 132.085938 246.144531 132.042969 245.933594 132.011719 245.71875 C 131.914062 245.167969 131.816406 244.597656 131.71875 244.035156 L 131.683594 243.785156 C 131.605469 243.296875 131.535156 242.808594 131.464844 242.3125 C 131.398438 241.820312 131.300781 241.164062 131.242188 240.59375 L 131.175781 239.980469 C 131.132812 239.589844 131.082031 239.207031 131.050781 238.820312 C 130.9375 237.738281 130.855469 236.730469 130.804688 235.773438 C 130.804688 235.601562 130.804688 235.378906 130.761719 235.148438 C 130.761719 234.6875 130.707031 234.203125 130.6875 233.714844 C 130.664062 233.226562 130.644531 232.824219 130.636719 232.363281 C 130.457031 226.148438 130.917969 219.984375 132.03125 213.867188 C 132.085938 213.535156 132.148438 213.171875 132.21875 212.832031 C 132.644531 210.628906 133.152344 208.441406 133.730469 206.347656 C 133.871094 205.828125 134.015625 205.296875 134.167969 204.757812 C 134.34375 204.179688 134.515625 203.597656 134.699219 203.011719 C 134.832031 202.613281 134.957031 202.21875 135.085938 201.828125 L 135.21875 201.429688 L 135.21875 201.339844 C 135.402344 200.8125 135.582031 200.28125 135.769531 199.753906 C 135.765625 199.734375 135.765625 199.714844 135.769531 199.695312 C 135.765625 199.683594 135.765625 199.667969 135.769531 199.65625 C 135.875 199.363281 135.980469 199.070312 136.089844 198.777344 L 136.347656 198.3125 L 136.347656 198.25 L 136.425781 198.058594 C 137.03125 196.457031 137.691406 194.855469 138.402344 193.296875 C 138.417969 193.242188 138.4375 193.191406 138.472656 193.144531 C 138.6875 192.636719 138.925781 192.132812 139.167969 191.640625 C 139.414062 191.144531 139.664062 190.582031 139.933594 190.050781 C 140.207031 189.523438 140.457031 189.015625 140.734375 188.492188 C 141.015625 187.96875 141.3125 187.371094 141.625 186.820312 C 141.941406 186.269531 142.136719 185.910156 142.386719 185.46875 L 142.460938 185.332031 C 142.726562 184.871094 143.035156 184.355469 143.332031 183.855469 C 143.632812 183.351562 144.027344 182.675781 144.425781 182.09375 L 144.675781 181.703125 C 144.851562 181.429688 145.03125 181.160156 145.207031 180.882812 C 145.246094 180.816406 145.28125 180.761719 145.316406 180.722656 C 145.601562 180.273438 145.902344 179.84375 146.195312 179.410156 L 146.300781 179.265625 C 146.59375 178.828125 146.890625 178.410156 147.199219 177.984375 C 147.234375 177.929688 147.273438 177.878906 147.316406 177.832031 C 147.609375 177.414062 147.949219 176.945312 148.289062 176.492188 C 149.078125 175.421875 149.90625 174.40625 150.609375 173.519531 L 150.8125 173.269531 C 151.125 172.894531 151.4375 172.511719 151.757812 172.148438 C 152.078125 171.785156 152.457031 171.332031 152.816406 170.914062 L 152.871094 170.847656 L 153.039062 170.664062 C 153.421875 170.234375 153.800781 169.816406 154.183594 169.40625 C 154.566406 168.992188 155.019531 168.5 155.449219 168.054688 C 155.882812 167.609375 156.304688 167.167969 156.746094 166.738281 C 158.171875 165.304688 159.648438 163.917969 161.171875 162.585938 C 162.695312 161.253906 164.261719 159.972656 165.871094 158.746094 C 167.480469 157.519531 169.128906 156.347656 170.820312 155.234375 C 172.507812 154.121094 174.234375 153.0625 175.996094 152.066406 C 177.757812 151.070312 179.550781 150.132812 181.375 149.257812 C 183.203125 148.386719 185.054688 147.574219 186.933594 146.824219 C 188.816406 146.078125 190.71875 145.394531 192.644531 144.773438 C 194.574219 144.15625 196.519531 143.601562 198.484375 143.117188 C 200.449219 142.628906 202.429688 142.210938 204.421875 141.859375 C 206.414062 141.507812 208.417969 141.226562 210.429688 141.011719 C 212.441406 140.796875 214.460938 140.648438 216.484375 140.570312 C 218.503906 140.492188 220.527344 140.484375 222.550781 140.546875 C 224.574219 140.605469 226.59375 140.734375 228.609375 140.933594 C 230.621094 141.128906 232.628906 141.398438 234.625 141.730469 C 236.621094 142.066406 238.601562 142.46875 240.570312 142.9375 C 242.539062 143.40625 244.492188 143.941406 246.421875 144.542969 L 246.570312 144.601562 L 249.933594 145.714844 L 250.015625 145.714844 C 256.246094 147.933594 262.152344 150.8125 267.738281 154.355469 C 273.320312 157.894531 278.445312 162.011719 283.105469 166.703125 C 283.203125 166.800781 283.277344 166.914062 283.332031 167.042969 C 283.382812 167.171875 283.410156 167.304688 283.410156 167.441406 C 283.410156 167.578125 283.382812 167.710938 283.332031 167.839844 C 283.277344 167.96875 283.203125 168.082031 283.105469 168.179688 L 253.359375 197.921875 C 253.148438 198.117188 252.902344 198.214844 252.617188 198.214844 C 252.332031 198.214844 252.082031 198.117188 251.875 197.921875 C 249.511719 195.542969 246.917969 193.457031 244.089844 191.652344 L 244.042969 191.652344 C 242.878906 190.921875 241.683594 190.242188 240.460938 189.617188 C 239.234375 188.992188 237.984375 188.425781 236.707031 187.917969 C 235.433594 187.40625 234.136719 186.957031 232.816406 186.5625 C 231.5 186.171875 230.167969 185.839844 228.820312 185.570312 C 227.472656 185.300781 226.113281 185.09375 224.75 184.945312 C 223.382812 184.800781 222.011719 184.71875 220.636719 184.695312 C 219.261719 184.675781 217.890625 184.714844 216.519531 184.820312 C 215.148438 184.925781 213.785156 185.089844 212.429688 185.320312 C 211.074219 185.546875 209.734375 185.839844 208.402344 186.1875 C 207.074219 186.539062 205.765625 186.949219 204.472656 187.421875 C 203.183594 187.890625 201.914062 188.421875 200.671875 189.007812 C 199.429688 189.59375 198.214844 190.234375 197.03125 190.933594 C 195.84375 191.628906 194.695312 192.378906 193.578125 193.179688 C 192.460938 193.984375 191.382812 194.835938 190.347656 195.734375 C 189.308594 196.636719 188.3125 197.582031 187.359375 198.574219 C 186.40625 199.5625 185.503906 200.597656 184.644531 201.671875 C 183.785156 202.746094 182.980469 203.855469 182.222656 205.003906 C 181.464844 206.148438 180.765625 207.328125 180.113281 208.542969 C 179.464844 209.753906 178.875 210.992188 178.335938 212.257812 C 177.800781 213.523438 177.324219 214.8125 176.90625 216.121094 C 176.488281 217.429688 176.128906 218.753906 175.832031 220.097656 C 175.535156 221.4375 175.300781 222.792969 175.125 224.15625 C 174.953125 225.519531 174.839844 226.886719 174.792969 228.261719 C 174.742188 229.636719 174.757812 231.007812 174.832031 232.378906 C 174.910156 233.753906 175.046875 235.117188 175.25 236.480469 C 175.449219 237.839844 175.710938 239.1875 176.035156 240.523438 C 176.359375 241.859375 176.746094 243.175781 177.1875 244.476562 C 177.632812 245.777344 178.136719 247.054688 178.699219 248.308594 C 179.257812 249.566406 179.875 250.792969 180.546875 251.988281 C 181.222656 253.1875 181.945312 254.355469 182.726562 255.484375 C 183.503906 256.617188 184.335938 257.710938 185.214844 258.769531 C 186.09375 259.824219 187.019531 260.839844 187.992188 261.8125 C 188.085938 261.910156 188.164062 262.023438 188.214844 262.152344 C 188.265625 262.28125 188.292969 262.414062 188.292969 262.550781 C 188.292969 262.6875 188.265625 262.820312 188.214844 262.949219 C 188.164062 263.078125 188.085938 263.191406 187.992188 263.289062 L 158.242188 293.015625 C 158.039062 293.226562 157.792969 293.335938 157.503906 293.34375 Z M 142.273438 269.667969 C 146.289062 277.472656 151.367188 284.515625 157.503906 290.796875 L 185.785156 262.523438 C 184.800781 261.492188 183.863281 260.417969 182.976562 259.300781 C 182.089844 258.183594 181.253906 257.03125 180.472656 255.839844 C 179.6875 254.648438 178.960938 253.421875 178.289062 252.164062 C 177.617188 250.90625 177.003906 249.621094 176.449219 248.308594 C 175.890625 246.996094 175.398438 245.660156 174.960938 244.300781 C 174.527344 242.945312 174.15625 241.570312 173.84375 240.179688 C 173.535156 238.785156 173.285156 237.382812 173.101562 235.96875 C 172.917969 234.554688 172.800781 233.136719 172.746094 231.710938 C 172.691406 230.285156 172.699219 228.863281 172.773438 227.4375 C 172.847656 226.015625 172.984375 224.597656 173.1875 223.1875 C 173.390625 221.773438 173.65625 220.375 173.984375 218.988281 C 174.3125 217.601562 174.703125 216.230469 175.15625 214.878906 C 175.609375 213.527344 176.121094 212.199219 176.695312 210.890625 C 177.269531 209.585938 177.898438 208.308594 178.589844 207.058594 C 179.277344 205.8125 180.019531 204.597656 180.820312 203.414062 C 181.617188 202.234375 182.46875 201.089844 183.371094 199.988281 C 184.273438 198.882812 185.222656 197.820312 186.21875 196.804688 C 187.21875 195.785156 188.257812 194.8125 189.34375 193.890625 C 190.429688 192.964844 191.558594 192.09375 192.722656 191.269531 C 193.886719 190.449219 195.085938 189.679688 196.320312 188.964844 C 197.554688 188.253906 198.820312 187.597656 200.113281 186.996094 C 201.40625 186.398438 202.726562 185.859375 204.066406 185.378906 C 205.410156 184.898438 206.773438 184.480469 208.152344 184.125 C 209.53125 183.765625 210.925781 183.472656 212.332031 183.242188 C 213.742188 183.011719 215.15625 182.84375 216.578125 182.742188 C 218 182.640625 219.421875 182.601562 220.847656 182.628906 C 222.273438 182.652344 223.695312 182.746094 225.113281 182.898438 C 226.53125 183.054688 227.9375 183.273438 229.335938 183.554688 C 230.734375 183.835938 232.117188 184.179688 233.480469 184.589844 C 234.847656 184.996094 236.195312 185.464844 237.519531 185.992188 C 238.839844 186.523438 240.140625 187.109375 241.410156 187.757812 C 242.679688 188.402344 243.921875 189.105469 245.128906 189.863281 L 245.175781 189.863281 C 247.847656 191.558594 250.324219 193.5 252.605469 195.6875 L 280.878906 167.414062 C 276.402344 163.019531 271.507812 159.160156 266.191406 155.835938 C 260.875 152.507812 255.261719 149.796875 249.355469 147.691406 L 249.304688 147.691406 L 245.867188 146.550781 L 245.804688 146.550781 C 243.917969 145.960938 242.011719 145.4375 240.089844 144.980469 C 238.167969 144.519531 236.234375 144.128906 234.285156 143.800781 C 232.335938 143.472656 230.378906 143.214844 228.410156 143.019531 C 226.445312 142.828125 224.472656 142.699219 222.5 142.640625 C 220.523438 142.582031 218.546875 142.589844 216.574219 142.664062 C 214.597656 142.738281 212.628906 142.882812 210.664062 143.089844 C 208.699219 143.300781 206.746094 143.574219 204.796875 143.917969 C 202.851562 144.261719 200.921875 144.667969 199 145.144531 C 197.082031 145.617188 195.183594 146.15625 193.300781 146.757812 C 191.421875 147.363281 189.5625 148.027344 187.726562 148.757812 C 185.886719 149.488281 184.078125 150.28125 182.296875 151.132812 C 180.515625 151.988281 178.761719 152.898438 177.042969 153.871094 C 175.324219 154.84375 173.636719 155.875 171.988281 156.960938 C 170.339844 158.050781 168.726562 159.191406 167.15625 160.386719 C 165.582031 161.585938 164.054688 162.835938 162.566406 164.136719 C 161.078125 165.4375 159.636719 166.785156 158.242188 168.1875 C 157.808594 168.609375 157.390625 169.050781 156.96875 169.480469 C 156.542969 169.914062 156.144531 170.34375 155.734375 170.789062 C 155.324219 171.234375 154.976562 171.597656 154.640625 172.003906 L 154.441406 172.230469 C 154.050781 172.671875 153.742188 173.066406 153.367188 173.480469 C 152.992188 173.890625 152.742188 174.175781 152.441406 174.578125 L 152.246094 174.808594 C 151.550781 175.65625 150.757812 176.667969 149.984375 177.710938 C 149.648438 178.15625 149.320312 178.609375 149 179.0625 L 148.074219 178.554688 L 148.929688 179.148438 C 148.609375 179.59375 148.320312 179.996094 148.035156 180.429688 L 147.964844 180.527344 C 147.644531 181 147.351562 181.425781 147.074219 181.863281 L 147.03125 181.917969 L 147.03125 181.960938 L 146.464844 182.808594 L 146.222656 183.191406 C 145.867188 183.757812 145.527344 184.328125 145.164062 184.914062 C 144.800781 185.496094 144.53125 185.902344 144.257812 186.402344 C 144.246094 186.425781 144.234375 186.449219 144.222656 186.472656 C 143.972656 186.90625 143.730469 187.34375 143.527344 187.78125 C 143.199219 188.351562 142.921875 188.894531 142.644531 189.433594 C 142.363281 189.96875 142.105469 190.449219 141.855469 190.964844 C 141.605469 191.480469 141.347656 192 141.105469 192.511719 C 140.859375 193.019531 140.632812 193.511719 140.40625 194.007812 L 140.40625 194.0625 C 140.410156 194.085938 140.410156 194.109375 140.40625 194.132812 C 139.710938 195.664062 139.0625 197.238281 138.472656 198.804688 L 138.429688 198.910156 L 138.382812 199.027344 L 138.207031 199.496094 C 138.101562 199.792969 137.992188 200.085938 137.886719 200.386719 C 137.875 200.429688 137.859375 200.472656 137.839844 200.511719 C 137.671875 200.976562 137.511719 201.453125 137.351562 201.902344 L 137.351562 201.988281 L 137.085938 202.488281 C 136.953125 202.878906 136.828125 203.261719 136.703125 203.652344 C 136.53125 204.214844 136.355469 204.785156 136.1875 205.351562 C 136.019531 205.914062 135.894531 206.382812 135.761719 206.898438 C 135.191406 208.984375 134.699219 211.074219 134.285156 213.242188 C 134.21875 213.582031 134.15625 213.9375 134.097656 214.230469 C 133.003906 220.214844 132.539062 226.25 132.707031 232.335938 C 132.707031 232.789062 132.707031 233.207031 132.75 233.644531 C 132.789062 234.082031 132.796875 234.597656 132.824219 235.039062 C 132.824219 235.246094 132.824219 235.414062 132.867188 235.59375 C 132.921875 236.582031 133 237.542969 133.109375 238.59375 C 133.144531 238.984375 133.1875 239.363281 133.230469 239.730469 L 133.296875 240.34375 C 133.359375 240.886719 133.4375 241.445312 133.515625 241.992188 C 133.589844 242.542969 133.652344 242.949219 133.730469 243.421875 L 133.730469 243.671875 C 133.820312 244.230469 133.917969 244.785156 134.015625 245.335938 C 134.015625 245.539062 134.09375 245.742188 134.125 245.941406 C 134.160156 246.144531 134.203125 246.339844 134.238281 246.542969 C 134.273438 246.742188 134.316406 246.890625 134.351562 247.089844 L 134.398438 247.308594 C 134.488281 247.753906 134.585938 248.199219 134.683594 248.644531 C 134.78125 249.089844 134.914062 249.683594 135.03125 250.191406 C 135.316406 251.402344 135.617188 252.542969 135.945312 253.671875 C 136.082031 254.171875 136.238281 254.6875 136.390625 255.195312 C 136.542969 255.707031 136.703125 256.207031 136.855469 256.699219 C 136.875 256.738281 136.886719 256.777344 136.898438 256.820312 C 137.039062 257.25 137.191406 257.695312 137.335938 258.128906 L 137.441406 258.433594 C 137.558594 258.789062 137.691406 259.132812 137.824219 259.519531 L 138.019531 260.042969 C 138.207031 260.574219 138.402344 261.101562 138.617188 261.625 C 138.632812 261.664062 138.644531 261.703125 138.652344 261.742188 L 138.8125 262.132812 C 138.960938 262.496094 139.097656 262.828125 139.253906 263.210938 C 139.691406 264.285156 140.152344 265.300781 140.644531 266.347656 C 140.832031 266.757812 141.015625 267.152344 141.207031 267.550781 C 141.265625 267.675781 141.3125 267.78125 141.375 267.898438 C 141.5625 268.300781 141.757812 268.6875 141.945312 269.070312 L 142.148438 269.457031 Z M 140.269531 194.203125 Z M 147.105469 181.757812 Z M 245.816406 146.542969 L 245.867188 146.542969 Z M 245.816406 146.542969 " fill-opacity="1" fill-rule="nonzero"/></g><path fill="#a27ff4" d="M 249.632812 146.71875 L 246.199219 145.574219 C 246.964844 145.804688 247.726562 146.054688 248.484375 146.3125 Z M 249.632812 146.71875 " fill-opacity="1" fill-rule="nonzero"/><path fill="#ffffff" d="M 249.632812 147.761719 C 249.519531 147.757812 249.410156 147.742188 249.304688 147.707031 L 245.867188 146.5625 C 245.601562 146.46875 245.40625 146.296875 245.277344 146.046875 C 245.152344 145.792969 245.132812 145.535156 245.214844 145.265625 C 245.300781 144.996094 245.46875 144.796875 245.714844 144.660156 C 245.960938 144.527344 246.222656 144.496094 246.492188 144.574219 C 247.273438 144.808594 248.046875 145.058594 248.816406 145.324219 C 249.214844 145.457031 249.605469 145.589844 249.996094 145.734375 C 250.234375 145.820312 250.417969 145.976562 250.542969 146.195312 C 250.671875 146.414062 250.710938 146.652344 250.667969 146.902344 C 250.621094 147.152344 250.503906 147.359375 250.308594 147.519531 C 250.113281 147.683594 249.886719 147.761719 249.632812 147.761719 Z M 249.632812 147.761719 " fill-opacity="1" fill-rule="nonzero"/><path fill="#ffffff" d="M 303.253906 174.40625 L 273.511719 204.144531 L 252.621094 197.183594 L 282.363281 167.441406 Z M 303.253906 174.40625 " fill-opacity="1" fill-rule="nonzero"/><g clip-path="url(#55ff8f30fb)"><path fill="#ffffff" d="M 273.503906 205.191406 C 273.390625 205.1875 273.285156 205.171875 273.175781 205.136719 L 252.285156 198.171875 C 251.914062 198.050781 251.679688 197.800781 251.589844 197.417969 C 251.507812 197.042969 251.601562 196.71875 251.867188 196.445312 L 281.609375 166.703125 C 281.914062 166.398438 282.273438 166.3125 282.683594 166.445312 L 303.574219 173.410156 C 303.945312 173.527344 304.179688 173.78125 304.269531 174.160156 C 304.359375 174.539062 304.269531 174.867188 304 175.144531 L 274.25 204.882812 C 274.042969 205.085938 273.792969 205.191406 273.503906 205.191406 Z M 254.554688 196.722656 L 273.234375 202.949219 L 301.324219 174.855469 L 282.648438 168.632812 Z M 254.554688 196.722656 " fill-opacity="1" fill-rule="nonzero"/></g><path fill="#ffffff" d="M 208.136719 269.515625 L 178.394531 299.261719 L 157.503906 292.300781 L 166.027344 283.777344 L 187.246094 262.550781 Z M 208.136719 269.515625 " fill-opacity="1" fill-rule="nonzero"/><g clip-path="url(#a4e8a99ce2)"><path fill="#ffffff" d="M 178.394531 300.308594 C 178.28125 300.304688 178.167969 300.289062 178.058594 300.25 L 157.167969 293.289062 C 156.792969 293.171875 156.558594 292.921875 156.472656 292.535156 C 156.382812 292.160156 156.472656 291.835938 156.746094 291.5625 L 186.492188 261.8125 C 186.796875 261.503906 187.15625 261.417969 187.566406 261.554688 L 208.457031 268.519531 C 208.832031 268.636719 209.0625 268.890625 209.152344 269.269531 C 209.242188 269.648438 209.152344 269.976562 208.882812 270.253906 L 179.132812 299.980469 C 178.929688 300.191406 178.683594 300.300781 178.394531 300.308594 Z M 159.433594 291.839844 L 178.109375 298.066406 L 206.207031 269.96875 L 187.53125 263.769531 Z M 159.433594 291.839844 " fill-opacity="1" fill-rule="nonzero"/></g><path fill="#ffffff" d="M 303.246094 175.101562 C 303.171875 175.101562 303.101562 175.089844 303.03125 175.066406 L 282.140625 168.101562 C 281.957031 168.042969 281.820312 167.925781 281.734375 167.75 C 281.648438 167.578125 281.636719 167.402344 281.699219 167.21875 C 281.761719 167.035156 281.878906 166.902344 282.050781 166.816406 C 282.21875 166.734375 282.394531 166.71875 282.578125 166.78125 L 303.46875 173.742188 C 303.648438 173.804688 303.785156 173.921875 303.867188 174.089844 C 303.953125 174.261719 303.96875 174.4375 303.90625 174.621094 C 303.859375 174.765625 303.777344 174.878906 303.65625 174.96875 C 303.53125 175.054688 303.398438 175.101562 303.246094 175.101562 Z M 303.246094 175.101562 " fill-opacity="1" fill-rule="nonzero"/><path fill="#ffffff" d="M 291.03125 164.886719 C 290.957031 164.894531 290.882812 164.894531 290.808594 164.886719 L 269.917969 157.921875 C 269.757812 157.867188 269.632812 157.769531 269.542969 157.625 C 269.453125 157.480469 269.421875 157.324219 269.445312 157.15625 C 269.472656 156.988281 269.546875 156.851562 269.675781 156.738281 C 269.800781 156.625 269.949219 156.566406 270.121094 156.5625 C 270.195312 156.550781 270.269531 156.550781 270.34375 156.5625 L 291.234375 163.527344 C 291.414062 163.589844 291.546875 163.703125 291.632812 163.875 C 291.71875 164.046875 291.730469 164.222656 291.671875 164.40625 C 291.570312 164.714844 291.359375 164.875 291.03125 164.886719 Z M 291.03125 164.886719 " fill-opacity="1" fill-rule="nonzero"/><path fill="#ffffff" d="M 208.136719 270.210938 C 208.0625 270.210938 207.992188 270.199219 207.921875 270.175781 L 187.03125 263.210938 C 186.847656 263.152344 186.710938 263.035156 186.625 262.863281 C 186.539062 262.691406 186.527344 262.515625 186.585938 262.332031 C 186.648438 262.148438 186.765625 262.015625 186.9375 261.925781 C 187.109375 261.839844 187.285156 261.828125 187.46875 261.890625 L 208.359375 268.851562 C 208.539062 268.914062 208.675781 269.03125 208.757812 269.199219 C 208.84375 269.371094 208.859375 269.546875 208.796875 269.730469 C 208.75 269.875 208.667969 269.988281 208.546875 270.078125 C 208.421875 270.167969 208.289062 270.210938 208.136719 270.210938 Z M 208.136719 270.210938 " fill-opacity="1" fill-rule="nonzero"/><path fill="#ffffff" d="M 201.519531 261.875 C 201.449219 261.875 201.375 261.863281 201.304688 261.839844 L 180.414062 254.875 C 180.238281 254.816406 180.109375 254.703125 180.023438 254.535156 C 179.9375 254.371094 179.921875 254.199219 179.976562 254.019531 C 180.035156 253.839844 180.152344 253.707031 180.324219 253.621094 C 180.496094 253.535156 180.671875 253.523438 180.851562 253.582031 L 201.742188 260.546875 C 201.925781 260.605469 202.058594 260.722656 202.144531 260.894531 C 202.230469 261.066406 202.242188 261.242188 202.183594 261.421875 C 202.066406 261.730469 201.847656 261.878906 201.519531 261.875 Z M 201.519531 261.875 " fill-opacity="1" fill-rule="nonzero"/><path fill="#ffffff" d="M 197.824219 254.507812 C 197.75 254.519531 197.679688 254.519531 197.609375 254.507812 L 176.714844 247.542969 C 176.535156 247.484375 176.398438 247.367188 176.3125 247.191406 C 176.226562 247.019531 176.214844 246.84375 176.277344 246.660156 C 176.339844 246.476562 176.457031 246.34375 176.625 246.257812 C 176.796875 246.175781 176.972656 246.160156 177.15625 246.222656 L 198.046875 253.183594 C 198.226562 253.246094 198.359375 253.363281 198.445312 253.53125 C 198.53125 253.703125 198.542969 253.878906 198.484375 254.0625 C 198.367188 254.363281 198.148438 254.511719 197.824219 254.507812 Z M 197.824219 254.507812 " fill-opacity="1" fill-rule="nonzero"/><path fill="#ffffff" d="M 195.726562 247.675781 C 195.65625 247.6875 195.582031 247.6875 195.511719 247.675781 L 174.621094 240.710938 C 174.4375 240.652344 174.304688 240.535156 174.21875 240.363281 C 174.132812 240.1875 174.121094 240.011719 174.183594 239.828125 C 174.242188 239.648438 174.359375 239.511719 174.53125 239.429688 C 174.703125 239.34375 174.878906 239.328125 175.058594 239.390625 L 195.949219 246.351562 C 196.132812 246.414062 196.265625 246.53125 196.351562 246.703125 C 196.4375 246.871094 196.449219 247.050781 196.390625 247.230469 C 196.273438 247.53125 196.050781 247.683594 195.726562 247.675781 Z M 195.726562 247.675781 " fill-opacity="1" fill-rule="nonzero"/><path fill="#ffffff" d="M 194.746094 241.222656 C 194.671875 241.21875 194.601562 241.207031 194.53125 241.1875 L 173.636719 234.222656 C 173.457031 234.160156 173.320312 234.042969 173.234375 233.871094 C 173.148438 233.699219 173.136719 233.519531 173.199219 233.339844 C 173.261719 233.15625 173.378906 233.023438 173.546875 232.9375 C 173.71875 232.851562 173.894531 232.839844 174.078125 232.898438 L 194.96875 239.863281 C 195.148438 239.925781 195.28125 240.039062 195.367188 240.210938 C 195.453125 240.382812 195.464844 240.558594 195.40625 240.742188 C 195.359375 240.882812 195.277344 241 195.152344 241.089844 C 195.03125 241.175781 194.894531 241.222656 194.746094 241.222656 Z M 194.746094 241.222656 " fill-opacity="1" fill-rule="nonzero"/><path fill="#ffffff" d="M 194.667969 235.058594 C 194.59375 235.058594 194.523438 235.046875 194.453125 235.023438 L 173.5625 228.058594 C 173.378906 228 173.246094 227.882812 173.160156 227.707031 C 173.074219 227.535156 173.0625 227.359375 173.125 227.175781 C 173.183594 226.992188 173.300781 226.859375 173.472656 226.773438 C 173.644531 226.691406 173.820312 226.675781 174 226.738281 L 194.890625 233.699219 C 195.074219 233.761719 195.207031 233.878906 195.292969 234.046875 C 195.378906 234.21875 195.390625 234.394531 195.332031 234.578125 C 195.285156 234.722656 195.199219 234.835938 195.078125 234.925781 C 194.957031 235.015625 194.820312 235.058594 194.667969 235.058594 Z M 194.667969 235.058594 " fill-opacity="1" fill-rule="nonzero"/><path fill="#ffffff" d="M 195.363281 229.160156 C 195.292969 229.171875 195.222656 229.171875 195.148438 229.160156 L 174.257812 222.195312 C 174.074219 222.136719 173.941406 222.019531 173.855469 221.84375 C 173.769531 221.671875 173.757812 221.496094 173.820312 221.3125 C 173.878906 221.128906 173.996094 220.996094 174.167969 220.910156 C 174.339844 220.828125 174.515625 220.8125 174.695312 220.875 L 195.589844 227.835938 C 195.769531 227.898438 195.902344 228.015625 195.988281 228.183594 C 196.074219 228.355469 196.085938 228.53125 196.027344 228.714844 C 195.910156 229.015625 195.691406 229.164062 195.363281 229.160156 Z M 195.363281 229.160156 " fill-opacity="1" fill-rule="nonzero"/><path fill="#ffffff" d="M 196.757812 223.5 C 196.6875 223.507812 196.613281 223.507812 196.542969 223.5 L 175.652344 216.535156 C 175.46875 216.472656 175.332031 216.355469 175.246094 216.183594 C 175.164062 216.011719 175.148438 215.832031 175.210938 215.652344 C 175.273438 215.46875 175.390625 215.335938 175.5625 215.25 C 175.730469 215.164062 175.90625 215.152344 176.089844 215.210938 L 196.980469 222.175781 C 197.160156 222.238281 197.296875 222.351562 197.382812 222.523438 C 197.464844 222.695312 197.480469 222.871094 197.417969 223.054688 C 197.304688 223.355469 197.082031 223.503906 196.757812 223.5 Z M 196.757812 223.5 " fill-opacity="1" fill-rule="nonzero"/><path fill="#ffffff" d="M 198.882812 218.066406 C 198.808594 218.066406 198.734375 218.054688 198.664062 218.03125 L 177.773438 211.066406 C 177.59375 211.007812 177.457031 210.890625 177.371094 210.71875 C 177.285156 210.542969 177.273438 210.367188 177.335938 210.183594 C 177.398438 210.003906 177.511719 209.871094 177.683594 209.785156 C 177.855469 209.699219 178.03125 209.683594 178.214844 209.746094 L 199.105469 216.707031 C 199.285156 216.769531 199.417969 216.886719 199.503906 217.058594 C 199.589844 217.226562 199.601562 217.40625 199.542969 217.585938 C 199.496094 217.730469 199.414062 217.84375 199.289062 217.933594 C 199.167969 218.023438 199.03125 218.066406 198.882812 218.066406 Z M 198.882812 218.066406 " fill-opacity="1" fill-rule="nonzero"/><path fill="#ffffff" d="M 201.710938 212.878906 C 201.636719 212.890625 201.566406 212.890625 201.492188 212.878906 L 180.601562 205.914062 C 180.417969 205.855469 180.285156 205.738281 180.199219 205.5625 C 180.113281 205.390625 180.101562 205.214844 180.164062 205.03125 C 180.222656 204.847656 180.335938 204.710938 180.507812 204.621094 C 180.679688 204.535156 180.855469 204.519531 181.039062 204.578125 L 201.933594 211.542969 C 202.113281 211.601562 202.246094 211.71875 202.332031 211.890625 C 202.417969 212.0625 202.429688 212.238281 202.371094 212.417969 C 202.257812 212.730469 202.039062 212.882812 201.710938 212.878906 Z M 201.710938 212.878906 " fill-opacity="1" fill-rule="nonzero"/><path fill="#ffffff" d="M 205.308594 207.949219 C 205.238281 207.957031 205.164062 207.957031 205.09375 207.949219 L 184.203125 200.984375 C 184.019531 200.921875 183.886719 200.808594 183.800781 200.632812 C 183.714844 200.460938 183.703125 200.285156 183.765625 200.101562 C 183.824219 199.917969 183.941406 199.785156 184.113281 199.699219 C 184.28125 199.613281 184.460938 199.601562 184.640625 199.660156 L 205.53125 206.625 C 205.714844 206.6875 205.847656 206.804688 205.933594 206.972656 C 206.019531 207.144531 206.03125 207.320312 205.972656 207.503906 C 205.855469 207.804688 205.632812 207.953125 205.308594 207.949219 Z M 205.308594 207.949219 " fill-opacity="1" fill-rule="nonzero"/><path fill="#ffffff" d="M 209.765625 203.304688 C 209.695312 203.3125 209.621094 203.3125 209.550781 203.304688 L 188.660156 196.339844 C 188.476562 196.277344 188.34375 196.160156 188.257812 195.988281 C 188.171875 195.816406 188.160156 195.636719 188.21875 195.457031 C 188.273438 195.269531 188.386719 195.128906 188.558594 195.035156 C 188.730469 194.941406 188.910156 194.925781 189.097656 194.980469 L 209.988281 201.945312 C 210.171875 202.007812 210.304688 202.125 210.390625 202.292969 C 210.472656 202.464844 210.488281 202.640625 210.425781 202.824219 C 210.382812 202.964844 210.296875 203.082031 210.175781 203.171875 C 210.054688 203.257812 209.917969 203.304688 209.765625 203.304688 Z M 209.765625 203.304688 " fill-opacity="1" fill-rule="nonzero"/><path fill="#ffffff" d="M 215.273438 199.007812 C 215.203125 199.015625 215.128906 199.015625 215.058594 199.007812 L 194.167969 192.042969 C 193.984375 191.984375 193.851562 191.867188 193.765625 191.695312 C 193.675781 191.523438 193.664062 191.34375 193.726562 191.164062 C 193.785156 190.980469 193.902344 190.84375 194.074219 190.757812 C 194.246094 190.671875 194.421875 190.660156 194.605469 190.71875 L 215.496094 197.683594 C 215.679688 197.746094 215.8125 197.863281 215.898438 198.03125 C 215.984375 198.203125 215.996094 198.378906 215.9375 198.5625 C 215.820312 198.863281 215.597656 199.011719 215.273438 199.007812 Z M 215.273438 199.007812 " fill-opacity="1" fill-rule="nonzero"/><path fill="#ffffff" d="M 222.25 195.199219 C 222.179688 195.207031 222.109375 195.207031 222.035156 195.199219 L 201.144531 188.234375 C 200.960938 188.171875 200.828125 188.054688 200.742188 187.882812 C 200.65625 187.710938 200.644531 187.53125 200.707031 187.351562 C 200.765625 187.167969 200.882812 187.035156 201.054688 186.949219 C 201.226562 186.863281 201.402344 186.851562 201.582031 186.910156 L 222.476562 193.875 C 222.667969 193.902344 222.820312 193.992188 222.9375 194.148438 C 223.054688 194.304688 223.101562 194.476562 223.074219 194.667969 C 223.046875 194.859375 222.957031 195.015625 222.800781 195.132812 C 222.644531 195.25 222.472656 195.292969 222.28125 195.269531 Z M 222.25 195.199219 " fill-opacity="1" fill-rule="nonzero"/><path fill="#ffffff" d="M 231.707031 192.21875 C 231.636719 192.226562 231.566406 192.226562 231.492188 192.21875 L 210.601562 185.253906 C 210.417969 185.195312 210.285156 185.078125 210.199219 184.90625 C 210.113281 184.734375 210.097656 184.554688 210.160156 184.375 C 210.21875 184.191406 210.335938 184.054688 210.507812 183.96875 C 210.679688 183.882812 210.859375 183.871094 211.039062 183.929688 L 231.929688 190.894531 C 232.113281 190.957031 232.246094 191.070312 232.332031 191.242188 C 232.417969 191.414062 232.429688 191.589844 232.371094 191.773438 C 232.253906 192.074219 232.03125 192.222656 231.707031 192.21875 Z M 231.707031 192.21875 " fill-opacity="1" fill-rule="nonzero"/></svg>