<svg xmlns="http://www.w3.org/2000/svg" xmlns:xlink="http://www.w3.org/1999/xlink" width="580" zoomAndPan="magnify" viewBox="0 0 434.88 434.999989" height="580" preserveAspectRatio="xMidYMid meet" version="1.0"><defs><clipPath id="599cffdcb3"><path d="M 131 177.054688 L 181 177.054688 L 181 254 L 131 254 Z M 131 177.054688 " clip-rule="nonzero"/></clipPath><clipPath id="d052f1dc8a"><path d="M 130.464844 177.054688 L 182 177.054688 L 182 254 L 130.464844 254 Z M 130.464844 177.054688 " clip-rule="nonzero"/></clipPath><clipPath id="840745d629"><path d="M 142 177.054688 L 194 177.054688 L 194 220 L 142 220 Z M 142 177.054688 " clip-rule="nonzero"/></clipPath><clipPath id="5de661b672"><path d="M 142 177.054688 L 194 177.054688 L 194 221 L 142 221 Z M 142 177.054688 " clip-rule="nonzero"/></clipPath><clipPath id="d8bfac646e"><path d="M 142 177.054688 L 156 177.054688 L 156 183 L 142 183 Z M 142 177.054688 " clip-rule="nonzero"/></clipPath><clipPath id="12cbb210cf"><path d="M 186 177.054688 L 236 177.054688 L 236 254 L 186 254 Z M 186 177.054688 " clip-rule="nonzero"/></clipPath><clipPath id="98e09c721c"><path d="M 185 177.054688 L 237 177.054688 L 237 254 L 185 254 Z M 185 177.054688 " clip-rule="nonzero"/></clipPath><clipPath id="2625c37e04"><path d="M 198 177.054688 L 249 177.054688 L 249 220 L 198 220 Z M 198 177.054688 " clip-rule="nonzero"/></clipPath><clipPath id="4c7b8bc2a4"><path d="M 197 177.054688 L 250 177.054688 L 250 221 L 197 221 Z M 197 177.054688 " clip-rule="nonzero"/></clipPath><clipPath id="48ccaf8145"><path d="M 197 177.054688 L 212 177.054688 L 212 183 L 197 183 Z M 197 177.054688 " clip-rule="nonzero"/></clipPath><clipPath id="95e9dd0cfa"><path d="M 253 181 L 304.414062 181 L 304.414062 258 L 253 258 Z M 253 181 " clip-rule="nonzero"/></clipPath><clipPath id="24f4e1c67f"><path d="M 241 177.054688 L 292 177.054688 L 292 254 L 241 254 Z M 241 177.054688 " clip-rule="nonzero"/></clipPath><clipPath id="b4071bc9ab"><path d="M 253 177.054688 L 304 177.054688 L 304 220 L 253 220 Z M 253 177.054688 " clip-rule="nonzero"/></clipPath><clipPath id="ae73fdaa1a"><path d="M 252 177.054688 L 304.414062 177.054688 L 304.414062 221 L 252 221 Z M 252 177.054688 " clip-rule="nonzero"/></clipPath><clipPath id="5baf85bcba"><path d="M 252 214 L 304.414062 214 L 304.414062 258 L 252 258 Z M 252 214 " clip-rule="nonzero"/></clipPath><clipPath id="ee7ccaeeff"><path d="M 290 215 L 304.414062 215 L 304.414062 221 L 290 221 Z M 290 215 " clip-rule="nonzero"/></clipPath><clipPath id="2ea15460e2"><path d="M 253 177.054688 L 267 177.054688 L 267 183 L 253 183 Z M 253 177.054688 " clip-rule="nonzero"/></clipPath></defs><path fill="#ffffff" d="M 155.417969 257.277344 L 143.613281 245.472656 L 169.488281 219.59375 L 143.613281 193.71875 L 155.417969 181.910156 L 193.101562 219.59375 Z M 155.417969 257.277344 " fill-opacity="1" fill-rule="nonzero"/><path fill="#ffffff" d="M 155.417969 257.902344 C 155.246094 257.902344 155.097656 257.839844 154.976562 257.71875 L 143.171875 245.914062 C 143.046875 245.792969 142.988281 245.644531 142.988281 245.472656 C 142.988281 245.296875 143.046875 245.152344 143.171875 245.027344 L 168.601562 219.59375 L 143.171875 194.164062 C 143.046875 194.039062 142.988281 193.894531 142.988281 193.71875 C 142.988281 193.546875 143.046875 193.398438 143.171875 193.277344 L 154.976562 181.46875 C 155.101562 181.351562 155.25 181.292969 155.417969 181.292969 C 155.589844 181.292969 155.738281 181.351562 155.863281 181.46875 L 193.546875 219.152344 C 193.667969 219.273438 193.730469 219.421875 193.730469 219.59375 C 193.730469 219.765625 193.667969 219.914062 193.546875 220.035156 L 155.863281 257.71875 C 155.738281 257.84375 155.59375 257.902344 155.417969 257.902344 Z M 144.5 245.472656 L 155.417969 256.390625 L 192.21875 219.59375 L 155.417969 182.796875 L 144.5 193.71875 L 169.933594 219.152344 C 170.054688 219.273438 170.117188 219.421875 170.117188 219.59375 C 170.117188 219.765625 170.054688 219.914062 169.933594 220.035156 Z M 144.5 245.472656 " fill-opacity="1" fill-rule="nonzero"/><g clip-path="url(#599cffdcb3)"><path fill="#ff81cf" d="M 142.894531 253.101562 L 131.089844 241.296875 L 156.964844 215.417969 L 131.089844 189.546875 L 142.894531 177.734375 L 180.578125 215.417969 Z M 142.894531 253.101562 " fill-opacity="1" fill-rule="nonzero"/></g><g clip-path="url(#d052f1dc8a)"><path fill="#ffffff" d="M 142.894531 253.730469 C 142.722656 253.726562 142.574219 253.667969 142.453125 253.546875 L 130.648438 241.738281 C 130.523438 241.617188 130.460938 241.46875 130.460938 241.296875 C 130.460938 241.125 130.523438 240.976562 130.648438 240.855469 L 156.078125 215.417969 L 130.648438 189.988281 C 130.523438 189.867188 130.460938 189.71875 130.460938 189.546875 C 130.460938 189.371094 130.523438 189.226562 130.648438 189.101562 L 142.453125 177.292969 C 142.578125 177.175781 142.726562 177.117188 142.894531 177.117188 C 143.066406 177.117188 143.214844 177.175781 143.339844 177.292969 L 181.023438 214.976562 C 181.144531 215.097656 181.207031 215.246094 181.207031 215.417969 C 181.207031 215.59375 181.144531 215.738281 181.023438 215.863281 L 143.339844 253.546875 C 143.214844 253.667969 143.070312 253.730469 142.894531 253.730469 Z M 131.976562 241.296875 L 142.894531 252.21875 L 179.695312 215.417969 L 142.894531 178.621094 L 131.976562 189.546875 L 157.410156 214.976562 C 157.53125 215.097656 157.59375 215.246094 157.59375 215.417969 C 157.59375 215.59375 157.53125 215.738281 157.410156 215.863281 Z M 131.976562 241.296875 " fill-opacity="1" fill-rule="nonzero"/></g><g clip-path="url(#840745d629)"><path fill="#ffffff" d="M 142.894531 177.734375 L 155.417969 181.910156 L 193.101562 219.59375 L 180.578125 215.417969 Z M 142.894531 177.734375 " fill-opacity="1" fill-rule="nonzero"/></g><g clip-path="url(#5de661b672)"><path fill="#ffffff" d="M 193.101562 220.21875 C 193.035156 220.21875 192.96875 220.210938 192.90625 220.1875 L 180.382812 216.011719 C 180.289062 215.980469 180.207031 215.933594 180.136719 215.863281 L 142.453125 178.179688 C 142.351562 178.074219 142.292969 177.953125 142.273438 177.808594 C 142.257812 177.664062 142.289062 177.53125 142.367188 177.40625 C 142.441406 177.285156 142.546875 177.195312 142.683594 177.148438 C 142.820312 177.097656 142.957031 177.097656 143.097656 177.144531 L 155.621094 181.316406 C 155.710938 181.347656 155.792969 181.398438 155.863281 181.46875 L 193.546875 219.152344 C 193.648438 219.253906 193.710938 219.375 193.726562 219.519531 C 193.742188 219.664062 193.714844 219.800781 193.636719 219.921875 C 193.511719 220.121094 193.335938 220.21875 193.101562 220.21875 Z M 180.917969 214.871094 L 190.785156 218.160156 L 155.09375 182.457031 L 145.214844 179.167969 Z M 180.917969 214.871094 " fill-opacity="1" fill-rule="nonzero"/></g><path fill="#ffffff" d="M 142.894531 253.101562 L 155.417969 257.277344 L 193.101562 219.59375 L 180.578125 215.417969 Z M 142.894531 253.101562 " fill-opacity="1" fill-rule="nonzero"/><path fill="#ffffff" d="M 155.417969 257.902344 C 155.351562 257.902344 155.285156 257.894531 155.222656 257.871094 L 142.699219 253.695312 C 142.476562 253.625 142.339844 253.476562 142.28125 253.25 C 142.234375 253.023438 142.289062 252.828125 142.449219 252.660156 L 180.140625 214.976562 C 180.324219 214.792969 180.539062 214.746094 180.785156 214.828125 L 193.308594 219 C 193.410156 219.035156 193.496094 219.09375 193.570312 219.171875 C 193.640625 219.253906 193.691406 219.347656 193.714844 219.453125 C 193.742188 219.554688 193.738281 219.660156 193.707031 219.765625 C 193.679688 219.871094 193.625 219.960938 193.550781 220.035156 L 155.863281 257.71875 C 155.742188 257.84375 155.59375 257.90625 155.417969 257.902344 Z M 144.054688 252.832031 L 155.253906 256.5625 L 191.945312 219.871094 L 180.75 216.136719 Z M 144.054688 252.832031 " fill-opacity="1" fill-rule="nonzero"/><path fill="#ffffff" d="M 193.101562 220.011719 C 193.058594 220.015625 193.015625 220.015625 192.972656 220.011719 L 180.449219 215.835938 C 180.339844 215.800781 180.257812 215.730469 180.207031 215.628906 C 180.15625 215.523438 180.148438 215.417969 180.183594 215.308594 C 180.222656 215.199219 180.289062 215.117188 180.394531 215.066406 C 180.496094 215.015625 180.601562 215.007812 180.710938 215.042969 L 193.234375 219.21875 C 193.351562 219.238281 193.441406 219.292969 193.511719 219.386719 C 193.578125 219.480469 193.605469 219.585938 193.585938 219.703125 C 193.566406 219.816406 193.511719 219.910156 193.417969 219.976562 C 193.324219 220.046875 193.21875 220.070312 193.101562 220.054688 Z M 193.101562 220.011719 " fill-opacity="1" fill-rule="nonzero"/><path fill="#ffffff" d="M 185.632812 212.542969 C 185.589844 212.550781 185.546875 212.550781 185.503906 212.542969 L 172.980469 208.367188 C 172.871094 208.332031 172.789062 208.261719 172.738281 208.160156 C 172.6875 208.054688 172.679688 207.949219 172.714844 207.839844 C 172.753906 207.730469 172.820312 207.648438 172.925781 207.597656 C 173.027344 207.546875 173.136719 207.539062 173.246094 207.574219 L 185.769531 211.75 C 185.878906 211.785156 185.957031 211.855469 186.007812 211.960938 C 186.0625 212.0625 186.066406 212.171875 186.03125 212.28125 C 185.960938 212.460938 185.828125 212.546875 185.632812 212.542969 Z M 185.632812 212.542969 " fill-opacity="1" fill-rule="nonzero"/><path fill="#ffffff" d="M 178.15625 205.078125 C 178.113281 205.085938 178.070312 205.085938 178.027344 205.078125 L 165.503906 200.90625 C 165.394531 200.867188 165.316406 200.796875 165.261719 200.695312 C 165.210938 200.59375 165.203125 200.484375 165.238281 200.375 C 165.277344 200.265625 165.347656 200.1875 165.449219 200.132812 C 165.550781 200.082031 165.660156 200.074219 165.769531 200.109375 L 178.292969 204.285156 C 178.40625 204.304688 178.5 204.359375 178.566406 204.457031 C 178.636719 204.550781 178.660156 204.65625 178.640625 204.769531 C 178.625 204.886719 178.566406 204.976562 178.472656 205.046875 C 178.378906 205.113281 178.273438 205.140625 178.15625 205.121094 Z M 178.15625 205.078125 " fill-opacity="1" fill-rule="nonzero"/><path fill="#ffffff" d="M 170.679688 197.589844 C 170.632812 197.589844 170.585938 197.582031 170.539062 197.566406 L 158.015625 193.390625 C 157.90625 193.355469 157.824219 193.285156 157.773438 193.179688 C 157.722656 193.078125 157.714844 192.972656 157.75 192.863281 C 157.785156 192.753906 157.855469 192.671875 157.960938 192.621094 C 158.0625 192.570312 158.167969 192.5625 158.277344 192.597656 L 170.800781 196.773438 C 170.917969 196.789062 171.007812 196.847656 171.078125 196.941406 C 171.144531 197.035156 171.171875 197.140625 171.152344 197.253906 C 171.132812 197.371094 171.078125 197.460938 170.984375 197.53125 C 170.890625 197.601562 170.785156 197.625 170.667969 197.605469 Z M 170.679688 197.589844 " fill-opacity="1" fill-rule="nonzero"/><path fill="#ffffff" d="M 163.207031 190.117188 C 163.164062 190.117188 163.121094 190.109375 163.078125 190.097656 L 150.554688 185.921875 C 150.445312 185.886719 150.367188 185.816406 150.3125 185.714844 C 150.261719 185.609375 150.253906 185.503906 150.289062 185.394531 C 150.328125 185.285156 150.398438 185.203125 150.5 185.152344 C 150.601562 185.101562 150.710938 185.09375 150.820312 185.128906 L 163.34375 189.304688 C 163.453125 189.339844 163.53125 189.410156 163.585938 189.515625 C 163.636719 189.617188 163.644531 189.722656 163.605469 189.832031 C 163.542969 190.023438 163.410156 190.117188 163.207031 190.117188 Z M 163.207031 190.117188 " fill-opacity="1" fill-rule="nonzero"/><g clip-path="url(#d8bfac646e)"><path fill="#ffffff" d="M 155.417969 182.328125 C 155.375 182.328125 155.332031 182.320312 155.289062 182.308594 L 142.765625 178.132812 C 142.65625 178.097656 142.574219 178.027344 142.523438 177.921875 C 142.472656 177.820312 142.464844 177.714844 142.5 177.605469 C 142.539062 177.496094 142.605469 177.414062 142.710938 177.363281 C 142.8125 177.3125 142.917969 177.304688 143.027344 177.339844 L 155.554688 181.515625 C 155.664062 181.550781 155.742188 181.621094 155.792969 181.722656 C 155.847656 181.828125 155.851562 181.933594 155.816406 182.042969 C 155.75 182.234375 155.621094 182.328125 155.417969 182.328125 Z M 155.417969 182.328125 " fill-opacity="1" fill-rule="nonzero"/></g><path fill="#ffffff" d="M 210.75 257.277344 L 198.9375 245.472656 L 224.816406 219.59375 L 198.9375 193.71875 L 210.75 181.910156 L 248.429688 219.59375 Z M 210.75 257.277344 " fill-opacity="1" fill-rule="nonzero"/><path fill="#ffffff" d="M 210.75 257.902344 C 210.574219 257.902344 210.429688 257.84375 210.304688 257.71875 L 198.507812 245.914062 C 198.386719 245.792969 198.328125 245.644531 198.328125 245.472656 C 198.328125 245.300781 198.386719 245.152344 198.507812 245.027344 L 223.945312 219.59375 L 198.507812 194.164062 C 198.386719 194.039062 198.328125 193.890625 198.328125 193.71875 C 198.328125 193.546875 198.386719 193.398438 198.507812 193.277344 L 210.316406 181.46875 C 210.441406 181.351562 210.589844 181.292969 210.761719 181.292969 C 210.929688 181.292969 211.078125 181.351562 211.203125 181.46875 L 248.886719 219.152344 C 249.007812 219.273438 249.066406 219.421875 249.066406 219.59375 C 249.066406 219.765625 249.007812 219.914062 248.886719 220.035156 L 211.191406 257.71875 C 211.070312 257.84375 210.921875 257.902344 210.75 257.902344 Z M 199.828125 245.472656 L 210.75 256.390625 L 247.546875 219.59375 L 210.75 182.796875 L 199.828125 193.71875 L 225.257812 219.152344 C 225.382812 219.273438 225.445312 219.421875 225.445312 219.59375 C 225.445312 219.765625 225.382812 219.914062 225.257812 220.035156 Z M 199.828125 245.472656 " fill-opacity="1" fill-rule="nonzero"/><g clip-path="url(#12cbb210cf)"><path fill="#ff81cf" d="M 198.226562 253.101562 L 186.414062 241.296875 L 212.292969 215.417969 L 186.414062 189.546875 L 198.226562 177.734375 L 235.90625 215.417969 Z M 198.226562 253.101562 " fill-opacity="1" fill-rule="nonzero"/></g><g clip-path="url(#98e09c721c)"><path fill="#ffffff" d="M 198.226562 253.730469 C 198.050781 253.730469 197.90625 253.667969 197.78125 253.546875 L 185.984375 241.738281 C 185.863281 241.617188 185.804688 241.46875 185.804688 241.296875 C 185.804688 241.125 185.863281 240.976562 185.984375 240.855469 L 211.40625 215.417969 L 185.984375 189.988281 C 185.863281 189.867188 185.804688 189.71875 185.804688 189.546875 C 185.804688 189.375 185.863281 189.226562 185.984375 189.101562 L 197.78125 177.292969 C 197.90625 177.175781 198.054688 177.117188 198.226562 177.117188 C 198.394531 177.117188 198.542969 177.175781 198.667969 177.292969 L 236.351562 214.976562 C 236.472656 215.097656 236.53125 215.246094 236.53125 215.417969 C 236.53125 215.589844 236.472656 215.738281 236.351562 215.863281 L 198.667969 253.546875 C 198.546875 253.667969 198.398438 253.730469 198.226562 253.730469 Z M 187.304688 241.296875 L 198.226562 252.21875 L 235.023438 215.417969 L 198.226562 178.621094 L 187.304688 189.546875 L 212.734375 214.976562 C 212.859375 215.097656 212.921875 215.246094 212.921875 215.417969 C 212.921875 215.59375 212.859375 215.738281 212.734375 215.863281 Z M 187.304688 241.296875 " fill-opacity="1" fill-rule="nonzero"/></g><g clip-path="url(#2625c37e04)"><path fill="#ffffff" d="M 198.226562 177.734375 L 210.75 181.910156 L 248.429688 219.59375 L 235.90625 215.417969 Z M 198.226562 177.734375 " fill-opacity="1" fill-rule="nonzero"/></g><g clip-path="url(#4c7b8bc2a4)"><path fill="#ffffff" d="M 248.429688 220.21875 C 248.363281 220.222656 248.296875 220.210938 248.230469 220.1875 L 235.707031 216.011719 C 235.613281 215.984375 235.53125 215.933594 235.464844 215.863281 L 197.78125 178.179688 C 197.679688 178.074219 197.621094 177.953125 197.605469 177.808594 C 197.589844 177.664062 197.621094 177.53125 197.695312 177.410156 C 197.769531 177.289062 197.875 177.199219 198.011719 177.152344 C 198.148438 177.101562 198.285156 177.097656 198.421875 177.144531 L 210.945312 181.316406 C 211.039062 181.347656 211.121094 181.398438 211.191406 181.46875 L 248.875 219.152344 C 248.976562 219.253906 249.035156 219.378906 249.050781 219.523438 C 249.070312 219.667969 249.039062 219.800781 248.960938 219.921875 C 248.839844 220.121094 248.664062 220.222656 248.429688 220.21875 Z M 236.246094 214.871094 L 246.097656 218.160156 L 210.410156 182.457031 L 200.542969 179.167969 Z M 236.246094 214.871094 " fill-opacity="1" fill-rule="nonzero"/></g><path fill="#ffffff" d="M 198.226562 253.101562 L 210.75 257.277344 L 248.429688 219.59375 L 235.90625 215.417969 Z M 198.226562 253.101562 " fill-opacity="1" fill-rule="nonzero"/><path fill="#ffffff" d="M 210.75 257.902344 C 210.679688 257.90625 210.617188 257.894531 210.550781 257.871094 L 198.027344 253.695312 C 197.804688 253.625 197.664062 253.476562 197.609375 253.25 C 197.558594 253.019531 197.613281 252.824219 197.777344 252.660156 L 235.460938 214.976562 C 235.644531 214.792969 235.855469 214.746094 236.101562 214.828125 L 248.625 219 C 248.726562 219.035156 248.8125 219.09375 248.886719 219.171875 C 248.960938 219.253906 249.007812 219.34375 249.035156 219.449219 C 249.058594 219.554688 249.058594 219.660156 249.027344 219.765625 C 249 219.867188 248.945312 219.960938 248.871094 220.035156 L 211.191406 257.71875 C 211.070312 257.84375 210.921875 257.902344 210.75 257.902344 Z M 199.386719 252.832031 L 210.578125 256.5625 L 247.269531 219.871094 L 236.078125 216.136719 Z M 199.386719 252.832031 " fill-opacity="1" fill-rule="nonzero"/><path fill="#ffffff" d="M 248.429688 220.011719 C 248.386719 220.015625 248.34375 220.015625 248.300781 220.011719 L 235.777344 215.835938 C 235.667969 215.800781 235.589844 215.730469 235.535156 215.628906 C 235.484375 215.523438 235.476562 215.417969 235.511719 215.308594 C 235.550781 215.199219 235.621094 215.117188 235.722656 215.066406 C 235.824219 215.015625 235.933594 215.007812 236.042969 215.042969 L 248.566406 219.21875 C 248.679688 219.238281 248.773438 219.292969 248.839844 219.386719 C 248.910156 219.480469 248.933594 219.585938 248.914062 219.703125 C 248.894531 219.816406 248.839844 219.910156 248.746094 219.976562 C 248.652344 220.046875 248.546875 220.070312 248.429688 220.054688 Z M 248.429688 220.011719 " fill-opacity="1" fill-rule="nonzero"/><path fill="#ffffff" d="M 240.964844 212.542969 C 240.921875 212.550781 240.878906 212.550781 240.832031 212.542969 L 228.308594 208.367188 C 228.199219 208.332031 228.121094 208.261719 228.066406 208.160156 C 228.015625 208.054688 228.007812 207.949219 228.042969 207.839844 C 228.082031 207.730469 228.152344 207.648438 228.253906 207.597656 C 228.355469 207.546875 228.464844 207.539062 228.574219 207.574219 L 241.097656 211.75 C 241.207031 211.785156 241.289062 211.855469 241.339844 211.960938 C 241.390625 212.0625 241.398438 212.171875 241.359375 212.28125 C 241.289062 212.460938 241.15625 212.546875 240.964844 212.542969 Z M 240.964844 212.542969 " fill-opacity="1" fill-rule="nonzero"/><path fill="#ffffff" d="M 233.488281 205.078125 C 233.445312 205.085938 233.402344 205.085938 233.355469 205.078125 L 220.832031 200.90625 C 220.722656 200.867188 220.644531 200.796875 220.589844 200.695312 C 220.539062 200.59375 220.53125 200.484375 220.566406 200.375 C 220.605469 200.265625 220.675781 200.1875 220.777344 200.132812 C 220.878906 200.082031 220.988281 200.074219 221.097656 200.109375 L 233.621094 204.285156 C 233.734375 204.304688 233.828125 204.359375 233.894531 204.457031 C 233.964844 204.550781 233.988281 204.65625 233.972656 204.769531 C 233.953125 204.886719 233.894531 204.976562 233.800781 205.046875 C 233.707031 205.113281 233.601562 205.140625 233.488281 205.121094 Z M 233.488281 205.078125 " fill-opacity="1" fill-rule="nonzero"/><path fill="#ffffff" d="M 226.011719 197.589844 C 225.964844 197.589844 225.921875 197.582031 225.878906 197.570312 L 213.355469 193.394531 C 213.246094 193.359375 213.167969 193.289062 213.113281 193.183594 C 213.0625 193.082031 213.054688 192.976562 213.089844 192.867188 C 213.128906 192.757812 213.199219 192.675781 213.300781 192.625 C 213.40625 192.574219 213.511719 192.566406 213.621094 192.601562 L 226.144531 196.777344 C 226.257812 196.792969 226.351562 196.851562 226.417969 196.945312 C 226.488281 197.039062 226.511719 197.144531 226.496094 197.261719 C 226.476562 197.375 226.417969 197.46875 226.324219 197.535156 C 226.230469 197.605469 226.125 197.628906 226.011719 197.609375 Z M 226.011719 197.589844 " fill-opacity="1" fill-rule="nonzero"/><path fill="#ffffff" d="M 218.546875 190.117188 C 218.503906 190.117188 218.457031 190.109375 218.417969 190.097656 L 205.894531 185.921875 C 205.785156 185.886719 205.703125 185.816406 205.652344 185.714844 C 205.597656 185.609375 205.59375 185.503906 205.628906 185.394531 C 205.664062 185.285156 205.734375 185.203125 205.835938 185.152344 C 205.941406 185.101562 206.046875 185.09375 206.15625 185.128906 L 218.679688 189.304688 C 218.777344 189.335938 218.851562 189.394531 218.90625 189.484375 C 218.960938 189.570312 218.976562 189.667969 218.960938 189.769531 C 218.945312 189.867188 218.898438 189.953125 218.820312 190.019531 C 218.738281 190.085938 218.648438 190.117188 218.546875 190.117188 Z M 218.546875 190.117188 " fill-opacity="1" fill-rule="nonzero"/><g clip-path="url(#48ccaf8145)"><path fill="#ffffff" d="M 210.75 182.328125 C 210.703125 182.328125 210.660156 182.320312 210.617188 182.308594 L 198.09375 178.132812 C 197.984375 178.097656 197.90625 178.027344 197.851562 177.921875 C 197.800781 177.820312 197.792969 177.714844 197.832031 177.605469 C 197.867188 177.496094 197.9375 177.414062 198.039062 177.363281 C 198.140625 177.3125 198.25 177.304688 198.359375 177.339844 L 210.882812 181.515625 C 210.992188 181.550781 211.070312 181.621094 211.125 181.722656 C 211.175781 181.828125 211.183594 181.933594 211.144531 182.042969 C 211.082031 182.234375 210.949219 182.328125 210.75 182.328125 Z M 210.75 182.328125 " fill-opacity="1" fill-rule="nonzero"/></g><path fill="#ffffff" d="M 266.074219 257.277344 L 254.265625 245.472656 L 280.144531 219.59375 L 254.265625 193.71875 L 266.074219 181.910156 L 303.757812 219.59375 Z M 266.074219 257.277344 " fill-opacity="1" fill-rule="nonzero"/><g clip-path="url(#95e9dd0cfa)"><path fill="#ffffff" d="M 266.074219 257.902344 C 265.902344 257.902344 265.753906 257.839844 265.628906 257.71875 L 253.824219 245.914062 C 253.703125 245.792969 253.640625 245.644531 253.640625 245.472656 C 253.640625 245.296875 253.703125 245.152344 253.824219 245.027344 L 279.257812 219.59375 L 253.824219 194.164062 C 253.703125 194.039062 253.640625 193.894531 253.640625 193.71875 C 253.640625 193.546875 253.703125 193.398438 253.824219 193.277344 L 265.628906 181.46875 C 265.753906 181.351562 265.902344 181.292969 266.074219 181.292969 C 266.242188 181.292969 266.390625 181.351562 266.515625 181.46875 L 304.199219 219.152344 C 304.320312 219.273438 304.382812 219.421875 304.382812 219.59375 C 304.382812 219.765625 304.320312 219.914062 304.199219 220.035156 L 266.515625 257.71875 C 266.394531 257.84375 266.246094 257.902344 266.074219 257.902344 Z M 255.152344 245.472656 L 266.074219 256.390625 L 302.871094 219.59375 L 266.074219 182.796875 L 255.152344 193.71875 L 280.582031 219.152344 C 280.707031 219.273438 280.765625 219.421875 280.765625 219.59375 C 280.765625 219.765625 280.707031 219.914062 280.582031 220.035156 Z M 255.152344 245.472656 " fill-opacity="1" fill-rule="nonzero"/></g><g clip-path="url(#24f4e1c67f)"><path fill="#ff81cf" d="M 253.550781 253.101562 L 241.742188 241.296875 L 267.621094 215.417969 L 241.742188 189.546875 L 253.550781 177.734375 L 291.234375 215.417969 Z M 253.550781 253.101562 " fill-opacity="1" fill-rule="nonzero"/><path fill="#ffffff" d="M 253.550781 253.730469 C 253.378906 253.726562 253.230469 253.667969 253.105469 253.546875 L 241.300781 241.738281 C 241.179688 241.617188 241.117188 241.46875 241.117188 241.296875 C 241.117188 241.125 241.179688 240.976562 241.300781 240.855469 L 266.734375 215.417969 L 241.300781 189.988281 C 241.179688 189.867188 241.117188 189.71875 241.117188 189.546875 C 241.117188 189.371094 241.179688 189.226562 241.300781 189.101562 L 253.105469 177.292969 C 253.230469 177.175781 253.378906 177.117188 253.550781 177.117188 C 253.71875 177.117188 253.867188 177.175781 253.992188 177.292969 L 291.675781 214.976562 C 291.796875 215.097656 291.859375 215.246094 291.859375 215.417969 C 291.859375 215.59375 291.796875 215.738281 291.675781 215.863281 L 253.992188 253.546875 C 253.871094 253.667969 253.722656 253.730469 253.550781 253.730469 Z M 242.628906 241.296875 L 253.550781 252.21875 L 290.347656 215.417969 L 253.550781 178.621094 L 242.628906 189.546875 L 268.058594 214.976562 C 268.183594 215.097656 268.242188 215.246094 268.242188 215.417969 C 268.242188 215.59375 268.183594 215.738281 268.058594 215.863281 Z M 242.628906 241.296875 " fill-opacity="1" fill-rule="nonzero"/></g><g clip-path="url(#b4071bc9ab)"><path fill="#ffffff" d="M 253.550781 177.734375 L 266.074219 181.910156 L 303.757812 219.59375 L 291.234375 215.417969 Z M 253.550781 177.734375 " fill-opacity="1" fill-rule="nonzero"/></g><g clip-path="url(#ae73fdaa1a)"><path fill="#ffffff" d="M 303.757812 220.21875 C 303.6875 220.222656 303.625 220.210938 303.558594 220.1875 L 291.035156 216.011719 C 290.941406 215.980469 290.859375 215.933594 290.789062 215.863281 L 253.105469 178.179688 C 253.003906 178.074219 252.945312 177.953125 252.929688 177.808594 C 252.914062 177.664062 252.941406 177.53125 253.019531 177.40625 C 253.09375 177.285156 253.203125 177.195312 253.339844 177.148438 C 253.476562 177.097656 253.613281 177.097656 253.75 177.144531 L 266.273438 181.316406 C 266.367188 181.347656 266.445312 181.398438 266.515625 181.46875 L 304.199219 219.152344 C 304.394531 219.347656 304.441406 219.574219 304.335938 219.832031 C 304.226562 220.089844 304.035156 220.21875 303.757812 220.21875 Z M 291.570312 214.871094 L 301.441406 218.160156 L 265.71875 182.457031 L 255.871094 179.167969 Z M 291.570312 214.871094 " fill-opacity="1" fill-rule="nonzero"/></g><path fill="#ffffff" d="M 253.550781 253.101562 L 266.074219 257.277344 L 303.757812 219.59375 L 291.234375 215.417969 Z M 253.550781 253.101562 " fill-opacity="1" fill-rule="nonzero"/><g clip-path="url(#5baf85bcba)"><path fill="#ffffff" d="M 266.074219 257.902344 C 266.003906 257.90625 265.941406 257.894531 265.875 257.871094 L 253.351562 253.695312 C 253.25 253.660156 253.160156 253.605469 253.085938 253.527344 C 253.011719 253.445312 252.964844 253.351562 252.9375 253.246094 C 252.914062 253.140625 252.914062 253.035156 252.945312 252.929688 C 252.976562 252.828125 253.03125 252.738281 253.105469 252.660156 L 290.789062 214.976562 C 290.972656 214.792969 291.1875 214.746094 291.433594 214.828125 L 303.957031 219 C 304.058594 219.035156 304.148438 219.09375 304.21875 219.171875 C 304.292969 219.253906 304.339844 219.347656 304.367188 219.453125 C 304.390625 219.554688 304.386719 219.660156 304.359375 219.765625 C 304.328125 219.871094 304.273438 219.960938 304.199219 220.035156 L 266.515625 257.71875 C 266.394531 257.84375 266.246094 257.90625 266.074219 257.902344 Z M 254.710938 252.832031 L 265.90625 256.5625 L 302.601562 219.871094 L 291.402344 216.136719 Z M 254.710938 252.832031 " fill-opacity="1" fill-rule="nonzero"/></g><g clip-path="url(#ee7ccaeeff)"><path fill="#ffffff" d="M 303.757812 220.011719 C 303.714844 220.015625 303.671875 220.015625 303.628906 220.011719 L 291.101562 215.835938 C 290.992188 215.800781 290.914062 215.730469 290.863281 215.628906 C 290.808594 215.523438 290.800781 215.417969 290.839844 215.308594 C 290.875 215.199219 290.945312 215.117188 291.046875 215.066406 C 291.152344 215.015625 291.257812 215.007812 291.367188 215.042969 L 303.890625 219.21875 C 304.003906 219.238281 304.097656 219.292969 304.164062 219.386719 C 304.234375 219.480469 304.257812 219.585938 304.238281 219.703125 C 304.222656 219.816406 304.164062 219.910156 304.070312 219.976562 C 303.976562 220.046875 303.871094 220.070312 303.757812 220.054688 Z M 303.757812 220.011719 " fill-opacity="1" fill-rule="nonzero"/></g><path fill="#ffffff" d="M 296.289062 212.542969 C 296.246094 212.550781 296.203125 212.550781 296.160156 212.542969 L 283.636719 208.367188 C 283.527344 208.332031 283.445312 208.261719 283.394531 208.160156 C 283.339844 208.054688 283.332031 207.949219 283.371094 207.839844 C 283.40625 207.730469 283.476562 207.648438 283.578125 207.597656 C 283.683594 207.546875 283.789062 207.539062 283.898438 207.574219 L 296.421875 211.75 C 296.519531 211.78125 296.59375 211.84375 296.648438 211.929688 C 296.703125 212.019531 296.71875 212.113281 296.703125 212.214844 C 296.6875 212.316406 296.640625 212.398438 296.558594 212.464844 C 296.480469 212.53125 296.390625 212.566406 296.289062 212.5625 Z M 296.289062 212.542969 " fill-opacity="1" fill-rule="nonzero"/><path fill="#ffffff" d="M 288.8125 205.078125 C 288.769531 205.085938 288.726562 205.085938 288.683594 205.078125 L 276.160156 200.90625 C 276.050781 200.867188 275.96875 200.796875 275.917969 200.695312 C 275.863281 200.59375 275.855469 200.484375 275.894531 200.375 C 275.929688 200.265625 276 200.1875 276.101562 200.132812 C 276.207031 200.082031 276.3125 200.074219 276.421875 200.109375 L 288.945312 204.285156 C 289.058594 204.304688 289.152344 204.359375 289.222656 204.457031 C 289.289062 204.550781 289.3125 204.65625 289.296875 204.769531 C 289.277344 204.886719 289.222656 204.976562 289.125 205.046875 C 289.03125 205.113281 288.925781 205.140625 288.8125 205.121094 Z M 288.8125 205.078125 " fill-opacity="1" fill-rule="nonzero"/><path fill="#ffffff" d="M 281.335938 197.589844 C 281.289062 197.589844 281.246094 197.582031 281.207031 197.570312 L 268.683594 193.394531 C 268.574219 193.359375 268.492188 193.289062 268.441406 193.183594 C 268.386719 193.082031 268.378906 192.976562 268.417969 192.867188 C 268.453125 192.757812 268.523438 192.675781 268.625 192.625 C 268.730469 192.574219 268.835938 192.566406 268.945312 192.601562 L 281.46875 196.777344 C 281.582031 196.792969 281.675781 196.851562 281.742188 196.945312 C 281.8125 197.039062 281.835938 197.144531 281.820312 197.261719 C 281.800781 197.375 281.742188 197.46875 281.648438 197.535156 C 281.554688 197.605469 281.449219 197.628906 281.335938 197.609375 Z M 281.335938 197.589844 " fill-opacity="1" fill-rule="nonzero"/><path fill="#ffffff" d="M 273.863281 190.117188 C 273.820312 190.117188 273.777344 190.109375 273.734375 190.097656 L 261.210938 185.921875 C 261.101562 185.886719 261.019531 185.816406 260.96875 185.714844 C 260.917969 185.609375 260.910156 185.503906 260.945312 185.394531 C 260.980469 185.285156 261.050781 185.203125 261.152344 185.152344 C 261.257812 185.101562 261.363281 185.09375 261.472656 185.128906 L 273.996094 189.304688 C 274.105469 189.339844 274.1875 189.410156 274.238281 189.515625 C 274.289062 189.617188 274.296875 189.722656 274.257812 189.832031 C 274.195312 190.023438 274.0625 190.117188 273.863281 190.117188 Z M 273.863281 190.117188 " fill-opacity="1" fill-rule="nonzero"/><g clip-path="url(#2ea15460e2)"><path fill="#ffffff" d="M 266.074219 182.328125 C 266.027344 182.328125 265.984375 182.320312 265.945312 182.308594 L 253.421875 178.132812 C 253.308594 178.097656 253.230469 178.027344 253.179688 177.921875 C 253.125 177.820312 253.117188 177.714844 253.15625 177.605469 C 253.191406 177.496094 253.261719 177.414062 253.363281 177.363281 C 253.46875 177.308594 253.574219 177.304688 253.683594 177.339844 L 266.207031 181.515625 C 266.316406 181.550781 266.398438 181.621094 266.449219 181.722656 C 266.5 181.828125 266.507812 181.933594 266.46875 182.042969 C 266.40625 182.234375 266.273438 182.328125 266.074219 182.328125 Z M 266.074219 182.328125 " fill-opacity="1" fill-rule="nonzero"/></g></svg>