<svg xmlns="http://www.w3.org/2000/svg" xmlns:xlink="http://www.w3.org/1999/xlink" width="580" zoomAndPan="magnify" viewBox="0 0 434.88 434.999989" height="580" preserveAspectRatio="xMidYMid meet" version="1.0"><defs><clipPath id="bf8ff5aa73"><path d="M 138 74 L 155 74 L 155 167 L 138 167 Z M 138 74 " clip-rule="nonzero"/></clipPath><clipPath id="86f089ad38"><path d="M 138.03125 110.683594 L 197.007812 46.164062 L 258.457031 102.335938 L 199.476562 166.855469 Z M 138.03125 110.683594 " clip-rule="nonzero"/></clipPath><clipPath id="d726e95998"><path d="M -38.578125 207.953125 L 149.597656 2.105469 L 258.664062 101.808594 L 70.488281 307.65625 Z M -38.578125 207.953125 " clip-rule="nonzero"/></clipPath><clipPath id="cbaca1c039"><path d="M 186 60 L 213 60 L 213 163 L 186 163 Z M 186 60 " clip-rule="nonzero"/></clipPath><clipPath id="7a89a4357a"><path d="M 138.03125 110.683594 L 197.007812 46.164062 L 258.457031 102.335938 L 199.476562 166.855469 Z M 138.03125 110.683594 " clip-rule="nonzero"/></clipPath><clipPath id="39601045aa"><path d="M -38.578125 207.953125 L 149.597656 2.105469 L 258.664062 101.808594 L 70.488281 307.65625 Z M -38.578125 207.953125 " clip-rule="nonzero"/></clipPath><clipPath id="a36166f16e"><path d="M 113 76 L 181 76 L 181 171 L 113 171 Z M 113 76 " clip-rule="nonzero"/></clipPath><clipPath id="8c3f250cfb"><path d="M 79.101562 109.132812 L 114.34375 62.722656 L 207.167969 133.207031 L 171.925781 179.617188 Z M 79.101562 109.132812 " clip-rule="nonzero"/></clipPath><clipPath id="23df96ebac"><path d="M -7.460938 223.132812 L 161.199219 1.015625 L 278.886719 90.378906 L 110.226562 312.496094 Z M -7.460938 223.132812 " clip-rule="nonzero"/></clipPath><clipPath id="e7ab659d49"><path d="M 203 62 L 208 62 L 208 157 L 203 157 Z M 203 62 " clip-rule="nonzero"/></clipPath><clipPath id="96822a22c3"><path d="M 79.101562 109.132812 L 114.34375 62.722656 L 207.167969 133.207031 L 171.925781 179.617188 Z M 79.101562 109.132812 " clip-rule="nonzero"/></clipPath><clipPath id="f44fb50df2"><path d="M -7.460938 223.132812 L 161.199219 1.015625 L 278.886719 90.378906 L 110.226562 312.496094 Z M -7.460938 223.132812 " clip-rule="nonzero"/></clipPath><clipPath id="045e34f519"><path d="M 52 113 L 143 113 L 143 192 L 52 192 Z M 52 113 " clip-rule="nonzero"/></clipPath><clipPath id="7b7e422b24"><path d="M 40.453125 150.652344 L 79.09375 96.40625 L 199.453125 182.140625 L 160.8125 236.386719 Z M 40.453125 150.652344 " clip-rule="nonzero"/></clipPath><clipPath id="e76d482902"><path d="M -2.820312 211.402344 L 158.988281 -15.753906 L 279.347656 69.976562 L 117.539062 297.136719 Z M -2.820312 211.402344 " clip-rule="nonzero"/></clipPath><clipPath id="1bfaee6815"><path d="M 22 179 L 126 179 L 126 219 L 22 219 Z M 22 179 " clip-rule="nonzero"/></clipPath><clipPath id="8f31a5023e"><path d="M 8.890625 194.230469 L 47.53125 139.984375 L 167.890625 225.71875 L 129.253906 279.964844 Z M 8.890625 194.230469 " clip-rule="nonzero"/></clipPath><clipPath id="dff5a26224"><path d="M 8.890625 194.230469 L 170.699219 -32.925781 L 291.058594 52.808594 L 129.253906 279.964844 Z M 8.890625 194.230469 " clip-rule="nonzero"/></clipPath><clipPath id="9bb27aef55"><path d="M 229 74 L 294 74 L 294 173 L 229 173 Z M 229 74 " clip-rule="nonzero"/></clipPath><clipPath id="f0406597b6"><path d="M 252.636719 65.71875 L 312.863281 94.152344 L 249.773438 227.78125 L 189.546875 199.34375 Z M 252.636719 65.71875 " clip-rule="nonzero"/></clipPath><clipPath id="820a00bffa"><path d="M 185.191406 33.875 L 437.390625 152.949219 L 374.296875 286.574219 L 122.101562 167.5 Z M 185.191406 33.875 " clip-rule="nonzero"/></clipPath><clipPath id="242b49f767"><rect x="0" width="308" y="0" height="265"/></clipPath></defs><g transform="matrix(1, 0, 0, 1, 55, 54)"><g clip-path="url(#242b49f767)"><g clip-path="url(#bf8ff5aa73)"><g clip-path="url(#86f089ad38)"><g clip-path="url(#d726e95998)"><path fill="#e0d045" d="M 93.984375 86.910156 L 148.230469 171.710938 L 154.136719 167.875 L 115.996094 74.53125 Z M 93.984375 86.910156 " fill-opacity="1" fill-rule="nonzero"/></g></g></g><g clip-path="url(#cbaca1c039)"><g clip-path="url(#7a89a4357a)"><g clip-path="url(#39601045aa)"><path fill="#e0d045" d="M 186.902344 62.355469 L 198.121094 162.386719 L 205.089844 161.558594 L 212.132812 60.953125 Z M 186.902344 62.355469 " fill-opacity="1" fill-rule="nonzero"/></g></g></g><g clip-path="url(#a36166f16e)"><g clip-path="url(#8c3f250cfb)"><g clip-path="url(#23df96ebac)"><path fill="#44b7e6" d="M 113.535156 90.527344 L 175.273438 170.039062 L 180.804688 165.683594 L 134.328125 76.195312 Z M 113.535156 90.527344 " fill-opacity="1" fill-rule="nonzero"/></g></g></g><g clip-path="url(#e7ab659d49)"><g clip-path="url(#96822a22c3)"><g clip-path="url(#f44fb50df2)"><path fill="#44b7e6" d="M 203.835938 57.621094 L 224.109375 156.214844 L 230.972656 154.753906 L 228.828125 53.925781 Z M 203.835938 57.621094 " fill-opacity="1" fill-rule="nonzero"/></g></g></g><g clip-path="url(#045e34f519)"><g clip-path="url(#7b7e422b24)"><g clip-path="url(#e76d482902)"><path fill="#dd803d" d="M 52.183594 134.183594 L 54.582031 135.792969 L 54.535156 135.855469 L 138.289062 191.6875 L 142.164062 185.84375 L 69.722656 115.664062 L 69.476562 116.011719 L 67.371094 113.988281 Z M 52.183594 134.183594 " fill-opacity="1" fill-rule="nonzero"/></g></g></g><g clip-path="url(#1bfaee6815)"><g clip-path="url(#8f31a5023e)"><g clip-path="url(#dff5a26224)"><path fill="#9dc57f" d="M 27.5625 179.101562 L 22.84375 203.914062 L 25.4375 204.25 L 25.195312 205.589844 L 125.011719 218.6875 L 125.859375 211.726562 L 123.40625 210.925781 L 123.507812 210.050781 Z M 27.5625 179.101562 " fill-opacity="1" fill-rule="nonzero"/></g></g></g><g clip-path="url(#9bb27aef55)"><g clip-path="url(#f0406597b6)"><g clip-path="url(#820a00bffa)"><path fill="#ff81cf" d="M 270.925781 74.351562 L 269.761719 76.996094 L 269.691406 76.964844 L 229.558594 169.269531 L 235.992188 172.054688 L 292.253906 88.339844 L 291.871094 88.160156 L 293.484375 85.726562 Z M 270.925781 74.351562 " fill-opacity="1" fill-rule="nonzero"/></g></g></g></g></g></svg>