<svg xmlns="http://www.w3.org/2000/svg" xmlns:xlink="http://www.w3.org/1999/xlink" width="580" zoomAndPan="magnify" viewBox="0 0 434.88 434.999989" height="580" preserveAspectRatio="xMidYMid meet" version="1.0"><defs><clipPath id="f20a02e59e"><path d="M 132 180 L 327 180 L 327 282 L 132 282 Z M 132 180 " clip-rule="nonzero"/></clipPath><clipPath id="2532f4045d"><path d="M 83.117188 227.910156 L 203.597656 83.332031 L 351.628906 206.695312 L 231.148438 351.269531 Z M 83.117188 227.910156 " clip-rule="nonzero"/></clipPath><clipPath id="66556c1ed2"><path d="M 83.117188 227.910156 L 203.597656 83.332031 L 351.628906 206.695312 L 231.148438 351.269531 Z M 83.117188 227.910156 " clip-rule="nonzero"/></clipPath><clipPath id="3f203ef0b5"><path d="M 131 179 L 328 179 L 328 283 L 131 283 Z M 131 179 " clip-rule="nonzero"/></clipPath><clipPath id="9823cece06"><path d="M 83.117188 227.910156 L 203.597656 83.332031 L 351.628906 206.695312 L 231.148438 351.269531 Z M 83.117188 227.910156 " clip-rule="nonzero"/></clipPath><clipPath id="a64b746f8e"><path d="M 83.117188 227.910156 L 203.597656 83.332031 L 351.628906 206.695312 L 231.148438 351.269531 Z M 83.117188 227.910156 " clip-rule="nonzero"/></clipPath><clipPath id="13a8f506de"><path d="M 262 251 L 281 251 L 281 278 L 262 278 Z M 262 251 " clip-rule="nonzero"/></clipPath><clipPath id="8f1812b383"><path d="M 83.117188 227.910156 L 203.597656 83.332031 L 351.628906 206.695312 L 231.148438 351.269531 Z M 83.117188 227.910156 " clip-rule="nonzero"/></clipPath><clipPath id="37e60cba62"><path d="M 83.117188 227.910156 L 203.597656 83.332031 L 351.628906 206.695312 L 231.148438 351.269531 Z M 83.117188 227.910156 " clip-rule="nonzero"/></clipPath><clipPath id="d119d492c4"><path d="M 261 250 L 282 250 L 282 279 L 261 279 Z M 261 250 " clip-rule="nonzero"/></clipPath><clipPath id="f0d0e07ac2"><path d="M 83.117188 227.910156 L 203.597656 83.332031 L 351.628906 206.695312 L 231.148438 351.269531 Z M 83.117188 227.910156 " clip-rule="nonzero"/></clipPath><clipPath id="6cb37d294a"><path d="M 83.117188 227.910156 L 203.597656 83.332031 L 351.628906 206.695312 L 231.148438 351.269531 Z M 83.117188 227.910156 " clip-rule="nonzero"/></clipPath><clipPath id="6965f6e62f"><path d="M 115 190 L 310 190 L 310 292 L 115 292 Z M 115 190 " clip-rule="nonzero"/></clipPath><clipPath id="1ccf972fe6"><path d="M 83.117188 227.910156 L 203.597656 83.332031 L 351.628906 206.695312 L 231.148438 351.269531 Z M 83.117188 227.910156 " clip-rule="nonzero"/></clipPath><clipPath id="b6063f06a7"><path d="M 83.117188 227.910156 L 203.597656 83.332031 L 351.628906 206.695312 L 231.148438 351.269531 Z M 83.117188 227.910156 " clip-rule="nonzero"/></clipPath><clipPath id="184382981d"><path d="M 114 189 L 311 189 L 311 293 L 114 293 Z M 114 189 " clip-rule="nonzero"/></clipPath><clipPath id="8baf645b7b"><path d="M 83.117188 227.910156 L 203.597656 83.332031 L 351.628906 206.695312 L 231.148438 351.269531 Z M 83.117188 227.910156 " clip-rule="nonzero"/></clipPath><clipPath id="fee0cb82c5"><path d="M 83.117188 227.910156 L 203.597656 83.332031 L 351.628906 206.695312 L 231.148438 351.269531 Z M 83.117188 227.910156 " clip-rule="nonzero"/></clipPath><clipPath id="aa7e022524"><path d="M 115 180 L 327 180 L 327 198 L 115 198 Z M 115 180 " clip-rule="nonzero"/></clipPath><clipPath id="aa7cfbb9fc"><path d="M 83.117188 227.910156 L 203.597656 83.332031 L 351.628906 206.695312 L 231.148438 351.269531 Z M 83.117188 227.910156 " clip-rule="nonzero"/></clipPath><clipPath id="a5bdf06ef1"><path d="M 83.117188 227.910156 L 203.597656 83.332031 L 351.628906 206.695312 L 231.148438 351.269531 Z M 83.117188 227.910156 " clip-rule="nonzero"/></clipPath><clipPath id="65e3ff1afa"><path d="M 114 179 L 328 179 L 328 199 L 114 199 Z M 114 179 " clip-rule="nonzero"/></clipPath><clipPath id="40c5574d62"><path d="M 83.117188 227.910156 L 203.597656 83.332031 L 351.628906 206.695312 L 231.148438 351.269531 Z M 83.117188 227.910156 " clip-rule="nonzero"/></clipPath><clipPath id="28249a3e8f"><path d="M 83.117188 227.910156 L 203.597656 83.332031 L 351.628906 206.695312 L 231.148438 351.269531 Z M 83.117188 227.910156 " clip-rule="nonzero"/></clipPath><clipPath id="66c315a376"><path d="M 114 179 L 133 179 L 133 192 L 114 192 Z M 114 179 " clip-rule="nonzero"/></clipPath><clipPath id="daf0692579"><path d="M 83.117188 227.910156 L 203.597656 83.332031 L 351.628906 206.695312 L 231.148438 351.269531 Z M 83.117188 227.910156 " clip-rule="nonzero"/></clipPath><clipPath id="b342b6713e"><path d="M 83.117188 227.910156 L 203.597656 83.332031 L 351.628906 206.695312 L 231.148438 351.269531 Z M 83.117188 227.910156 " clip-rule="nonzero"/></clipPath><clipPath id="66f402a9c1"><path d="M 130 180 L 149 180 L 149 193 L 130 193 Z M 130 180 " clip-rule="nonzero"/></clipPath><clipPath id="5e851c2512"><path d="M 83.117188 227.910156 L 203.597656 83.332031 L 351.628906 206.695312 L 231.148438 351.269531 Z M 83.117188 227.910156 " clip-rule="nonzero"/></clipPath><clipPath id="30c456cdae"><path d="M 83.117188 227.910156 L 203.597656 83.332031 L 351.628906 206.695312 L 231.148438 351.269531 Z M 83.117188 227.910156 " clip-rule="nonzero"/></clipPath><clipPath id="5527a695d3"><path d="M 146 180 L 165 180 L 165 193 L 146 193 Z M 146 180 " clip-rule="nonzero"/></clipPath><clipPath id="ffce96c870"><path d="M 83.117188 227.910156 L 203.597656 83.332031 L 351.628906 206.695312 L 231.148438 351.269531 Z M 83.117188 227.910156 " clip-rule="nonzero"/></clipPath><clipPath id="ee142f95db"><path d="M 83.117188 227.910156 L 203.597656 83.332031 L 351.628906 206.695312 L 231.148438 351.269531 Z M 83.117188 227.910156 " clip-rule="nonzero"/></clipPath><clipPath id="d70aaf7004"><path d="M 162 181 L 181 181 L 181 194 L 162 194 Z M 162 181 " clip-rule="nonzero"/></clipPath><clipPath id="ff88ac40d3"><path d="M 83.117188 227.910156 L 203.597656 83.332031 L 351.628906 206.695312 L 231.148438 351.269531 Z M 83.117188 227.910156 " clip-rule="nonzero"/></clipPath><clipPath id="1c99e3c478"><path d="M 83.117188 227.910156 L 203.597656 83.332031 L 351.628906 206.695312 L 231.148438 351.269531 Z M 83.117188 227.910156 " clip-rule="nonzero"/></clipPath><clipPath id="04eae0c5f4"><path d="M 178 182 L 197 182 L 197 194 L 178 194 Z M 178 182 " clip-rule="nonzero"/></clipPath><clipPath id="80026af6c3"><path d="M 83.117188 227.910156 L 203.597656 83.332031 L 351.628906 206.695312 L 231.148438 351.269531 Z M 83.117188 227.910156 " clip-rule="nonzero"/></clipPath><clipPath id="c8c0c52432"><path d="M 83.117188 227.910156 L 203.597656 83.332031 L 351.628906 206.695312 L 231.148438 351.269531 Z M 83.117188 227.910156 " clip-rule="nonzero"/></clipPath><clipPath id="663d57fa2d"><path d="M 194 182 L 214 182 L 214 195 L 194 195 Z M 194 182 " clip-rule="nonzero"/></clipPath><clipPath id="b4b5e0dd46"><path d="M 83.117188 227.910156 L 203.597656 83.332031 L 351.628906 206.695312 L 231.148438 351.269531 Z M 83.117188 227.910156 " clip-rule="nonzero"/></clipPath><clipPath id="35a9334559"><path d="M 83.117188 227.910156 L 203.597656 83.332031 L 351.628906 206.695312 L 231.148438 351.269531 Z M 83.117188 227.910156 " clip-rule="nonzero"/></clipPath><clipPath id="86786841bc"><path d="M 210 183 L 229 183 L 229 195 L 210 195 Z M 210 183 " clip-rule="nonzero"/></clipPath><clipPath id="1612e3d39b"><path d="M 83.117188 227.910156 L 203.597656 83.332031 L 351.628906 206.695312 L 231.148438 351.269531 Z M 83.117188 227.910156 " clip-rule="nonzero"/></clipPath><clipPath id="55c7a61956"><path d="M 83.117188 227.910156 L 203.597656 83.332031 L 351.628906 206.695312 L 231.148438 351.269531 Z M 83.117188 227.910156 " clip-rule="nonzero"/></clipPath><clipPath id="ba0a87574e"><path d="M 226 183 L 246 183 L 246 196 L 226 196 Z M 226 183 " clip-rule="nonzero"/></clipPath><clipPath id="97e75abae6"><path d="M 83.117188 227.910156 L 203.597656 83.332031 L 351.628906 206.695312 L 231.148438 351.269531 Z M 83.117188 227.910156 " clip-rule="nonzero"/></clipPath><clipPath id="26b97083e9"><path d="M 83.117188 227.910156 L 203.597656 83.332031 L 351.628906 206.695312 L 231.148438 351.269531 Z M 83.117188 227.910156 " clip-rule="nonzero"/></clipPath><clipPath id="be79ea7a09"><path d="M 242 184 L 261 184 L 261 197 L 242 197 Z M 242 184 " clip-rule="nonzero"/></clipPath><clipPath id="3c2a546816"><path d="M 83.117188 227.910156 L 203.597656 83.332031 L 351.628906 206.695312 L 231.148438 351.269531 Z M 83.117188 227.910156 " clip-rule="nonzero"/></clipPath><clipPath id="f1a02e837f"><path d="M 83.117188 227.910156 L 203.597656 83.332031 L 351.628906 206.695312 L 231.148438 351.269531 Z M 83.117188 227.910156 " clip-rule="nonzero"/></clipPath><clipPath id="15a66ed12c"><path d="M 258 184 L 278 184 L 278 197 L 258 197 Z M 258 184 " clip-rule="nonzero"/></clipPath><clipPath id="fbf32012a8"><path d="M 83.117188 227.910156 L 203.597656 83.332031 L 351.628906 206.695312 L 231.148438 351.269531 Z M 83.117188 227.910156 " clip-rule="nonzero"/></clipPath><clipPath id="a6dcf9721f"><path d="M 83.117188 227.910156 L 203.597656 83.332031 L 351.628906 206.695312 L 231.148438 351.269531 Z M 83.117188 227.910156 " clip-rule="nonzero"/></clipPath><clipPath id="99fa1a180a"><path d="M 274 185 L 294 185 L 294 198 L 274 198 Z M 274 185 " clip-rule="nonzero"/></clipPath><clipPath id="47b0a279ce"><path d="M 83.117188 227.910156 L 203.597656 83.332031 L 351.628906 206.695312 L 231.148438 351.269531 Z M 83.117188 227.910156 " clip-rule="nonzero"/></clipPath><clipPath id="b67864b6bd"><path d="M 83.117188 227.910156 L 203.597656 83.332031 L 351.628906 206.695312 L 231.148438 351.269531 Z M 83.117188 227.910156 " clip-rule="nonzero"/></clipPath><clipPath id="2939507d98"><path d="M 290 186 L 310 186 L 310 198 L 290 198 Z M 290 186 " clip-rule="nonzero"/></clipPath><clipPath id="da9b8d9f59"><path d="M 83.117188 227.910156 L 203.597656 83.332031 L 351.628906 206.695312 L 231.148438 351.269531 Z M 83.117188 227.910156 " clip-rule="nonzero"/></clipPath><clipPath id="44d8edaf94"><path d="M 83.117188 227.910156 L 203.597656 83.332031 L 351.628906 206.695312 L 231.148438 351.269531 Z M 83.117188 227.910156 " clip-rule="nonzero"/></clipPath><clipPath id="addbddeefa"><path d="M 307 186 L 326 186 L 326 199 L 307 199 Z M 307 186 " clip-rule="nonzero"/></clipPath><clipPath id="627195ee01"><path d="M 83.117188 227.910156 L 203.597656 83.332031 L 351.628906 206.695312 L 231.148438 351.269531 Z M 83.117188 227.910156 " clip-rule="nonzero"/></clipPath><clipPath id="c7f2a07972"><path d="M 83.117188 227.910156 L 203.597656 83.332031 L 351.628906 206.695312 L 231.148438 351.269531 Z M 83.117188 227.910156 " clip-rule="nonzero"/></clipPath></defs><g clip-path="url(#f20a02e59e)"><g clip-path="url(#2532f4045d)"><g clip-path="url(#66556c1ed2)"><path fill="#ffffff" d="M 132.214844 180.316406 L 326.589844 187.53125 C 326.535156 189.125 326.441406 190.714844 326.304688 192.300781 C 326.171875 193.890625 326 195.476562 325.789062 197.054688 C 325.578125 198.636719 325.328125 200.207031 325.039062 201.777344 C 324.75 203.34375 324.421875 204.902344 324.054688 206.457031 C 323.691406 208.007812 323.289062 209.546875 322.847656 211.078125 C 322.40625 212.613281 321.925781 214.132812 321.410156 215.640625 C 320.894531 217.148438 320.339844 218.644531 319.75 220.125 C 319.160156 221.605469 318.535156 223.070312 317.875 224.519531 C 317.214844 225.96875 316.515625 227.402344 315.785156 228.820312 C 315.050781 230.234375 314.285156 231.632812 313.484375 233.011719 C 312.683594 234.390625 311.851562 235.746094 310.980469 237.085938 C 310.113281 238.421875 309.214844 239.738281 308.28125 241.03125 C 307.351562 242.324219 306.386719 243.59375 305.390625 244.835938 C 304.398438 246.082031 303.371094 247.304688 302.316406 248.5 C 301.261719 249.695312 300.179688 250.863281 299.066406 252.003906 C 297.957031 253.148438 296.816406 254.261719 295.648438 255.347656 C 294.480469 256.433594 293.289062 257.488281 292.070312 258.515625 C 290.851562 259.542969 289.609375 260.539062 288.339844 261.507812 C 287.074219 262.472656 285.78125 263.40625 284.46875 264.308594 C 283.152344 265.210938 281.820312 266.082031 280.460938 266.917969 C 279.105469 267.757812 277.730469 268.558594 276.332031 269.328125 C 274.9375 270.097656 273.523438 270.832031 272.089844 271.53125 C 270.660156 272.234375 269.210938 272.898438 267.746094 273.527344 C 266.28125 274.152344 264.800781 274.746094 263.308594 275.300781 C 261.8125 275.859375 260.304688 276.378906 258.785156 276.859375 C 257.265625 277.339844 255.738281 277.785156 254.195312 278.191406 C 252.65625 278.597656 251.105469 278.964844 249.542969 279.296875 C 247.984375 279.625 246.417969 279.917969 244.84375 280.171875 C 243.269531 280.425781 241.691406 280.640625 240.109375 280.816406 C 238.523438 280.992188 236.9375 281.128906 235.34375 281.222656 C 233.753906 281.320312 232.160156 281.378906 230.566406 281.398438 C 228.972656 281.417969 227.378906 281.398438 225.785156 281.339844 C 224.195312 281.28125 222.601562 281.183594 221.015625 281.046875 C 219.425781 280.90625 217.84375 280.730469 216.265625 280.515625 C 214.683594 280.300781 213.113281 280.046875 211.542969 279.753906 C 209.976562 279.460938 208.417969 279.132812 206.867188 278.761719 C 205.316406 278.394531 203.777344 277.984375 202.246094 277.539062 C 200.714844 277.097656 199.195312 276.613281 197.691406 276.09375 C 196.183594 275.574219 194.6875 275.019531 193.210938 274.425781 C 191.730469 273.832031 190.265625 273.203125 188.816406 272.539062 C 187.367188 271.871094 185.9375 271.171875 184.523438 270.4375 C 183.109375 269.703125 181.714844 268.929688 180.335938 268.128906 C 178.960938 267.324219 177.605469 266.484375 176.269531 265.613281 C 174.933594 264.746094 173.621094 263.839844 172.332031 262.90625 C 171.039062 261.972656 169.773438 261.003906 168.53125 260.007812 C 167.285156 259.007812 166.066406 257.980469 164.875 256.925781 C 163.683594 255.867188 162.515625 254.78125 161.378906 253.664062 C 160.238281 252.550781 159.125 251.410156 158.042969 250.238281 C 156.960938 249.070312 155.90625 247.875 154.882812 246.652344 C 153.859375 245.433594 152.863281 244.1875 151.902344 242.914062 C 150.9375 241.644531 150.007812 240.351562 149.105469 239.035156 C 148.207031 237.722656 147.339844 236.382812 146.507812 235.023438 C 145.671875 233.667969 144.871094 232.289062 144.105469 230.890625 C 143.339844 229.492188 142.609375 228.078125 141.914062 226.644531 C 141.214844 225.207031 140.554688 223.757812 139.929688 222.292969 C 139.304688 220.824219 138.71875 219.34375 138.164062 217.851562 C 137.613281 216.355469 137.097656 214.847656 136.617188 213.324219 C 136.140625 211.804688 135.699219 210.273438 135.296875 208.730469 C 134.894531 207.191406 134.53125 205.636719 134.203125 204.078125 C 133.875 202.519531 133.589844 200.949219 133.339844 199.375 C 133.089844 197.800781 132.878906 196.222656 132.707031 194.636719 C 132.535156 193.050781 132.402344 191.464844 132.308594 189.875 C 132.214844 188.28125 132.160156 186.691406 132.144531 185.09375 C 132.128906 183.5 132.152344 181.910156 132.214844 180.316406 Z M 132.214844 180.316406 " fill-opacity="1" fill-rule="nonzero"/></g></g></g><g clip-path="url(#3f203ef0b5)"><g clip-path="url(#9823cece06)"><g clip-path="url(#a64b746f8e)"><path fill="#ffffff" d="M 304.875 246.6875 C 303.25 248.640625 301.550781 250.53125 299.777344 252.355469 C 298.003906 254.179688 296.164062 255.929688 294.257812 257.609375 C 292.347656 259.289062 290.378906 260.894531 288.34375 262.421875 C 286.3125 263.949219 284.222656 265.394531 282.078125 266.757812 C 279.933594 268.125 277.738281 269.402344 275.492188 270.597656 C 273.246094 271.792969 270.960938 272.898438 268.628906 273.914062 C 266.296875 274.929688 263.929688 275.855469 261.527344 276.6875 C 259.125 277.519531 256.695312 278.257812 254.234375 278.902344 C 251.777344 279.546875 249.292969 280.09375 246.792969 280.542969 C 244.289062 280.996094 241.773438 281.347656 239.242188 281.605469 C 236.714844 281.859375 234.179688 282.015625 231.636719 282.074219 C 229.09375 282.132812 226.554688 282.09375 224.015625 281.953125 C 221.476562 281.816406 218.945312 281.578125 216.425781 281.242188 C 213.90625 280.90625 211.402344 280.472656 208.914062 279.945312 C 206.425781 279.414062 203.964844 278.789062 201.527344 278.066406 C 199.089844 277.34375 196.683594 276.53125 194.308594 275.621094 C 191.933594 274.710938 189.597656 273.714844 187.296875 272.625 C 185 271.535156 182.75 270.355469 180.542969 269.089844 C 178.339844 267.828125 176.183594 266.476562 174.082031 265.046875 C 171.984375 263.613281 169.941406 262.101562 167.957031 260.511719 C 165.972656 258.917969 164.054688 257.253906 162.199219 255.515625 C 160.347656 253.773438 158.5625 251.964844 156.847656 250.085938 C 155.136719 248.207031 153.496094 246.265625 151.933594 244.257812 C 150.371094 242.253906 148.890625 240.191406 147.488281 238.070312 C 146.085938 235.949219 144.765625 233.777344 143.535156 231.550781 C 142.300781 229.328125 141.15625 227.058594 140.097656 224.746094 C 139.039062 222.433594 138.074219 220.085938 137.199219 217.699219 C 136.324219 215.308594 135.542969 212.890625 134.859375 210.445312 C 134.171875 207.996094 133.582031 205.523438 133.085938 203.03125 C 132.589844 200.535156 132.195312 198.027344 131.894531 195.5 C 131.59375 192.976562 131.394531 190.445312 131.289062 187.902344 C 131.1875 185.363281 131.183594 182.820312 131.277344 180.28125 C 131.289062 180.023438 131.390625 179.804688 131.578125 179.628906 C 131.765625 179.453125 131.992188 179.367188 132.25 179.375 L 326.628906 186.59375 C 326.886719 186.605469 327.101562 186.707031 327.277344 186.894531 C 327.453125 187.085938 327.535156 187.308594 327.527344 187.566406 C 327.335938 192.945312 326.699219 198.277344 325.625 203.550781 C 324.550781 208.828125 323.046875 213.980469 321.121094 219.011719 C 319.195312 224.039062 316.867188 228.875 314.140625 233.519531 C 311.414062 238.164062 308.328125 242.554688 304.875 246.6875 Z M 133.121094 181.289062 C 133.074219 182.855469 133.066406 184.425781 133.097656 185.992188 C 133.128906 187.5625 133.195312 189.128906 133.304688 190.691406 C 133.410156 192.257812 133.554688 193.820312 133.738281 195.375 C 133.921875 196.933594 134.144531 198.488281 134.402344 200.035156 C 134.660156 201.582031 134.957031 203.121094 135.292969 204.652344 C 135.628906 206.1875 136 207.710938 136.40625 209.222656 C 136.816406 210.738281 137.261719 212.242188 137.746094 213.734375 C 138.226562 215.226562 138.746094 216.707031 139.300781 218.171875 C 139.855469 219.640625 140.445312 221.09375 141.070312 222.53125 C 141.695312 223.96875 142.355469 225.394531 143.050781 226.800781 C 143.746094 228.207031 144.476562 229.59375 145.238281 230.964844 C 146 232.335938 146.796875 233.6875 147.625 235.015625 C 148.453125 236.347656 149.316406 237.660156 150.207031 238.949219 C 151.101562 240.238281 152.023438 241.507812 152.980469 242.75 C 153.933594 243.996094 154.917969 245.214844 155.933594 246.410156 C 156.949219 247.609375 157.992188 248.777344 159.0625 249.925781 C 160.132812 251.070312 161.234375 252.1875 162.359375 253.28125 C 163.484375 254.371094 164.636719 255.433594 165.816406 256.472656 C 166.996094 257.507812 168.199219 258.511719 169.425781 259.488281 C 170.652344 260.464844 171.902344 261.410156 173.175781 262.328125 C 174.449219 263.242188 175.746094 264.125 177.0625 264.980469 C 178.378906 265.832031 179.714844 266.652344 181.074219 267.4375 C 182.429688 268.226562 183.804688 268.976562 185.199219 269.699219 C 186.59375 270.417969 188.003906 271.101562 189.429688 271.753906 C 190.855469 272.40625 192.300781 273.019531 193.757812 273.601562 C 195.214844 274.179688 196.683594 274.726562 198.167969 275.234375 C 199.652344 275.742188 201.148438 276.214844 202.652344 276.648438 C 204.160156 277.085938 205.679688 277.484375 207.203125 277.84375 C 208.730469 278.207031 210.265625 278.53125 211.808594 278.816406 C 213.347656 279.105469 214.898438 279.351562 216.453125 279.5625 C 218.007812 279.773438 219.566406 279.945312 221.128906 280.082031 C 222.691406 280.214844 224.253906 280.3125 225.824219 280.371094 C 227.390625 280.429688 228.957031 280.449219 230.527344 280.429688 C 232.09375 280.410156 233.664062 280.355469 235.226562 280.261719 C 236.792969 280.164062 238.355469 280.03125 239.914062 279.859375 C 241.472656 279.691406 243.027344 279.480469 244.578125 279.234375 C 246.125 278.984375 247.667969 278.699219 249.203125 278.378906 C 250.738281 278.054688 252.265625 277.695312 253.78125 277.296875 C 255.300781 276.902344 256.808594 276.46875 258.304688 275.996094 C 259.800781 275.527344 261.28125 275.019531 262.753906 274.476562 C 264.226562 273.933594 265.683594 273.355469 267.125 272.738281 C 268.570312 272.125 269.996094 271.476562 271.410156 270.792969 C 272.820312 270.105469 274.214844 269.390625 275.589844 268.636719 C 276.964844 267.882812 278.324219 267.097656 279.660156 266.28125 C 281 265.460938 282.316406 264.609375 283.613281 263.726562 C 284.910156 262.84375 286.183594 261.929688 287.4375 260.984375 C 288.6875 260.039062 289.914062 259.066406 291.121094 258.058594 C 292.324219 257.054688 293.503906 256.019531 294.65625 254.957031 C 295.808594 253.894531 296.9375 252.804688 298.039062 251.6875 C 299.136719 250.570312 300.210938 249.425781 301.253906 248.253906 C 302.300781 247.085938 303.316406 245.890625 304.300781 244.667969 C 305.285156 243.449219 306.242188 242.207031 307.167969 240.941406 C 308.09375 239.671875 308.988281 238.386719 309.847656 237.074219 C 310.710938 235.765625 311.542969 234.433594 312.339844 233.082031 C 313.136719 231.734375 313.902344 230.363281 314.632812 228.976562 C 315.363281 227.585938 316.058594 226.183594 316.71875 224.761719 C 317.382812 223.335938 318.007812 221.898438 318.597656 220.449219 C 319.191406 218.996094 319.746094 217.527344 320.265625 216.046875 C 320.785156 214.570312 321.269531 213.078125 321.71875 211.574219 C 322.164062 210.070312 322.574219 208.558594 322.949219 207.03125 C 323.320312 205.507812 323.65625 203.976562 323.957031 202.4375 C 324.253906 200.898438 324.515625 199.351562 324.738281 197.800781 C 324.960938 196.246094 325.144531 194.6875 325.289062 193.128906 C 325.4375 191.566406 325.546875 190 325.617188 188.433594 Z M 133.121094 181.289062 " fill-opacity="1" fill-rule="nonzero"/></g></g></g><g clip-path="url(#13a8f506de)"><g clip-path="url(#8f1812b383)"><g clip-path="url(#37e60cba62)"><path fill="#ffffff" d="M 262.496094 277.828125 L 280.191406 266.882812 L 262.292969 251.292969 Z M 262.496094 277.828125 " fill-opacity="1" fill-rule="nonzero"/></g></g></g><g clip-path="url(#d119d492c4)"><g clip-path="url(#f0d0e07ac2)"><g clip-path="url(#6cb37d294a)"><path fill="#ffffff" d="M 280.910156 267.484375 C 280.84375 267.5625 280.769531 267.628906 280.683594 267.6875 L 262.984375 278.625 C 262.671875 278.816406 262.359375 278.824219 262.039062 278.648438 C 261.71875 278.472656 261.558594 278.199219 261.558594 277.835938 L 261.355469 251.304688 C 261.351562 250.898438 261.535156 250.613281 261.898438 250.445312 C 262.265625 250.277344 262.601562 250.324219 262.90625 250.585938 L 280.804688 266.175781 C 281.039062 266.386719 281.144531 266.644531 281.121094 266.960938 C 281.105469 267.15625 281.035156 267.332031 280.910156 267.484375 Z M 263.417969 276.15625 L 278.613281 266.757812 L 263.246094 253.367188 Z M 263.417969 276.15625 " fill-opacity="1" fill-rule="nonzero"/></g></g></g><g clip-path="url(#6965f6e62f)"><g clip-path="url(#1ccf972fe6)"><g clip-path="url(#b6063f06a7)"><path fill="#44b7e6" d="M 115.425781 190.710938 L 309.796875 197.925781 C 309.742188 199.519531 309.648438 201.109375 309.515625 202.695312 C 309.382812 204.285156 309.207031 205.871094 308.996094 207.449219 C 308.785156 209.03125 308.535156 210.601562 308.246094 212.171875 C 307.957031 213.738281 307.628906 215.296875 307.265625 216.851562 C 306.898438 218.402344 306.496094 219.941406 306.054688 221.476562 C 305.613281 223.007812 305.132812 224.527344 304.617188 226.035156 C 304.101562 227.542969 303.550781 229.039062 302.960938 230.519531 C 302.371094 232 301.746094 233.464844 301.082031 234.914062 C 300.421875 236.367188 299.722656 237.796875 298.992188 239.214844 C 298.261719 240.628906 297.492188 242.027344 296.691406 243.40625 C 295.890625 244.785156 295.058594 246.140625 294.191406 247.480469 C 293.324219 248.816406 292.421875 250.132812 291.492188 251.425781 C 290.558594 252.71875 289.59375 253.988281 288.601562 255.234375 C 287.605469 256.476562 286.582031 257.699219 285.527344 258.894531 C 284.472656 260.089844 283.386719 261.257812 282.277344 262.398438 C 281.164062 263.542969 280.023438 264.65625 278.859375 265.742188 C 277.691406 266.828125 276.496094 267.882812 275.277344 268.910156 C 274.058594 269.9375 272.816406 270.933594 271.550781 271.902344 C 270.28125 272.867188 268.992188 273.800781 267.675781 274.703125 C 266.363281 275.609375 265.027344 276.476562 263.671875 277.3125 C 262.3125 278.152344 260.9375 278.953125 259.542969 279.722656 C 258.144531 280.492188 256.730469 281.226562 255.300781 281.925781 C 253.867188 282.628906 252.417969 283.292969 250.953125 283.921875 C 249.488281 284.550781 248.007812 285.140625 246.515625 285.695312 C 245.023438 286.253906 243.515625 286.773438 241.996094 287.253906 C 240.476562 287.734375 238.945312 288.179688 237.40625 288.585938 C 235.863281 288.992188 234.3125 289.359375 232.753906 289.691406 C 231.195312 290.019531 229.628906 290.3125 228.054688 290.566406 C 226.480469 290.820312 224.902344 291.035156 223.316406 291.210938 C 221.730469 291.386719 220.144531 291.523438 218.554688 291.621094 C 216.960938 291.714844 215.371094 291.773438 213.777344 291.792969 C 212.183594 291.8125 210.589844 291.792969 208.996094 291.734375 C 207.402344 291.675781 205.8125 291.578125 204.222656 291.441406 C 202.636719 291.300781 201.050781 291.125 199.472656 290.910156 C 197.894531 290.695312 196.320312 290.441406 194.753906 290.148438 C 193.1875 289.855469 191.628906 289.527344 190.078125 289.15625 C 188.527344 288.789062 186.984375 288.378906 185.453125 287.933594 C 183.921875 287.492188 182.40625 287.007812 180.898438 286.488281 C 179.390625 285.96875 177.898438 285.414062 176.417969 284.820312 C 174.9375 284.226562 173.472656 283.597656 172.027344 282.933594 C 170.578125 282.265625 169.144531 281.566406 167.730469 280.832031 C 166.316406 280.097656 164.921875 279.324219 163.546875 278.523438 C 162.167969 277.71875 160.8125 276.878906 159.476562 276.011719 C 158.144531 275.140625 156.828125 274.234375 155.539062 273.300781 C 154.25 272.367188 152.980469 271.398438 151.738281 270.402344 C 150.496094 269.402344 149.277344 268.375 148.085938 267.320312 C 146.890625 266.261719 145.726562 265.175781 144.585938 264.058594 C 143.445312 262.945312 142.335938 261.804688 141.253906 260.632812 C 140.167969 259.464844 139.113281 258.269531 138.089844 257.046875 C 137.066406 255.828125 136.074219 254.582031 135.109375 253.3125 C 134.144531 252.039062 133.214844 250.746094 132.316406 249.429688 C 131.414062 248.117188 130.550781 246.777344 129.714844 245.417969 C 128.882812 244.0625 128.082031 242.683594 127.316406 241.285156 C 126.550781 239.886719 125.816406 238.472656 125.121094 237.039062 C 124.425781 235.605469 123.765625 234.152344 123.140625 232.6875 C 122.515625 231.222656 121.925781 229.738281 121.375 228.246094 C 120.820312 226.75 120.304688 225.242188 119.828125 223.722656 C 119.347656 222.199219 118.910156 220.667969 118.507812 219.125 C 118.101562 217.585938 117.738281 216.03125 117.410156 214.472656 C 117.085938 212.914062 116.796875 211.34375 116.546875 209.769531 C 116.296875 208.195312 116.085938 206.617188 115.914062 205.03125 C 115.742188 203.449219 115.609375 201.859375 115.515625 200.269531 C 115.421875 198.675781 115.367188 197.085938 115.351562 195.492188 C 115.339844 193.894531 115.363281 192.304688 115.425781 190.710938 Z M 115.425781 190.710938 " fill-opacity="1" fill-rule="nonzero"/></g></g></g><g clip-path="url(#184382981d)"><g clip-path="url(#8baf645b7b)"><g clip-path="url(#fee0cb82c5)"><path fill="#ffffff" d="M 288.082031 257.082031 C 286.457031 259.035156 284.757812 260.925781 282.988281 262.75 C 281.214844 264.574219 279.375 266.324219 277.464844 268.003906 C 275.558594 269.683594 273.585938 271.289062 271.554688 272.816406 C 269.519531 274.34375 267.429688 275.789062 265.285156 277.152344 C 263.140625 278.519531 260.945312 279.796875 258.699219 280.992188 C 256.457031 282.1875 254.167969 283.292969 251.835938 284.308594 C 249.507812 285.324219 247.140625 286.25 244.738281 287.082031 C 242.335938 287.914062 239.902344 288.652344 237.445312 289.296875 C 234.984375 289.941406 232.503906 290.488281 230 290.9375 C 227.496094 291.390625 224.980469 291.742188 222.453125 292 C 219.921875 292.253906 217.386719 292.410156 214.84375 292.46875 C 212.300781 292.527344 209.761719 292.488281 207.222656 292.347656 C 204.683594 292.210938 202.152344 291.972656 199.632812 291.636719 C 197.113281 291.300781 194.609375 290.867188 192.121094 290.339844 C 189.636719 289.808594 187.171875 289.183594 184.734375 288.460938 C 182.296875 287.738281 179.890625 286.925781 177.515625 286.015625 C 175.140625 285.109375 172.804688 284.109375 170.507812 283.019531 C 168.210938 281.929688 165.957031 280.75 163.753906 279.484375 C 161.546875 278.222656 159.394531 276.871094 157.292969 275.441406 C 155.191406 274.007812 153.148438 272.496094 151.164062 270.90625 C 149.183594 269.316406 147.261719 267.648438 145.410156 265.910156 C 143.554688 264.167969 141.769531 262.359375 140.058594 260.480469 C 138.34375 258.601562 136.707031 256.660156 135.144531 254.652344 C 133.582031 252.648438 132.097656 250.585938 130.695312 248.464844 C 129.292969 246.34375 127.976562 244.171875 126.742188 241.945312 C 125.507812 239.722656 124.363281 237.457031 123.304688 235.144531 C 122.25 232.832031 121.285156 230.480469 120.410156 228.09375 C 119.535156 225.703125 118.753906 223.285156 118.066406 220.839844 C 117.378906 218.390625 116.789062 215.917969 116.292969 213.425781 C 115.800781 210.929688 115.402344 208.421875 115.101562 205.898438 C 114.804688 203.371094 114.601562 200.839844 114.5 198.296875 C 114.394531 195.757812 114.390625 193.214844 114.484375 190.675781 C 114.496094 190.417969 114.59375 190.199219 114.78125 190.019531 C 114.96875 189.84375 115.195312 189.757812 115.453125 189.765625 L 309.835938 196.988281 C 310.09375 197 310.308594 197.101562 310.484375 197.289062 C 310.660156 197.480469 310.742188 197.703125 310.738281 197.960938 C 310.542969 203.339844 309.90625 208.671875 308.832031 213.945312 C 307.757812 219.222656 306.257812 224.375 304.332031 229.40625 C 302.402344 234.433594 300.078125 239.269531 297.351562 243.914062 C 294.625 248.558594 291.535156 252.949219 288.082031 257.082031 Z M 116.328125 191.683594 C 116.28125 193.25 116.273438 194.820312 116.304688 196.386719 C 116.335938 197.957031 116.40625 199.523438 116.511719 201.085938 C 116.617188 202.652344 116.765625 204.214844 116.949219 205.769531 C 117.132812 207.328125 117.351562 208.882812 117.609375 210.429688 C 117.871094 211.976562 118.167969 213.515625 118.5 215.046875 C 118.835938 216.582031 119.207031 218.101562 119.617188 219.617188 C 120.027344 221.132812 120.472656 222.636719 120.953125 224.128906 C 121.4375 225.621094 121.953125 227.101562 122.507812 228.566406 C 123.0625 230.035156 123.652344 231.488281 124.277344 232.925781 C 124.90625 234.363281 125.566406 235.785156 126.261719 237.191406 C 126.953125 238.597656 127.683594 239.988281 128.445312 241.359375 C 129.210938 242.730469 130.003906 244.078125 130.835938 245.410156 C 131.664062 246.742188 132.523438 248.054688 133.417969 249.34375 C 134.308594 250.632812 135.234375 251.898438 136.1875 253.144531 C 137.144531 254.390625 138.128906 255.609375 139.144531 256.804688 C 140.15625 258 141.199219 259.171875 142.273438 260.316406 C 143.34375 261.464844 144.441406 262.582031 145.570312 263.671875 C 146.695312 264.765625 147.847656 265.828125 149.027344 266.863281 C 150.203125 267.898438 151.40625 268.90625 152.632812 269.882812 C 153.863281 270.859375 155.113281 271.804688 156.386719 272.722656 C 157.660156 273.636719 158.953125 274.519531 160.269531 275.371094 C 161.589844 276.226562 162.925781 277.042969 164.28125 277.832031 C 165.640625 278.617188 167.015625 279.371094 168.40625 280.089844 C 169.800781 280.8125 171.210938 281.496094 172.640625 282.148438 C 174.066406 282.796875 175.507812 283.414062 176.964844 283.992188 C 178.421875 284.574219 179.894531 285.117188 181.378906 285.628906 C 182.859375 286.136719 184.355469 286.609375 185.863281 287.042969 C 187.371094 287.480469 188.886719 287.878906 190.414062 288.238281 C 191.9375 288.601562 193.472656 288.925781 195.015625 289.210938 C 196.558594 289.496094 198.105469 289.746094 199.660156 289.957031 C 201.214844 290.167969 202.773438 290.339844 204.335938 290.476562 C 205.898438 290.609375 207.464844 290.707031 209.03125 290.765625 C 210.597656 290.820312 212.167969 290.84375 213.734375 290.824219 C 215.304688 290.804688 216.871094 290.75 218.4375 290.652344 C 220.003906 290.558594 221.566406 290.425781 223.125 290.253906 C 224.683594 290.082031 226.238281 289.875 227.785156 289.625 C 229.335938 289.378906 230.875 289.09375 232.410156 288.773438 C 233.945312 288.449219 235.472656 288.089844 236.992188 287.691406 C 238.507812 287.292969 240.015625 286.859375 241.511719 286.390625 C 243.007812 285.917969 244.492188 285.414062 245.960938 284.871094 C 247.433594 284.324219 248.890625 283.746094 250.335938 283.132812 C 251.777344 282.519531 253.207031 281.867188 254.617188 281.183594 C 256.027344 280.5 257.421875 279.78125 258.796875 279.03125 C 260.175781 278.277344 261.53125 277.492188 262.871094 276.671875 C 264.207031 275.855469 265.523438 275.003906 266.820312 274.121094 C 268.117188 273.238281 269.390625 272.324219 270.644531 271.378906 C 271.894531 270.433594 273.125 269.457031 274.328125 268.453125 C 275.53125 267.449219 276.710938 266.414062 277.863281 265.351562 C 279.019531 264.289062 280.144531 263.199219 281.246094 262.082031 C 282.347656 260.964844 283.417969 259.820312 284.460938 258.648438 C 285.507812 257.476562 286.523438 256.285156 287.507812 255.0625 C 288.496094 253.84375 289.449219 252.601562 290.375 251.335938 C 291.300781 250.066406 292.195312 248.777344 293.058594 247.46875 C 293.917969 246.160156 294.75 244.828125 295.546875 243.476562 C 296.34375 242.125 297.109375 240.757812 297.839844 239.371094 C 298.570312 237.980469 299.265625 236.578125 299.925781 235.152344 C 300.589844 233.730469 301.214844 232.292969 301.808594 230.84375 C 302.398438 229.390625 302.953125 227.921875 303.476562 226.441406 C 303.996094 224.964844 304.480469 223.472656 304.925781 221.96875 C 305.371094 220.464844 305.78125 218.949219 306.15625 217.425781 C 306.53125 215.902344 306.863281 214.371094 307.164062 212.832031 C 307.460938 211.292969 307.722656 209.746094 307.945312 208.195312 C 308.167969 206.640625 308.351562 205.082031 308.5 203.523438 C 308.644531 201.960938 308.753906 200.394531 308.824219 198.828125 Z M 116.328125 191.683594 " fill-opacity="1" fill-rule="nonzero"/></g></g></g><g clip-path="url(#aa7e022524)"><g clip-path="url(#aa7cfbb9fc)"><g clip-path="url(#a5bdf06ef1)"><path fill="#ffffff" d="M 309.796875 197.925781 L 326.589844 187.53125 L 132.214844 180.316406 L 115.425781 190.710938 Z M 309.796875 197.925781 " fill-opacity="1" fill-rule="nonzero"/></g></g></g><g clip-path="url(#65e3ff1afa)"><g clip-path="url(#40c5574d62)"><g clip-path="url(#28249a3e8f)"><path fill="#ffffff" d="M 327.308594 188.128906 C 327.246094 188.207031 327.171875 188.273438 327.085938 188.328125 L 310.296875 198.722656 C 310.132812 198.820312 309.957031 198.871094 309.761719 198.863281 L 115.390625 191.648438 C 115.183594 191.640625 115 191.574219 114.839844 191.445312 C 114.679688 191.316406 114.574219 191.152344 114.519531 190.953125 C 114.46875 190.753906 114.480469 190.558594 114.554688 190.367188 C 114.628906 190.175781 114.757812 190.027344 114.929688 189.917969 L 131.722656 179.523438 C 131.882812 179.421875 132.058594 179.375 132.246094 179.382812 L 326.628906 186.59375 C 327.015625 186.613281 327.289062 186.796875 327.445312 187.152344 C 327.601562 187.503906 327.554688 187.832031 327.308594 188.128906 Z M 309.546875 196.976562 L 323.480469 188.355469 L 132.464844 181.265625 L 118.53125 189.890625 Z M 309.546875 196.976562 " fill-opacity="1" fill-rule="nonzero"/></g></g></g><g clip-path="url(#66c315a376)"><g clip-path="url(#daf0692579)"><g clip-path="url(#b342b6713e)"><path fill="#ffffff" d="M 132.699219 180.71875 C 132.65625 180.769531 132.605469 180.8125 132.546875 180.84375 L 115.757812 191.238281 C 115.609375 191.347656 115.445312 191.386719 115.265625 191.351562 C 115.085938 191.316406 114.949219 191.222656 114.851562 191.066406 C 114.753906 190.910156 114.730469 190.746094 114.78125 190.570312 C 114.832031 190.390625 114.9375 190.261719 115.101562 190.179688 L 131.894531 179.785156 C 132.039062 179.703125 132.195312 179.679688 132.359375 179.722656 C 132.523438 179.765625 132.648438 179.859375 132.738281 180.003906 C 132.894531 180.25 132.882812 180.488281 132.699219 180.71875 Z M 132.699219 180.71875 " fill-opacity="1" fill-rule="nonzero"/></g></g></g><g clip-path="url(#66f402a9c1)"><g clip-path="url(#5e851c2512)"><g clip-path="url(#30c456cdae)"><path fill="#ffffff" d="M 148.714844 181.316406 C 148.667969 181.367188 148.617188 181.410156 148.554688 181.445312 L 131.765625 191.839844 C 131.636719 191.957031 131.484375 192.011719 131.3125 192.003906 C 131.136719 191.996094 130.992188 191.925781 130.875 191.796875 C 130.757812 191.667969 130.703125 191.515625 130.710938 191.34375 C 130.71875 191.167969 130.789062 191.023438 130.917969 190.90625 C 130.960938 190.855469 131.015625 190.8125 131.074219 190.777344 L 147.867188 180.382812 C 147.996094 180.300781 148.136719 180.273438 148.289062 180.292969 C 148.441406 180.316406 148.566406 180.386719 148.667969 180.503906 C 148.769531 180.621094 148.820312 180.753906 148.820312 180.910156 C 148.820312 181.0625 148.773438 181.199219 148.671875 181.316406 Z M 148.714844 181.316406 " fill-opacity="1" fill-rule="nonzero"/></g></g></g><g clip-path="url(#5527a695d3)"><g clip-path="url(#ffce96c870)"><g clip-path="url(#ee142f95db)"><path fill="#ffffff" d="M 164.738281 181.910156 C 164.695312 181.960938 164.644531 182 164.585938 182.03125 L 147.792969 192.429688 C 147.648438 192.539062 147.484375 192.574219 147.304688 192.542969 C 147.125 192.507812 146.984375 192.414062 146.890625 192.257812 C 146.792969 192.101562 146.769531 191.933594 146.820312 191.757812 C 146.867188 191.582031 146.976562 191.453125 147.140625 191.371094 L 163.929688 180.976562 C 164.078125 180.886719 164.234375 180.859375 164.402344 180.898438 C 164.566406 180.9375 164.695312 181.03125 164.789062 181.175781 C 164.949219 181.433594 164.933594 181.675781 164.738281 181.910156 Z M 164.738281 181.910156 " fill-opacity="1" fill-rule="nonzero"/></g></g></g><g clip-path="url(#d70aaf7004)"><g clip-path="url(#ff88ac40d3)"><g clip-path="url(#1c99e3c478)"><path fill="#ffffff" d="M 180.761719 182.503906 C 180.71875 182.554688 180.667969 182.597656 180.609375 182.628906 L 163.816406 193.023438 C 163.667969 193.132812 163.503906 193.171875 163.324219 193.136719 C 163.144531 193.105469 163.007812 193.007812 162.910156 192.851562 C 162.8125 192.695312 162.789062 192.53125 162.839844 192.355469 C 162.890625 192.179688 162.996094 192.050781 163.160156 191.964844 L 179.953125 181.570312 C 180.097656 181.480469 180.253906 181.457031 180.421875 181.496094 C 180.589844 181.535156 180.71875 181.628906 180.808594 181.773438 C 180.96875 182.027344 180.953125 182.273438 180.761719 182.503906 Z M 180.761719 182.503906 " fill-opacity="1" fill-rule="nonzero"/></g></g></g><g clip-path="url(#04eae0c5f4)"><g clip-path="url(#80026af6c3)"><g clip-path="url(#c8c0c52432)"><path fill="#ffffff" d="M 196.777344 183.097656 C 196.734375 183.148438 196.683594 183.191406 196.625 183.222656 L 179.832031 193.617188 C 179.6875 193.726562 179.523438 193.765625 179.34375 193.730469 C 179.164062 193.695312 179.023438 193.601562 178.925781 193.445312 C 178.832031 193.289062 178.808594 193.125 178.859375 192.945312 C 178.90625 192.769531 179.015625 192.640625 179.179688 192.558594 L 195.96875 182.164062 C 196.117188 182.074219 196.273438 182.050781 196.4375 182.089844 C 196.605469 182.128906 196.734375 182.21875 196.824219 182.367188 C 196.984375 182.621094 196.96875 182.867188 196.777344 183.097656 Z M 196.777344 183.097656 " fill-opacity="1" fill-rule="nonzero"/></g></g></g><g clip-path="url(#663d57fa2d)"><g clip-path="url(#b4b5e0dd46)"><g clip-path="url(#35a9334559)"><path fill="#ffffff" d="M 212.796875 183.695312 C 212.753906 183.746094 212.703125 183.785156 212.644531 183.820312 L 195.855469 194.214844 C 195.707031 194.324219 195.542969 194.359375 195.363281 194.328125 C 195.183594 194.292969 195.046875 194.199219 194.949219 194.042969 C 194.851562 193.886719 194.828125 193.71875 194.878906 193.542969 C 194.929688 193.367188 195.035156 193.238281 195.199219 193.15625 L 211.992188 182.761719 C 212.121094 182.644531 212.273438 182.59375 212.449219 182.605469 C 212.625 182.621094 212.769531 182.691406 212.882812 182.824219 C 212.996094 182.953125 213.046875 183.105469 213.035156 183.28125 C 213.023438 183.453125 212.953125 183.597656 212.824219 183.714844 Z M 212.796875 183.695312 " fill-opacity="1" fill-rule="nonzero"/></g></g></g><g clip-path="url(#86786841bc)"><g clip-path="url(#1612e3d39b)"><g clip-path="url(#55c7a61956)"><path fill="#ffffff" d="M 228.824219 184.285156 C 228.78125 184.335938 228.730469 184.378906 228.671875 184.410156 L 211.878906 194.804688 C 211.734375 194.914062 211.570312 194.953125 211.390625 194.917969 C 211.210938 194.882812 211.070312 194.789062 210.972656 194.632812 C 210.878906 194.476562 210.855469 194.3125 210.90625 194.136719 C 210.953125 193.960938 211.0625 193.828125 211.226562 193.746094 L 228.015625 183.351562 C 228.164062 183.261719 228.320312 183.238281 228.484375 183.277344 C 228.652344 183.316406 228.78125 183.410156 228.871094 183.554688 C 229.035156 183.808594 229.015625 184.054688 228.824219 184.285156 Z M 228.824219 184.285156 " fill-opacity="1" fill-rule="nonzero"/></g></g></g><g clip-path="url(#ba0a87574e)"><g clip-path="url(#97e75abae6)"><g clip-path="url(#26b97083e9)"><path fill="#ffffff" d="M 244.855469 184.882812 C 244.8125 184.933594 244.761719 184.972656 244.703125 185.007812 L 227.910156 195.402344 C 227.761719 195.511719 227.601562 195.546875 227.417969 195.515625 C 227.238281 195.480469 227.101562 195.386719 227.003906 195.230469 C 226.910156 195.074219 226.886719 194.90625 226.933594 194.730469 C 226.984375 194.554688 227.089844 194.425781 227.253906 194.34375 L 244.046875 183.949219 C 244.191406 183.859375 244.347656 183.832031 244.515625 183.871094 C 244.683594 183.910156 244.8125 184.003906 244.902344 184.148438 C 245.0625 184.40625 245.046875 184.648438 244.855469 184.882812 Z M 244.855469 184.882812 " fill-opacity="1" fill-rule="nonzero"/></g></g></g><g clip-path="url(#be79ea7a09)"><g clip-path="url(#3c2a546816)"><g clip-path="url(#f1a02e837f)"><path fill="#ffffff" d="M 260.84375 185.457031 C 260.800781 185.511719 260.75 185.550781 260.691406 185.582031 L 243.898438 195.976562 C 243.75 196.089844 243.589844 196.125 243.410156 196.09375 C 243.226562 196.058594 243.089844 195.964844 242.992188 195.808594 C 242.898438 195.652344 242.875 195.484375 242.921875 195.308594 C 242.972656 195.132812 243.078125 195.003906 243.242188 194.921875 L 260.035156 184.527344 C 260.179688 184.4375 260.339844 184.410156 260.503906 184.449219 C 260.671875 184.488281 260.800781 184.582031 260.890625 184.726562 C 261.050781 184.984375 261.035156 185.226562 260.84375 185.457031 Z M 260.84375 185.457031 " fill-opacity="1" fill-rule="nonzero"/></g></g></g><g clip-path="url(#15a66ed12c)"><g clip-path="url(#fbf32012a8)"><g clip-path="url(#a6dcf9721f)"><path fill="#ffffff" d="M 276.882812 186.070312 C 276.839844 186.121094 276.789062 186.164062 276.730469 186.195312 L 259.9375 196.589844 C 259.792969 196.699219 259.628906 196.738281 259.449219 196.703125 C 259.269531 196.671875 259.128906 196.574219 259.035156 196.417969 C 258.9375 196.265625 258.914062 196.097656 258.964844 195.921875 C 259.015625 195.746094 259.121094 195.617188 259.285156 195.53125 L 276.074219 185.136719 C 276.207031 185.023438 276.359375 184.972656 276.535156 184.984375 C 276.707031 184.996094 276.851562 185.066406 276.96875 185.199219 C 277.082031 185.332031 277.132812 185.484375 277.121094 185.65625 C 277.109375 185.832031 277.039062 185.976562 276.90625 186.089844 Z M 276.882812 186.070312 " fill-opacity="1" fill-rule="nonzero"/></g></g></g><g clip-path="url(#99fa1a180a)"><g clip-path="url(#47b0a279ce)"><g clip-path="url(#b67864b6bd)"><path fill="#ffffff" d="M 292.914062 186.667969 C 292.871094 186.71875 292.820312 186.761719 292.761719 186.792969 L 275.96875 197.1875 C 275.824219 197.296875 275.660156 197.335938 275.480469 197.300781 C 275.300781 197.265625 275.160156 197.171875 275.0625 197.015625 C 274.96875 196.859375 274.945312 196.695312 274.996094 196.515625 C 275.042969 196.339844 275.152344 196.210938 275.316406 196.128906 L 292.105469 185.734375 C 292.25 185.636719 292.410156 185.601562 292.582031 185.636719 C 292.753906 185.671875 292.886719 185.765625 292.984375 185.910156 C 293.058594 186.03125 293.089844 186.160156 293.074219 186.300781 C 293.0625 186.441406 293.007812 186.5625 292.914062 186.667969 Z M 292.914062 186.667969 " fill-opacity="1" fill-rule="nonzero"/></g></g></g><g clip-path="url(#2939507d98)"><g clip-path="url(#da9b8d9f59)"><g clip-path="url(#44d8edaf94)"><path fill="#ffffff" d="M 308.933594 187.253906 C 308.890625 187.308594 308.835938 187.351562 308.777344 187.382812 L 291.984375 197.777344 C 291.839844 197.882812 291.675781 197.917969 291.5 197.882812 C 291.324219 197.84375 291.1875 197.75 291.09375 197.597656 C 290.996094 197.441406 290.972656 197.277344 291.023438 197.105469 C 291.070312 196.929688 291.175781 196.800781 291.335938 196.714844 L 308.125 186.320312 C 308.257812 186.242188 308.398438 186.210938 308.550781 186.234375 C 308.703125 186.257812 308.828125 186.328125 308.929688 186.441406 C 309.03125 186.558594 309.082031 186.695312 309.082031 186.847656 C 309.082031 187 309.035156 187.136719 308.933594 187.253906 Z M 308.933594 187.253906 " fill-opacity="1" fill-rule="nonzero"/></g></g></g><g clip-path="url(#addbddeefa)"><g clip-path="url(#627195ee01)"><g clip-path="url(#c7f2a07972)"><path fill="#ffffff" d="M 324.953125 187.855469 C 324.910156 187.90625 324.859375 187.949219 324.800781 187.980469 L 308.007812 198.375 C 307.859375 198.484375 307.699219 198.523438 307.515625 198.488281 C 307.335938 198.457031 307.199219 198.359375 307.101562 198.203125 C 307.007812 198.046875 306.984375 197.882812 307.03125 197.707031 C 307.082031 197.53125 307.1875 197.398438 307.351562 197.316406 L 324.144531 186.921875 C 324.289062 186.832031 324.445312 186.808594 324.613281 186.847656 C 324.78125 186.886719 324.910156 186.980469 325 187.125 C 325.160156 187.378906 325.144531 187.625 324.953125 187.855469 Z M 324.953125 187.855469 " fill-opacity="1" fill-rule="nonzero"/></g></g></g></svg>