<svg xmlns="http://www.w3.org/2000/svg" xmlns:xlink="http://www.w3.org/1999/xlink" width="580" zoomAndPan="magnify" viewBox="0 0 434.88 434.999989" height="580" preserveAspectRatio="xMidYMid meet" version="1.0"><defs><clipPath id="7e1527567e"><path d="M 149 137 L 304.414062 137 L 304.414062 303.628906 L 149 303.628906 Z M 149 137 " clip-rule="nonzero"/></clipPath><clipPath id="87ed829e2d"><path d="M 130.464844 131.175781 L 286 131.175781 L 286 298 L 130.464844 298 Z M 130.464844 131.175781 " clip-rule="nonzero"/></clipPath><clipPath id="afbf29c257"><path d="M 262 131.175781 L 304.414062 131.175781 L 304.414062 303.628906 L 262 303.628906 Z M 262 131.175781 " clip-rule="nonzero"/></clipPath><clipPath id="8586940beb"><path d="M 262 295 L 284 295 L 284 303.628906 L 262 303.628906 Z M 262 295 " clip-rule="nonzero"/></clipPath></defs><path fill="#ffffff" d="M 150.535156 202.640625 L 282.488281 302.859375 L 303.289062 138.46875 Z M 258.675781 246.167969 L 211.558594 210.375 L 266.113281 187.46875 Z M 258.675781 246.167969 " fill-opacity="1" fill-rule="nonzero"/><g clip-path="url(#7e1527567e)"><path fill="#ffffff" d="M 282.488281 303.824219 C 282.273438 303.824219 282.085938 303.757812 281.914062 303.632812 L 149.960938 203.414062 C 149.667969 203.195312 149.546875 202.902344 149.59375 202.542969 C 149.640625 202.179688 149.832031 201.929688 150.167969 201.789062 L 302.953125 137.617188 C 303.109375 137.550781 303.269531 137.53125 303.4375 137.550781 C 303.605469 137.574219 303.757812 137.632812 303.890625 137.734375 C 304.027344 137.839844 304.125 137.96875 304.191406 138.121094 C 304.257812 138.277344 304.277344 138.441406 304.257812 138.609375 L 283.457031 302.996094 C 283.425781 303.230469 283.320312 303.429688 283.144531 303.585938 C 282.964844 303.742188 282.757812 303.820312 282.519531 303.824219 Z M 152.410156 202.878906 L 281.757812 301.136719 L 302.179688 139.996094 Z M 258.675781 247.113281 C 258.460938 247.113281 258.269531 247.050781 258.101562 246.925781 L 210.984375 211.128906 C 210.695312 210.910156 210.574219 210.617188 210.621094 210.257812 C 210.664062 209.894531 210.855469 209.644531 211.195312 209.503906 L 265.746094 186.597656 C 265.902344 186.535156 266.0625 186.511719 266.230469 186.53125 C 266.398438 186.554688 266.550781 186.613281 266.683594 186.71875 C 266.820312 186.820312 266.917969 186.949219 266.984375 187.105469 C 267.050781 187.257812 267.070312 187.421875 267.050781 187.589844 L 259.613281 246.289062 C 259.582031 246.523438 259.476562 246.71875 259.296875 246.878906 C 259.121094 247.035156 258.910156 247.113281 258.675781 247.113281 Z M 213.4375 210.613281 L 257.941406 244.421875 L 264.972656 188.957031 Z M 213.4375 210.613281 " fill-opacity="1" fill-rule="nonzero"/></g><path fill="#ffffff" d="M 192.648438 204.070312 L 211.558594 210.375 L 266.113281 187.46875 L 247.203125 181.164062 Z M 192.648438 204.070312 " fill-opacity="1" fill-rule="nonzero"/><path fill="#ffffff" d="M 211.558594 211.320312 C 211.457031 211.320312 211.359375 211.304688 211.261719 211.269531 L 192.355469 204.964844 C 192.164062 204.90625 192.011719 204.796875 191.890625 204.640625 C 191.773438 204.484375 191.707031 204.304688 191.699219 204.109375 C 191.691406 203.910156 191.742188 203.726562 191.847656 203.5625 C 191.957031 203.394531 192.101562 203.277344 192.285156 203.199219 L 246.835938 180.296875 C 247.058594 180.210938 247.277344 180.210938 247.5 180.296875 L 266.410156 186.597656 C 266.597656 186.660156 266.75 186.765625 266.871094 186.925781 C 266.992188 187.082031 267.054688 187.257812 267.0625 187.457031 C 267.070312 187.65625 267.019531 187.835938 266.914062 188.003906 C 266.804688 188.167969 266.660156 188.289062 266.476562 188.363281 L 211.925781 211.242188 C 211.808594 211.292969 211.6875 211.320312 211.558594 211.320312 Z M 195.335938 203.96875 L 211.519531 209.398438 L 263.425781 187.601562 L 247.242188 182.207031 Z M 195.335938 203.96875 " fill-opacity="1" fill-rule="nonzero"/><path fill="#ffffff" d="M 239.765625 239.867188 L 258.675781 246.167969 L 211.558594 210.375 L 192.648438 204.070312 Z M 239.765625 239.867188 " fill-opacity="1" fill-rule="nonzero"/><path fill="#ffffff" d="M 258.675781 247.113281 C 258.574219 247.117188 258.472656 247.097656 258.378906 247.0625 L 239.46875 240.761719 C 239.367188 240.730469 239.277344 240.683594 239.191406 240.621094 L 192.078125 204.828125 C 191.894531 204.6875 191.777344 204.503906 191.726562 204.277344 C 191.675781 204.050781 191.707031 203.835938 191.8125 203.628906 C 191.917969 203.425781 192.082031 203.277344 192.296875 203.191406 C 192.511719 203.105469 192.726562 203.101562 192.945312 203.175781 L 211.855469 209.480469 C 211.957031 209.511719 212.050781 209.558594 212.132812 209.625 L 259.261719 245.417969 C 259.445312 245.558594 259.5625 245.742188 259.609375 245.964844 C 259.660156 246.191406 259.632812 246.40625 259.523438 246.609375 C 259.34375 246.949219 259.058594 247.117188 258.675781 247.113281 Z M 240.210938 239.019531 L 253.550781 243.464844 L 211.113281 211.226562 L 197.773438 206.773438 Z M 240.210938 239.019531 " fill-opacity="1" fill-rule="nonzero"/><path fill="#ffffff" d="M 258.675781 247.113281 C 258.574219 247.117188 258.472656 247.097656 258.378906 247.0625 L 239.46875 240.761719 C 239.339844 240.730469 239.226562 240.671875 239.121094 240.59375 C 239.015625 240.511719 238.933594 240.414062 238.871094 240.300781 C 238.804688 240.183594 238.769531 240.0625 238.757812 239.929688 C 238.746094 239.800781 238.757812 239.671875 238.800781 239.546875 C 238.839844 239.421875 238.90625 239.308594 238.992188 239.210938 C 239.082031 239.113281 239.1875 239.039062 239.304688 238.984375 C 239.425781 238.929688 239.550781 238.898438 239.683594 238.898438 C 239.8125 238.894531 239.941406 238.921875 240.0625 238.96875 L 258.96875 245.273438 C 259.1875 245.347656 259.355469 245.484375 259.476562 245.679688 C 259.59375 245.878906 259.636719 246.089844 259.597656 246.320312 C 259.5625 246.546875 259.457031 246.734375 259.28125 246.886719 C 259.109375 247.035156 258.90625 247.113281 258.675781 247.113281 Z M 258.675781 247.113281 " fill-opacity="1" fill-rule="nonzero"/><path fill="#ffffff" d="M 237.554688 231.066406 C 237.449219 231.070312 237.351562 231.050781 237.257812 231.015625 L 218.347656 224.714844 C 218.21875 224.679688 218.105469 224.625 218 224.546875 C 217.894531 224.464844 217.8125 224.367188 217.75 224.25 C 217.683594 224.136719 217.648438 224.011719 217.636719 223.882812 C 217.621094 223.75 217.636719 223.625 217.679688 223.5 C 217.71875 223.375 217.785156 223.261719 217.871094 223.164062 C 217.960938 223.066406 218.0625 222.992188 218.183594 222.9375 C 218.304688 222.882812 218.429688 222.851562 218.5625 222.851562 C 218.691406 222.847656 218.820312 222.871094 218.941406 222.921875 L 237.847656 229.226562 C 238.066406 229.300781 238.234375 229.4375 238.355469 229.632812 C 238.472656 229.832031 238.515625 230.042969 238.476562 230.273438 C 238.441406 230.5 238.335938 230.6875 238.160156 230.839844 C 237.984375 230.988281 237.785156 231.066406 237.554688 231.066406 Z M 237.554688 231.066406 " fill-opacity="1" fill-rule="nonzero"/><path fill="#ffffff" d="M 216.445312 215.03125 C 216.34375 215.035156 216.242188 215.015625 216.148438 214.980469 L 197.238281 208.679688 C 197.011719 208.582031 196.84375 208.421875 196.742188 208.199219 C 196.640625 207.972656 196.628906 207.742188 196.703125 207.507812 C 196.78125 207.273438 196.929688 207.097656 197.144531 206.976562 C 197.363281 206.859375 197.589844 206.828125 197.832031 206.886719 L 216.742188 213.191406 C 216.957031 213.265625 217.128906 213.402344 217.246094 213.597656 C 217.363281 213.796875 217.40625 214.007812 217.371094 214.238281 C 217.332031 214.464844 217.226562 214.652344 217.050781 214.804688 C 216.878906 214.953125 216.675781 215.03125 216.445312 215.03125 Z M 216.445312 215.03125 " fill-opacity="1" fill-rule="nonzero"/><path fill="#dd803d" d="M 131.625 196.335938 L 263.578125 296.554688 L 284.410156 132.183594 Z M 239.765625 239.867188 L 192.648438 204.070312 L 247.203125 181.164062 Z M 239.765625 239.867188 " fill-opacity="1" fill-rule="nonzero"/><g clip-path="url(#87ed829e2d)"><path fill="#ffffff" d="M 263.578125 297.519531 C 263.367188 297.519531 263.175781 297.457031 263.003906 297.332031 L 131.050781 197.09375 C 130.761719 196.871094 130.636719 196.578125 130.679688 196.21875 C 130.726562 195.859375 130.917969 195.609375 131.253906 195.46875 L 284.042969 131.316406 C 284.378906 131.171875 284.695312 131.210938 284.984375 131.433594 C 285.273438 131.65625 285.394531 131.945312 285.347656 132.304688 L 264.546875 296.695312 C 264.515625 296.929688 264.414062 297.125 264.234375 297.28125 C 264.054688 297.4375 263.847656 297.519531 263.609375 297.519531 Z M 133.503906 196.578125 L 262.847656 294.835938 L 283.269531 133.691406 Z M 239.765625 240.8125 C 239.554688 240.8125 239.363281 240.75 239.191406 240.621094 L 192.078125 204.828125 C 191.785156 204.605469 191.664062 204.316406 191.710938 203.953125 C 191.757812 203.59375 191.949219 203.339844 192.285156 203.199219 L 246.835938 180.296875 C 246.992188 180.230469 247.15625 180.207031 247.320312 180.230469 C 247.488281 180.25 247.640625 180.3125 247.773438 180.414062 C 247.910156 180.515625 248.011719 180.644531 248.074219 180.800781 C 248.140625 180.957031 248.164062 181.117188 248.140625 181.285156 L 240.703125 239.984375 C 240.671875 240.222656 240.566406 240.417969 240.390625 240.574219 C 240.210938 240.730469 240.003906 240.808594 239.765625 240.8125 Z M 194.527344 204.308594 L 239.035156 238.121094 L 246.0625 182.652344 Z M 194.527344 204.308594 " fill-opacity="1" fill-rule="nonzero"/></g><path fill="#ffffff" d="M 284.410156 132.183594 L 303.320312 138.488281 L 282.488281 302.878906 L 263.578125 296.574219 Z M 284.410156 132.183594 " fill-opacity="1" fill-rule="nonzero"/><g clip-path="url(#afbf29c257)"><path fill="#ffffff" d="M 282.488281 303.824219 C 282.386719 303.824219 282.285156 303.808594 282.191406 303.773438 L 263.28125 297.46875 C 263.070312 297.394531 262.90625 297.265625 262.785156 297.074219 C 262.667969 296.882812 262.621094 296.675781 262.652344 296.453125 L 283.453125 132.066406 C 283.496094 131.765625 283.648438 131.539062 283.90625 131.382812 C 284.15625 131.226562 284.425781 131.195312 284.707031 131.289062 L 303.613281 137.59375 C 303.828125 137.664062 303.992188 137.796875 304.109375 137.988281 C 304.230469 138.179688 304.273438 138.386719 304.246094 138.609375 L 283.445312 302.996094 C 283.414062 303.234375 283.3125 303.429688 283.132812 303.585938 C 282.953125 303.746094 282.746094 303.824219 282.507812 303.824219 Z M 264.613281 295.925781 L 281.691406 301.597656 L 302.285156 139.136719 L 285.203125 133.464844 Z M 264.613281 295.925781 " fill-opacity="1" fill-rule="nonzero"/></g><g clip-path="url(#8586940beb)"><path fill="#ffffff" d="M 282.488281 303.824219 C 282.386719 303.824219 282.285156 303.808594 282.191406 303.773438 L 263.28125 297.46875 C 263.054688 297.375 262.886719 297.214844 262.785156 296.988281 C 262.683594 296.765625 262.671875 296.535156 262.75 296.300781 C 262.824219 296.066406 262.972656 295.886719 263.191406 295.769531 C 263.40625 295.648438 263.632812 295.621094 263.875 295.679688 L 282.785156 301.980469 C 283 302.054688 283.171875 302.191406 283.289062 302.390625 C 283.40625 302.585938 283.449219 302.800781 283.414062 303.027344 C 283.375 303.253906 283.269531 303.445312 283.09375 303.59375 C 282.921875 303.746094 282.71875 303.820312 282.488281 303.824219 Z M 282.488281 303.824219 " fill-opacity="1" fill-rule="nonzero"/></g><path fill="#ffffff" d="M 283.582031 295.179688 C 283.480469 295.183594 283.382812 295.167969 283.289062 295.128906 L 264.378906 288.828125 C 264.25 288.796875 264.136719 288.738281 264.03125 288.660156 C 263.925781 288.578125 263.84375 288.480469 263.78125 288.367188 C 263.714844 288.25 263.679688 288.128906 263.667969 287.996094 C 263.652344 287.867188 263.667969 287.738281 263.710938 287.613281 C 263.75 287.488281 263.816406 287.375 263.902344 287.277344 C 263.992188 287.179688 264.09375 287.105469 264.214844 287.050781 C 264.335938 286.996094 264.460938 286.96875 264.589844 286.964844 C 264.722656 286.960938 264.851562 286.988281 264.972656 287.039062 L 283.878906 293.339844 C 284.097656 293.414062 284.265625 293.550781 284.386719 293.75 C 284.503906 293.945312 284.546875 294.160156 284.507812 294.386719 C 284.472656 294.613281 284.367188 294.800781 284.191406 294.953125 C 284.015625 295.101562 283.816406 295.179688 283.582031 295.179688 Z M 283.582031 295.179688 " fill-opacity="1" fill-rule="nonzero"/><path fill="#ffffff" d="M 284.675781 286.546875 C 284.574219 286.546875 284.472656 286.53125 284.378906 286.496094 L 265.46875 280.191406 C 265.339844 280.160156 265.226562 280.105469 265.121094 280.023438 C 265.015625 279.945312 264.933594 279.847656 264.871094 279.730469 C 264.804688 279.617188 264.769531 279.492188 264.757812 279.363281 C 264.746094 279.230469 264.757812 279.101562 264.800781 278.976562 C 264.839844 278.851562 264.90625 278.742188 264.992188 278.644531 C 265.082031 278.546875 265.1875 278.46875 265.304688 278.414062 C 265.425781 278.359375 265.550781 278.332031 265.683594 278.328125 C 265.8125 278.328125 265.941406 278.351562 266.0625 278.402344 L 284.96875 284.707031 C 285.1875 284.78125 285.355469 284.914062 285.476562 285.113281 C 285.59375 285.3125 285.636719 285.523438 285.597656 285.75 C 285.5625 285.976562 285.457031 286.167969 285.28125 286.316406 C 285.109375 286.46875 284.90625 286.542969 284.675781 286.546875 Z M 284.675781 286.546875 " fill-opacity="1" fill-rule="nonzero"/><path fill="#ffffff" d="M 285.769531 277.90625 C 285.667969 277.90625 285.570312 277.890625 285.476562 277.855469 L 266.566406 271.550781 C 266.4375 271.519531 266.320312 271.464844 266.21875 271.382812 C 266.113281 271.300781 266.03125 271.203125 265.964844 271.089844 C 265.902344 270.972656 265.867188 270.851562 265.851562 270.71875 C 265.839844 270.589844 265.855469 270.460938 265.898438 270.335938 C 265.9375 270.210938 266.003906 270.101562 266.089844 270.003906 C 266.179688 269.90625 266.28125 269.828125 266.402344 269.773438 C 266.523438 269.71875 266.648438 269.691406 266.777344 269.6875 C 266.910156 269.6875 267.035156 269.710938 267.160156 269.761719 L 286.066406 276.0625 C 286.285156 276.136719 286.453125 276.273438 286.574219 276.472656 C 286.691406 276.667969 286.734375 276.882812 286.695312 277.109375 C 286.660156 277.335938 286.554688 277.527344 286.378906 277.675781 C 286.203125 277.828125 286 277.902344 285.769531 277.90625 Z M 285.769531 277.90625 " fill-opacity="1" fill-rule="nonzero"/><path fill="#ffffff" d="M 286.867188 269.277344 C 286.765625 269.277344 286.667969 269.261719 286.570312 269.226562 L 267.664062 262.921875 C 267.535156 262.890625 267.417969 262.835938 267.316406 262.753906 C 267.210938 262.675781 267.125 262.574219 267.0625 262.460938 C 267 262.34375 266.960938 262.222656 266.949219 262.089844 C 266.9375 261.960938 266.953125 261.832031 266.992188 261.707031 C 267.035156 261.582031 267.101562 261.472656 267.1875 261.375 C 267.273438 261.277344 267.378906 261.199219 267.5 261.144531 C 267.617188 261.089844 267.742188 261.0625 267.875 261.058594 C 268.007812 261.058594 268.132812 261.082031 268.253906 261.132812 L 287.164062 267.433594 C 287.382812 267.507812 287.550781 267.644531 287.667969 267.84375 C 287.789062 268.039062 287.828125 268.253906 287.792969 268.480469 C 287.757812 268.707031 287.652344 268.898438 287.476562 269.046875 C 287.300781 269.199219 287.097656 269.273438 286.867188 269.277344 Z M 286.867188 269.277344 " fill-opacity="1" fill-rule="nonzero"/><path fill="#ffffff" d="M 287.957031 260.621094 C 287.855469 260.625 287.757812 260.605469 287.660156 260.570312 L 268.753906 254.269531 C 268.554688 254.207031 268.394531 254.089844 268.269531 253.921875 C 268.148438 253.757812 268.085938 253.570312 268.085938 253.359375 C 268.082031 253.101562 268.175781 252.878906 268.359375 252.691406 C 268.542969 252.507812 268.761719 252.414062 269.023438 252.414062 C 269.128906 252.414062 269.226562 252.433594 269.328125 252.464844 L 288.234375 258.769531 C 288.453125 258.84375 288.625 258.980469 288.742188 259.175781 C 288.859375 259.375 288.902344 259.589844 288.863281 259.816406 C 288.828125 260.042969 288.71875 260.234375 288.542969 260.382812 C 288.367188 260.535156 288.164062 260.609375 287.933594 260.609375 Z M 287.957031 260.621094 " fill-opacity="1" fill-rule="nonzero"/><path fill="#ffffff" d="M 289.054688 251.988281 C 288.953125 251.988281 288.855469 251.972656 288.757812 251.9375 L 269.851562 245.632812 C 269.722656 245.601562 269.605469 245.546875 269.5 245.464844 C 269.398438 245.382812 269.3125 245.285156 269.25 245.171875 C 269.1875 245.054688 269.148438 244.933594 269.136719 244.800781 C 269.125 244.671875 269.140625 244.542969 269.179688 244.417969 C 269.222656 244.292969 269.285156 244.183594 269.375 244.085938 C 269.460938 243.988281 269.566406 243.910156 269.6875 243.855469 C 269.804688 243.800781 269.929688 243.773438 270.0625 243.769531 C 270.195312 243.769531 270.320312 243.792969 270.441406 243.84375 L 289.351562 250.144531 C 289.570312 250.21875 289.738281 250.355469 289.855469 250.554688 C 289.976562 250.75 290.015625 250.964844 289.980469 251.191406 C 289.945312 251.417969 289.835938 251.609375 289.664062 251.757812 C 289.488281 251.910156 289.285156 251.984375 289.054688 251.988281 Z M 289.054688 251.988281 " fill-opacity="1" fill-rule="nonzero"/><path fill="#ffffff" d="M 290.144531 243.34375 C 290.042969 243.347656 289.945312 243.332031 289.847656 243.292969 L 270.941406 236.992188 C 270.8125 236.960938 270.695312 236.902344 270.59375 236.824219 C 270.488281 236.742188 270.402344 236.644531 270.339844 236.53125 C 270.277344 236.414062 270.238281 236.292969 270.226562 236.160156 C 270.214844 236.03125 270.230469 235.902344 270.269531 235.777344 C 270.3125 235.652344 270.378906 235.539062 270.464844 235.441406 C 270.554688 235.34375 270.65625 235.269531 270.777344 235.214844 C 270.894531 235.160156 271.023438 235.132812 271.152344 235.128906 C 271.285156 235.125 271.410156 235.152344 271.53125 235.203125 L 290.441406 241.503906 C 290.660156 241.578125 290.828125 241.714844 290.945312 241.914062 C 291.066406 242.109375 291.105469 242.320312 291.070312 242.550781 C 291.035156 242.777344 290.929688 242.964844 290.753906 243.117188 C 290.578125 243.265625 290.375 243.34375 290.144531 243.34375 Z M 290.144531 243.34375 " fill-opacity="1" fill-rule="nonzero"/><path fill="#ffffff" d="M 291.242188 234.710938 C 291.140625 234.710938 291.042969 234.695312 290.945312 234.660156 L 272.035156 228.355469 C 271.910156 228.324219 271.792969 228.269531 271.6875 228.1875 C 271.585938 228.109375 271.5 228.011719 271.4375 227.894531 C 271.375 227.78125 271.335938 227.65625 271.324219 227.527344 C 271.3125 227.394531 271.328125 227.265625 271.367188 227.140625 C 271.410156 227.015625 271.472656 226.90625 271.5625 226.808594 C 271.648438 226.710938 271.753906 226.632812 271.875 226.578125 C 271.992188 226.523438 272.117188 226.496094 272.25 226.492188 C 272.382812 226.492188 272.507812 226.515625 272.628906 226.566406 L 291.539062 232.871094 C 291.757812 232.945312 291.925781 233.078125 292.042969 233.277344 C 292.164062 233.472656 292.203125 233.6875 292.167969 233.914062 C 292.128906 234.140625 292.023438 234.332031 291.851562 234.480469 C 291.675781 234.632812 291.472656 234.707031 291.242188 234.710938 Z M 291.242188 234.710938 " fill-opacity="1" fill-rule="nonzero"/><path fill="#ffffff" d="M 292.339844 226.066406 C 292.238281 226.070312 292.136719 226.054688 292.042969 226.019531 L 273.132812 219.714844 C 272.90625 219.621094 272.738281 219.460938 272.636719 219.234375 C 272.535156 219.007812 272.523438 218.78125 272.601562 218.546875 C 272.675781 218.308594 272.824219 218.132812 273.042969 218.015625 C 273.257812 217.894531 273.484375 217.863281 273.726562 217.925781 L 292.636719 224.226562 C 292.851562 224.300781 293.023438 224.4375 293.140625 224.636719 C 293.257812 224.832031 293.300781 225.046875 293.265625 225.273438 C 293.226562 225.5 293.121094 225.691406 292.945312 225.839844 C 292.773438 225.988281 292.570312 226.066406 292.339844 226.066406 Z M 292.339844 226.066406 " fill-opacity="1" fill-rule="nonzero"/><path fill="#ffffff" d="M 293.4375 217.433594 C 293.332031 217.433594 293.234375 217.417969 293.140625 217.382812 L 274.230469 211.078125 C 274.003906 210.984375 273.835938 210.824219 273.734375 210.597656 C 273.632812 210.375 273.617188 210.144531 273.695312 209.910156 C 273.773438 209.675781 273.921875 209.5 274.136719 209.378906 C 274.355469 209.257812 274.582031 209.230469 274.824219 209.289062 L 293.730469 215.59375 C 293.949219 215.667969 294.117188 215.804688 294.238281 216 C 294.355469 216.199219 294.398438 216.410156 294.359375 216.636719 C 294.324219 216.867188 294.21875 217.054688 294.042969 217.203125 C 293.867188 217.355469 293.667969 217.429688 293.4375 217.433594 Z M 293.4375 217.433594 " fill-opacity="1" fill-rule="nonzero"/><path fill="#ffffff" d="M 294.558594 208.765625 C 294.457031 208.769531 294.355469 208.753906 294.261719 208.714844 L 275.351562 202.414062 C 275.222656 202.382812 275.109375 202.324219 275.003906 202.246094 C 274.898438 202.164062 274.816406 202.066406 274.753906 201.953125 C 274.6875 201.835938 274.652344 201.714844 274.640625 201.582031 C 274.628906 201.453125 274.640625 201.324219 274.683594 201.199219 C 274.726562 201.074219 274.789062 200.960938 274.878906 200.863281 C 274.964844 200.765625 275.070312 200.691406 275.1875 200.636719 C 275.308594 200.582031 275.433594 200.550781 275.566406 200.550781 C 275.695312 200.546875 275.824219 200.574219 275.945312 200.621094 L 294.855469 206.925781 C 295.070312 207 295.242188 207.136719 295.359375 207.332031 C 295.476562 207.53125 295.519531 207.742188 295.484375 207.972656 C 295.445312 208.199219 295.339844 208.386719 295.164062 208.539062 C 294.992188 208.6875 294.789062 208.765625 294.558594 208.765625 Z M 294.558594 208.765625 " fill-opacity="1" fill-rule="nonzero"/><path fill="#ffffff" d="M 295.621094 200.15625 C 295.519531 200.160156 295.421875 200.140625 295.328125 200.105469 L 276.417969 193.804688 C 276.1875 193.707031 276.023438 193.546875 275.921875 193.324219 C 275.816406 193.097656 275.804688 192.867188 275.882812 192.632812 C 275.960938 192.398438 276.109375 192.222656 276.324219 192.101562 C 276.542969 191.984375 276.769531 191.953125 277.011719 192.011719 L 295.917969 198.316406 C 296.136719 198.390625 296.304688 198.527344 296.425781 198.722656 C 296.542969 198.921875 296.585938 199.132812 296.546875 199.363281 C 296.511719 199.589844 296.40625 199.777344 296.230469 199.929688 C 296.054688 200.078125 295.851562 200.15625 295.621094 200.15625 Z M 295.621094 200.15625 " fill-opacity="1" fill-rule="nonzero"/><path fill="#ffffff" d="M 296.71875 191.515625 C 296.617188 191.515625 296.519531 191.5 296.421875 191.464844 L 277.515625 185.160156 C 277.285156 185.066406 277.121094 184.90625 277.019531 184.679688 C 276.914062 184.457031 276.902344 184.226562 276.980469 183.992188 C 277.058594 183.757812 277.207031 183.582031 277.421875 183.460938 C 277.636719 183.339844 277.867188 183.3125 278.105469 183.371094 L 297.015625 189.675781 C 297.234375 189.75 297.402344 189.886719 297.519531 190.082031 C 297.640625 190.28125 297.679688 190.492188 297.644531 190.71875 C 297.609375 190.949219 297.503906 191.136719 297.328125 191.285156 C 297.152344 191.4375 296.949219 191.511719 296.71875 191.515625 Z M 296.71875 191.515625 " fill-opacity="1" fill-rule="nonzero"/><path fill="#ffffff" d="M 297.816406 182.878906 C 297.714844 182.882812 297.617188 182.867188 297.519531 182.828125 L 278.609375 176.527344 C 278.382812 176.429688 278.21875 176.269531 278.113281 176.046875 C 278.011719 175.820312 278 175.589844 278.078125 175.355469 C 278.15625 175.121094 278.300781 174.945312 278.519531 174.824219 C 278.734375 174.707031 278.964844 174.675781 279.203125 174.738281 L 298.113281 181.039062 C 298.332031 181.113281 298.5 181.25 298.617188 181.445312 C 298.738281 181.644531 298.777344 181.855469 298.742188 182.085938 C 298.703125 182.3125 298.597656 182.5 298.425781 182.652344 C 298.25 182.800781 298.046875 182.878906 297.816406 182.878906 Z M 297.816406 182.878906 " fill-opacity="1" fill-rule="nonzero"/><path fill="#ffffff" d="M 298.90625 174.230469 C 298.804688 174.234375 298.707031 174.21875 298.609375 174.183594 L 279.703125 167.878906 C 279.472656 167.785156 279.308594 167.625 279.203125 167.398438 C 279.101562 167.171875 279.089844 166.945312 279.167969 166.710938 C 279.246094 166.472656 279.390625 166.296875 279.609375 166.179688 C 279.824219 166.058594 280.054688 166.027344 280.292969 166.089844 L 299.203125 172.390625 C 299.421875 172.464844 299.589844 172.601562 299.707031 172.800781 C 299.828125 172.996094 299.867188 173.210938 299.832031 173.4375 C 299.796875 173.664062 299.6875 173.855469 299.515625 174.003906 C 299.339844 174.152344 299.136719 174.230469 298.90625 174.230469 Z M 298.90625 174.230469 " fill-opacity="1" fill-rule="nonzero"/><path fill="#ffffff" d="M 300.003906 165.597656 C 299.902344 165.597656 299.800781 165.582031 299.707031 165.546875 L 280.796875 159.242188 C 280.671875 159.210938 280.554688 159.15625 280.449219 159.074219 C 280.347656 158.996094 280.261719 158.898438 280.199219 158.78125 C 280.136719 158.667969 280.097656 158.542969 280.085938 158.414062 C 280.074219 158.28125 280.089844 158.152344 280.128906 158.027344 C 280.171875 157.90625 280.234375 157.792969 280.324219 157.695312 C 280.410156 157.597656 280.515625 157.519531 280.632812 157.464844 C 280.753906 157.410156 280.878906 157.382812 281.011719 157.382812 C 281.144531 157.378906 281.269531 157.402344 281.390625 157.453125 L 300.300781 163.757812 C 300.519531 163.832031 300.6875 163.964844 300.804688 164.164062 C 300.925781 164.363281 300.964844 164.574219 300.929688 164.800781 C 300.890625 165.03125 300.785156 165.21875 300.609375 165.367188 C 300.4375 165.519531 300.234375 165.59375 300.003906 165.597656 Z M 300.003906 165.597656 " fill-opacity="1" fill-rule="nonzero"/><path fill="#ffffff" d="M 301.101562 156.957031 C 301 156.957031 300.898438 156.941406 300.804688 156.90625 L 281.894531 150.601562 C 281.667969 150.507812 281.5 150.347656 281.398438 150.121094 C 281.296875 149.898438 281.28125 149.667969 281.359375 149.433594 C 281.4375 149.199219 281.585938 149.019531 281.800781 148.902344 C 282.019531 148.78125 282.246094 148.753906 282.488281 148.8125 L 301.394531 155.113281 C 301.613281 155.1875 301.78125 155.324219 301.902344 155.523438 C 302.019531 155.71875 302.0625 155.933594 302.023438 156.160156 C 301.988281 156.386719 301.882812 156.578125 301.707031 156.726562 C 301.535156 156.878906 301.332031 156.953125 301.101562 156.957031 Z M 301.101562 156.957031 " fill-opacity="1" fill-rule="nonzero"/><path fill="#ffffff" d="M 302.191406 148.320312 C 302.089844 148.324219 301.988281 148.304688 301.894531 148.269531 L 282.984375 141.96875 C 282.738281 141.878906 282.558594 141.71875 282.445312 141.480469 C 282.332031 141.246094 282.316406 141.003906 282.40625 140.757812 C 282.492188 140.507812 282.652344 140.328125 282.890625 140.214844 C 283.125 140.101562 283.367188 140.089844 283.617188 140.175781 L 302.523438 146.480469 C 302.742188 146.554688 302.910156 146.691406 303.03125 146.890625 C 303.148438 147.085938 303.191406 147.300781 303.152344 147.527344 C 303.117188 147.757812 303.007812 147.945312 302.832031 148.09375 C 302.65625 148.246094 302.453125 148.320312 302.222656 148.320312 Z M 302.191406 148.320312 " fill-opacity="1" fill-rule="nonzero"/></svg>