<svg xmlns="http://www.w3.org/2000/svg" xmlns:xlink="http://www.w3.org/1999/xlink" width="580" zoomAndPan="magnify" viewBox="0 0 434.88 434.999989" height="580" preserveAspectRatio="xMidYMid meet" version="1.0"><defs><clipPath id="373c10d0ab"><path d="M 179 140.308594 L 244 140.308594 L 244 271 L 179 271 Z M 179 140.308594 " clip-rule="nonzero"/></clipPath><clipPath id="b0817c3506"><path d="M 205 190 L 304.414062 190 L 304.414062 294.765625 L 205 294.765625 Z M 205 190 " clip-rule="nonzero"/></clipPath><clipPath id="4c141d4003"><path d="M 130.464844 140.308594 L 151 140.308594 L 151 261 L 130.464844 261 Z M 130.464844 140.308594 " clip-rule="nonzero"/></clipPath></defs><g clip-path="url(#373c10d0ab)"><path fill="#44b7e6" d="M 243.238281 148.285156 C 242.988281 147.679688 242.496094 147.230469 241.867188 147.003906 L 224.25 141.074219 C 223.6875 140.894531 223.058594 140.914062 222.539062 141.183594 C 222.023438 141.453125 221.597656 141.925781 221.417969 142.488281 L 179.261719 267.71875 C 178.878906 268.84375 179.441406 270.054688 180.519531 270.503906 C 180.8125 270.617188 181.105469 270.683594 181.375 270.683594 C 182.207031 270.683594 182.992188 270.234375 183.375 269.449219 L 243.148438 150.152344 C 243.460938 149.566406 243.484375 148.894531 243.238281 148.285156 Z M 243.238281 148.285156 " fill-opacity="1" fill-rule="nonzero"/></g><g clip-path="url(#b0817c3506)"><path fill="#44b7e6" d="M 303.976562 207.113281 L 297.75 192.035156 C 297.460938 191.316406 296.808594 190.800781 296.042969 190.667969 C 295.257812 190.53125 294.492188 190.824219 293.976562 191.40625 L 206.273438 291 C 205.484375 291.898438 205.53125 293.246094 206.382812 294.078125 C 206.8125 294.503906 207.394531 294.730469 207.957031 294.730469 C 208.496094 294.730469 209.035156 294.550781 209.460938 294.144531 L 303.414062 209.609375 C 304.109375 209.003906 304.335938 207.992188 303.976562 207.113281 Z M 303.976562 207.113281 " fill-opacity="1" fill-rule="nonzero"/></g><g clip-path="url(#4c141d4003)"><path fill="#44b7e6" d="M 147.242188 140.601562 L 132.140625 144.691406 C 131.085938 144.960938 130.386719 145.972656 130.476562 147.074219 L 141.332031 258.617188 C 141.441406 259.765625 142.410156 260.640625 143.578125 260.640625 C 143.601562 260.640625 143.621094 260.640625 143.644531 260.640625 C 144.835938 260.597656 145.78125 259.652344 145.824219 258.484375 L 150.09375 142.871094 C 150.117188 142.152344 149.800781 141.476562 149.242188 141.027344 C 148.65625 140.578125 147.9375 140.421875 147.242188 140.601562 Z M 147.242188 140.601562 " fill-opacity="1" fill-rule="nonzero"/></g></svg>