<svg xmlns="http://www.w3.org/2000/svg" xmlns:xlink="http://www.w3.org/1999/xlink" width="580" zoomAndPan="magnify" viewBox="0 0 434.88 434.999989" height="580" preserveAspectRatio="xMidYMid meet" version="1.0"><path fill="#ffffff" d="M 160.148438 306.363281 C 160.046875 306.363281 159.945312 306.347656 159.847656 306.3125 L 159.808594 306.3125 C 159.65625 306.261719 159.523438 306.175781 159.414062 306.054688 C 159.304688 305.933594 159.234375 305.792969 159.195312 305.636719 C 159.160156 305.476562 159.164062 305.320312 159.207031 305.164062 C 159.25 305.007812 159.332031 304.871094 159.445312 304.757812 C 159.625 304.558594 159.851562 304.464844 160.117188 304.472656 C 160.296875 304.480469 160.464844 304.527344 160.621094 304.617188 C 160.804688 304.722656 160.9375 304.875 161.019531 305.074219 C 161.101562 305.269531 161.117188 305.472656 161.0625 305.679688 C 161.003906 305.882812 160.894531 306.050781 160.722656 306.183594 C 160.554688 306.3125 160.363281 306.375 160.148438 306.375 Z M 160.148438 306.363281 " fill-opacity="1" fill-rule="nonzero"/><path fill="#ffffff" d="M 201.320312 175.1875 L 199.222656 178.75 L 155.414062 153 C 153.992188 152.160156 152.5 151.460938 150.941406 150.90625 L 169.304688 157.019531 L 169.5 157.089844 L 169.609375 157.089844 C 171.226562 157.65625 172.777344 158.371094 174.253906 159.242188 Z M 201.320312 175.1875 " fill-opacity="1" fill-rule="nonzero"/><path fill="#ffffff" d="M 199.222656 179.691406 C 199.050781 179.691406 198.890625 179.648438 198.742188 179.558594 L 154.9375 153.808594 C 153.566406 153 152.128906 152.328125 150.628906 151.792969 C 150.382812 151.707031 150.203125 151.546875 150.09375 151.3125 C 149.980469 151.078125 149.96875 150.835938 150.054688 150.589844 C 150.140625 150.34375 150.300781 150.167969 150.535156 150.054688 C 150.769531 149.941406 151.011719 149.929688 151.257812 150.015625 L 169.621094 156.128906 L 169.425781 157.050781 L 169.722656 156.160156 L 169.820312 156.195312 L 169.890625 156.195312 C 169.941406 156.207031 169.988281 156.226562 170.035156 156.253906 C 171.675781 156.835938 173.25 157.566406 174.75 158.449219 L 201.816406 174.359375 C 202.039062 174.492188 202.183594 174.683594 202.25 174.933594 C 202.316406 175.1875 202.28125 175.421875 202.148438 175.648438 L 200.050781 179.207031 C 199.871094 179.535156 199.59375 179.695312 199.222656 179.691406 Z M 161.222656 155.324219 L 198.90625 177.460938 L 200.042969 175.519531 L 173.777344 160.089844 C 172.351562 159.253906 170.859375 158.5625 169.300781 158.015625 L 169.15625 158.015625 L 168.960938 157.949219 Z M 161.222656 155.324219 " fill-opacity="1" fill-rule="nonzero"/><path fill="#ffffff" d="M 234.574219 260.253906 L 210.910156 300.496094 C 210.15625 301.777344 209.304688 302.980469 208.347656 304.113281 C 207.390625 305.246094 206.347656 306.289062 205.214844 307.242188 C 204.082031 308.199219 202.875 309.050781 201.597656 309.800781 C 200.320312 310.550781 198.988281 311.191406 197.601562 311.714844 C 196.214844 312.238281 194.796875 312.640625 193.339844 312.925781 C 191.886719 313.207031 190.417969 313.367188 188.9375 313.398438 C 187.453125 313.433594 185.980469 313.34375 184.515625 313.125 C 183.050781 312.910156 181.613281 312.570312 180.203125 312.109375 L 162.246094 306.101562 C 163.632812 306.5 165.042969 306.78125 166.476562 306.949219 C 167.910156 307.117188 169.347656 307.164062 170.789062 307.089844 C 172.230469 307.019531 173.65625 306.832031 175.066406 306.523438 C 176.476562 306.21875 177.851562 305.796875 179.191406 305.261719 C 180.535156 304.726562 181.820312 304.085938 183.054688 303.339844 C 184.289062 302.59375 185.453125 301.75 186.550781 300.808594 C 187.644531 299.867188 188.65625 298.84375 189.582031 297.738281 C 190.507812 296.628906 191.335938 295.457031 192.066406 294.210938 L 217.816406 250.40625 Z M 234.574219 260.253906 " fill-opacity="1" fill-rule="nonzero"/><path fill="#ffffff" d="M 188.25 314.335938 C 185.433594 314.335938 182.6875 313.902344 180.007812 313.039062 L 179.902344 313.007812 L 161.945312 306.992188 C 161.707031 306.90625 161.53125 306.75 161.417969 306.523438 C 161.304688 306.296875 161.285156 306.0625 161.359375 305.820312 C 161.4375 305.578125 161.585938 305.398438 161.808594 305.277344 C 162.03125 305.15625 162.265625 305.128906 162.511719 305.195312 C 164.785156 305.855469 167.109375 306.183594 169.476562 306.183594 C 170.570312 306.179688 171.660156 306.105469 172.746094 305.964844 C 173.832031 305.820312 174.902344 305.609375 175.960938 305.328125 C 177.019531 305.042969 178.054688 304.695312 179.070312 304.277344 C 180.082031 303.863281 181.0625 303.382812 182.011719 302.839844 C 182.964844 302.296875 183.875 301.695312 184.75 301.03125 C 185.621094 300.371094 186.449219 299.65625 187.226562 298.886719 C 188.007812 298.121094 188.734375 297.304688 189.410156 296.441406 C 190.082031 295.578125 190.699219 294.675781 191.257812 293.734375 L 217.007812 249.925781 C 217.140625 249.703125 217.332031 249.558594 217.582031 249.496094 C 217.832031 249.429688 218.070312 249.464844 218.292969 249.59375 L 235.046875 259.4375 C 235.269531 259.566406 235.414062 259.757812 235.480469 260.011719 C 235.546875 260.261719 235.511719 260.5 235.378906 260.722656 L 211.75 300.976562 C 211.148438 301.988281 210.480469 302.960938 209.753906 303.890625 C 209.023438 304.816406 208.238281 305.695312 207.398438 306.519531 C 206.554688 307.347656 205.664062 308.117188 204.722656 308.828125 C 203.777344 309.539062 202.796875 310.183594 201.769531 310.769531 C 200.742188 311.351562 199.683594 311.867188 198.589844 312.3125 C 197.5 312.757812 196.382812 313.128906 195.242188 313.429688 C 194.101562 313.730469 192.945312 313.957031 191.773438 314.109375 C 190.605469 314.261719 189.429688 314.335938 188.25 314.335938 Z M 180.40625 311.195312 L 180.5 311.195312 C 181.855469 311.632812 183.242188 311.953125 184.65625 312.160156 C 186.066406 312.363281 187.488281 312.449219 188.914062 312.414062 C 190.339844 312.378906 191.753906 312.222656 193.15625 311.949219 C 194.554688 311.675781 195.921875 311.285156 197.257812 310.78125 C 198.59375 310.277344 199.875 309.664062 201.109375 308.941406 C 202.339844 308.21875 203.5 307.402344 204.59375 306.484375 C 205.6875 305.566406 206.695312 304.5625 207.621094 303.476562 C 208.542969 302.386719 209.371094 301.230469 210.097656 300 L 233.285156 260.566406 L 218.15625 251.722656 L 192.910156 294.695312 C 191.769531 296.621094 190.417969 298.378906 188.84375 299.972656 C 187.273438 301.5625 185.53125 302.941406 183.621094 304.105469 C 181.710938 305.265625 179.6875 306.179688 177.550781 306.84375 C 175.414062 307.507812 173.230469 307.902344 170.996094 308.027344 Z M 180.40625 311.195312 " fill-opacity="1" fill-rule="nonzero"/><path fill="#ffffff" d="M 319.921875 259.886719 C 319.917969 260.40625 319.902344 260.921875 319.871094 261.4375 C 319.839844 261.957031 319.792969 262.46875 319.734375 262.984375 C 319.671875 263.496094 319.59375 264.007812 319.5 264.519531 C 319.410156 265.027344 319.300781 265.535156 319.179688 266.035156 C 319.058594 266.539062 318.921875 267.039062 318.769531 267.53125 C 318.617188 268.027344 318.453125 268.515625 318.269531 269 C 318.089844 269.488281 317.894531 269.964844 317.6875 270.4375 C 317.476562 270.914062 317.253906 271.378906 317.015625 271.839844 C 316.78125 272.300781 316.53125 272.75 316.265625 273.195312 C 316.003906 273.640625 315.726562 274.078125 315.4375 274.507812 C 315.148438 274.9375 314.84375 275.355469 314.53125 275.769531 C 314.214844 276.179688 313.890625 276.578125 313.550781 276.972656 C 313.214844 277.363281 312.863281 277.746094 312.503906 278.113281 C 312.140625 278.484375 311.769531 278.847656 311.390625 279.195312 C 311.007812 279.542969 310.613281 279.878906 310.210938 280.207031 C 309.808594 280.53125 309.398438 280.84375 308.976562 281.144531 C 308.558594 281.449219 308.128906 281.734375 307.691406 282.011719 C 307.253906 282.289062 306.808594 282.550781 306.351562 282.800781 C 305.898438 283.046875 305.441406 283.285156 304.972656 283.507812 C 304.503906 283.726562 304.03125 283.9375 303.550781 284.128906 C 303.070312 284.324219 302.585938 284.503906 302.097656 284.667969 C 301.605469 284.835938 301.113281 284.984375 300.613281 285.121094 C 300.113281 285.257812 299.609375 285.378906 299.105469 285.484375 C 298.597656 285.589844 298.089844 285.679688 297.574219 285.757812 C 297.0625 285.832031 296.550781 285.894531 296.035156 285.9375 C 295.519531 285.984375 295.003906 286.015625 294.484375 286.027344 C 293.96875 286.042969 293.453125 286.042969 292.933594 286.027344 C 292.417969 286.011719 291.902344 285.980469 291.386719 285.933594 C 290.871094 285.886719 290.355469 285.824219 289.84375 285.75 C 289.332031 285.671875 288.824219 285.578125 288.320312 285.472656 C 287.8125 285.367188 287.308594 285.242188 286.8125 285.105469 C 286.3125 284.96875 285.816406 284.820312 285.328125 284.652344 L 266.605469 278.410156 C 267.363281 278.664062 268.132812 278.878906 268.910156 279.0625 C 269.691406 279.246094 270.476562 279.394531 271.269531 279.503906 C 272.0625 279.613281 272.855469 279.6875 273.65625 279.726562 C 274.453125 279.765625 275.253906 279.765625 276.054688 279.730469 C 276.851562 279.695312 277.648438 279.621094 278.441406 279.515625 C 279.234375 279.40625 280.019531 279.261719 280.800781 279.082031 C 281.578125 278.898438 282.347656 278.683594 283.105469 278.433594 C 283.867188 278.183594 284.613281 277.894531 285.347656 277.578125 C 286.082031 277.257812 286.796875 276.90625 287.5 276.519531 C 288.199219 276.132812 288.882812 275.71875 289.542969 275.269531 C 290.207031 274.820312 290.847656 274.34375 291.46875 273.839844 C 292.085938 273.332031 292.683594 272.796875 293.253906 272.238281 C 293.824219 271.675781 294.367188 271.089844 294.882812 270.480469 C 295.398438 269.867188 295.886719 269.234375 296.34375 268.578125 C 296.804688 267.921875 297.230469 267.246094 297.628906 266.554688 C 298.023438 265.859375 298.386719 265.148438 298.71875 264.417969 C 299.050781 263.691406 299.347656 262.949219 299.609375 262.191406 C 299.875 261.4375 300.101562 260.671875 300.296875 259.894531 C 300.488281 259.117188 300.644531 258.335938 300.765625 257.542969 C 300.886719 256.753906 300.972656 255.957031 301.019531 255.160156 C 301.070312 254.363281 301.082031 253.5625 301.054688 252.761719 C 301.03125 251.964844 300.96875 251.167969 300.871094 250.371094 C 300.773438 249.578125 300.640625 248.789062 300.46875 248.007812 C 300.300781 247.226562 300.09375 246.453125 299.851562 245.691406 C 299.613281 244.929688 299.335938 244.179688 299.027344 243.441406 C 298.714844 242.703125 298.375 241.980469 297.996094 241.277344 C 297.621094 240.570312 297.214844 239.882812 296.773438 239.214844 C 296.335938 238.542969 295.867188 237.898438 295.371094 237.269531 C 294.871094 236.644531 294.34375 236.042969 293.792969 235.464844 C 293.238281 234.886719 292.660156 234.335938 292.054688 233.8125 C 291.449219 233.289062 290.824219 232.792969 290.175781 232.324219 C 289.523438 231.859375 288.855469 231.421875 288.164062 231.015625 L 244.351562 205.265625 L 263.195312 211.546875 L 307.007812 237.296875 C 307.988281 237.871094 308.925781 238.507812 309.824219 239.207031 C 310.71875 239.90625 311.566406 240.65625 312.367188 241.464844 C 313.164062 242.273438 313.90625 243.132812 314.59375 244.035156 C 315.28125 244.941406 315.90625 245.886719 316.472656 246.875 C 317.035156 247.859375 317.53125 248.878906 317.964844 249.929688 C 318.394531 250.980469 318.757812 252.054688 319.046875 253.15625 C 319.339844 254.253906 319.558594 255.367188 319.703125 256.492188 C 319.847656 257.621094 319.921875 258.75 319.921875 259.886719 Z M 319.921875 259.886719 " fill-opacity="1" fill-rule="nonzero"/><path fill="#ffffff" d="M 293.71875 287 C 290.742188 287.003906 287.84375 286.523438 285.027344 285.5625 L 266.390625 279.359375 L 266.320312 279.359375 C 266.089844 279.265625 265.921875 279.105469 265.820312 278.878906 C 265.714844 278.652344 265.703125 278.421875 265.78125 278.183594 C 265.859375 277.949219 266.007812 277.769531 266.226562 277.652344 C 266.449219 277.535156 266.679688 277.507812 266.917969 277.574219 L 267 277.574219 C 267.734375 277.816406 268.472656 278.027344 269.226562 278.203125 C 269.976562 278.378906 270.734375 278.519531 271.5 278.625 C 272.261719 278.730469 273.03125 278.800781 273.800781 278.835938 C 274.570312 278.871094 275.339844 278.871094 276.113281 278.835938 C 276.882812 278.800781 277.648438 278.730469 278.414062 278.625 C 279.179688 278.519531 279.9375 278.382812 280.6875 278.207031 C 281.4375 278.03125 282.179688 277.824219 282.914062 277.578125 C 283.644531 277.335938 284.363281 277.0625 285.070312 276.75 C 285.777344 276.441406 286.46875 276.101562 287.144531 275.730469 C 287.820312 275.359375 288.476562 274.957031 289.117188 274.523438 C 289.753906 274.089844 290.371094 273.628906 290.96875 273.140625 C 291.566406 272.652344 292.136719 272.136719 292.6875 271.59375 C 293.234375 271.050781 293.757812 270.484375 294.257812 269.894531 C 294.753906 269.304688 295.222656 268.695312 295.664062 268.0625 C 296.105469 267.429688 296.515625 266.777344 296.898438 266.109375 C 297.28125 265.4375 297.628906 264.75 297.949219 264.046875 C 298.265625 263.347656 298.550781 262.628906 298.804688 261.902344 C 299.058594 261.171875 299.277344 260.433594 299.460938 259.683594 C 299.648438 258.9375 299.796875 258.179688 299.914062 257.417969 C 300.03125 256.65625 300.109375 255.886719 300.15625 255.117188 C 300.203125 254.347656 300.210938 253.578125 300.1875 252.808594 C 300.160156 252.035156 300.101562 251.269531 300.003906 250.503906 C 299.910156 249.738281 299.78125 248.976562 299.613281 248.222656 C 299.449219 247.46875 299.25 246.726562 299.015625 245.992188 C 298.78125 245.253906 298.515625 244.53125 298.214844 243.820312 C 297.917969 243.109375 297.585938 242.414062 297.222656 241.734375 C 296.859375 241.054688 296.464844 240.394531 296.039062 239.75 C 295.617188 239.105469 295.164062 238.480469 294.679688 237.878906 C 294.199219 237.273438 293.691406 236.695312 293.15625 236.140625 C 292.621094 235.582031 292.0625 235.054688 291.480469 234.546875 C 290.898438 234.042969 290.292969 233.566406 289.664062 233.117188 C 289.039062 232.667969 288.390625 232.246094 287.726562 231.859375 L 243.914062 206.109375 C 243.707031 205.984375 243.566406 205.808594 243.492188 205.582031 C 243.421875 205.351562 243.433594 205.128906 243.53125 204.90625 C 243.628906 204.6875 243.789062 204.53125 244.011719 204.433594 C 244.230469 204.335938 244.457031 204.328125 244.6875 204.40625 L 263.527344 210.6875 C 263.59375 210.703125 263.652344 210.730469 263.710938 210.769531 L 307.523438 236.519531 C 308.796875 237.265625 310 238.117188 311.136719 239.0625 C 312.273438 240.007812 313.324219 241.039062 314.289062 242.160156 C 315.257812 243.277344 316.125 244.464844 316.898438 245.726562 C 317.671875 246.988281 318.335938 248.300781 318.894531 249.671875 C 319.449219 251.042969 319.894531 252.445312 320.21875 253.886719 C 320.546875 255.328125 320.753906 256.789062 320.84375 258.265625 C 320.933594 259.738281 320.902344 261.210938 320.75 262.683594 C 320.597656 264.152344 320.328125 265.601562 319.9375 267.027344 C 319.550781 268.453125 319.046875 269.839844 318.433594 271.183594 C 317.816406 272.527344 317.097656 273.8125 316.269531 275.039062 C 315.445312 276.265625 314.527344 277.417969 313.511719 278.492188 C 312.5 279.566406 311.402344 280.554688 310.230469 281.453125 C 309.054688 282.347656 307.8125 283.144531 306.507812 283.835938 C 305.203125 284.53125 303.851562 285.117188 302.449219 285.589844 C 301.050781 286.0625 299.621094 286.417969 298.160156 286.65625 C 296.703125 286.894531 295.234375 287.015625 293.753906 287.015625 Z M 276.300781 280.671875 L 285.621094 283.8125 C 286.355469 284.058594 287.097656 284.277344 287.847656 284.457031 C 288.597656 284.636719 289.359375 284.785156 290.125 284.894531 C 290.886719 285.007812 291.65625 285.082031 292.429688 285.125 C 293.203125 285.164062 293.972656 285.171875 294.746094 285.140625 C 295.519531 285.109375 296.289062 285.042969 297.054688 284.945312 C 297.820312 284.84375 298.582031 284.707031 299.335938 284.535156 C 300.089844 284.367188 300.835938 284.160156 301.570312 283.921875 C 302.304688 283.683594 303.027344 283.410156 303.738281 283.105469 C 304.449219 282.796875 305.144531 282.460938 305.824219 282.089844 C 306.503906 281.722656 307.164062 281.320312 307.804688 280.890625 C 308.449219 280.460938 309.070312 280 309.671875 279.515625 C 310.269531 279.027344 310.847656 278.511719 311.398438 277.972656 C 311.953125 277.433594 312.480469 276.867188 312.980469 276.277344 C 313.484375 275.691406 313.957031 275.078125 314.402344 274.445312 C 314.84375 273.8125 315.261719 273.164062 315.644531 272.492188 C 316.03125 271.820312 316.382812 271.136719 316.707031 270.433594 C 317.027344 269.730469 317.316406 269.011719 317.574219 268.28125 C 317.828125 267.554688 318.050781 266.8125 318.238281 266.0625 C 318.429688 265.3125 318.582031 264.554688 318.699219 263.792969 C 318.816406 263.027344 318.902344 262.261719 318.949219 261.488281 C 318.996094 260.714844 319.007812 259.945312 318.988281 259.171875 C 318.964844 258.398438 318.90625 257.628906 318.8125 256.859375 C 318.71875 256.09375 318.589844 255.332031 318.425781 254.574219 C 318.261719 253.820312 318.0625 253.074219 317.828125 252.335938 C 317.597656 251.597656 317.332031 250.875 317.03125 250.160156 C 316.734375 249.449219 316.402344 248.75 316.039062 248.066406 C 315.675781 247.382812 315.28125 246.71875 314.855469 246.074219 C 314.433594 245.425781 313.980469 244.800781 313.496094 244.195312 C 313.015625 243.59375 312.507812 243.011719 311.972656 242.453125 C 311.4375 241.894531 310.875 241.363281 310.292969 240.855469 C 309.707031 240.351562 309.101562 239.871094 308.472656 239.421875 C 307.84375 238.96875 307.199219 238.546875 306.53125 238.15625 L 262.804688 212.449219 L 252.574219 209.015625 L 288.667969 230.238281 C 289.917969 230.972656 291.097656 231.800781 292.214844 232.722656 C 293.328125 233.648438 294.363281 234.652344 295.316406 235.742188 C 296.269531 236.832031 297.132812 237.992188 297.898438 239.21875 C 298.667969 240.445312 299.335938 241.726562 299.898438 243.058594 C 300.460938 244.394531 300.914062 245.765625 301.257812 247.171875 C 301.601562 248.578125 301.832031 250 301.945312 251.445312 C 302.0625 252.886719 302.0625 254.332031 301.945312 255.773438 C 301.832031 257.21875 301.601562 258.644531 301.257812 260.050781 C 300.914062 261.457031 300.457031 262.824219 299.894531 264.160156 C 299.332031 265.492188 298.664062 266.773438 297.894531 268 C 297.128906 269.226562 296.265625 270.386719 295.3125 271.476562 C 294.359375 272.5625 293.324219 273.570312 292.207031 274.492188 C 291.09375 275.417969 289.910156 276.246094 288.664062 276.980469 C 287.414062 277.710938 286.117188 278.34375 284.765625 278.867188 C 283.417969 279.394531 282.035156 279.808594 280.621094 280.113281 C 279.203125 280.417969 277.773438 280.609375 276.328125 280.683594 Z M 276.300781 280.671875 " fill-opacity="1" fill-rule="nonzero"/><path fill="#dd803d" d="M 301.078125 253.609375 C 301.078125 254.125 301.0625 254.640625 301.03125 255.152344 C 301 255.667969 300.953125 256.183594 300.890625 256.695312 C 300.828125 257.207031 300.753906 257.71875 300.660156 258.226562 C 300.570312 258.734375 300.460938 259.238281 300.339844 259.738281 C 300.21875 260.242188 300.082031 260.738281 299.929688 261.230469 C 299.78125 261.726562 299.613281 262.214844 299.433594 262.695312 C 299.253906 263.179688 299.0625 263.660156 298.851562 264.132812 C 298.644531 264.601562 298.421875 265.070312 298.1875 265.527344 C 297.949219 265.988281 297.703125 266.4375 297.4375 266.882812 C 297.175781 267.328125 296.902344 267.761719 296.613281 268.191406 C 296.324219 268.621094 296.023438 269.039062 295.710938 269.449219 C 295.398438 269.859375 295.074219 270.261719 294.738281 270.652344 C 294.402344 271.042969 294.050781 271.421875 293.695312 271.792969 C 293.335938 272.164062 292.964844 272.523438 292.585938 272.871094 C 292.203125 273.21875 291.8125 273.558594 291.414062 273.882812 C 291.011719 274.207031 290.601562 274.523438 290.183594 274.824219 C 289.765625 275.125 289.335938 275.414062 288.902344 275.691406 C 288.464844 275.964844 288.023438 276.230469 287.570312 276.480469 C 287.117188 276.730469 286.660156 276.964844 286.195312 277.1875 C 285.730469 277.410156 285.257812 277.621094 284.78125 277.8125 C 284.300781 278.007812 283.820312 278.191406 283.332031 278.355469 C 282.84375 278.523438 282.347656 278.675781 281.851562 278.8125 C 281.355469 278.949219 280.851562 279.070312 280.347656 279.179688 C 279.84375 279.285156 279.335938 279.378906 278.828125 279.457031 C 278.316406 279.535156 277.804688 279.597656 277.289062 279.644531 C 276.777344 279.691406 276.261719 279.722656 275.746094 279.738281 C 275.230469 279.757812 274.714844 279.757812 274.199219 279.746094 C 273.683594 279.730469 273.167969 279.703125 272.652344 279.660156 C 272.140625 279.613281 271.625 279.554688 271.117188 279.480469 C 270.605469 279.40625 270.097656 279.316406 269.59375 279.210938 C 269.085938 279.109375 268.585938 278.988281 268.085938 278.855469 C 267.589844 278.722656 267.09375 278.574219 266.605469 278.410156 L 266.417969 278.347656 C 264.75 277.769531 263.15625 277.035156 261.636719 276.140625 L 234.574219 260.234375 L 217.824219 250.390625 L 192.074219 294.199219 C 191.34375 295.441406 190.511719 296.617188 189.585938 297.726562 C 188.660156 298.832031 187.652344 299.855469 186.554688 300.796875 C 185.460938 301.734375 184.296875 302.578125 183.0625 303.328125 C 181.828125 304.074219 180.539062 304.714844 179.199219 305.25 C 177.859375 305.785156 176.484375 306.203125 175.074219 306.511719 C 173.664062 306.820312 172.238281 307.007812 170.796875 307.078125 C 169.355469 307.152344 167.917969 307.101562 166.484375 306.9375 C 165.050781 306.769531 163.640625 306.488281 162.253906 306.085938 L 160.25 305.441406 L 160.148438 305.441406 C 158.800781 304.921875 157.507812 304.292969 156.269531 303.558594 C 155.527344 303.121094 154.8125 302.652344 154.121094 302.148438 C 153.425781 301.644531 152.761719 301.105469 152.121094 300.535156 C 151.480469 299.964844 150.871094 299.363281 150.289062 298.734375 C 149.707031 298.105469 149.160156 297.445312 148.644531 296.761719 C 148.125 296.078125 147.644531 295.371094 147.199219 294.640625 C 146.75 293.90625 146.339844 293.15625 145.96875 292.382812 C 145.59375 291.613281 145.261719 290.824219 144.964844 290.019531 C 144.667969 289.214844 144.414062 288.398438 144.199219 287.566406 C 143.984375 286.738281 143.808594 285.898438 143.675781 285.050781 C 143.542969 284.203125 143.453125 283.351562 143.402344 282.496094 C 143.355469 281.640625 143.347656 280.785156 143.382812 279.929688 C 143.417969 279.074219 143.492188 278.21875 143.613281 277.371094 C 143.730469 276.519531 143.890625 275.679688 144.09375 274.847656 C 144.292969 274.015625 144.535156 273.191406 144.816406 272.382812 C 145.097656 271.574219 145.421875 270.78125 145.78125 270 C 146.140625 269.222656 146.539062 268.464844 146.972656 267.726562 L 172.722656 223.917969 L 128.910156 198.167969 C 128.222656 197.769531 127.554688 197.339844 126.90625 196.882812 C 126.257812 196.421875 125.632812 195.933594 125.027344 195.417969 C 124.425781 194.898438 123.847656 194.355469 123.292969 193.789062 C 122.738281 193.21875 122.210938 192.625 121.710938 192.007812 C 121.210938 191.390625 120.738281 190.75 120.296875 190.089844 C 119.855469 189.429688 119.441406 188.75 119.0625 188.054688 C 118.683594 187.355469 118.335938 186.640625 118.019531 185.914062 C 117.703125 185.183594 117.421875 184.441406 117.175781 183.683594 C 116.929688 182.929688 116.714844 182.164062 116.539062 181.390625 C 116.359375 180.617188 116.21875 179.835938 116.109375 179.046875 C 116.003906 178.261719 115.933594 177.46875 115.898438 176.675781 C 115.863281 175.882812 115.863281 175.089844 115.902344 174.292969 C 115.9375 173.5 116.011719 172.710938 116.121094 171.921875 C 116.230469 171.136719 116.375 170.355469 116.558594 169.582031 C 116.738281 168.808594 116.953125 168.042969 117.203125 167.289062 C 117.453125 166.535156 117.738281 165.792969 118.054688 165.066406 C 118.371094 164.335938 118.722656 163.625 119.105469 162.929688 C 119.488281 162.230469 119.898438 161.554688 120.34375 160.894531 C 120.789062 160.234375 121.261719 159.597656 121.765625 158.984375 C 122.265625 158.367188 122.796875 157.773438 123.351562 157.207031 C 123.910156 156.640625 124.488281 156.097656 125.09375 155.582031 C 125.699219 155.070312 126.328125 154.582031 126.976562 154.125 C 127.628906 153.667969 128.296875 153.242188 128.984375 152.84375 C 129.671875 152.449219 130.378906 152.082031 131.101562 151.75 C 131.820312 151.417969 132.558594 151.121094 133.308594 150.855469 C 134.054688 150.589844 134.816406 150.359375 135.585938 150.160156 C 136.355469 149.964844 137.132812 149.804688 137.917969 149.679688 C 138.703125 149.554688 139.492188 149.464844 140.285156 149.410156 C 141.078125 149.355469 141.871094 149.339844 142.664062 149.359375 C 143.460938 149.375 144.25 149.429688 145.039062 149.523438 C 145.832031 149.613281 146.613281 149.738281 147.390625 149.902344 C 148.167969 150.0625 148.9375 150.261719 149.699219 150.492188 L 149.753906 150.492188 L 150.941406 150.890625 C 152.5 151.441406 153.992188 152.140625 155.414062 152.980469 L 199.222656 178.730469 L 201.320312 175.167969 L 224.976562 134.925781 C 225.371094 134.257812 225.792969 133.605469 226.242188 132.976562 C 226.691406 132.34375 227.167969 131.738281 227.671875 131.148438 C 228.175781 130.558594 228.707031 129.996094 229.261719 129.453125 C 229.816406 128.914062 230.394531 128.398438 230.992188 127.90625 C 231.59375 127.417969 232.214844 126.957031 232.855469 126.519531 C 233.496094 126.085938 234.15625 125.679688 234.832031 125.304688 C 235.511719 124.929688 236.203125 124.582031 236.910156 124.269531 C 237.617188 123.953125 238.339844 123.671875 239.070312 123.417969 C 239.804688 123.167969 240.546875 122.953125 241.300781 122.765625 C 242.050781 122.582031 242.8125 122.429688 243.578125 122.3125 C 244.34375 122.195312 245.113281 122.113281 245.886719 122.0625 C 246.660156 122.015625 247.433594 122 248.207031 122.019531 C 248.980469 122.039062 249.753906 122.09375 250.523438 122.183594 C 251.292969 122.269531 252.058594 122.390625 252.816406 122.546875 C 253.574219 122.703125 254.324219 122.894531 255.066406 123.117188 C 255.808594 123.339844 256.539062 123.59375 257.257812 123.882812 C 258.488281 124.371094 259.667969 124.953125 260.808594 125.621094 C 261.546875 126.058594 262.261719 126.527344 262.953125 127.03125 C 263.644531 127.535156 264.3125 128.074219 264.949219 128.640625 C 265.589844 129.210938 266.199219 129.8125 266.78125 130.441406 C 267.359375 131.070312 267.910156 131.726562 268.425781 132.410156 C 268.941406 133.09375 269.421875 133.800781 269.867188 134.53125 C 270.316406 135.265625 270.722656 136.015625 271.097656 136.785156 C 271.46875 137.558594 271.804688 138.34375 272.101562 139.148438 C 272.394531 139.953125 272.652344 140.769531 272.867188 141.597656 C 273.082031 142.425781 273.253906 143.265625 273.390625 144.109375 C 273.523438 144.957031 273.613281 145.804688 273.664062 146.660156 C 273.710938 147.515625 273.71875 148.371094 273.6875 149.226562 C 273.652344 150.082031 273.574219 150.933594 273.457031 151.785156 C 273.339844 152.632812 273.179688 153.472656 272.980469 154.304688 C 272.78125 155.136719 272.539062 155.957031 272.257812 156.765625 C 271.976562 157.578125 271.65625 158.371094 271.296875 159.148438 C 270.9375 159.925781 270.542969 160.683594 270.109375 161.421875 L 244.359375 205.234375 L 288.171875 230.984375 C 289.152344 231.5625 290.09375 232.199219 290.988281 232.898438 C 291.886719 233.597656 292.734375 234.351562 293.535156 235.160156 C 294.332031 235.96875 295.078125 236.828125 295.765625 237.734375 C 296.453125 238.640625 297.078125 239.589844 297.640625 240.574219 C 298.203125 241.5625 298.703125 242.585938 299.132812 243.636719 C 299.5625 244.691406 299.921875 245.765625 300.214844 246.867188 C 300.503906 247.964844 300.722656 249.082031 300.867188 250.207031 C 301.011719 251.335938 301.082031 252.46875 301.078125 253.609375 Z M 301.078125 253.609375 " fill-opacity="1" fill-rule="nonzero"/><path fill="#ffffff" d="M 169.476562 308.074219 C 166.925781 308.066406 164.429688 307.707031 161.984375 306.992188 L 159.980469 306.363281 L 159.816406 306.300781 L 159.730469 306.261719 C 158.816406 305.910156 157.925781 305.507812 157.054688 305.054688 C 156.183594 304.605469 155.339844 304.109375 154.527344 303.566406 C 153.710938 303.027344 152.925781 302.441406 152.171875 301.8125 C 151.421875 301.1875 150.703125 300.519531 150.023438 299.816406 C 149.34375 299.113281 148.703125 298.371094 148.101562 297.597656 C 147.503906 296.824219 146.945312 296.019531 146.433594 295.183594 C 145.921875 294.351562 145.453125 293.492188 145.035156 292.605469 C 144.613281 291.71875 144.242188 290.816406 143.921875 289.890625 C 143.601562 288.964844 143.328125 288.023438 143.109375 287.070312 C 142.890625 286.117188 142.722656 285.152344 142.605469 284.179688 C 142.492188 283.207031 142.429688 282.230469 142.417969 281.25 C 142.410156 280.273438 142.453125 279.292969 142.550781 278.320312 C 142.648438 277.34375 142.796875 276.378906 142.996094 275.417969 C 143.199219 274.460938 143.449219 273.515625 143.753906 272.585938 C 144.058594 271.652344 144.410156 270.742188 144.8125 269.847656 C 145.214844 268.957031 145.667969 268.085938 146.164062 267.242188 L 171.410156 224.214844 L 128.40625 198.964844 C 127.695312 198.554688 127.003906 198.109375 126.335938 197.632812 C 125.664062 197.152344 125.015625 196.648438 124.390625 196.113281 C 123.765625 195.578125 123.167969 195.011719 122.59375 194.421875 C 122.019531 193.832031 121.472656 193.21875 120.957031 192.578125 C 120.4375 191.9375 119.953125 191.277344 119.496094 190.589844 C 119.039062 189.90625 118.613281 189.203125 118.21875 188.480469 C 117.824219 187.757812 117.464844 187.019531 117.140625 186.261719 C 116.8125 185.507812 116.523438 184.738281 116.265625 183.957031 C 116.011719 183.171875 115.792969 182.382812 115.609375 181.578125 C 115.425781 180.777344 115.277344 179.96875 115.167969 179.152344 C 115.058594 178.335938 114.984375 177.519531 114.949219 176.695312 C 114.914062 175.875 114.914062 175.050781 114.953125 174.230469 C 114.992188 173.40625 115.070312 172.589844 115.183594 171.773438 C 115.296875 170.957031 115.449219 170.148438 115.636719 169.347656 C 115.824219 168.546875 116.046875 167.757812 116.304688 166.976562 C 116.566406 166.195312 116.859375 165.425781 117.191406 164.671875 C 117.519531 163.917969 117.882812 163.179688 118.277344 162.457031 C 118.675781 161.738281 119.101562 161.035156 119.5625 160.355469 C 120.023438 159.671875 120.515625 159.011719 121.035156 158.375 C 121.554688 157.738281 122.105469 157.125 122.679688 156.535156 C 123.257812 155.949219 123.859375 155.386719 124.484375 154.855469 C 125.113281 154.324219 125.761719 153.820312 126.4375 153.347656 C 127.109375 152.871094 127.800781 152.429688 128.515625 152.019531 C 129.230469 151.609375 129.960938 151.230469 130.707031 150.886719 C 131.453125 150.542969 132.214844 150.234375 132.992188 149.960938 C 133.769531 149.683594 134.554688 149.445312 135.351562 149.242188 C 136.148438 149.039062 136.953125 148.875 137.765625 148.742188 C 138.582031 148.613281 139.398438 148.523438 140.21875 148.464844 C 141.039062 148.410156 141.863281 148.394531 142.683594 148.414062 C 143.507812 148.433594 144.328125 148.488281 145.144531 148.582031 C 145.960938 148.675781 146.773438 148.808594 147.578125 148.976562 C 148.386719 149.144531 149.183594 149.347656 149.96875 149.589844 L 150.042969 149.589844 L 151.238281 149.992188 C 152.859375 150.5625 154.410156 151.289062 155.890625 152.164062 L 198.886719 177.4375 L 200.507812 174.6875 L 224.167969 134.464844 C 224.765625 133.453125 225.425781 132.484375 226.152344 131.558594 C 226.875 130.632812 227.65625 129.753906 228.492188 128.929688 C 229.328125 128.105469 230.21875 127.335938 231.152344 126.625 C 232.089844 125.914062 233.070312 125.269531 234.089844 124.683594 C 235.109375 124.101562 236.164062 123.585938 237.25 123.136719 C 238.339844 122.691406 239.449219 122.316406 240.585938 122.011719 C 241.722656 121.707031 242.871094 121.480469 244.039062 121.324219 C 245.203125 121.167969 246.375 121.089844 247.550781 121.085938 C 251.023438 121.085938 254.375 121.730469 257.597656 123.027344 C 258.875 123.539062 260.105469 124.148438 261.285156 124.855469 C 262.050781 125.304688 262.792969 125.792969 263.511719 126.316406 C 264.226562 126.835938 264.917969 127.394531 265.582031 127.984375 C 266.246094 128.574219 266.878906 129.199219 267.480469 129.851562 C 268.082031 130.503906 268.648438 131.183594 269.183594 131.890625 C 269.71875 132.601562 270.21875 133.335938 270.683594 134.089844 C 271.144531 134.847656 271.570312 135.628906 271.957031 136.425781 C 272.34375 137.226562 272.691406 138.042969 272.996094 138.875 C 273.300781 139.710938 273.566406 140.558594 273.789062 141.417969 C 274.011719 142.277344 274.195312 143.144531 274.332031 144.019531 C 274.46875 144.898438 274.5625 145.78125 274.617188 146.667969 C 274.667969 147.554688 274.675781 148.441406 274.636719 149.328125 C 274.601562 150.214844 274.523438 151.097656 274.398438 151.976562 C 274.277344 152.855469 274.109375 153.726562 273.902344 154.589844 C 273.695312 155.453125 273.445312 156.304688 273.152344 157.144531 C 272.859375 157.984375 272.527344 158.804688 272.152344 159.609375 C 271.78125 160.417969 271.371094 161.203125 270.917969 161.96875 L 245.664062 204.945312 L 288.667969 230.226562 C 289.382812 230.644531 290.074219 231.097656 290.75 231.582031 C 291.421875 232.066406 292.070312 232.578125 292.695312 233.125 C 293.320312 233.667969 293.917969 234.238281 294.492188 234.835938 C 295.066406 235.433594 295.609375 236.058594 296.125 236.707031 C 296.640625 237.355469 297.128906 238.027344 297.582031 238.71875 C 298.035156 239.410156 298.457031 240.125 298.847656 240.855469 C 299.238281 241.585938 299.589844 242.335938 299.914062 243.097656 C 300.234375 243.863281 300.519531 244.640625 300.765625 245.429688 C 301.015625 246.21875 301.230469 247.019531 301.40625 247.828125 C 301.582031 248.640625 301.71875 249.453125 301.820312 250.277344 C 301.921875 251.101562 301.988281 251.925781 302.011719 252.753906 C 302.039062 253.582031 302.027344 254.410156 301.976562 255.234375 C 301.925781 256.0625 301.835938 256.886719 301.710938 257.707031 C 301.585938 258.523438 301.421875 259.335938 301.222656 260.140625 C 301.023438 260.945312 300.785156 261.738281 300.515625 262.519531 C 300.242188 263.300781 299.933594 264.070312 299.589844 264.824219 C 299.246094 265.578125 298.871094 266.316406 298.457031 267.035156 C 298.046875 267.753906 297.605469 268.453125 297.128906 269.132812 C 296.65625 269.8125 296.152344 270.46875 295.617188 271.101562 C 295.082031 271.734375 294.519531 272.339844 293.925781 272.921875 C 293.335938 273.503906 292.722656 274.054688 292.078125 274.582031 C 291.4375 275.105469 290.773438 275.601562 290.089844 276.0625 C 289.402344 276.527344 288.695312 276.960938 287.96875 277.359375 C 287.242188 277.757812 286.5 278.121094 285.738281 278.453125 C 284.980469 278.785156 284.207031 279.082031 283.421875 279.339844 C 282.632812 279.601562 281.835938 279.824219 281.03125 280.011719 C 280.222656 280.199219 279.410156 280.347656 278.585938 280.460938 C 277.765625 280.574219 276.941406 280.648438 276.113281 280.683594 C 275.285156 280.722656 274.460938 280.722656 273.632812 280.683594 C 272.804688 280.644531 271.980469 280.566406 271.160156 280.453125 C 270.339844 280.335938 269.523438 280.1875 268.71875 279.996094 C 267.910156 279.808594 267.113281 279.582031 266.328125 279.320312 L 266.222656 279.289062 L 266.132812 279.289062 C 264.40625 278.691406 262.757812 277.929688 261.183594 277.003906 L 218.15625 251.722656 L 192.910156 294.695312 C 192.308594 295.707031 191.648438 296.679688 190.921875 297.609375 C 190.195312 298.535156 189.414062 299.414062 188.574219 300.238281 C 187.738281 301.066406 186.847656 301.835938 185.910156 302.546875 C 184.96875 303.257812 183.988281 303.90625 182.964844 304.488281 C 181.941406 305.074219 180.886719 305.589844 179.796875 306.035156 C 178.707031 306.484375 177.59375 306.859375 176.453125 307.160156 C 175.316406 307.460938 174.164062 307.691406 172.996094 307.84375 C 171.828125 307.996094 170.652344 308.070312 169.476562 308.074219 Z M 160.5625 304.554688 L 162.542969 305.214844 C 164.800781 305.863281 167.101562 306.1875 169.449219 306.1875 C 170.546875 306.1875 171.636719 306.113281 172.722656 305.96875 C 173.808594 305.828125 174.878906 305.613281 175.9375 305.332031 C 176.996094 305.050781 178.03125 304.703125 179.042969 304.285156 C 180.054688 303.867188 181.039062 303.390625 181.988281 302.847656 C 182.9375 302.300781 183.851562 301.699219 184.722656 301.039062 C 185.597656 300.378906 186.421875 299.664062 187.203125 298.894531 C 187.984375 298.125 188.710938 297.308594 189.382812 296.449219 C 190.058594 295.585938 190.675781 294.683594 191.230469 293.738281 L 216.980469 249.933594 C 217.113281 249.710938 217.304688 249.566406 217.558594 249.5 C 217.808594 249.4375 218.046875 249.46875 218.269531 249.601562 L 262.082031 275.351562 C 263.550781 276.210938 265.085938 276.917969 266.691406 277.472656 L 266.792969 277.503906 L 266.875 277.503906 C 267.605469 277.75 268.347656 277.960938 269.097656 278.136719 C 269.851562 278.3125 270.605469 278.453125 271.371094 278.5625 C 272.136719 278.667969 272.902344 278.738281 273.671875 278.777344 C 274.445312 278.8125 275.214844 278.816406 275.984375 278.78125 C 276.753906 278.746094 277.523438 278.675781 278.289062 278.574219 C 279.050781 278.46875 279.808594 278.328125 280.5625 278.15625 C 281.3125 277.980469 282.054688 277.773438 282.789062 277.53125 C 283.519531 277.289062 284.238281 277.015625 284.945312 276.707031 C 285.65625 276.398438 286.347656 276.058594 287.023438 275.6875 C 287.699219 275.316406 288.355469 274.914062 288.996094 274.480469 C 289.632812 274.050781 290.253906 273.589844 290.851562 273.101562 C 291.445312 272.613281 292.019531 272.097656 292.570312 271.558594 C 293.121094 271.015625 293.644531 270.449219 294.140625 269.863281 C 294.640625 269.273438 295.109375 268.660156 295.550781 268.03125 C 295.996094 267.398438 296.40625 266.746094 296.789062 266.078125 C 297.171875 265.40625 297.523438 264.71875 297.839844 264.019531 C 298.160156 263.316406 298.449219 262.601562 298.703125 261.871094 C 298.953125 261.144531 299.175781 260.40625 299.359375 259.65625 C 299.546875 258.90625 299.699219 258.152344 299.816406 257.390625 C 299.933594 256.625 300.011719 255.859375 300.058594 255.089844 C 300.105469 254.320312 300.117188 253.550781 300.09375 252.777344 C 300.070312 252.007812 300.011719 251.238281 299.914062 250.472656 C 299.820312 249.707031 299.691406 248.949219 299.527344 248.195312 C 299.363281 247.441406 299.164062 246.695312 298.929688 245.960938 C 298.699219 245.226562 298.433594 244.503906 298.132812 243.789062 C 297.835938 243.078125 297.503906 242.382812 297.140625 241.703125 C 296.777344 241.023438 296.386719 240.359375 295.960938 239.714844 C 295.539062 239.070312 295.085938 238.445312 294.605469 237.84375 C 294.125 237.238281 293.617188 236.660156 293.082031 236.101562 C 292.550781 235.546875 291.992188 235.015625 291.410156 234.507812 C 290.824219 234.003906 290.222656 233.527344 289.59375 233.074219 C 288.96875 232.625 288.324219 232.203125 287.65625 231.8125 L 243.84375 206.0625 C 243.621094 205.933594 243.476562 205.742188 243.410156 205.492188 C 243.34375 205.238281 243.375 205 243.511719 204.777344 L 269.261719 160.964844 C 269.679688 160.25 270.0625 159.519531 270.410156 158.769531 C 270.757812 158.019531 271.066406 157.253906 271.339844 156.472656 C 271.609375 155.691406 271.84375 154.902344 272.039062 154.097656 C 272.230469 153.292969 272.386719 152.484375 272.5 151.664062 C 272.617188 150.84375 272.6875 150.023438 272.722656 149.199219 C 272.757812 148.371094 272.75 147.546875 272.703125 146.722656 C 272.652344 145.894531 272.566406 145.074219 272.4375 144.257812 C 272.308594 143.441406 272.140625 142.632812 271.933594 141.832031 C 271.726562 141.035156 271.480469 140.246094 271.195312 139.46875 C 270.910156 138.695312 270.585938 137.933594 270.226562 137.191406 C 269.867188 136.445312 269.472656 135.722656 269.039062 135.015625 C 268.609375 134.3125 268.144531 133.628906 267.648438 132.96875 C 267.148438 132.308594 266.621094 131.675781 266.058594 131.066406 C 265.5 130.460938 264.910156 129.882812 264.292969 129.332031 C 263.675781 128.78125 263.03125 128.265625 262.363281 127.777344 C 261.695312 127.292969 261.003906 126.839844 260.292969 126.421875 C 259.195312 125.777344 258.058594 125.21875 256.875 124.742188 C 253.882812 123.554688 250.773438 122.964844 247.550781 122.972656 C 246.453125 122.972656 245.363281 123.046875 244.277344 123.191406 C 243.191406 123.332031 242.121094 123.546875 241.0625 123.828125 C 240.003906 124.109375 238.96875 124.457031 237.957031 124.875 C 236.945312 125.289062 235.960938 125.769531 235.011719 126.3125 C 234.0625 126.855469 233.148438 127.460938 232.277344 128.121094 C 231.402344 128.78125 230.578125 129.496094 229.796875 130.265625 C 229.019531 131.035156 228.289062 131.847656 227.617188 132.710938 C 226.941406 133.574219 226.324219 134.476562 225.769531 135.421875 L 200.019531 179.226562 C 199.886719 179.453125 199.695312 179.597656 199.445312 179.660156 C 199.191406 179.726562 198.953125 179.691406 198.730469 179.558594 L 154.925781 153.808594 C 153.550781 153 152.117188 152.328125 150.617188 151.792969 L 149.449219 151.402344 L 149.378906 151.402344 C 148.648438 151.183594 147.90625 151 147.160156 150.847656 C 146.410156 150.695312 145.660156 150.578125 144.898438 150.496094 C 144.140625 150.410156 143.378906 150.363281 142.617188 150.347656 C 141.855469 150.332031 141.09375 150.351562 140.332031 150.40625 C 139.570312 150.460938 138.8125 150.550781 138.058594 150.675781 C 137.304688 150.796875 136.5625 150.953125 135.820312 151.144531 C 135.082031 151.335938 134.355469 151.558594 133.636719 151.816406 C 132.917969 152.074219 132.210938 152.363281 131.519531 152.683594 C 130.828125 153.007812 130.148438 153.359375 129.488281 153.738281 C 128.828125 154.121094 128.1875 154.535156 127.566406 154.976562 C 126.941406 155.414062 126.339844 155.882812 125.757812 156.378906 C 125.179688 156.875 124.621094 157.394531 124.089844 157.941406 C 123.554688 158.488281 123.046875 159.054688 122.566406 159.648438 C 122.082031 160.238281 121.628906 160.851562 121.203125 161.484375 C 120.777344 162.117188 120.378906 162.769531 120.011719 163.4375 C 119.644531 164.105469 119.308594 164.792969 119.003906 165.492188 C 118.699219 166.191406 118.425781 166.902344 118.1875 167.625 C 117.945312 168.351562 117.738281 169.085938 117.566406 169.828125 C 117.390625 170.570312 117.25 171.320312 117.144531 172.074219 C 117.039062 172.832031 116.96875 173.589844 116.929688 174.351562 C 116.894531 175.117188 116.890625 175.878906 116.921875 176.640625 C 116.957031 177.402344 117.023438 178.164062 117.125 178.917969 C 117.222656 179.675781 117.359375 180.425781 117.527344 181.167969 C 117.699219 181.914062 117.898438 182.648438 118.136719 183.375 C 118.371094 184.101562 118.640625 184.816406 118.941406 185.515625 C 119.242188 186.21875 119.574219 186.902344 119.9375 187.574219 C 120.296875 188.246094 120.691406 188.902344 121.113281 189.535156 C 121.535156 190.171875 121.984375 190.789062 122.464844 191.382812 C 122.941406 191.976562 123.445312 192.550781 123.976562 193.097656 C 124.503906 193.648438 125.058594 194.171875 125.636719 194.671875 C 126.214844 195.171875 126.8125 195.640625 127.433594 196.085938 C 128.050781 196.53125 128.691406 196.945312 129.351562 197.332031 L 173.164062 223.085938 C 173.386719 223.214844 173.53125 223.40625 173.597656 223.660156 C 173.664062 223.910156 173.628906 224.148438 173.496094 224.371094 L 147.746094 268.179688 C 147.285156 268.964844 146.863281 269.773438 146.492188 270.605469 C 146.117188 271.4375 145.789062 272.289062 145.507812 273.15625 C 145.222656 274.023438 144.988281 274.902344 144.804688 275.796875 C 144.617188 276.691406 144.480469 277.589844 144.390625 278.5 C 144.300781 279.40625 144.261719 280.316406 144.273438 281.230469 C 144.285156 282.140625 144.34375 283.050781 144.453125 283.957031 C 144.5625 284.863281 144.71875 285.757812 144.925781 286.648438 C 145.132812 287.539062 145.386719 288.410156 145.6875 289.273438 C 145.988281 290.132812 146.335938 290.976562 146.726562 291.800781 C 147.121094 292.625 147.558594 293.421875 148.035156 294.199219 C 148.515625 294.976562 149.035156 295.722656 149.597656 296.441406 C 150.160156 297.164062 150.757812 297.847656 151.394531 298.503906 C 152.027344 299.160156 152.699219 299.777344 153.398438 300.359375 C 154.101562 300.941406 154.835938 301.484375 155.597656 301.984375 C 156.359375 302.488281 157.144531 302.949219 157.957031 303.363281 C 158.765625 303.78125 159.597656 304.152344 160.449219 304.480469 L 160.539062 304.519531 Z M 160.5625 304.554688 " fill-opacity="1" fill-rule="nonzero"/><path fill="#dd803d" d="M 162.246094 306.105469 C 161.574219 305.910156 160.910156 305.691406 160.25 305.441406 Z M 162.246094 306.105469 " fill-opacity="1" fill-rule="nonzero"/><path fill="#ffffff" d="M 162.246094 307.046875 C 162.15625 307.046875 162.070312 307.035156 161.984375 307.011719 C 161.265625 306.804688 160.570312 306.570312 159.917969 306.320312 C 159.691406 306.222656 159.527344 306.058594 159.429688 305.832031 C 159.332031 305.605469 159.324219 305.375 159.40625 305.140625 C 159.492188 304.910156 159.640625 304.738281 159.859375 304.621094 C 160.078125 304.507812 160.308594 304.484375 160.546875 304.550781 L 162.542969 305.214844 C 162.761719 305.289062 162.929688 305.425781 163.046875 305.621094 C 163.164062 305.816406 163.207031 306.03125 163.167969 306.257812 C 163.132812 306.484375 163.027344 306.671875 162.851562 306.820312 C 162.679688 306.972656 162.476562 307.046875 162.246094 307.046875 Z M 162.246094 307.046875 " fill-opacity="1" fill-rule="nonzero"/><path fill="#ffffff" d="M 288.949219 167.746094 L 263.199219 211.558594 L 244.359375 205.277344 L 270.109375 161.464844 C 270.542969 160.726562 270.9375 159.96875 271.296875 159.191406 C 271.65625 158.414062 271.976562 157.621094 272.257812 156.8125 C 272.539062 156.003906 272.78125 155.179688 272.980469 154.347656 C 273.179688 153.515625 273.339844 152.675781 273.457031 151.828125 C 273.574219 150.980469 273.652344 150.128906 273.6875 149.269531 C 273.71875 148.414062 273.710938 147.558594 273.664062 146.707031 C 273.613281 145.851562 273.523438 145 273.390625 144.152344 C 273.257812 143.308594 273.082031 142.46875 272.867188 141.640625 C 272.652344 140.8125 272.394531 139.996094 272.101562 139.191406 C 271.804688 138.386719 271.46875 137.601562 271.097656 136.828125 C 270.722656 136.058594 270.316406 135.308594 269.867188 134.578125 C 269.421875 133.847656 268.941406 133.140625 268.425781 132.457031 C 267.910156 131.773438 267.359375 131.117188 266.78125 130.484375 C 266.199219 129.855469 265.589844 129.257812 264.949219 128.6875 C 264.3125 128.117188 263.644531 127.578125 262.953125 127.074219 C 262.261719 126.570312 261.546875 126.101562 260.808594 125.667969 C 259.667969 124.996094 258.488281 124.414062 257.257812 123.925781 L 273.808594 129.410156 C 274.296875 129.554688 274.789062 129.71875 275.273438 129.894531 L 275.472656 129.960938 C 276.367188 130.292969 277.242188 130.671875 278.09375 131.097656 C 278.949219 131.523438 279.777344 131.996094 280.578125 132.511719 C 281.378906 133.027344 282.152344 133.589844 282.890625 134.1875 C 283.632812 134.789062 284.339844 135.429688 285.007812 136.109375 C 285.679688 136.785156 286.3125 137.5 286.902344 138.246094 C 287.496094 138.996094 288.046875 139.773438 288.554688 140.582031 C 289.0625 141.386719 289.523438 142.222656 289.941406 143.078125 C 290.355469 143.9375 290.726562 144.816406 291.046875 145.714844 C 291.367188 146.613281 291.636719 147.527344 291.855469 148.453125 C 292.078125 149.382812 292.246094 150.320312 292.363281 151.265625 C 292.480469 152.214844 292.546875 153.164062 292.5625 154.117188 C 292.574219 155.070312 292.539062 156.023438 292.445312 156.972656 C 292.355469 157.921875 292.214844 158.863281 292.023438 159.796875 C 291.828125 160.730469 291.585938 161.652344 291.292969 162.558594 C 290.996094 163.46875 290.65625 164.355469 290.261719 165.226562 C 289.871094 166.097656 289.433594 166.941406 288.949219 167.765625 Z M 288.949219 167.746094 " fill-opacity="1" fill-rule="nonzero"/><path fill="#ffffff" d="M 263.195312 212.5 C 263.089844 212.5 262.992188 212.484375 262.894531 212.449219 L 244.050781 206.171875 C 243.769531 206.074219 243.574219 205.890625 243.46875 205.613281 C 243.367188 205.328125 243.390625 205.058594 243.542969 204.800781 L 269.292969 160.988281 C 269.710938 160.277344 270.09375 159.542969 270.441406 158.792969 C 270.789062 158.042969 271.097656 157.277344 271.371094 156.5 C 271.644531 155.71875 271.875 154.925781 272.070312 154.121094 C 272.265625 153.320312 272.417969 152.507812 272.53125 151.6875 C 272.648438 150.871094 272.71875 150.046875 272.753906 149.222656 C 272.789062 148.398438 272.78125 147.570312 272.734375 146.746094 C 272.683594 145.921875 272.597656 145.101562 272.46875 144.285156 C 272.339844 143.46875 272.171875 142.660156 271.964844 141.859375 C 271.757812 141.058594 271.511719 140.269531 271.226562 139.496094 C 270.941406 138.71875 270.617188 137.960938 270.257812 137.214844 C 269.898438 136.472656 269.503906 135.746094 269.070312 135.039062 C 268.640625 134.335938 268.175781 133.652344 267.679688 132.992188 C 267.179688 132.335938 266.652344 131.699219 266.089844 131.09375 C 265.53125 130.484375 264.941406 129.90625 264.324219 129.355469 C 263.707031 128.808594 263.0625 128.289062 262.394531 127.804688 C 261.726562 127.316406 261.035156 126.863281 260.324219 126.445312 C 259.226562 125.800781 258.089844 125.242188 256.90625 124.769531 C 256.691406 124.664062 256.535156 124.5 256.445312 124.277344 C 256.355469 124.054688 256.347656 123.832031 256.429688 123.605469 C 256.511719 123.378906 256.65625 123.207031 256.867188 123.09375 C 257.078125 122.976562 257.300781 122.949219 257.535156 123.003906 L 274.085938 128.488281 C 274.542969 128.617188 275.058594 128.789062 275.574219 128.976562 L 275.761719 129.039062 L 275.882812 129.089844 C 277.355469 129.648438 278.769531 130.332031 280.125 131.136719 C 280.890625 131.585938 281.632812 132.074219 282.351562 132.59375 C 283.070312 133.117188 283.761719 133.675781 284.421875 134.265625 C 285.085938 134.855469 285.71875 135.476562 286.320312 136.128906 C 286.921875 136.785156 287.492188 137.464844 288.027344 138.171875 C 288.5625 138.882812 289.0625 139.613281 289.523438 140.371094 C 289.988281 141.128906 290.410156 141.910156 290.796875 142.707031 C 291.183594 143.507812 291.53125 144.324219 291.839844 145.15625 C 292.144531 145.992188 292.410156 146.835938 292.632812 147.695312 C 292.855469 148.554688 293.035156 149.425781 293.171875 150.300781 C 293.3125 151.179688 293.40625 152.0625 293.457031 152.949219 C 293.507812 153.835938 293.515625 154.722656 293.480469 155.609375 C 293.445312 156.496094 293.363281 157.378906 293.242188 158.257812 C 293.117188 159.136719 292.953125 160.007812 292.746094 160.871094 C 292.535156 161.734375 292.285156 162.585938 291.992188 163.425781 C 291.703125 164.261719 291.367188 165.085938 290.996094 165.890625 C 290.621094 166.699219 290.210938 167.484375 289.761719 168.25 L 264.011719 212.0625 C 263.824219 212.363281 263.550781 212.511719 263.195312 212.5 Z M 245.753906 204.75 L 262.765625 210.402344 L 288.140625 167.25 C 288.605469 166.457031 289.03125 165.640625 289.40625 164.804688 C 289.785156 163.964844 290.113281 163.109375 290.398438 162.234375 C 290.679688 161.359375 290.917969 160.472656 291.101562 159.570312 C 291.289062 158.671875 291.425781 157.765625 291.511719 156.847656 C 291.601562 155.933594 291.636719 155.015625 291.625 154.097656 C 291.609375 153.175781 291.546875 152.261719 291.433594 151.347656 C 291.320312 150.4375 291.15625 149.535156 290.941406 148.640625 C 290.730469 147.746094 290.46875 146.863281 290.160156 145.996094 C 289.851562 145.132812 289.496094 144.285156 289.09375 143.457031 C 288.695312 142.632812 288.25 141.828125 287.757812 141.050781 C 287.269531 140.273438 286.738281 139.523438 286.167969 138.800781 C 285.597656 138.082031 284.988281 137.394531 284.339844 136.742188 C 283.695312 136.089844 283.011719 135.472656 282.300781 134.894531 C 281.585938 134.3125 280.839844 133.773438 280.066406 133.277344 C 279.296875 132.78125 278.496094 132.324219 277.675781 131.914062 C 276.851562 131.503906 276.007812 131.140625 275.144531 130.824219 L 275.070312 130.824219 L 274.964844 130.785156 C 274.46875 130.601562 273.996094 130.445312 273.542969 130.3125 L 265.023438 127.492188 C 265.628906 128.003906 266.210938 128.542969 266.769531 129.101562 C 267.328125 129.664062 267.859375 130.25 268.367188 130.859375 C 268.875 131.46875 269.355469 132.097656 269.808594 132.746094 C 270.261719 133.398438 270.683594 134.066406 271.078125 134.753906 C 271.46875 135.441406 271.832031 136.144531 272.164062 136.867188 C 272.496094 137.585938 272.796875 138.316406 273.0625 139.0625 C 273.332031 139.808594 273.566406 140.566406 273.769531 141.332031 C 273.96875 142.097656 274.136719 142.871094 274.269531 143.652344 C 274.402344 144.433594 274.503906 145.21875 274.566406 146.007812 C 274.632812 146.800781 274.664062 147.589844 274.660156 148.382812 C 274.652344 149.175781 274.613281 149.964844 274.539062 150.753906 C 274.46875 151.542969 274.359375 152.328125 274.214844 153.105469 C 274.074219 153.886719 273.898438 154.660156 273.6875 155.421875 C 273.476562 156.1875 273.234375 156.941406 272.957031 157.683594 C 272.679688 158.425781 272.371094 159.152344 272.03125 159.871094 C 271.691406 160.585938 271.320312 161.285156 270.917969 161.96875 Z M 288.949219 167.746094 Z M 288.949219 167.746094 " fill-opacity="1" fill-rule="nonzero"/><path fill="#ffffff" d="M 196.851562 173.503906 C 196.75 173.507812 196.652344 173.492188 196.558594 173.457031 L 177.714844 167.175781 C 177.589844 167.144531 177.472656 167.085938 177.371094 167.007812 C 177.265625 166.925781 177.183594 166.828125 177.117188 166.714844 C 177.054688 166.601562 177.019531 166.476562 177.007812 166.347656 C 176.992188 166.214844 177.007812 166.089844 177.050781 165.964844 C 177.089844 165.839844 177.15625 165.730469 177.242188 165.632812 C 177.332031 165.535156 177.433594 165.457031 177.554688 165.402344 C 177.671875 165.347656 177.796875 165.320312 177.929688 165.320312 C 178.058594 165.316406 178.1875 165.339844 178.304688 165.390625 L 197.148438 171.671875 C 197.367188 171.746094 197.535156 171.878906 197.652344 172.078125 C 197.769531 172.273438 197.8125 172.484375 197.773438 172.714844 C 197.738281 172.941406 197.632812 173.128906 197.457031 173.277344 C 197.285156 173.425781 197.082031 173.503906 196.851562 173.503906 Z M 196.851562 173.503906 " fill-opacity="1" fill-rule="nonzero"/><path fill="#ffffff" d="M 302.050781 285.636719 C 301.949219 285.640625 301.851562 285.625 301.757812 285.589844 L 282.914062 279.308594 C 282.71875 279.246094 282.558594 279.132812 282.433594 278.964844 C 282.3125 278.796875 282.25 278.609375 282.25 278.402344 C 282.246094 278.144531 282.339844 277.921875 282.523438 277.738281 C 282.703125 277.554688 282.925781 277.460938 283.183594 277.460938 C 283.285156 277.460938 283.386719 277.480469 283.480469 277.511719 L 302.324219 283.792969 C 302.539062 283.867188 302.707031 284 302.828125 284.199219 C 302.945312 284.394531 302.984375 284.605469 302.949219 284.832031 C 302.914062 285.058594 302.808594 285.25 302.632812 285.398438 C 302.457031 285.546875 302.257812 285.625 302.027344 285.625 Z M 302.050781 285.636719 " fill-opacity="1" fill-rule="nonzero"/><path fill="#ffffff" d="M 310.316406 281.085938 C 310.214844 281.085938 310.113281 281.070312 310.015625 281.035156 L 291.175781 274.753906 C 290.929688 274.667969 290.75 274.503906 290.636719 274.269531 C 290.527344 274.035156 290.511719 273.796875 290.601562 273.550781 C 290.6875 273.304688 290.847656 273.125 291.082031 273.011719 C 291.316406 272.898438 291.554688 272.882812 291.800781 272.96875 L 310.644531 279.25 C 310.863281 279.324219 311.03125 279.460938 311.148438 279.65625 C 311.265625 279.855469 311.308594 280.066406 311.269531 280.292969 C 311.234375 280.519531 311.128906 280.707031 310.953125 280.855469 C 310.78125 281.007812 310.578125 281.082031 310.347656 281.085938 Z M 310.316406 281.085938 " fill-opacity="1" fill-rule="nonzero"/><path fill="#ffffff" d="M 315.421875 275.476562 C 315.320312 275.476562 315.21875 275.460938 315.121094 275.425781 L 296.28125 269.144531 C 296.035156 269.058594 295.855469 268.898438 295.742188 268.664062 C 295.628906 268.425781 295.617188 268.1875 295.703125 267.941406 C 295.789062 267.695312 295.949219 267.515625 296.1875 267.402344 C 296.421875 267.289062 296.664062 267.273438 296.910156 267.363281 L 315.75 273.640625 C 315.96875 273.714844 316.136719 273.851562 316.253906 274.046875 C 316.371094 274.246094 316.414062 274.457031 316.375 274.683594 C 316.339844 274.910156 316.234375 275.097656 316.0625 275.25 C 315.886719 275.398438 315.683594 275.472656 315.453125 275.476562 Z M 315.421875 275.476562 " fill-opacity="1" fill-rule="nonzero"/><path fill="#ffffff" d="M 318.519531 269.207031 C 318.417969 269.210938 318.320312 269.195312 318.226562 269.15625 L 299.382812 262.878906 C 299.257812 262.847656 299.140625 262.789062 299.035156 262.710938 C 298.933594 262.628906 298.847656 262.53125 298.785156 262.417969 C 298.722656 262.304688 298.683594 262.179688 298.671875 262.050781 C 298.660156 261.917969 298.675781 261.792969 298.714844 261.667969 C 298.757812 261.542969 298.820312 261.433594 298.910156 261.335938 C 298.996094 261.238281 299.101562 261.160156 299.21875 261.105469 C 299.339844 261.050781 299.464844 261.023438 299.59375 261.023438 C 299.726562 261.019531 299.851562 261.042969 299.972656 261.09375 L 318.816406 267.375 C 319.03125 267.449219 319.199219 267.582031 319.320312 267.78125 C 319.4375 267.976562 319.476562 268.1875 319.441406 268.414062 C 319.40625 268.644531 319.300781 268.832031 319.125 268.980469 C 318.953125 269.128906 318.75 269.207031 318.519531 269.207031 Z M 318.519531 269.207031 " fill-opacity="1" fill-rule="nonzero"/><path fill="#ffffff" d="M 319.875 262.335938 C 319.773438 262.339844 319.675781 262.324219 319.582031 262.289062 L 300.738281 256.007812 C 300.613281 255.976562 300.496094 255.917969 300.394531 255.839844 C 300.289062 255.757812 300.207031 255.660156 300.140625 255.546875 C 300.078125 255.433594 300.042969 255.308594 300.03125 255.179688 C 300.015625 255.046875 300.03125 254.921875 300.074219 254.796875 C 300.113281 254.671875 300.179688 254.5625 300.265625 254.464844 C 300.355469 254.367188 300.457031 254.289062 300.578125 254.234375 C 300.695312 254.179688 300.820312 254.152344 300.953125 254.152344 C 301.082031 254.148438 301.210938 254.171875 301.328125 254.222656 L 320.171875 260.503906 C 320.390625 260.578125 320.558594 260.714844 320.675781 260.910156 C 320.792969 261.105469 320.835938 261.316406 320.796875 261.546875 C 320.761719 261.773438 320.65625 261.960938 320.480469 262.109375 C 320.308594 262.257812 320.105469 262.335938 319.875 262.335938 Z M 319.875 262.335938 " fill-opacity="1" fill-rule="nonzero"/><path fill="#ffffff" d="M 319.210938 254.808594 C 319.105469 254.808594 319.007812 254.792969 318.910156 254.757812 L 300.066406 248.476562 C 299.835938 248.382812 299.667969 248.222656 299.5625 247.996094 C 299.460938 247.769531 299.445312 247.539062 299.527344 247.304688 C 299.605469 247.066406 299.753906 246.890625 299.972656 246.773438 C 300.195312 246.652344 300.421875 246.628906 300.664062 246.691406 L 319.507812 252.972656 C 319.722656 253.046875 319.890625 253.183594 320.007812 253.378906 C 320.128906 253.574219 320.167969 253.789062 320.132812 254.015625 C 320.097656 254.242188 319.992188 254.429688 319.816406 254.578125 C 319.640625 254.730469 319.441406 254.804688 319.210938 254.808594 Z M 319.210938 254.808594 " fill-opacity="1" fill-rule="nonzero"/><path fill="#ffffff" d="M 315.488281 246.253906 C 315.382812 246.253906 315.285156 246.238281 315.191406 246.203125 L 296.347656 239.921875 C 296.222656 239.890625 296.105469 239.835938 296.003906 239.753906 C 295.898438 239.675781 295.816406 239.578125 295.753906 239.460938 C 295.6875 239.347656 295.652344 239.226562 295.640625 239.09375 C 295.628906 238.964844 295.640625 238.835938 295.683594 238.710938 C 295.722656 238.585938 295.789062 238.476562 295.875 238.378906 C 295.964844 238.28125 296.066406 238.207031 296.1875 238.152344 C 296.304688 238.097656 296.429688 238.066406 296.5625 238.066406 C 296.691406 238.0625 296.820312 238.089844 296.941406 238.136719 L 315.78125 244.417969 C 316 244.492188 316.167969 244.628906 316.285156 244.824219 C 316.402344 245.023438 316.445312 245.234375 316.410156 245.460938 C 316.371094 245.6875 316.265625 245.875 316.09375 246.023438 C 315.917969 246.175781 315.714844 246.25 315.488281 246.253906 Z M 315.488281 246.253906 " fill-opacity="1" fill-rule="nonzero"/><path fill="#ffffff" d="M 298.597656 233.316406 C 298.476562 233.3125 298.359375 233.289062 298.246094 233.246094 L 279.46875 226.964844 L 279.34375 226.914062 C 279.109375 226.804688 278.949219 226.632812 278.859375 226.390625 C 278.769531 226.152344 278.777344 225.914062 278.882812 225.679688 C 278.988281 225.445312 279.15625 225.28125 279.394531 225.1875 C 279.632812 225.09375 279.871094 225.09375 280.109375 225.195312 L 298.886719 231.476562 L 299.011719 231.523438 C 299.210938 231.621094 299.355469 231.769531 299.453125 231.964844 C 299.546875 232.164062 299.570312 232.371094 299.519531 232.585938 C 299.46875 232.800781 299.359375 232.976562 299.1875 233.113281 C 299.015625 233.25 298.816406 233.316406 298.597656 233.316406 Z M 298.597656 233.316406 " fill-opacity="1" fill-rule="nonzero"/><path fill="#ffffff" d="M 269.882812 216.433594 C 269.78125 216.433594 269.679688 216.417969 269.582031 216.382812 L 250.738281 210.101562 C 250.507812 210.007812 250.339844 209.847656 250.238281 209.625 C 250.132812 209.398438 250.121094 209.164062 250.199219 208.929688 C 250.277344 208.691406 250.425781 208.515625 250.644531 208.398438 C 250.867188 208.28125 251.097656 208.253906 251.335938 208.320312 L 270.179688 214.597656 C 270.394531 214.671875 270.5625 214.808594 270.683594 215.003906 C 270.800781 215.203125 270.839844 215.414062 270.804688 215.640625 C 270.769531 215.867188 270.664062 216.054688 270.488281 216.207031 C 270.316406 216.355469 270.113281 216.429688 269.882812 216.433594 Z M 269.882812 216.433594 " fill-opacity="1" fill-rule="nonzero"/></svg>