<svg xmlns="http://www.w3.org/2000/svg" xmlns:xlink="http://www.w3.org/1999/xlink" width="580" zoomAndPan="magnify" viewBox="0 0 434.88 434.999989" height="580" preserveAspectRatio="xMidYMid meet" version="1.0"><defs><clipPath id="d5419d1a19"><path d="M 113 128 L 344.566406 128 L 344.566406 313.796875 L 113 313.796875 Z M 113 128 " clip-rule="nonzero"/></clipPath><clipPath id="f31df2f021"><path d="M 90.386719 121.097656 L 322 121.097656 L 322 307 L 90.386719 307 Z M 90.386719 121.097656 " clip-rule="nonzero"/></clipPath><clipPath id="8d8e82b107"><path d="M 318 121.097656 L 344.566406 121.097656 L 344.566406 162 L 318 162 Z M 318 121.097656 " clip-rule="nonzero"/></clipPath><clipPath id="b71f514f3c"><path d="M 258 151 L 344.566406 151 L 344.566406 162 L 258 162 Z M 258 151 " clip-rule="nonzero"/></clipPath><clipPath id="c454b57bf3"><path d="M 182 227 L 208 227 L 208 313.796875 L 182 313.796875 Z M 182 227 " clip-rule="nonzero"/></clipPath><clipPath id="44c028df8e"><path d="M 90.386719 303 L 208 303 L 208 313.796875 L 90.386719 313.796875 Z M 90.386719 303 " clip-rule="nonzero"/></clipPath><clipPath id="fff877f444"><path d="M 318 121.097656 L 344.566406 121.097656 L 344.566406 132 L 318 132 Z M 318 121.097656 " clip-rule="nonzero"/></clipPath><clipPath id="efcbcd45f4"><path d="M 318 128 L 344.566406 128 L 344.566406 139 L 318 139 Z M 318 128 " clip-rule="nonzero"/></clipPath><clipPath id="c922004a4b"><path d="M 318 136 L 344.566406 136 L 344.566406 147 L 318 147 Z M 318 136 " clip-rule="nonzero"/></clipPath><clipPath id="f9eefe281d"><path d="M 318 144 L 344.566406 144 L 344.566406 155 L 318 155 Z M 318 144 " clip-rule="nonzero"/></clipPath></defs><path fill="#ffffff" d="M 206.179688 312.746094 L 114.800781 312.746094 L 114.800781 282.140625 L 175.578125 282.140625 L 175.578125 206.0625 L 251.664062 206.0625 L 251.664062 129.972656 L 343.054688 129.972656 L 343.054688 160.578125 L 282.269531 160.578125 L 282.269531 236.664062 L 206.179688 236.664062 Z M 206.179688 312.746094 " fill-opacity="1" fill-rule="nonzero"/><g clip-path="url(#d5419d1a19)"><path fill="#ffffff" d="M 206.226562 313.894531 L 114.800781 313.894531 C 114.648438 313.894531 114.5 313.863281 114.359375 313.804688 C 114.21875 313.746094 114.09375 313.664062 113.988281 313.558594 C 113.878906 313.449219 113.796875 313.324219 113.738281 313.183594 C 113.679688 313.042969 113.652344 312.898438 113.652344 312.746094 L 113.652344 282.140625 C 113.652344 281.988281 113.679688 281.84375 113.738281 281.703125 C 113.796875 281.5625 113.878906 281.4375 113.988281 281.332031 C 114.09375 281.222656 114.21875 281.140625 114.359375 281.082031 C 114.5 281.023438 114.648438 280.996094 114.800781 280.996094 L 174.476562 280.996094 L 174.476562 206.101562 C 174.476562 205.949219 174.503906 205.800781 174.5625 205.660156 C 174.621094 205.519531 174.703125 205.394531 174.8125 205.289062 C 174.917969 205.179688 175.042969 205.097656 175.183594 205.039062 C 175.324219 204.980469 175.472656 204.953125 175.625 204.953125 L 250.554688 204.953125 L 250.554688 129.972656 C 250.554688 129.820312 250.585938 129.675781 250.644531 129.535156 C 250.703125 129.394531 250.785156 129.269531 250.890625 129.160156 C 251 129.054688 251.125 128.972656 251.265625 128.914062 C 251.40625 128.855469 251.550781 128.824219 251.703125 128.824219 L 343.054688 128.824219 C 343.207031 128.824219 343.355469 128.855469 343.496094 128.914062 C 343.636719 128.972656 343.757812 129.054688 343.867188 129.160156 C 343.976562 129.269531 344.058594 129.394531 344.117188 129.535156 C 344.175781 129.675781 344.203125 129.820312 344.203125 129.972656 L 344.203125 160.578125 C 344.203125 160.730469 344.175781 160.875 344.117188 161.015625 C 344.058594 161.15625 343.976562 161.28125 343.867188 161.386719 C 343.757812 161.496094 343.636719 161.578125 343.496094 161.636719 C 343.355469 161.695312 343.207031 161.722656 343.054688 161.722656 L 283.417969 161.722656 L 283.417969 236.703125 C 283.417969 236.855469 283.386719 237 283.328125 237.140625 C 283.269531 237.28125 283.1875 237.40625 283.082031 237.515625 C 282.972656 237.621094 282.847656 237.707031 282.707031 237.761719 C 282.566406 237.820312 282.421875 237.851562 282.269531 237.851562 L 207.335938 237.851562 L 207.335938 312.785156 C 207.328125 313.085938 207.214844 313.34375 207 313.558594 C 206.789062 313.769531 206.53125 313.882812 206.226562 313.894531 Z M 115.945312 311.597656 L 205.042969 311.597656 L 205.042969 236.703125 C 205.042969 236.550781 205.070312 236.40625 205.128906 236.265625 C 205.1875 236.125 205.269531 236 205.378906 235.890625 C 205.484375 235.785156 205.609375 235.703125 205.75 235.644531 C 205.890625 235.585938 206.035156 235.554688 206.1875 235.554688 L 281.121094 235.554688 L 281.121094 160.578125 C 281.121094 160.425781 281.152344 160.277344 281.210938 160.136719 C 281.265625 159.996094 281.351562 159.875 281.457031 159.765625 C 281.566406 159.65625 281.691406 159.574219 281.832031 159.515625 C 281.972656 159.457031 282.117188 159.429688 282.269531 159.429688 L 341.90625 159.429688 L 341.90625 131.121094 L 252.8125 131.121094 L 252.8125 206.101562 C 252.8125 206.25 252.785156 206.398438 252.726562 206.539062 C 252.667969 206.679688 252.585938 206.804688 252.476562 206.910156 C 252.371094 207.019531 252.246094 207.101562 252.105469 207.160156 C 251.964844 207.21875 251.816406 207.246094 251.664062 207.246094 L 176.734375 207.246094 L 176.734375 282.179688 C 176.734375 282.332031 176.703125 282.480469 176.644531 282.621094 C 176.585938 282.761719 176.503906 282.882812 176.398438 282.992188 C 176.289062 283.097656 176.164062 283.183594 176.023438 283.242188 C 175.882812 283.296875 175.738281 283.328125 175.585938 283.328125 L 115.945312 283.328125 Z M 115.945312 311.597656 " fill-opacity="1" fill-rule="nonzero"/></g><path fill="#9dc57f" d="M 183.230469 305.09375 L 91.847656 305.09375 L 91.847656 274.492188 L 152.625 274.492188 L 152.625 198.410156 L 228.714844 198.410156 L 228.714844 122.324219 L 320.101562 122.324219 L 320.101562 152.925781 L 259.316406 152.925781 L 259.316406 229.015625 L 183.230469 229.015625 Z M 183.230469 305.09375 " fill-opacity="1" fill-rule="nonzero"/><g clip-path="url(#f31df2f021)"><path fill="#ffffff" d="M 183.273438 306.242188 L 91.847656 306.242188 C 91.695312 306.242188 91.546875 306.214844 91.40625 306.15625 C 91.265625 306.097656 91.144531 306.011719 91.035156 305.90625 C 90.925781 305.796875 90.84375 305.675781 90.785156 305.535156 C 90.726562 305.394531 90.699219 305.246094 90.699219 305.09375 L 90.699219 274.492188 C 90.699219 274.339844 90.726562 274.191406 90.785156 274.050781 C 90.84375 273.910156 90.925781 273.785156 91.035156 273.679688 C 91.144531 273.570312 91.265625 273.488281 91.40625 273.429688 C 91.546875 273.371094 91.695312 273.34375 91.847656 273.34375 L 151.523438 273.34375 L 151.523438 198.449219 C 151.523438 198.296875 151.550781 198.148438 151.609375 198.007812 C 151.667969 197.867188 151.75 197.746094 151.859375 197.636719 C 151.96875 197.53125 152.089844 197.445312 152.230469 197.386719 C 152.371094 197.332031 152.519531 197.300781 152.671875 197.300781 L 227.605469 197.300781 L 227.605469 122.324219 C 227.605469 122.171875 227.632812 122.023438 227.691406 121.882812 C 227.75 121.742188 227.832031 121.617188 227.941406 121.511719 C 228.046875 121.402344 228.171875 121.320312 228.3125 121.261719 C 228.453125 121.203125 228.597656 121.175781 228.75 121.175781 L 320.101562 121.175781 C 320.253906 121.175781 320.402344 121.203125 320.542969 121.261719 C 320.683594 121.320312 320.808594 121.402344 320.914062 121.511719 C 321.023438 121.617188 321.105469 121.742188 321.164062 121.882812 C 321.222656 122.023438 321.25 122.171875 321.25 122.324219 L 321.25 152.925781 C 321.25 153.078125 321.222656 153.226562 321.164062 153.367188 C 321.105469 153.503906 321.023438 153.628906 320.914062 153.738281 C 320.808594 153.84375 320.683594 153.929688 320.542969 153.988281 C 320.402344 154.042969 320.253906 154.074219 320.101562 154.074219 L 260.464844 154.074219 L 260.464844 229.050781 C 260.464844 229.203125 260.433594 229.351562 260.378906 229.492188 C 260.320312 229.632812 260.234375 229.757812 260.128906 229.863281 C 260.019531 229.972656 259.894531 230.054688 259.757812 230.113281 C 259.617188 230.171875 259.46875 230.199219 259.316406 230.199219 L 184.382812 230.199219 L 184.382812 305.132812 C 184.375 305.433594 184.261719 305.691406 184.046875 305.90625 C 183.835938 306.121094 183.578125 306.230469 183.273438 306.242188 Z M 92.996094 303.945312 L 182.089844 303.945312 L 182.089844 229.050781 C 182.089844 228.898438 182.117188 228.753906 182.175781 228.613281 C 182.234375 228.472656 182.316406 228.347656 182.425781 228.242188 C 182.53125 228.132812 182.65625 228.050781 182.796875 227.992188 C 182.9375 227.933594 183.085938 227.90625 183.234375 227.90625 L 258.167969 227.90625 L 258.167969 152.925781 C 258.167969 152.773438 258.199219 152.628906 258.257812 152.488281 C 258.316406 152.347656 258.398438 152.222656 258.503906 152.113281 C 258.613281 152.007812 258.738281 151.925781 258.878906 151.867188 C 259.019531 151.808594 259.164062 151.777344 259.316406 151.777344 L 318.957031 151.777344 L 318.957031 123.46875 L 229.859375 123.46875 L 229.859375 198.449219 C 229.859375 198.601562 229.832031 198.746094 229.773438 198.886719 C 229.714844 199.027344 229.632812 199.152344 229.523438 199.261719 C 229.417969 199.367188 229.292969 199.449219 229.152344 199.507812 C 229.011719 199.566406 228.867188 199.597656 228.714844 199.597656 L 153.78125 199.597656 L 153.78125 274.527344 C 153.78125 274.679688 153.75 274.828125 153.691406 274.96875 C 153.636719 275.109375 153.550781 275.234375 153.445312 275.339844 C 153.335938 275.449219 153.210938 275.53125 153.070312 275.589844 C 152.929688 275.648438 152.785156 275.675781 152.632812 275.675781 L 92.996094 275.675781 Z M 92.996094 303.945312 " fill-opacity="1" fill-rule="nonzero"/></g><path fill="#ffffff" d="M 320.101562 122.324219 L 343.054688 129.972656 L 343.054688 160.578125 L 320.101562 152.925781 Z M 320.101562 122.324219 " fill-opacity="1" fill-rule="nonzero"/><g clip-path="url(#8d8e82b107)"><path fill="#ffffff" d="M 343.054688 161.722656 C 342.929688 161.726562 342.808594 161.707031 342.6875 161.664062 L 319.734375 154.011719 C 319.503906 153.933594 319.320312 153.792969 319.179688 153.59375 C 319.039062 153.390625 318.96875 153.171875 318.96875 152.925781 L 318.96875 122.324219 C 318.96875 122.136719 319.007812 121.957031 319.09375 121.789062 C 319.179688 121.625 319.296875 121.484375 319.449219 121.378906 C 319.601562 121.269531 319.773438 121.203125 319.957031 121.175781 C 320.144531 121.152344 320.324219 121.171875 320.5 121.234375 L 343.453125 128.886719 C 343.683594 128.96875 343.867188 129.109375 344.007812 129.308594 C 344.148438 129.507812 344.21875 129.730469 344.21875 129.972656 L 344.21875 160.578125 C 344.21875 160.730469 344.1875 160.875 344.132812 161.015625 C 344.074219 161.15625 343.988281 161.28125 343.882812 161.386719 C 343.773438 161.496094 343.652344 161.578125 343.511719 161.636719 C 343.371094 161.695312 343.222656 161.722656 343.070312 161.722656 Z M 321.25 152.101562 L 341.90625 158.984375 L 341.90625 130.800781 L 321.25 123.914062 Z M 321.25 152.101562 " fill-opacity="1" fill-rule="nonzero"/></g><path fill="#ffffff" d="M 343.054688 160.578125 L 320.101562 152.925781 L 259.316406 152.925781 L 282.269531 160.578125 Z M 343.054688 160.578125 " fill-opacity="1" fill-rule="nonzero"/><g clip-path="url(#b71f514f3c)"><path fill="#ffffff" d="M 343.054688 161.722656 L 282.269531 161.722656 C 282.144531 161.726562 282.027344 161.707031 281.910156 161.664062 L 258.957031 154.011719 C 258.691406 153.925781 258.484375 153.757812 258.339844 153.519531 C 258.195312 153.277344 258.144531 153.019531 258.191406 152.742188 C 258.238281 152.46875 258.367188 152.238281 258.578125 152.054688 C 258.792969 151.875 259.039062 151.78125 259.316406 151.777344 L 320.101562 151.777344 C 320.226562 151.78125 320.347656 151.800781 320.460938 151.839844 L 343.414062 159.492188 C 343.679688 159.582031 343.882812 159.746094 344.027344 159.984375 C 344.171875 160.226562 344.222656 160.484375 344.179688 160.757812 C 344.132812 161.035156 344.003906 161.265625 343.792969 161.449219 C 343.582031 161.628906 343.335938 161.722656 343.054688 161.722656 Z M 282.453125 159.429688 L 336.007812 159.429688 L 319.941406 154.074219 L 266.386719 154.074219 Z M 282.453125 159.429688 " fill-opacity="1" fill-rule="nonzero"/></g><path fill="#ffffff" d="M 282.269531 236.664062 L 259.316406 229.015625 L 259.316406 152.925781 L 282.269531 160.578125 Z M 282.269531 236.664062 " fill-opacity="1" fill-rule="nonzero"/><path fill="#ffffff" d="M 282.269531 237.8125 C 282.144531 237.8125 282.027344 237.792969 281.910156 237.75 L 258.957031 230.101562 C 258.726562 230.019531 258.539062 229.878906 258.398438 229.679688 C 258.257812 229.480469 258.191406 229.257812 258.191406 229.015625 L 258.191406 152.925781 C 258.191406 152.738281 258.230469 152.5625 258.316406 152.394531 C 258.398438 152.226562 258.519531 152.089844 258.671875 151.980469 C 258.824219 151.871094 258.992188 151.804688 259.179688 151.78125 C 259.367188 151.757812 259.546875 151.777344 259.722656 151.839844 L 282.675781 159.492188 C 282.90625 159.570312 283.089844 159.710938 283.230469 159.910156 C 283.371094 160.109375 283.441406 160.332031 283.441406 160.578125 L 283.441406 236.703125 C 283.4375 236.855469 283.410156 237 283.351562 237.140625 C 283.292969 237.28125 283.207031 237.40625 283.101562 237.511719 C 282.996094 237.621094 282.871094 237.703125 282.730469 237.761719 C 282.589844 237.820312 282.445312 237.851562 282.292969 237.851562 Z M 260.464844 228.1875 L 281.121094 235.074219 L 281.121094 161.402344 L 260.464844 154.515625 Z M 260.464844 228.1875 " fill-opacity="1" fill-rule="nonzero"/><path fill="#ffffff" d="M 206.179688 236.664062 L 183.230469 229.015625 L 259.316406 229.015625 L 282.269531 236.664062 Z M 206.179688 236.664062 " fill-opacity="1" fill-rule="nonzero"/><path fill="#ffffff" d="M 282.269531 237.8125 L 206.226562 237.8125 C 206.101562 237.8125 205.980469 237.792969 205.859375 237.75 L 182.90625 230.101562 C 182.640625 230.011719 182.4375 229.84375 182.292969 229.605469 C 182.148438 229.363281 182.097656 229.105469 182.144531 228.828125 C 182.191406 228.550781 182.320312 228.320312 182.535156 228.140625 C 182.746094 227.957031 182.992188 227.867188 183.273438 227.867188 L 259.355469 227.867188 C 259.480469 227.867188 259.601562 227.882812 259.722656 227.921875 L 282.675781 235.570312 C 282.9375 235.664062 283.136719 235.832031 283.277344 236.074219 C 283.417969 236.3125 283.46875 236.570312 283.421875 236.84375 C 283.378906 237.117188 283.25 237.347656 283.039062 237.53125 C 282.828125 237.710938 282.585938 237.804688 282.308594 237.8125 Z M 206.371094 235.515625 L 275.230469 235.515625 L 259.164062 230.160156 L 190.304688 230.160156 Z M 206.371094 235.515625 " fill-opacity="1" fill-rule="nonzero"/><path fill="#ffffff" d="M 206.179688 312.746094 L 183.230469 305.09375 L 183.230469 229.015625 L 206.179688 236.664062 Z M 206.179688 312.746094 " fill-opacity="1" fill-rule="nonzero"/><g clip-path="url(#c454b57bf3)"><path fill="#ffffff" d="M 206.226562 313.894531 C 206.101562 313.894531 205.980469 313.875 205.859375 313.839844 L 182.90625 306.1875 C 182.675781 306.105469 182.492188 305.964844 182.351562 305.761719 C 182.210938 305.5625 182.140625 305.339844 182.140625 305.09375 L 182.140625 229.050781 C 182.140625 228.863281 182.183594 228.6875 182.265625 228.519531 C 182.351562 228.355469 182.46875 228.214844 182.621094 228.105469 C 182.773438 227.996094 182.945312 227.929688 183.128906 227.902344 C 183.316406 227.878906 183.496094 227.894531 183.671875 227.957031 L 206.625 235.609375 C 206.855469 235.691406 207.039062 235.835938 207.179688 236.035156 C 207.320312 236.234375 207.390625 236.457031 207.390625 236.703125 L 207.390625 312.785156 C 207.390625 313.175781 207.230469 313.488281 206.90625 313.71875 C 206.699219 313.851562 206.472656 313.910156 206.226562 313.894531 Z M 184.421875 304.269531 L 205.078125 311.152344 L 205.078125 237.46875 L 184.421875 230.582031 Z M 184.421875 304.269531 " fill-opacity="1" fill-rule="nonzero"/></g><path fill="#ffffff" d="M 114.800781 312.746094 L 91.847656 305.09375 L 183.230469 305.09375 L 206.179688 312.746094 Z M 114.800781 312.746094 " fill-opacity="1" fill-rule="nonzero"/><g clip-path="url(#44c028df8e)"><path fill="#ffffff" d="M 206.226562 313.894531 L 114.800781 313.894531 C 114.675781 313.894531 114.554688 313.875 114.441406 313.839844 L 91.488281 306.1875 C 91.214844 306.101562 91.003906 305.9375 90.855469 305.695312 C 90.707031 305.453125 90.65625 305.195312 90.699219 304.914062 C 90.746094 304.632812 90.875 304.398438 91.09375 304.214844 C 91.3125 304.035156 91.5625 303.945312 91.847656 303.945312 L 183.273438 303.945312 C 183.398438 303.949219 183.519531 303.96875 183.632812 304.007812 L 206.585938 311.660156 C 206.851562 311.75 207.054688 311.914062 207.199219 312.152344 C 207.34375 312.394531 207.394531 312.652344 207.351562 312.929688 C 207.304688 313.203125 207.175781 313.433594 206.964844 313.617188 C 206.753906 313.796875 206.507812 313.890625 206.226562 313.894531 Z M 115.019531 311.597656 L 199.179688 311.597656 L 183.113281 306.242188 L 98.953125 306.242188 Z M 115.019531 311.597656 " fill-opacity="1" fill-rule="nonzero"/></g><path fill="#ffffff" d="M 282.269531 161.34375 C 282.191406 161.351562 282.109375 161.351562 282.03125 161.34375 L 259.078125 153.691406 C 258.878906 153.625 258.730469 153.496094 258.636719 153.308594 C 258.542969 153.117188 258.527344 152.925781 258.59375 152.722656 C 258.660156 152.523438 258.789062 152.375 258.976562 152.28125 C 259.164062 152.183594 259.359375 152.171875 259.5625 152.238281 L 282.515625 159.886719 C 282.726562 159.921875 282.894531 160.027344 283.019531 160.199219 C 283.144531 160.371094 283.191406 160.566406 283.15625 160.777344 C 283.121094 160.988281 283.019531 161.15625 282.84375 161.28125 C 282.671875 161.40625 282.480469 161.453125 282.269531 161.417969 Z M 282.269531 161.34375 " fill-opacity="1" fill-rule="nonzero"/><path fill="#ffffff" d="M 282.269531 170.027344 C 282.1875 170.023438 282.109375 170.011719 282.03125 169.988281 L 259.078125 162.335938 C 258.878906 162.269531 258.730469 162.140625 258.636719 161.953125 C 258.542969 161.765625 258.527344 161.570312 258.59375 161.367188 C 258.660156 161.167969 258.789062 161.019531 258.976562 160.925781 C 259.164062 160.832031 259.359375 160.816406 259.5625 160.882812 L 282.515625 168.535156 C 282.726562 168.566406 282.894531 168.671875 283.019531 168.84375 C 283.144531 169.019531 283.191406 169.210938 283.15625 169.421875 C 283.121094 169.632812 283.019531 169.800781 282.84375 169.925781 C 282.671875 170.050781 282.480469 170.097656 282.269531 170.0625 Z M 282.269531 170.027344 " fill-opacity="1" fill-rule="nonzero"/><path fill="#ffffff" d="M 282.269531 178.703125 C 282.191406 178.714844 282.109375 178.714844 282.03125 178.703125 L 259.078125 171.050781 C 258.878906 170.984375 258.730469 170.855469 258.636719 170.667969 C 258.542969 170.480469 258.527344 170.285156 258.59375 170.082031 C 258.660156 169.882812 258.789062 169.734375 258.976562 169.640625 C 259.164062 169.546875 259.359375 169.53125 259.5625 169.597656 L 282.515625 177.25 C 282.726562 177.28125 282.894531 177.386719 283.019531 177.558594 C 283.144531 177.730469 283.191406 177.925781 283.15625 178.136719 C 283.121094 178.347656 283.019531 178.515625 282.847656 178.640625 C 282.671875 178.765625 282.480469 178.8125 282.269531 178.777344 Z M 282.269531 178.703125 " fill-opacity="1" fill-rule="nonzero"/><path fill="#ffffff" d="M 282.269531 187.386719 C 282.1875 187.382812 282.109375 187.371094 282.03125 187.347656 L 259.078125 179.695312 C 258.878906 179.628906 258.730469 179.503906 258.636719 179.3125 C 258.542969 179.125 258.527344 178.929688 258.59375 178.730469 C 258.660156 178.527344 258.789062 178.378906 258.976562 178.285156 C 259.164062 178.191406 259.359375 178.175781 259.5625 178.242188 L 282.515625 185.894531 C 282.726562 185.929688 282.894531 186.03125 283.019531 186.203125 C 283.144531 186.378906 283.1875 186.570312 283.15625 186.78125 C 283.121094 186.992188 283.019531 187.160156 282.84375 187.285156 C 282.671875 187.410156 282.480469 187.457031 282.269531 187.425781 Z M 282.269531 187.386719 " fill-opacity="1" fill-rule="nonzero"/><path fill="#ffffff" d="M 282.269531 196.070312 C 282.191406 196.082031 282.109375 196.082031 282.03125 196.070312 L 259.078125 188.417969 C 258.878906 188.351562 258.730469 188.222656 258.636719 188.035156 C 258.542969 187.847656 258.527344 187.652344 258.59375 187.449219 C 258.660156 187.25 258.789062 187.101562 258.976562 187.007812 C 259.164062 186.914062 259.359375 186.898438 259.5625 186.964844 L 282.515625 194.617188 C 282.726562 194.648438 282.894531 194.753906 283.019531 194.925781 C 283.144531 195.101562 283.191406 195.292969 283.15625 195.503906 C 283.121094 195.714844 283.019531 195.882812 282.847656 196.007812 C 282.671875 196.132812 282.480469 196.179688 282.269531 196.144531 Z M 282.269531 196.070312 " fill-opacity="1" fill-rule="nonzero"/><path fill="#ffffff" d="M 282.269531 204.746094 C 282.191406 204.757812 282.109375 204.757812 282.03125 204.746094 L 259.078125 197.09375 C 258.878906 197.027344 258.730469 196.898438 258.636719 196.710938 C 258.542969 196.523438 258.527344 196.328125 258.59375 196.125 C 258.660156 195.925781 258.789062 195.777344 258.976562 195.683594 C 259.164062 195.589844 259.359375 195.574219 259.5625 195.640625 L 282.515625 203.292969 C 282.726562 203.324219 282.894531 203.429688 283.019531 203.601562 C 283.144531 203.777344 283.1875 203.96875 283.15625 204.179688 C 283.121094 204.390625 283.019531 204.558594 282.84375 204.683594 C 282.671875 204.808594 282.480469 204.855469 282.269531 204.820312 Z M 282.269531 204.746094 " fill-opacity="1" fill-rule="nonzero"/><path fill="#ffffff" d="M 282.269531 213.429688 C 282.191406 213.441406 282.109375 213.441406 282.03125 213.429688 L 259.078125 205.777344 C 258.878906 205.710938 258.730469 205.585938 258.636719 205.394531 C 258.542969 205.207031 258.527344 205.011719 258.59375 204.808594 C 258.660156 204.609375 258.789062 204.460938 258.976562 204.367188 C 259.164062 204.273438 259.359375 204.257812 259.5625 204.324219 L 282.515625 211.976562 C 282.726562 212.007812 282.894531 212.113281 283.019531 212.285156 C 283.144531 212.460938 283.191406 212.652344 283.15625 212.863281 C 283.121094 213.074219 283.019531 213.242188 282.847656 213.367188 C 282.671875 213.492188 282.480469 213.539062 282.269531 213.503906 Z M 282.269531 213.429688 " fill-opacity="1" fill-rule="nonzero"/><path fill="#ffffff" d="M 282.269531 222.113281 C 282.1875 222.113281 282.109375 222.097656 282.03125 222.074219 L 259.078125 214.425781 C 258.878906 214.355469 258.730469 214.230469 258.636719 214.039062 C 258.542969 213.851562 258.527344 213.65625 258.59375 213.457031 C 258.660156 213.253906 258.789062 213.109375 258.976562 213.011719 C 259.164062 212.917969 259.359375 212.902344 259.5625 212.96875 L 282.515625 220.621094 C 282.726562 220.65625 282.894531 220.757812 283.019531 220.933594 C 283.144531 221.105469 283.191406 221.296875 283.15625 221.507812 C 283.121094 221.71875 283.019531 221.886719 282.847656 222.015625 C 282.671875 222.140625 282.480469 222.183594 282.269531 222.152344 Z M 282.269531 222.113281 " fill-opacity="1" fill-rule="nonzero"/><path fill="#ffffff" d="M 282.269531 230.789062 C 282.1875 230.789062 282.109375 230.773438 282.03125 230.75 L 259.078125 223.101562 C 258.878906 223.03125 258.730469 222.90625 258.636719 222.714844 C 258.542969 222.527344 258.527344 222.332031 258.59375 222.132812 C 258.660156 221.933594 258.789062 221.785156 258.976562 221.6875 C 259.167969 221.59375 259.359375 221.582031 259.5625 221.644531 L 282.515625 229.296875 C 282.726562 229.332031 282.894531 229.433594 283.019531 229.609375 C 283.144531 229.78125 283.191406 229.972656 283.15625 230.183594 C 283.121094 230.394531 283.019531 230.5625 282.847656 230.691406 C 282.671875 230.816406 282.480469 230.859375 282.269531 230.828125 Z M 282.269531 230.789062 " fill-opacity="1" fill-rule="nonzero"/><path fill="#ffffff" d="M 206.179688 237.46875 C 206.101562 237.480469 206.023438 237.480469 205.945312 237.46875 L 182.992188 229.816406 C 182.792969 229.75 182.644531 229.621094 182.550781 229.433594 C 182.453125 229.246094 182.441406 229.050781 182.507812 228.851562 C 182.574219 228.648438 182.699219 228.5 182.890625 228.40625 C 183.078125 228.3125 183.273438 228.296875 183.472656 228.363281 L 206.425781 236.015625 C 206.605469 236.074219 206.742188 236.183594 206.839844 236.34375 C 206.9375 236.503906 206.972656 236.679688 206.941406 236.867188 C 206.910156 237.050781 206.824219 237.207031 206.679688 237.328125 C 206.535156 237.449219 206.371094 237.507812 206.179688 237.507812 Z M 206.179688 237.46875 " fill-opacity="1" fill-rule="nonzero"/><path fill="#ffffff" d="M 206.179688 246.105469 C 206.101562 246.117188 206.023438 246.117188 205.945312 246.105469 L 182.992188 238.457031 C 182.792969 238.386719 182.644531 238.261719 182.550781 238.070312 C 182.453125 237.882812 182.441406 237.6875 182.507812 237.488281 C 182.574219 237.289062 182.699219 237.140625 182.890625 237.042969 C 183.078125 236.949219 183.273438 236.933594 183.472656 237 L 206.425781 244.652344 C 206.605469 244.710938 206.742188 244.820312 206.839844 244.984375 C 206.9375 245.144531 206.972656 245.316406 206.941406 245.503906 C 206.910156 245.6875 206.824219 245.84375 206.679688 245.964844 C 206.535156 246.085938 206.371094 246.144531 206.179688 246.144531 Z M 206.179688 246.105469 " fill-opacity="1" fill-rule="nonzero"/><path fill="#ffffff" d="M 206.179688 254.789062 C 206.101562 254.800781 206.023438 254.800781 205.945312 254.789062 L 182.992188 247.140625 C 182.789062 247.074219 182.644531 246.945312 182.546875 246.753906 C 182.453125 246.566406 182.4375 246.371094 182.503906 246.171875 C 182.570312 245.96875 182.699219 245.824219 182.890625 245.726562 C 183.078125 245.632812 183.273438 245.617188 183.472656 245.683594 L 206.425781 253.335938 C 206.605469 253.394531 206.742188 253.503906 206.839844 253.667969 C 206.9375 253.828125 206.972656 254 206.941406 254.1875 C 206.910156 254.375 206.824219 254.527344 206.679688 254.648438 C 206.535156 254.769531 206.371094 254.828125 206.179688 254.828125 Z M 206.179688 254.789062 " fill-opacity="1" fill-rule="nonzero"/><path fill="#ffffff" d="M 206.179688 263.480469 C 206.101562 263.492188 206.023438 263.492188 205.945312 263.480469 L 182.992188 255.832031 C 182.789062 255.765625 182.640625 255.636719 182.546875 255.449219 C 182.453125 255.257812 182.4375 255.0625 182.503906 254.863281 C 182.570312 254.660156 182.699219 254.511719 182.886719 254.417969 C 183.078125 254.324219 183.273438 254.308594 183.472656 254.375 L 206.425781 262.027344 C 206.605469 262.085938 206.742188 262.195312 206.839844 262.359375 C 206.9375 262.519531 206.972656 262.691406 206.941406 262.878906 C 206.910156 263.066406 206.824219 263.21875 206.679688 263.339844 C 206.535156 263.460938 206.371094 263.519531 206.179688 263.519531 Z M 206.179688 263.480469 " fill-opacity="1" fill-rule="nonzero"/><path fill="#ffffff" d="M 206.179688 272.148438 C 206.101562 272.148438 206.019531 272.136719 205.945312 272.113281 L 182.992188 264.460938 C 182.792969 264.394531 182.644531 264.265625 182.550781 264.078125 C 182.453125 263.886719 182.441406 263.695312 182.507812 263.492188 C 182.574219 263.292969 182.699219 263.144531 182.890625 263.050781 C 183.078125 262.957031 183.273438 262.941406 183.472656 263.007812 L 206.425781 270.65625 C 206.636719 270.691406 206.804688 270.796875 206.929688 270.96875 C 207.058594 271.140625 207.101562 271.335938 207.070312 271.546875 C 207.035156 271.757812 206.929688 271.925781 206.757812 272.050781 C 206.585938 272.175781 206.394531 272.222656 206.179688 272.1875 Z M 206.179688 272.148438 " fill-opacity="1" fill-rule="nonzero"/><path fill="#ffffff" d="M 206.179688 280.832031 C 206.101562 280.832031 206.019531 280.820312 205.945312 280.796875 L 182.992188 273.144531 C 182.792969 273.078125 182.644531 272.949219 182.550781 272.761719 C 182.453125 272.570312 182.441406 272.378906 182.507812 272.175781 C 182.574219 271.976562 182.699219 271.828125 182.890625 271.734375 C 183.078125 271.640625 183.273438 271.625 183.472656 271.691406 L 206.425781 279.339844 C 206.636719 279.375 206.804688 279.480469 206.929688 279.652344 C 207.058594 279.824219 207.101562 280.019531 207.070312 280.230469 C 207.035156 280.441406 206.929688 280.609375 206.757812 280.734375 C 206.585938 280.859375 206.394531 280.90625 206.179688 280.871094 Z M 206.179688 280.832031 " fill-opacity="1" fill-rule="nonzero"/><path fill="#ffffff" d="M 206.179688 289.496094 C 206.101562 289.492188 206.019531 289.480469 205.945312 289.457031 L 182.992188 281.804688 C 182.789062 281.738281 182.644531 281.609375 182.546875 281.421875 C 182.453125 281.234375 182.4375 281.039062 182.503906 280.835938 C 182.570312 280.636719 182.699219 280.488281 182.890625 280.394531 C 183.078125 280.300781 183.273438 280.285156 183.472656 280.351562 L 206.425781 288.003906 C 206.636719 288.035156 206.804688 288.140625 206.929688 288.3125 C 207.054688 288.488281 207.101562 288.679688 207.066406 288.890625 C 207.03125 289.101562 206.929688 289.269531 206.757812 289.394531 C 206.582031 289.519531 206.390625 289.566406 206.179688 289.53125 Z M 206.179688 289.496094 " fill-opacity="1" fill-rule="nonzero"/><path fill="#ffffff" d="M 206.179688 298.195312 C 206.101562 298.191406 206.019531 298.179688 205.945312 298.15625 L 182.992188 290.503906 C 182.792969 290.4375 182.644531 290.308594 182.550781 290.121094 C 182.453125 289.933594 182.441406 289.738281 182.507812 289.535156 C 182.574219 289.335938 182.699219 289.1875 182.890625 289.09375 C 183.078125 289 183.273438 288.984375 183.472656 289.050781 L 206.425781 296.703125 C 206.636719 296.734375 206.804688 296.839844 206.929688 297.011719 C 207.054688 297.1875 207.101562 297.378906 207.066406 297.589844 C 207.03125 297.800781 206.929688 297.96875 206.757812 298.09375 C 206.582031 298.21875 206.390625 298.265625 206.179688 298.230469 Z M 206.179688 298.195312 " fill-opacity="1" fill-rule="nonzero"/><path fill="#ffffff" d="M 206.179688 306.878906 C 206.101562 306.875 206.019531 306.863281 205.945312 306.839844 L 182.992188 299.1875 C 182.792969 299.121094 182.644531 298.992188 182.550781 298.804688 C 182.453125 298.617188 182.441406 298.421875 182.507812 298.21875 C 182.574219 298.019531 182.699219 297.871094 182.890625 297.777344 C 183.078125 297.683594 183.273438 297.667969 183.472656 297.734375 L 206.425781 305.386719 C 206.605469 305.445312 206.742188 305.554688 206.839844 305.714844 C 206.9375 305.875 206.972656 306.050781 206.941406 306.234375 C 206.910156 306.421875 206.824219 306.574219 206.679688 306.695312 C 206.535156 306.820312 206.371094 306.878906 206.179688 306.878906 Z M 206.179688 306.878906 " fill-opacity="1" fill-rule="nonzero"/><g clip-path="url(#fff877f444)"><path fill="#ffffff" d="M 343.046875 131.121094 C 342.925781 131.121094 342.804688 131.101562 342.6875 131.058594 L 319.734375 123.410156 C 319.582031 123.367188 319.445312 123.296875 319.320312 123.199219 C 319.195312 123.101562 319.097656 122.984375 319.023438 122.84375 C 318.949219 122.703125 318.902344 122.554688 318.890625 122.398438 C 318.878906 122.242188 318.894531 122.085938 318.945312 121.9375 C 318.996094 121.785156 319.074219 121.652344 319.179688 121.535156 C 319.285156 121.417969 319.410156 121.324219 319.554688 121.257812 C 319.695312 121.191406 319.847656 121.15625 320.003906 121.152344 C 320.164062 121.148438 320.316406 121.175781 320.460938 121.234375 L 343.414062 128.886719 C 343.679688 128.976562 343.886719 129.144531 344.03125 129.382812 C 344.175781 129.625 344.222656 129.882812 344.179688 130.160156 C 344.132812 130.4375 344.003906 130.664062 343.789062 130.847656 C 343.574219 131.027344 343.328125 131.121094 343.046875 131.121094 Z M 343.046875 131.121094 " fill-opacity="1" fill-rule="nonzero"/></g><g clip-path="url(#efcbcd45f4)"><path fill="#ffffff" d="M 343.046875 138.773438 C 342.925781 138.773438 342.804688 138.753906 342.6875 138.710938 L 319.734375 131.058594 C 319.582031 131.019531 319.445312 130.949219 319.320312 130.851562 C 319.195312 130.753906 319.097656 130.632812 319.023438 130.496094 C 318.949219 130.355469 318.902344 130.207031 318.890625 130.050781 C 318.878906 129.890625 318.894531 129.738281 318.945312 129.585938 C 318.996094 129.4375 319.074219 129.304688 319.179688 129.1875 C 319.285156 129.066406 319.410156 128.976562 319.554688 128.910156 C 319.695312 128.84375 319.847656 128.808594 320.003906 128.804688 C 320.164062 128.800781 320.316406 128.828125 320.460938 128.886719 L 343.414062 136.539062 C 343.679688 136.628906 343.886719 136.792969 344.03125 137.035156 C 344.175781 137.273438 344.222656 137.535156 344.179688 137.808594 C 344.132812 138.085938 344.003906 138.316406 343.789062 138.5 C 343.574219 138.679688 343.328125 138.769531 343.046875 138.773438 Z M 343.046875 138.773438 " fill-opacity="1" fill-rule="nonzero"/></g><g clip-path="url(#c922004a4b)"><path fill="#ffffff" d="M 343.046875 146.421875 C 342.925781 146.425781 342.804688 146.402344 342.6875 146.363281 L 319.734375 138.710938 C 319.582031 138.667969 319.445312 138.601562 319.320312 138.5 C 319.195312 138.402344 319.097656 138.285156 319.023438 138.144531 C 318.949219 138.003906 318.902344 137.855469 318.890625 137.699219 C 318.878906 137.542969 318.894531 137.386719 318.945312 137.238281 C 318.996094 137.089844 319.074219 136.953125 319.179688 136.835938 C 319.285156 136.71875 319.410156 136.628906 319.554688 136.5625 C 319.695312 136.496094 319.847656 136.460938 320.003906 136.457031 C 320.164062 136.453125 320.316406 136.480469 320.460938 136.539062 L 343.414062 144.1875 C 343.679688 144.277344 343.886719 144.445312 344.03125 144.683594 C 344.175781 144.925781 344.222656 145.183594 344.179688 145.460938 C 344.132812 145.738281 344.003906 145.96875 343.789062 146.148438 C 343.574219 146.332031 343.328125 146.421875 343.046875 146.421875 Z M 343.046875 146.421875 " fill-opacity="1" fill-rule="nonzero"/></g><g clip-path="url(#f9eefe281d)"><path fill="#ffffff" d="M 343.046875 154.074219 C 342.925781 154.074219 342.804688 154.054688 342.6875 154.011719 L 319.734375 146.363281 C 319.582031 146.320312 319.445312 146.25 319.320312 146.152344 C 319.195312 146.054688 319.097656 145.933594 319.023438 145.796875 C 318.949219 145.65625 318.902344 145.507812 318.890625 145.351562 C 318.878906 145.191406 318.894531 145.039062 318.945312 144.890625 C 318.996094 144.738281 319.074219 144.605469 319.179688 144.488281 C 319.285156 144.371094 319.410156 144.277344 319.554688 144.210938 C 319.695312 144.144531 319.847656 144.109375 320.003906 144.105469 C 320.164062 144.101562 320.316406 144.128906 320.460938 144.1875 L 343.414062 151.839844 C 343.679688 151.929688 343.886719 152.09375 344.03125 152.335938 C 344.175781 152.578125 344.222656 152.835938 344.179688 153.113281 C 344.132812 153.390625 344.003906 153.617188 343.789062 153.800781 C 343.574219 153.980469 343.328125 154.074219 343.046875 154.074219 Z M 343.046875 154.074219 " fill-opacity="1" fill-rule="nonzero"/></g></svg>