<svg xmlns="http://www.w3.org/2000/svg" xmlns:xlink="http://www.w3.org/1999/xlink" width="580" zoomAndPan="magnify" viewBox="0 0 434.88 434.999989" height="580" preserveAspectRatio="xMidYMid meet" version="1.0"><defs><clipPath id="a31b97ae5f"><path d="M 233 160.277344 L 289 160.277344 L 289 236 L 233 236 Z M 233 160.277344 " clip-rule="nonzero"/></clipPath><clipPath id="28a441aac6"><path d="M 130.464844 185 L 205 185 L 205 252 L 130.464844 252 Z M 130.464844 185 " clip-rule="nonzero"/></clipPath><clipPath id="53e15b2ee7"><path d="M 136 248 L 173 248 L 173 274.996094 L 136 274.996094 Z M 136 248 " clip-rule="nonzero"/></clipPath><clipPath id="4675eb7b8a"><path d="M 258 212 L 304.414062 212 L 304.414062 253 L 258 253 Z M 258 212 " clip-rule="nonzero"/></clipPath></defs><path fill="#dd803d" d="M 213.402344 177.195312 C 212.792969 176.820312 212.023438 176.75 211.371094 177.007812 L 186.851562 186.347656 C 186.199219 186.605469 185.683594 187.140625 185.453125 187.820312 C 185.242188 188.496094 185.335938 189.242188 185.730469 189.828125 L 206.933594 221.535156 C 207.375 222.1875 208.101562 222.5625 208.871094 222.5625 C 209.058594 222.5625 209.246094 222.539062 209.429688 222.492188 L 217.417969 220.554688 C 218.5625 220.273438 219.332031 219.175781 219.191406 218.007812 L 214.519531 178.898438 C 214.429688 178.199219 214.007812 177.570312 213.402344 177.195312 Z M 213.402344 177.195312 " fill-opacity="1" fill-rule="nonzero"/><g clip-path="url(#a31b97ae5f)"><path fill="#dd803d" d="M 287.929688 170.820312 C 287.675781 170.121094 287.113281 169.582031 286.414062 169.371094 L 257.226562 160.617188 C 256.011719 160.265625 254.730469 160.921875 254.332031 162.132812 L 233.316406 226.34375 C 232.992188 227.371094 233.386719 228.492188 234.296875 229.054688 L 243.894531 235.054688 C 244.292969 235.289062 244.710938 235.40625 245.132812 235.40625 C 245.902344 235.40625 246.625 235.03125 247.070312 234.355469 L 287.675781 172.898438 C 288.09375 172.292969 288.1875 171.519531 287.929688 170.820312 Z M 287.929688 170.820312 " fill-opacity="1" fill-rule="nonzero"/></g><g clip-path="url(#28a441aac6)"><path fill="#dd803d" d="M 153.488281 185.789062 C 153.019531 185.296875 152.367188 184.96875 151.6875 185.039062 C 151.011719 185.0625 150.382812 185.390625 149.9375 185.925781 L 130.976562 209.859375 C 130.558594 210.398438 130.394531 211.074219 130.511719 211.75 C 130.652344 212.429688 131.046875 212.988281 131.65625 213.339844 L 197.617188 250.976562 C 197.964844 251.1875 198.363281 251.28125 198.785156 251.28125 C 199.015625 251.28125 199.25 251.257812 199.460938 251.1875 C 200.066406 251 200.582031 250.582031 200.863281 249.996094 L 204.363281 242.992188 C 204.808594 242.128906 204.644531 241.078125 203.992188 240.355469 Z M 153.488281 185.789062 " fill-opacity="1" fill-rule="nonzero"/></g><g clip-path="url(#53e15b2ee7)"><path fill="#dd803d" d="M 171.113281 257.515625 L 139.898438 248.175781 C 139.195312 247.964844 138.425781 248.105469 137.84375 248.550781 C 137.257812 248.992188 136.910156 249.695312 136.910156 250.417969 L 136.910156 272.320312 C 136.910156 272.996094 137.1875 273.628906 137.703125 274.070312 C 138.121094 274.445312 138.683594 274.65625 139.242188 274.65625 C 139.335938 274.65625 139.453125 274.65625 139.546875 274.632812 L 170.765625 270.546875 C 171.933594 270.40625 172.796875 269.402344 172.796875 268.234375 L 172.796875 259.757812 C 172.796875 258.730469 172.117188 257.820312 171.113281 257.515625 Z M 171.113281 257.515625 " fill-opacity="1" fill-rule="nonzero"/></g><g clip-path="url(#4675eb7b8a)"><path fill="#dd803d" d="M 303.550781 226.4375 L 287.207031 213.011719 C 286.25 212.242188 284.871094 212.3125 284.007812 213.222656 L 258.910156 240.074219 C 258.160156 240.867188 258.066406 242.058594 258.675781 242.96875 L 264.511719 251.726562 C 264.957031 252.402344 265.703125 252.777344 266.449219 252.777344 C 266.871094 252.777344 267.289062 252.660156 267.6875 252.425781 L 303.296875 230.246094 C 303.925781 229.847656 304.347656 229.171875 304.394531 228.421875 C 304.460938 227.628906 304.136719 226.90625 303.550781 226.4375 Z M 303.550781 226.4375 " fill-opacity="1" fill-rule="nonzero"/></g></svg>