<svg xmlns="http://www.w3.org/2000/svg" xmlns:xlink="http://www.w3.org/1999/xlink" width="580" zoomAndPan="magnify" viewBox="0 0 434.88 434.999989" height="580" preserveAspectRatio="xMidYMid meet" version="1.0"><defs><clipPath id="8a7c81b2e3"><path d="M 272 222 L 304 222 L 304 275.550781 L 272 275.550781 Z M 272 222 " clip-rule="nonzero"/></clipPath><clipPath id="f3de7b196b"><path d="M 272 221 L 304 221 L 304 275.550781 L 272 275.550781 Z M 272 221 " clip-rule="nonzero"/></clipPath><clipPath id="e554093796"><path d="M 130.464844 162 L 292 162 L 292 272 L 130.464844 272 Z M 130.464844 162 " clip-rule="nonzero"/></clipPath><clipPath id="e7efd19792"><path d="M 269 269 L 304 269 L 304 275.550781 L 269 275.550781 Z M 269 269 " clip-rule="nonzero"/></clipPath><clipPath id="dace9fce54"><path d="M 268 269 L 304 269 L 304 275.550781 L 268 275.550781 Z M 268 269 " clip-rule="nonzero"/></clipPath></defs><path fill="#ffffff" d="M 202.976562 197.203125 C 201.34375 198.046875 199.742188 198.957031 198.160156 199.847656 C 196.109375 201.003906 192.765625 202.882812 190.417969 203.839844 C 190.199219 201.597656 190.238281 198.339844 190.261719 196.144531 C 190.355469 188.359375 190.472656 178.089844 184.46875 170.828125 C 183.484375 169.640625 182.382812 168.578125 181.15625 167.640625 L 181.113281 167.613281 L 180.976562 167.511719 C 179.28125 166.238281 177.429688 165.25 175.429688 164.550781 L 187.402344 168.554688 L 188.359375 168.875 L 188.429688 168.898438 C 190.371094 169.617188 192.160156 170.601562 193.804688 171.859375 L 193.84375 171.890625 C 202.144531 178.222656 202.96875 188.640625 202.976562 197.203125 Z M 202.976562 197.203125 " fill-opacity="1" fill-rule="nonzero"/><path fill="#ffffff" d="M 190.417969 204.472656 C 190.300781 204.472656 190.191406 204.441406 190.089844 204.378906 C 189.90625 204.269531 189.808594 204.109375 189.789062 203.898438 C 189.566406 201.625 189.601562 198.332031 189.628906 196.148438 C 189.71875 188.613281 189.839844 178.320312 183.976562 171.230469 C 183.03125 170.085938 181.972656 169.0625 180.792969 168.164062 L 180.710938 168.101562 L 180.605469 168.023438 C 178.957031 166.796875 177.160156 165.847656 175.222656 165.171875 C 175.054688 165.113281 174.933594 165.003906 174.859375 164.847656 C 174.78125 164.6875 174.773438 164.527344 174.832031 164.359375 C 174.890625 164.195312 175 164.074219 175.15625 163.996094 C 175.316406 163.921875 175.476562 163.914062 175.644531 163.972656 L 188.660156 168.316406 C 190.660156 169.050781 192.507812 170.0625 194.203125 171.351562 L 194.238281 171.375 C 202.464844 177.679688 203.605469 187.96875 203.613281 197.195312 C 203.613281 197.453125 203.5 197.640625 203.273438 197.757812 C 201.691406 198.605469 200.160156 199.453125 198.472656 200.398438 C 196.445312 201.542969 193.0625 203.445312 190.660156 204.421875 C 190.582031 204.453125 190.503906 204.472656 190.417969 204.472656 Z M 181.832031 167.363281 C 182.980469 168.273438 184.023438 169.292969 184.957031 170.421875 C 191.117188 177.863281 190.988281 188.4375 190.898438 196.148438 C 190.875 198.046875 190.84375 200.777344 190.980469 202.914062 C 193.226562 201.910156 196.058594 200.304688 197.847656 199.308594 C 199.429688 198.414062 200.867188 197.617188 202.34375 196.828125 C 202.304688 187.589844 201.144531 178.285156 193.460938 172.40625 L 193.378906 172.347656 C 191.789062 171.140625 190.0625 170.195312 188.191406 169.503906 L 187.183594 169.167969 Z M 181.832031 167.363281 " fill-opacity="1" fill-rule="nonzero"/><path fill="#ffffff" d="M 216.605469 223.003906 C 216.605469 223.683594 216.605469 224.371094 216.585938 225.058594 C 214.460938 226.203125 212.273438 227.203125 210.015625 228.058594 C 209.742188 228.160156 209.460938 228.257812 209.171875 228.351562 C 207.988281 228.753906 206.785156 229.082031 205.5625 229.335938 C 202.675781 229.96875 199.789062 229.984375 196.894531 229.382812 L 195.882812 229.128906 C 195.839844 229.121094 195.796875 229.105469 195.753906 229.089844 L 194.484375 228.667969 L 183.109375 224.859375 L 183.210938 224.890625 L 184.222656 225.144531 C 185.859375 225.503906 187.515625 225.644531 189.191406 225.566406 C 190.4375 225.511719 191.667969 225.359375 192.890625 225.105469 C 193.132812 225.054688 193.375 225.003906 193.625 224.945312 C 194.566406 224.726562 195.523438 224.449219 196.496094 224.121094 C 196.773438 224.027344 197.050781 223.929688 197.34375 223.828125 C 201.222656 222.402344 204.957031 220.308594 208.546875 218.277344 C 210.632812 217.105469 214.046875 215.1875 216.402344 214.242188 C 216.6875 216.746094 216.636719 220.628906 216.605469 223.003906 Z M 216.605469 223.003906 " fill-opacity="1" fill-rule="nonzero"/><path fill="#ffffff" d="M 200.988281 230.449219 C 199.5625 230.453125 198.152344 230.304688 196.761719 230 L 195.726562 229.742188 C 195.65625 229.726562 195.585938 229.707031 195.519531 229.679688 L 194.25 229.253906 L 182.914062 225.472656 L 182.855469 225.453125 C 182.691406 225.394531 182.570312 225.285156 182.496094 225.128906 C 182.417969 224.96875 182.410156 224.808594 182.46875 224.644531 C 182.527344 224.476562 182.636719 224.355469 182.792969 224.28125 C 182.953125 224.207031 183.113281 224.199219 183.277344 224.257812 L 183.304688 224.257812 L 184.34375 224.519531 C 185.921875 224.859375 187.519531 224.992188 189.132812 224.914062 C 190.34375 224.859375 191.542969 224.710938 192.734375 224.46875 L 193.449219 224.3125 C 194.363281 224.09375 195.308594 223.824219 196.265625 223.5 C 196.535156 223.410156 196.804688 223.3125 197.078125 223.214844 C 200.925781 221.800781 204.617188 219.722656 208.1875 217.714844 L 208.226562 217.695312 C 210.289062 216.535156 213.726562 214.597656 216.121094 213.644531 C 216.3125 213.566406 216.5 213.582031 216.679688 213.691406 C 216.859375 213.792969 216.964844 213.949219 216.988281 214.160156 C 217.292969 216.695312 217.242188 220.613281 217.210938 222.960938 L 216.578125 222.996094 L 217.210938 222.996094 C 217.210938 223.675781 217.210938 224.363281 217.191406 225.046875 C 217.191406 225.300781 217.078125 225.488281 216.851562 225.605469 C 214.703125 226.765625 212.488281 227.777344 210.207031 228.636719 C 209.925781 228.742188 209.640625 228.839844 209.359375 228.9375 C 208.152344 229.351562 206.925781 229.683594 205.675781 229.941406 C 204.132812 230.265625 202.570312 230.4375 200.988281 230.449219 Z M 189.121094 226.21875 L 195.96875 228.503906 L 196.054688 228.527344 L 197.0625 228.78125 C 199.863281 229.359375 202.660156 229.34375 205.453125 228.730469 C 206.648438 228.480469 207.828125 228.160156 208.984375 227.765625 L 209.796875 227.480469 C 211.910156 226.679688 213.960938 225.75 215.957031 224.6875 C 215.957031 224.128906 215.957031 223.566406 215.957031 222.996094 L 215.957031 222.953125 C 215.980469 220.890625 216.023438 217.589844 215.824219 215.160156 C 213.582031 216.15625 210.675781 217.789062 208.863281 218.8125 C 205.210938 220.867188 201.472656 222.972656 197.53125 224.421875 C 197.25 224.527344 196.960938 224.625 196.683594 224.722656 C 195.691406 225.054688 194.703125 225.339844 193.753906 225.566406 C 193.5 225.625 193.253906 225.675781 193 225.726562 C 191.742188 225.988281 190.472656 226.144531 189.191406 226.203125 Z M 216.585938 225.078125 Z M 216.585938 225.078125 " fill-opacity="1" fill-rule="nonzero"/><path fill="#ffffff" d="M 195.769531 229.089844 C 195.347656 228.964844 194.925781 228.824219 194.5 228.667969 Z M 195.769531 229.089844 " fill-opacity="1" fill-rule="nonzero"/><path fill="#ffffff" d="M 195.769531 229.726562 C 195.710938 229.726562 195.648438 229.714844 195.59375 229.699219 C 195.109375 229.554688 194.675781 229.414062 194.261719 229.253906 C 194.09375 229.195312 193.972656 229.089844 193.898438 228.929688 C 193.824219 228.773438 193.816406 228.609375 193.875 228.445312 C 193.929688 228.28125 194.039062 228.160156 194.199219 228.085938 C 194.355469 228.007812 194.519531 228 194.683594 228.058594 L 195.953125 228.480469 C 196.101562 228.527344 196.21875 228.621094 196.300781 228.753906 C 196.382812 228.886719 196.410156 229.03125 196.386719 229.1875 C 196.363281 229.34375 196.289062 229.46875 196.167969 229.570312 C 196.050781 229.671875 195.910156 229.722656 195.753906 229.722656 Z M 195.769531 229.726562 " fill-opacity="1" fill-rule="nonzero"/><path fill="#ffffff" d="M 250.472656 225.269531 C 248.460938 226.277344 246.566406 227.34375 244.816406 228.328125 C 242.886719 229.417969 240.042969 231.011719 237.964844 231.898438 C 237.679688 229.394531 237.726562 225.597656 237.757812 223.265625 C 237.8125 218.851562 237.867188 214.285156 237.109375 209.945312 C 236.460938 206.246094 235.261719 203.089844 233.515625 200.503906 C 232.714844 199.304688 231.78125 198.222656 230.71875 197.253906 L 230.1875 196.785156 C 229.429688 196.148438 228.621094 195.578125 227.769531 195.070312 C 226.71875 194.4375 225.617188 193.917969 224.460938 193.511719 L 237.152344 197.742188 C 239.5 198.554688 241.59375 199.796875 243.429688 201.46875 C 246.726562 204.476562 248.871094 208.730469 249.820312 214.160156 C 250.429688 217.792969 250.496094 221.5625 250.472656 225.269531 Z M 250.472656 225.269531 " fill-opacity="1" fill-rule="nonzero"/><path fill="#ffffff" d="M 237.964844 232.535156 C 237.847656 232.535156 237.742188 232.503906 237.644531 232.445312 C 237.460938 232.339844 237.355469 232.179688 237.332031 231.96875 C 237.046875 229.429688 237.09375 225.558594 237.121094 223.257812 C 237.175781 218.875 237.230469 214.34375 236.484375 210.050781 C 235.972656 206.738281 234.808594 203.675781 232.988281 200.859375 C 232.214844 199.710938 231.316406 198.671875 230.289062 197.742188 L 229.773438 197.289062 C 229.042969 196.671875 228.265625 196.121094 227.445312 195.628906 C 226.425781 195.023438 225.359375 194.53125 224.242188 194.144531 C 224.074219 194.085938 223.957031 193.976562 223.878906 193.816406 C 223.804688 193.660156 223.796875 193.496094 223.851562 193.332031 C 223.910156 193.164062 224.019531 193.042969 224.179688 192.96875 C 224.335938 192.890625 224.5 192.882812 224.664062 192.941406 L 237.355469 197.171875 C 238.5625 197.589844 239.714844 198.121094 240.808594 198.773438 C 241.90625 199.421875 242.921875 200.175781 243.859375 201.035156 C 247.246094 204.132812 249.476562 208.523438 250.449219 214.085938 C 251.089844 217.765625 251.15625 221.648438 251.132812 225.296875 C 251.128906 225.554688 251.011719 225.742188 250.78125 225.859375 C 248.773438 226.863281 246.851562 227.945312 245.15625 228.898438 C 243.378906 229.902344 240.410156 231.578125 238.238281 232.503906 C 238.148438 232.535156 238.058594 232.542969 237.964844 232.535156 Z M 230.492188 196.210938 L 230.59375 196.300781 C 230.785156 196.457031 230.96875 196.617188 231.140625 196.777344 C 232.242188 197.789062 233.210938 198.917969 234.042969 200.164062 C 235.964844 203.128906 237.195312 206.355469 237.734375 209.847656 C 238.503906 214.257812 238.445312 218.847656 238.390625 223.28125 C 238.367188 225.304688 238.324219 228.535156 238.511719 230.96875 C 240.515625 230.039062 242.964844 228.65625 244.503906 227.789062 C 246.117188 226.878906 247.933594 225.859375 249.839844 224.890625 C 249.839844 221.417969 249.777344 217.75 249.171875 214.292969 C 248.253906 209.019531 246.167969 204.871094 242.980469 201.960938 C 241.207031 200.347656 239.1875 199.148438 236.921875 198.363281 L 236.363281 198.164062 Z M 250.472656 225.269531 Z M 250.472656 225.269531 " fill-opacity="1" fill-rule="nonzero"/><path fill="#ffffff" d="M 268.574219 250.617188 L 267.871094 251.015625 C 264.164062 253.09375 260.332031 255.246094 256.320312 256.589844 C 255.296875 256.933594 254.257812 257.214844 253.199219 257.4375 C 250.441406 258.0625 247.671875 258.113281 244.890625 257.585938 C 244.875 257.589844 244.855469 257.589844 244.835938 257.585938 L 243.234375 257.164062 L 243.1875 257.164062 C 242.796875 257.046875 242.417969 256.914062 242.035156 256.765625 L 230.941406 253.0625 C 231.339844 253.175781 231.742188 253.269531 232.148438 253.347656 C 232.164062 253.351562 232.183594 253.351562 232.203125 253.347656 C 233.738281 253.652344 235.289062 253.761719 236.855469 253.679688 C 238.09375 253.617188 239.316406 253.457031 240.527344 253.195312 C 241.347656 253.023438 242.179688 252.808594 243.023438 252.542969 C 243.230469 252.480469 243.445312 252.414062 243.648438 252.34375 C 247.660156 251 251.492188 248.847656 255.195312 246.769531 C 257.625 245.402344 261.695312 243.113281 264.253906 242.304688 C 264.734375 242.132812 265.230469 242.035156 265.742188 242.007812 C 266.160156 242.484375 267.636719 244.492188 268.574219 250.617188 Z M 268.574219 250.617188 " fill-opacity="1" fill-rule="nonzero"/><path fill="#ffffff" d="M 248.574219 258.566406 C 247.3125 258.570312 246.0625 258.449219 244.824219 258.207031 C 244.769531 258.199219 244.71875 258.1875 244.667969 258.171875 L 243.101562 257.777344 L 243.015625 257.753906 C 242.613281 257.628906 242.222656 257.5 241.828125 257.328125 L 230.761719 253.636719 C 230.59375 253.585938 230.46875 253.480469 230.386719 253.328125 C 230.304688 253.171875 230.289062 253.007812 230.339844 252.84375 C 230.394531 252.675781 230.496094 252.550781 230.652344 252.46875 C 230.808594 252.386719 230.96875 252.371094 231.136719 252.421875 C 231.492188 252.523438 231.867188 252.617188 232.292969 252.699219 L 232.335938 252.699219 C 233.816406 252.992188 235.3125 253.097656 236.816406 253.019531 C 238.019531 252.960938 239.214844 252.804688 240.390625 252.550781 C 241.238281 252.371094 242.039062 252.160156 242.828125 251.910156 L 243.4375 251.714844 C 247.394531 250.394531 251.199219 248.257812 254.878906 246.1875 C 257.332031 244.808594 261.429688 242.5 264.058594 241.675781 C 264.605469 241.480469 265.167969 241.371094 265.75 241.347656 C 265.9375 241.347656 266.097656 241.417969 266.222656 241.554688 C 266.816406 242.203125 268.289062 244.371094 269.226562 250.476562 C 269.273438 250.769531 269.167969 250.984375 268.910156 251.125 L 268.207031 251.523438 C 264.472656 253.636719 260.613281 255.785156 256.550781 257.148438 C 255.503906 257.5 254.4375 257.789062 253.355469 258.019531 C 251.78125 258.367188 250.1875 258.550781 248.574219 258.566406 Z M 245.007812 256.960938 C 247.695312 257.464844 250.375 257.417969 253.042969 256.8125 C 254.078125 256.589844 255.09375 256.308594 256.09375 255.96875 C 260.046875 254.648438 263.851562 252.511719 267.515625 250.445312 L 267.839844 250.261719 C 267.035156 245.347656 265.886719 243.328125 265.398438 242.648438 C 265.054688 242.699219 264.714844 242.78125 264.382812 242.894531 C 261.882812 243.679688 257.855469 245.945312 255.449219 247.300781 C 251.714844 249.414062 247.859375 251.5625 243.792969 252.925781 C 243.578125 253 243.371094 253.070312 243.136719 253.132812 C 242.300781 253.398438 241.457031 253.621094 240.597656 253.796875 C 239.355469 254.066406 238.097656 254.234375 236.824219 254.292969 L 236.703125 254.292969 L 242.203125 256.125 C 242.59375 256.277344 242.960938 256.402344 243.339844 256.519531 L 244.957031 256.941406 Z M 245.121094 257.003906 Z M 244.890625 256.953125 Z M 232.429688 252.773438 Z M 232.203125 252.722656 Z M 232.203125 252.722656 " fill-opacity="1" fill-rule="nonzero"/><g clip-path="url(#8a7c81b2e3)"><path fill="#ffffff" d="M 303.085938 275.003906 L 290.398438 270.773438 C 290.855469 259.703125 290.648438 245.960938 286.269531 235.664062 C 284.539062 231.59375 282.15625 228.050781 278.914062 225.445312 C 278.773438 225.332031 278.628906 225.214844 278.492188 225.109375 C 277.207031 224.121094 275.824219 223.300781 274.339844 222.644531 C 273.847656 222.425781 273.355469 222.222656 272.859375 222.054688 L 284.921875 226.074219 L 285.34375 226.210938 C 285.910156 226.402344 286.476562 226.632812 287.035156 226.875 C 288.683594 227.605469 290.210938 228.539062 291.617188 229.675781 C 303.074219 238.929688 303.722656 259.5625 303.085938 275.003906 Z M 303.085938 275.003906 " fill-opacity="1" fill-rule="nonzero"/></g><g clip-path="url(#f3de7b196b)"><path fill="#ffffff" d="M 303.085938 275.636719 C 303.019531 275.636719 302.953125 275.625 302.890625 275.601562 L 290.199219 271.375 C 290.066406 271.328125 289.960938 271.246094 289.882812 271.128906 C 289.804688 271.011719 289.769531 270.882812 289.777344 270.742188 C 290.199219 260.867188 290.199219 246.507812 285.699219 235.902344 C 283.902344 231.671875 281.488281 228.320312 278.527344 225.925781 C 278.394531 225.820312 278.261719 225.714844 278.105469 225.617188 C 276.855469 224.65625 275.507812 223.855469 274.066406 223.214844 C 273.546875 222.984375 273.082031 222.792969 272.636719 222.648438 C 272.355469 222.546875 272.214844 222.347656 272.214844 222.046875 C 272.210938 221.945312 272.234375 221.84375 272.28125 221.753906 C 272.328125 221.660156 272.394531 221.582031 272.476562 221.523438 C 272.5625 221.460938 272.65625 221.421875 272.757812 221.410156 C 272.859375 221.394531 272.960938 221.402344 273.058594 221.4375 L 285.53125 225.59375 L 285.601562 225.621094 C 286.171875 225.816406 286.738281 226.046875 287.292969 226.285156 C 288.992188 227.039062 290.566406 228.003906 292.015625 229.171875 C 303.816406 238.699219 304.355469 259.90625 303.734375 275.027344 C 303.726562 275.238281 303.632812 275.402344 303.460938 275.523438 C 303.347656 275.601562 303.222656 275.640625 303.085938 275.636719 Z M 291.050781 270.320312 L 302.46875 274.125 C 303.023438 259.347656 302.332031 239.152344 291.1875 230.136719 C 289.828125 229.039062 288.347656 228.132812 286.746094 227.425781 C 286.210938 227.179688 285.660156 226.96875 285.101562 226.78125 L 285.039062 226.753906 L 279.117188 224.789062 L 279.28125 224.925781 C 282.402344 227.460938 284.941406 230.96875 286.820312 235.386719 C 291.386719 246.078125 291.441406 260.347656 291.050781 270.320312 Z M 291.050781 270.320312 " fill-opacity="1" fill-rule="nonzero"/></g><path fill="#ffffff" d="M 244.835938 257.566406 C 244.296875 257.453125 243.761719 257.3125 243.234375 257.144531 Z M 244.835938 257.566406 " fill-opacity="1" fill-rule="nonzero"/><path fill="#ffffff" d="M 244.835938 258.203125 L 244.714844 258.203125 C 244.152344 258.089844 243.597656 257.949219 243.046875 257.777344 C 242.882812 257.726562 242.761719 257.628906 242.679688 257.476562 C 242.597656 257.324219 242.578125 257.167969 242.625 257.003906 C 242.667969 256.835938 242.765625 256.710938 242.914062 256.625 C 243.0625 256.539062 243.21875 256.515625 243.386719 256.554688 L 244.988281 256.957031 C 245.164062 256.980469 245.304688 257.058594 245.414062 257.199219 C 245.523438 257.335938 245.566406 257.492188 245.546875 257.667969 C 245.523438 257.84375 245.445312 257.984375 245.308594 258.09375 C 245.167969 258.203125 245.011719 258.246094 244.835938 258.226562 Z M 244.835938 258.203125 " fill-opacity="1" fill-rule="nonzero"/><path fill="#ffffff" d="M 232.148438 253.335938 C 231.722656 253.257812 231.339844 253.164062 230.941406 253.050781 L 230.847656 253.023438 L 230.738281 252.984375 Z M 232.148438 253.335938 " fill-opacity="1" fill-rule="nonzero"/><path fill="#ffffff" d="M 232.148438 253.972656 C 232.105469 253.976562 232.066406 253.976562 232.023438 253.972656 C 231.5625 253.878906 231.152344 253.78125 230.753906 253.671875 L 230.519531 253.59375 C 230.359375 253.539062 230.238281 253.4375 230.160156 253.285156 C 230.082031 253.136719 230.066406 252.980469 230.117188 252.816406 C 230.167969 252.65625 230.269531 252.535156 230.414062 252.453125 C 230.5625 252.375 230.714844 252.351562 230.878906 252.394531 L 232.285156 252.746094 C 232.460938 252.765625 232.605469 252.847656 232.710938 252.984375 C 232.820312 253.125 232.863281 253.28125 232.84375 253.453125 C 232.824219 253.628906 232.742188 253.773438 232.605469 253.878906 C 232.464844 253.988281 232.308594 254.035156 232.136719 254.011719 Z M 232.148438 253.972656 " fill-opacity="1" fill-rule="nonzero"/><path fill="#ffffff" d="M 169.121094 191.5625 C 168.039062 192.027344 166.867188 192.5625 165.601562 193.175781 C 162.578125 194.640625 159.015625 196.558594 154.835938 199.097656 L 142.148438 194.867188 C 144.921875 193.175781 147.425781 191.769531 149.679688 190.582031 C 150.824219 189.972656 151.898438 189.425781 152.914062 188.9375 C 163.355469 183.859375 167.390625 184.28125 168.257812 184.472656 C 168.882812 185.671875 169.074219 188.671875 169.121094 191.5625 Z M 169.121094 191.5625 " fill-opacity="1" fill-rule="nonzero"/><path fill="#ffffff" d="M 154.835938 199.738281 C 154.769531 199.738281 154.703125 199.726562 154.636719 199.707031 L 141.949219 195.476562 C 141.691406 195.390625 141.546875 195.214844 141.515625 194.945312 C 141.484375 194.675781 141.585938 194.46875 141.816406 194.328125 C 144.515625 192.710938 147.054688 191.261719 149.382812 190.027344 C 150.492188 189.433594 151.589844 188.875 152.636719 188.375 C 163.152344 183.261719 167.359375 183.628906 168.398438 183.859375 C 168.589844 183.90625 168.730469 184.011719 168.820312 184.1875 C 169.394531 185.277344 169.691406 187.617188 169.757812 191.550781 C 169.761719 191.832031 169.632812 192.03125 169.371094 192.140625 C 168.238281 192.632812 167.0625 193.171875 165.878906 193.746094 C 162.65625 195.304688 159.054688 197.292969 155.167969 199.667969 C 155.0625 199.71875 154.953125 199.746094 154.835938 199.738281 Z M 143.667969 194.707031 L 154.773438 198.40625 C 158.582031 196.101562 162.152344 194.148438 165.347656 192.601562 C 166.414062 192.085938 167.464844 191.597656 168.503906 191.148438 C 168.421875 187.480469 168.125 185.804688 167.84375 185.046875 C 166.632812 184.910156 162.574219 184.96875 153.210938 189.511719 C 152.179688 190.015625 151.097656 190.5625 150.007812 191.148438 C 148 192.1875 145.882812 193.386719 143.667969 194.707031 Z M 143.667969 194.707031 " fill-opacity="1" fill-rule="nonzero"/><path fill="#fede49" d="M 290.398438 270.773438 L 282.070312 270.429688 L 269.265625 269.90625 C 269.574219 262.40625 269.339844 256.859375 268.871094 252.785156 C 268.78125 252.003906 268.6875 251.277344 268.574219 250.601562 C 267.636719 244.492188 266.160156 242.484375 265.730469 242.007812 C 265.21875 242.035156 264.722656 242.132812 264.238281 242.304688 C 261.703125 243.113281 257.613281 245.402344 255.183594 246.769531 C 251.476562 248.847656 247.644531 250.996094 243.636719 252.34375 C 243.429688 252.414062 243.214844 252.480469 243.011719 252.542969 C 242.164062 252.808594 241.316406 253.023438 240.515625 253.195312 C 239.304688 253.457031 238.078125 253.617188 236.84375 253.679688 C 235.277344 253.761719 233.726562 253.652344 232.191406 253.347656 C 232.171875 253.351562 232.152344 253.351562 232.136719 253.347656 L 230.726562 253 L 230.699219 253 L 229.234375 252.507812 C 228.316406 252.15625 227.433594 251.734375 226.589844 251.238281 C 221.597656 248.277344 218.457031 243.273438 217.25 236.367188 C 216.769531 233.316406 216.546875 230.25 216.578125 227.167969 C 216.578125 226.476562 216.578125 225.792969 216.578125 225.105469 C 216.578125 224.421875 216.578125 223.730469 216.597656 223.050781 C 216.628906 220.675781 216.679688 216.792969 216.378906 214.289062 C 214.023438 215.234375 210.609375 217.152344 208.523438 218.324219 C 204.917969 220.355469 201.195312 222.449219 197.316406 223.875 C 197.042969 223.976562 196.765625 224.074219 196.472656 224.167969 C 195.496094 224.496094 194.539062 224.773438 193.601562 224.992188 C 193.351562 225.050781 193.109375 225.101562 192.863281 225.152344 C 191.644531 225.40625 190.410156 225.558594 189.167969 225.613281 C 187.492188 225.691406 185.835938 225.550781 184.195312 225.191406 L 183.1875 224.9375 L 183.085938 224.90625 L 183.054688 224.90625 L 181.742188 224.484375 L 181.691406 224.484375 C 180.726562 224.117188 179.796875 223.667969 178.90625 223.140625 C 170.023438 217.851562 169.089844 207.65625 169.070312 199.183594 C 169.070312 198.082031 169.070312 197.007812 169.070312 195.980469 C 169.070312 195.28125 169.070312 194.464844 169.070312 193.597656 C 169.070312 192.96875 169.070312 192.308594 169.070312 191.644531 C 169.023438 188.753906 168.832031 185.75 168.226562 184.5625 C 167.378906 184.367188 163.320312 183.953125 152.878906 189.023438 C 151.863281 189.515625 150.789062 190.0625 149.648438 190.671875 C 147.425781 191.777344 144.9375 193.195312 142.148438 194.875 L 131.191406 176.785156 C 143.9375 169.066406 161.480469 160.058594 174.9375 164.394531 C 175.101562 164.445312 175.261719 164.5 175.429688 164.558594 C 177.429688 165.257812 179.28125 166.246094 180.976562 167.519531 L 181.113281 167.621094 L 181.15625 167.652344 C 182.382812 168.585938 183.484375 169.648438 184.46875 170.835938 C 190.472656 178.097656 190.355469 188.367188 190.261719 196.152344 C 190.238281 198.355469 190.199219 201.605469 190.417969 203.847656 C 192.765625 202.890625 196.109375 201.011719 198.160156 199.859375 C 199.742188 198.964844 201.34375 198.0625 202.976562 197.210938 C 204.359375 196.480469 205.765625 195.792969 207.207031 195.175781 C 208.203125 194.753906 209.203125 194.355469 210.214844 194.011719 C 215.414062 192.246094 220.160156 192.078125 224.367188 193.503906 L 224.460938 193.511719 C 225.621094 193.914062 226.726562 194.425781 227.78125 195.050781 C 228.632812 195.558594 229.441406 196.132812 230.203125 196.769531 L 230.730469 197.234375 C 231.796875 198.207031 232.726562 199.289062 233.527344 200.488281 C 235.273438 203.074219 236.488281 206.226562 237.121094 209.929688 C 237.878906 214.269531 237.824219 218.832031 237.769531 223.25 C 237.738281 225.578125 237.691406 229.378906 237.976562 231.882812 C 240.058594 230.996094 242.898438 229.398438 244.828125 228.3125 C 246.578125 227.328125 248.476562 226.261719 250.484375 225.253906 C 251.847656 224.570312 253.257812 223.910156 254.714844 223.320312 C 260.335938 221.042969 266.578125 219.789062 272.863281 222.027344 C 273.359375 222.195312 273.851562 222.394531 274.34375 222.613281 C 275.828125 223.269531 277.210938 224.09375 278.496094 225.082031 C 278.644531 225.1875 278.785156 225.300781 278.917969 225.414062 C 282.164062 228.039062 284.542969 231.566406 286.273438 235.632812 C 290.648438 245.964844 290.871094 259.703125 290.398438 270.773438 Z M 290.398438 270.773438 " fill-opacity="1" fill-rule="nonzero"/><g clip-path="url(#e554093796)"><path fill="#ffffff" d="M 290.398438 271.40625 L 290.371094 271.40625 L 269.222656 270.5625 C 269.046875 270.554688 268.902344 270.484375 268.78125 270.359375 C 268.664062 270.230469 268.605469 270.078125 268.613281 269.902344 C 268.890625 263.234375 268.757812 257.507812 268.226562 252.882812 C 268.132812 252.082031 268.039062 251.375 267.933594 250.726562 C 267.128906 245.488281 265.929688 243.375 265.425781 242.691406 C 265.078125 242.742188 264.742188 242.824219 264.410156 242.933594 C 261.910156 243.722656 257.882812 245.988281 255.476562 247.34375 C 251.742188 249.457031 247.882812 251.605469 243.816406 252.96875 C 243.601562 253.039062 243.394531 253.113281 243.164062 253.175781 C 242.328125 253.441406 241.480469 253.660156 240.625 253.839844 C 239.378906 254.109375 238.121094 254.273438 236.851562 254.335938 C 235.253906 254.421875 233.667969 254.308594 232.097656 254 C 232.042969 253.996094 231.992188 253.984375 231.941406 253.96875 L 230.570312 253.625 L 230.523438 253.625 L 229.027344 253.125 L 228.972656 253.105469 C 228.027344 252.734375 227.121094 252.292969 226.25 251.777344 C 221.09375 248.714844 217.851562 243.5625 216.609375 236.464844 C 216.121094 233.382812 215.890625 230.277344 215.929688 227.15625 C 215.929688 226.46875 215.929688 225.777344 215.929688 225.089844 C 215.929688 224.398438 215.929688 223.714844 215.949219 223.035156 C 215.976562 220.917969 216.019531 217.628906 215.820312 215.199219 C 213.578125 216.195312 210.671875 217.828125 208.859375 218.851562 C 205.207031 220.90625 201.46875 223.011719 197.527344 224.457031 C 197.246094 224.566406 196.957031 224.660156 196.679688 224.757812 C 195.683594 225.09375 194.699219 225.375 193.75 225.605469 C 193.496094 225.664062 193.25 225.714844 192.996094 225.765625 C 191.738281 226.027344 190.46875 226.183594 189.1875 226.238281 C 187.460938 226.324219 185.75 226.183594 184.058594 225.816406 L 183.023438 225.558594 L 182.886719 225.519531 L 182.847656 225.519531 L 181.578125 225.097656 C 181.539062 225.089844 181.503906 225.078125 181.46875 225.058594 C 180.472656 224.679688 179.515625 224.21875 178.601562 223.675781 C 169.71875 218.390625 168.472656 208.324219 168.449219 199.175781 C 168.449219 198.070312 168.449219 196.992188 168.449219 195.960938 C 168.449219 195.265625 168.449219 194.453125 168.449219 193.589844 C 168.449219 192.957031 168.449219 192.320312 168.449219 191.644531 C 168.421875 187.589844 168.109375 185.835938 167.820312 185.054688 C 166.609375 184.914062 162.546875 184.972656 153.1875 189.515625 C 152.15625 190.019531 151.070312 190.570312 149.980469 191.152344 C 147.65625 192.378906 145.132812 193.8125 142.476562 195.421875 C 142.328125 195.511719 142.167969 195.535156 141.996094 195.492188 C 141.828125 195.449219 141.695312 195.355469 141.605469 195.203125 L 130.648438 177.109375 C 130.554688 176.960938 130.523438 176.804688 130.558594 176.632812 C 130.597656 176.460938 130.695312 176.328125 130.84375 176.238281 C 143.246094 168.753906 161.265625 159.320312 175.132812 163.789062 L 175.644531 163.957031 C 177.703125 164.679688 179.609375 165.695312 181.359375 167 L 181.484375 167.097656 L 181.519531 167.117188 C 182.78125 168.085938 183.921875 169.179688 184.9375 170.40625 C 191.117188 177.863281 190.988281 188.4375 190.898438 196.148438 C 190.875 198.046875 190.84375 200.777344 190.980469 202.914062 C 193.226562 201.910156 196.058594 200.304688 197.847656 199.308594 C 199.539062 198.347656 201.085938 197.484375 202.683594 196.652344 C 204.277344 195.816406 205.605469 195.171875 206.9375 194.59375 C 208.019531 194.128906 209.019531 193.75 209.996094 193.414062 C 215.316406 191.609375 220.21875 191.4375 224.554688 192.902344 L 224.667969 192.945312 C 225.863281 193.359375 227.003906 193.886719 228.089844 194.53125 C 228.972656 195.058594 229.808594 195.652344 230.59375 196.3125 C 230.785156 196.46875 230.96875 196.628906 231.140625 196.789062 C 232.242188 197.800781 233.210938 198.929688 234.042969 200.175781 C 235.964844 203.140625 237.195312 206.371094 237.734375 209.863281 C 238.503906 214.269531 238.445312 218.859375 238.390625 223.296875 C 238.367188 225.316406 238.324219 228.550781 238.511719 230.980469 C 240.515625 230.050781 242.964844 228.667969 244.503906 227.800781 C 246.214844 226.835938 248.152344 225.746094 250.1875 224.726562 C 251.722656 223.957031 253.125 223.316406 254.464844 222.777344 C 261.464844 219.933594 267.550781 219.503906 273.078125 221.46875 L 273.136719 221.492188 C 273.597656 221.65625 274.074219 221.84375 274.601562 222.082031 C 276.132812 222.757812 277.558594 223.605469 278.882812 224.621094 C 279.023438 224.71875 279.179688 224.839844 279.328125 224.964844 C 282.449219 227.503906 284.988281 231.011719 286.867188 235.425781 C 291.472656 246.269531 291.457031 260.808594 291.046875 270.820312 C 291.03125 270.988281 290.960938 271.128906 290.839844 271.242188 C 290.714844 271.355469 290.566406 271.410156 290.398438 271.40625 Z M 269.925781 269.292969 L 289.804688 270.105469 C 290.1875 260.257812 290.113281 246.28125 285.703125 235.898438 C 283.90625 231.667969 281.492188 228.316406 278.53125 225.921875 C 278.398438 225.816406 278.265625 225.710938 278.109375 225.613281 C 276.859375 224.652344 275.511719 223.851562 274.070312 223.210938 C 273.550781 222.976562 273.085938 222.789062 272.640625 222.640625 L 272.574219 222.613281 C 267.378906 220.78125 261.609375 221.214844 254.933594 223.921875 C 253.628906 224.449219 252.261719 225.074219 250.75 225.832031 C 248.746094 226.835938 246.820312 227.917969 245.125 228.875 C 243.347656 229.878906 240.378906 231.550781 238.210938 232.480469 C 238.015625 232.558594 237.824219 232.546875 237.640625 232.441406 C 237.457031 232.335938 237.351562 232.175781 237.328125 231.960938 C 237.042969 229.425781 237.089844 225.554688 237.117188 223.253906 C 237.171875 218.871094 237.226562 214.339844 236.480469 210.046875 C 235.96875 206.734375 234.804688 203.671875 232.984375 200.855469 C 232.210938 199.710938 231.3125 198.671875 230.289062 197.742188 L 229.773438 197.289062 C 229.042969 196.671875 228.265625 196.121094 227.445312 195.628906 C 226.425781 195.023438 225.359375 194.53125 224.242188 194.144531 L 224.199219 194.144531 L 224.128906 194.117188 C 220.078125 192.746094 215.457031 192.917969 210.402344 194.632812 C 209.457031 194.949219 208.488281 195.328125 207.441406 195.777344 C 206.140625 196.34375 204.777344 197 203.273438 197.789062 C 201.691406 198.636719 200.160156 199.480469 198.472656 200.429688 C 196.445312 201.570312 193.0625 203.472656 190.660156 204.453125 C 190.464844 204.53125 190.273438 204.515625 190.089844 204.410156 C 189.90625 204.300781 189.808594 204.136719 189.789062 203.925781 C 189.566406 201.65625 189.601562 198.359375 189.628906 196.175781 C 189.71875 188.644531 189.839844 178.347656 183.976562 171.257812 C 183.03125 170.113281 181.972656 169.09375 180.792969 168.191406 L 180.710938 168.132812 L 180.605469 168.050781 C 178.957031 166.816406 177.164062 165.855469 175.222656 165.171875 C 175.054688 165.117188 174.90625 165.0625 174.75 165.015625 C 161.570312 160.75 144.195312 169.699219 132.0625 177.015625 L 142.363281 194.003906 C 144.839844 192.515625 147.203125 191.179688 149.382812 190.027344 C 150.492188 189.433594 151.589844 188.875 152.636719 188.375 C 163.152344 183.261719 167.359375 183.628906 168.398438 183.859375 C 168.589844 183.90625 168.730469 184.011719 168.820312 184.1875 C 169.394531 185.277344 169.691406 187.617188 169.757812 191.550781 C 169.757812 192.21875 169.757812 192.882812 169.757812 193.515625 C 169.757812 194.363281 169.757812 195.207031 169.757812 195.902344 C 169.757812 196.929688 169.730469 198.019531 169.757812 199.101562 C 169.757812 208.335938 170.949219 217.5625 179.28125 222.511719 C 180.140625 223.019531 181.035156 223.453125 181.96875 223.808594 L 181.996094 223.808594 L 183.296875 224.230469 L 183.355469 224.230469 L 184.398438 224.492188 C 185.980469 224.832031 187.574219 224.964844 189.1875 224.890625 C 190.398438 224.835938 191.597656 224.683594 192.789062 224.441406 L 193.503906 224.285156 C 194.417969 224.070312 195.363281 223.800781 196.320312 223.472656 C 196.589844 223.382812 196.863281 223.289062 197.132812 223.191406 C 200.980469 221.777344 204.675781 219.695312 208.242188 217.691406 L 208.28125 217.667969 C 210.34375 216.511719 213.78125 214.574219 216.175781 213.617188 C 216.367188 213.542969 216.554688 213.558594 216.734375 213.664062 C 216.914062 213.769531 217.019531 213.925781 217.042969 214.132812 C 217.347656 216.671875 217.296875 220.589844 217.265625 222.9375 C 217.265625 223.65625 217.265625 224.339844 217.246094 225.027344 C 217.222656 225.710938 217.246094 226.394531 217.246094 227.082031 C 217.207031 230.132812 217.429688 233.164062 217.910156 236.175781 C 219.082031 242.894531 222.140625 247.75 226.949219 250.613281 C 227.761719 251.097656 228.605469 251.511719 229.488281 251.855469 L 230.925781 252.335938 L 232.308594 252.679688 L 232.332031 252.679688 C 233.8125 252.976562 235.304688 253.082031 236.8125 253.003906 C 238.015625 252.941406 239.207031 252.785156 240.386719 252.53125 C 241.234375 252.355469 242.03125 252.144531 242.824219 251.894531 L 243.433594 251.699219 C 247.390625 250.375 251.195312 248.238281 254.875 246.171875 C 257.328125 244.792969 261.425781 242.484375 264.054688 241.65625 C 264.601562 241.464844 265.164062 241.355469 265.746094 241.332031 C 265.933594 241.332031 266.09375 241.402344 266.21875 241.539062 C 266.8125 242.1875 268.285156 244.351562 269.222656 250.460938 C 269.332031 251.121094 269.429688 251.847656 269.523438 252.671875 C 270.070312 258.203125 270.203125 263.746094 269.925781 269.296875 Z M 182 223.832031 Z M 182 223.832031 Z M 181.921875 223.804688 Z M 181.921875 223.804688 " fill-opacity="1" fill-rule="nonzero"/></g><path fill="#fede49" d="M 183.082031 224.859375 C 182.65625 224.734375 182.199219 224.585938 181.769531 224.4375 Z M 183.082031 224.859375 " fill-opacity="1" fill-rule="nonzero"/><path fill="#ffffff" d="M 183.082031 225.496094 C 183.019531 225.496094 182.964844 225.488281 182.90625 225.46875 C 182.460938 225.34375 182.015625 225.191406 181.539062 225.011719 C 181.375 224.953125 181.253906 224.847656 181.179688 224.6875 C 181.105469 224.53125 181.09375 224.367188 181.152344 224.203125 C 181.210938 224.039062 181.320312 223.917969 181.476562 223.839844 C 181.636719 223.765625 181.796875 223.757812 181.964844 223.816406 L 183.273438 224.238281 C 183.417969 224.292969 183.53125 224.382812 183.609375 224.515625 C 183.6875 224.648438 183.714844 224.792969 183.6875 224.941406 C 183.664062 225.09375 183.59375 225.222656 183.476562 225.320312 C 183.359375 225.421875 183.226562 225.476562 183.070312 225.476562 Z M 183.082031 225.496094 " fill-opacity="1" fill-rule="nonzero"/><path fill="#fede49" d="M 230.714844 252.976562 L 230.542969 252.933594 L 230.496094 252.933594 C 230.074219 252.804688 229.652344 252.660156 229.230469 252.511719 Z M 230.714844 252.976562 " fill-opacity="1" fill-rule="nonzero"/><path fill="#ffffff" d="M 230.714844 253.613281 C 230.660156 253.609375 230.609375 253.605469 230.5625 253.589844 L 230.390625 253.546875 L 230.304688 253.523438 C 229.878906 253.386719 229.457031 253.238281 229.035156 253.074219 C 228.882812 253.007812 228.773438 252.898438 228.707031 252.746094 C 228.640625 252.59375 228.636719 252.4375 228.691406 252.28125 C 228.746094 252.125 228.847656 252.007812 228.996094 251.929688 C 229.144531 251.855469 229.296875 251.835938 229.457031 251.882812 L 230.925781 252.371094 C 231.074219 252.417969 231.191406 252.511719 231.273438 252.644531 C 231.355469 252.78125 231.386719 252.925781 231.359375 253.078125 C 231.335938 253.234375 231.261719 253.363281 231.140625 253.464844 C 231.019531 253.566406 230.878906 253.613281 230.722656 253.613281 Z M 230.714844 253.613281 " fill-opacity="1" fill-rule="nonzero"/><path fill="#fede49" d="M 232.148438 253.335938 C 231.722656 253.257812 231.339844 253.164062 230.941406 253.050781 L 230.847656 253.023438 L 230.542969 252.933594 L 230.714844 252.976562 L 230.738281 252.976562 Z M 232.148438 253.335938 " fill-opacity="1" fill-rule="nonzero"/><path fill="#ffffff" d="M 232.148438 253.972656 C 232.105469 253.976562 232.066406 253.976562 232.023438 253.972656 C 231.5625 253.878906 231.152344 253.78125 230.753906 253.671875 L 230.355469 253.558594 C 230.183594 253.511719 230.058594 253.410156 229.96875 253.261719 C 229.882812 253.109375 229.863281 252.949219 229.90625 252.777344 C 229.953125 252.609375 230.050781 252.480469 230.203125 252.394531 C 230.355469 252.304688 230.515625 252.285156 230.683594 252.328125 L 230.851562 252.371094 L 230.898438 252.371094 L 232.285156 252.71875 C 232.460938 252.738281 232.605469 252.820312 232.714844 252.957031 C 232.824219 253.097656 232.867188 253.253906 232.84375 253.429688 C 232.824219 253.605469 232.746094 253.746094 232.605469 253.855469 C 232.46875 253.964844 232.308594 254.007812 232.136719 253.988281 Z M 232.148438 253.972656 " fill-opacity="1" fill-rule="nonzero"/><g clip-path="url(#e7efd19792)"><path fill="#ffffff" d="M 303.085938 275.003906 L 281.953125 274.136719 L 269.265625 269.90625 L 282.070312 270.429688 L 290.398438 270.773438 Z M 303.085938 275.003906 " fill-opacity="1" fill-rule="nonzero"/></g><g clip-path="url(#dace9fce54)"><path fill="#ffffff" d="M 303.085938 275.636719 L 303.0625 275.636719 L 281.914062 274.769531 C 281.851562 274.769531 281.796875 274.757812 281.738281 274.742188 L 269.050781 270.511719 C 268.902344 270.460938 268.785156 270.367188 268.707031 270.230469 C 268.625 270.097656 268.601562 269.949219 268.628906 269.796875 C 268.65625 269.640625 268.730469 269.515625 268.855469 269.414062 C 268.976562 269.316406 269.117188 269.269531 269.273438 269.273438 L 290.421875 270.140625 C 290.484375 270.144531 290.539062 270.152344 290.597656 270.171875 L 303.285156 274.402344 C 303.4375 274.449219 303.550781 274.539062 303.636719 274.671875 C 303.71875 274.808594 303.746094 274.953125 303.722656 275.105469 C 303.695312 275.261719 303.625 275.390625 303.503906 275.492188 C 303.382812 275.59375 303.246094 275.644531 303.085938 275.640625 Z M 282.070312 273.523438 L 298.625 274.199219 L 290.285156 271.417969 L 273.722656 270.738281 Z M 282.070312 273.523438 " fill-opacity="1" fill-rule="nonzero"/></g><path fill="#ffffff" d="M 188.429688 169.53125 C 188.339844 169.535156 188.253906 169.515625 188.167969 169.476562 L 187.226562 169.164062 L 174.734375 164.996094 C 174.566406 164.9375 174.445312 164.828125 174.371094 164.667969 C 174.292969 164.507812 174.285156 164.347656 174.34375 164.179688 C 174.402344 164.015625 174.511719 163.890625 174.667969 163.816406 C 174.828125 163.738281 174.992188 163.730469 175.15625 163.789062 L 175.648438 163.953125 L 188.660156 168.296875 C 188.753906 168.332031 188.835938 168.386719 188.910156 168.457031 C 189.03125 168.582031 189.09375 168.734375 189.09375 168.910156 C 189.09375 169.085938 189.03125 169.234375 188.910156 169.359375 C 188.773438 169.484375 188.613281 169.542969 188.429688 169.53125 Z M 188.429688 169.53125 " fill-opacity="1" fill-rule="nonzero"/><path fill="#ffffff" d="M 199.503906 179.234375 C 199.4375 179.230469 199.367188 179.21875 199.300781 179.199219 L 186.613281 174.96875 C 186.445312 174.910156 186.324219 174.800781 186.246094 174.640625 C 186.171875 174.484375 186.164062 174.320312 186.222656 174.15625 C 186.28125 173.988281 186.386719 173.867188 186.546875 173.789062 C 186.707031 173.714844 186.867188 173.703125 187.035156 173.761719 L 199.726562 177.992188 C 199.871094 178.046875 199.980469 178.136719 200.058594 178.269531 C 200.136719 178.402344 200.164062 178.546875 200.136719 178.695312 C 200.113281 178.847656 200.042969 178.976562 199.925781 179.074219 C 199.8125 179.175781 199.675781 179.230469 199.523438 179.234375 Z M 199.503906 179.234375 " fill-opacity="1" fill-rule="nonzero"/><path fill="#ffffff" d="M 201.941406 186.042969 C 201.871094 186.042969 201.804688 186.03125 201.738281 186.007812 L 189.046875 181.777344 C 188.882812 181.71875 188.761719 181.613281 188.683594 181.453125 C 188.609375 181.292969 188.597656 181.132812 188.65625 180.964844 C 188.714844 180.796875 188.824219 180.675781 188.984375 180.601562 C 189.140625 180.523438 189.304688 180.515625 189.472656 180.574219 L 202.160156 184.804688 C 202.3125 184.851562 202.425781 184.941406 202.511719 185.074219 C 202.59375 185.207031 202.621094 185.351562 202.597656 185.507812 C 202.570312 185.664062 202.5 185.792969 202.378906 185.894531 C 202.257812 185.996094 202.121094 186.042969 201.960938 186.042969 Z M 201.941406 186.042969 " fill-opacity="1" fill-rule="nonzero"/><path fill="#ffffff" d="M 202.808594 192.328125 C 202.742188 192.328125 202.675781 192.316406 202.609375 192.292969 L 189.921875 188.066406 C 189.753906 188.007812 189.632812 187.902344 189.550781 187.746094 C 189.472656 187.589844 189.460938 187.429688 189.515625 187.261719 C 189.570312 187.097656 189.675781 186.972656 189.832031 186.894531 C 189.988281 186.816406 190.152344 186.804688 190.316406 186.859375 L 203.007812 191.089844 C 203.15625 191.136719 203.273438 191.226562 203.355469 191.359375 C 203.4375 191.496094 203.46875 191.640625 203.441406 191.792969 C 203.417969 191.949219 203.34375 192.078125 203.226562 192.179688 C 203.105469 192.28125 202.964844 192.332031 202.808594 192.328125 Z M 202.808594 192.328125 " fill-opacity="1" fill-rule="nonzero"/><path fill="#ffffff" d="M 202.339844 198.164062 C 202.269531 198.164062 202.203125 198.152344 202.136719 198.132812 L 190.082031 194.105469 C 189.914062 194.050781 189.792969 193.941406 189.714844 193.785156 C 189.636719 193.628906 189.625 193.46875 189.679688 193.300781 C 189.734375 193.136719 189.839844 193.011719 189.996094 192.933594 C 190.15625 192.855469 190.316406 192.84375 190.484375 192.898438 L 202.539062 196.925781 C 202.6875 196.972656 202.804688 197.0625 202.886719 197.199219 C 202.96875 197.332031 202.996094 197.476562 202.972656 197.632812 C 202.949219 197.785156 202.875 197.914062 202.753906 198.015625 C 202.636719 198.117188 202.496094 198.167969 202.339844 198.164062 Z M 202.339844 198.164062 " fill-opacity="1" fill-rule="nonzero"/><path fill="#ffffff" d="M 195.582031 201.917969 C 195.515625 201.917969 195.445312 201.90625 195.378906 201.882812 L 190.042969 200.097656 C 189.875 200.039062 189.753906 199.929688 189.679688 199.773438 C 189.601562 199.613281 189.59375 199.449219 189.652344 199.285156 C 189.710938 199.117188 189.820312 198.996094 189.976562 198.921875 C 190.136719 198.84375 190.300781 198.835938 190.464844 198.894531 L 195.804688 200.679688 C 195.949219 200.730469 196.058594 200.824219 196.136719 200.957031 C 196.214844 201.089844 196.242188 201.230469 196.21875 201.382812 C 196.191406 201.535156 196.121094 201.660156 196.003906 201.761719 C 195.890625 201.863281 195.753906 201.914062 195.601562 201.917969 Z M 195.582031 201.917969 " fill-opacity="1" fill-rule="nonzero"/><path fill="#ffffff" d="M 237.234375 198.429688 C 237.167969 198.425781 237.101562 198.414062 237.039062 198.394531 L 224.25 194.128906 C 224.082031 194.074219 223.960938 193.96875 223.882812 193.8125 C 223.804688 193.65625 223.792969 193.496094 223.847656 193.328125 C 223.902344 193.164062 224.007812 193.039062 224.164062 192.960938 C 224.320312 192.882812 224.480469 192.871094 224.648438 192.925781 L 237.433594 197.1875 C 237.585938 197.234375 237.699219 197.328125 237.785156 197.460938 C 237.867188 197.59375 237.894531 197.738281 237.871094 197.894531 C 237.84375 198.050781 237.773438 198.175781 237.652344 198.277344 C 237.53125 198.378906 237.394531 198.429688 237.234375 198.429688 Z M 237.234375 198.429688 " fill-opacity="1" fill-rule="nonzero"/><path fill="#ffffff" d="M 247.648438 207.894531 C 247.582031 207.894531 247.515625 207.882812 247.453125 207.859375 L 234.761719 203.628906 C 234.59375 203.574219 234.472656 203.46875 234.394531 203.3125 C 234.316406 203.15625 234.304688 202.996094 234.359375 202.828125 C 234.414062 202.664062 234.519531 202.539062 234.675781 202.460938 C 234.832031 202.382812 234.992188 202.371094 235.160156 202.425781 L 247.847656 206.65625 C 248 206.703125 248.113281 206.792969 248.199219 206.925781 C 248.28125 207.0625 248.308594 207.207031 248.285156 207.359375 C 248.257812 207.515625 248.1875 207.644531 248.066406 207.746094 C 247.945312 207.847656 247.808594 207.894531 247.648438 207.894531 Z M 247.648438 207.894531 " fill-opacity="1" fill-rule="nonzero"/><path fill="#ffffff" d="M 249.761719 214.601562 C 249.691406 214.601562 249.625 214.589844 249.5625 214.570312 L 236.871094 210.339844 C 236.707031 210.285156 236.582031 210.179688 236.503906 210.023438 C 236.425781 209.867188 236.414062 209.703125 236.46875 209.539062 C 236.523438 209.371094 236.628906 209.25 236.785156 209.167969 C 236.941406 209.089844 237.101562 209.078125 237.269531 209.132812 L 249.960938 213.363281 C 250.109375 213.410156 250.226562 213.5 250.308594 213.636719 C 250.390625 213.769531 250.417969 213.914062 250.394531 214.070312 C 250.371094 214.222656 250.296875 214.351562 250.175781 214.453125 C 250.058594 214.554688 249.917969 214.605469 249.761719 214.601562 Z M 249.761719 214.601562 " fill-opacity="1" fill-rule="nonzero"/><path fill="#ffffff" d="M 250.402344 220.816406 C 250.335938 220.816406 250.269531 220.804688 250.207031 220.78125 L 237.515625 216.554688 C 237.347656 216.5 237.226562 216.390625 237.148438 216.234375 C 237.070312 216.078125 237.054688 215.917969 237.109375 215.75 C 237.167969 215.585938 237.273438 215.460938 237.429688 215.382812 C 237.585938 215.304688 237.746094 215.292969 237.914062 215.347656 L 250.601562 219.578125 C 250.753906 219.625 250.867188 219.714844 250.953125 219.847656 C 251.035156 219.984375 251.0625 220.128906 251.039062 220.28125 C 251.011719 220.4375 250.941406 220.566406 250.820312 220.667969 C 250.699219 220.769531 250.5625 220.820312 250.402344 220.816406 Z M 250.402344 220.816406 " fill-opacity="1" fill-rule="nonzero"/><path fill="#ffffff" d="M 249.371094 226.472656 C 249.304688 226.472656 249.238281 226.460938 249.171875 226.4375 L 237.574219 222.566406 C 237.40625 222.511719 237.285156 222.40625 237.207031 222.25 C 237.128906 222.09375 237.117188 221.933594 237.171875 221.765625 C 237.226562 221.601562 237.332031 221.476562 237.488281 221.398438 C 237.644531 221.320312 237.804688 221.308594 237.972656 221.363281 L 249.570312 225.238281 C 249.71875 225.285156 249.835938 225.375 249.917969 225.507812 C 250 225.644531 250.03125 225.789062 250.003906 225.941406 C 249.980469 226.097656 249.90625 226.226562 249.789062 226.328125 C 249.667969 226.429688 249.527344 226.476562 249.371094 226.476562 Z M 249.371094 226.472656 " fill-opacity="1" fill-rule="nonzero"/><path fill="#ffffff" d="M 242.585938 230.207031 C 242.519531 230.207031 242.453125 230.195312 242.386719 230.171875 L 237.574219 228.5625 C 237.410156 228.507812 237.285156 228.402344 237.207031 228.246094 C 237.128906 228.089844 237.117188 227.925781 237.171875 227.761719 C 237.226562 227.59375 237.332031 227.472656 237.488281 227.394531 C 237.644531 227.3125 237.804688 227.300781 237.972656 227.355469 L 242.808594 228.96875 C 242.957031 229.015625 243.074219 229.105469 243.15625 229.238281 C 243.238281 229.375 243.265625 229.519531 243.242188 229.671875 C 243.21875 229.828125 243.144531 229.957031 243.023438 230.058594 C 242.902344 230.160156 242.765625 230.210938 242.609375 230.207031 Z M 242.585938 230.207031 " fill-opacity="1" fill-rule="nonzero"/><path fill="#ffffff" d="M 285.320312 226.832031 C 285.253906 226.832031 285.1875 226.820312 285.125 226.796875 L 284.503906 226.59375 L 272.660156 222.648438 C 272.496094 222.59375 272.371094 222.488281 272.292969 222.332031 C 272.214844 222.175781 272.203125 222.011719 272.257812 221.847656 C 272.3125 221.679688 272.417969 221.558594 272.574219 221.480469 C 272.730469 221.398438 272.894531 221.386719 273.058594 221.441406 L 285.53125 225.59375 C 285.679688 225.640625 285.796875 225.730469 285.878906 225.863281 C 285.960938 226 285.988281 226.144531 285.964844 226.296875 C 285.941406 226.453125 285.867188 226.582031 285.746094 226.683594 C 285.625 226.785156 285.488281 226.832031 285.332031 226.832031 Z M 285.320312 226.832031 " fill-opacity="1" fill-rule="nonzero"/><path fill="#ffffff" d="M 297.054688 236.738281 C 296.988281 236.738281 296.921875 236.726562 296.855469 236.703125 L 284.167969 232.476562 C 284 232.417969 283.878906 232.3125 283.800781 232.15625 C 283.71875 232 283.707031 231.839844 283.761719 231.671875 C 283.816406 231.507812 283.925781 231.382812 284.082031 231.304688 C 284.238281 231.226562 284.398438 231.214844 284.566406 231.269531 L 297.253906 235.5 C 297.40625 235.546875 297.519531 235.636719 297.601562 235.769531 C 297.6875 235.90625 297.714844 236.050781 297.691406 236.203125 C 297.664062 236.359375 297.59375 236.488281 297.472656 236.589844 C 297.351562 236.691406 297.214844 236.742188 297.054688 236.738281 Z M 297.054688 236.738281 " fill-opacity="1" fill-rule="nonzero"/><path fill="#ffffff" d="M 300.175781 243.777344 C 300.109375 243.777344 300.042969 243.765625 299.980469 243.742188 L 287.289062 239.511719 C 287.121094 239.457031 287 239.351562 286.921875 239.195312 C 286.84375 239.039062 286.832031 238.878906 286.886719 238.710938 C 286.941406 238.546875 287.046875 238.421875 287.203125 238.34375 C 287.359375 238.265625 287.519531 238.253906 287.6875 238.308594 L 300.375 242.539062 C 300.527344 242.585938 300.640625 242.675781 300.726562 242.808594 C 300.808594 242.945312 300.835938 243.089844 300.8125 243.242188 C 300.785156 243.398438 300.714844 243.527344 300.59375 243.628906 C 300.472656 243.730469 300.335938 243.777344 300.175781 243.777344 Z M 300.175781 243.777344 " fill-opacity="1" fill-rule="nonzero"/><path fill="#ffffff" d="M 301.824219 250.324219 C 301.753906 250.324219 301.6875 250.3125 301.625 250.292969 L 288.933594 246.0625 C 288.769531 246.007812 288.644531 245.902344 288.566406 245.742188 C 288.488281 245.585938 288.476562 245.425781 288.53125 245.257812 C 288.585938 245.09375 288.691406 244.96875 288.847656 244.890625 C 289.003906 244.8125 289.164062 244.800781 289.332031 244.855469 L 302.023438 249.085938 C 302.171875 249.132812 302.289062 249.222656 302.371094 249.359375 C 302.453125 249.492188 302.480469 249.636719 302.457031 249.792969 C 302.433594 249.945312 302.359375 250.074219 302.238281 250.175781 C 302.117188 250.277344 301.980469 250.328125 301.824219 250.324219 Z M 301.824219 250.324219 " fill-opacity="1" fill-rule="nonzero"/><path fill="#ffffff" d="M 302.714844 256.625 C 302.648438 256.621094 302.582031 256.613281 302.515625 256.589844 L 289.828125 252.359375 C 289.53125 252.265625 289.378906 252.066406 289.375 251.753906 C 289.375 251.578125 289.4375 251.429688 289.558594 251.304688 C 289.683594 251.183594 289.832031 251.121094 290.007812 251.121094 C 290.078125 251.121094 290.144531 251.128906 290.207031 251.148438 L 302.898438 255.378906 C 303.046875 255.425781 303.164062 255.519531 303.246094 255.652344 C 303.328125 255.785156 303.359375 255.929688 303.332031 256.085938 C 303.308594 256.242188 303.234375 256.367188 303.113281 256.46875 C 302.996094 256.570312 302.855469 256.621094 302.699219 256.621094 Z M 302.714844 256.625 " fill-opacity="1" fill-rule="nonzero"/><path fill="#ffffff" d="M 303.136719 262.761719 C 303.070312 262.761719 303.003906 262.75 302.941406 262.726562 L 290.25 258.496094 C 290.082031 258.441406 289.960938 258.335938 289.882812 258.179688 C 289.804688 258.023438 289.792969 257.863281 289.847656 257.695312 C 289.902344 257.527344 290.007812 257.40625 290.164062 257.328125 C 290.320312 257.25 290.480469 257.238281 290.648438 257.292969 L 303.335938 261.523438 C 303.488281 261.570312 303.601562 261.660156 303.6875 261.792969 C 303.769531 261.925781 303.796875 262.070312 303.773438 262.226562 C 303.746094 262.382812 303.675781 262.511719 303.554688 262.613281 C 303.433594 262.714844 303.296875 262.761719 303.136719 262.761719 Z M 303.136719 262.761719 " fill-opacity="1" fill-rule="nonzero"/><path fill="#ffffff" d="M 303.253906 268.804688 C 303.183594 268.804688 303.117188 268.792969 303.054688 268.773438 L 290.363281 264.542969 C 290.199219 264.488281 290.074219 264.382812 289.996094 264.226562 C 289.917969 264.066406 289.90625 263.90625 289.960938 263.742188 C 290.015625 263.574219 290.121094 263.449219 290.277344 263.371094 C 290.433594 263.292969 290.59375 263.28125 290.761719 263.335938 L 303.453125 267.566406 C 303.601562 267.613281 303.71875 267.703125 303.800781 267.839844 C 303.882812 267.972656 303.910156 268.117188 303.886719 268.273438 C 303.863281 268.425781 303.789062 268.554688 303.667969 268.65625 C 303.546875 268.757812 303.410156 268.808594 303.253906 268.804688 Z M 303.253906 268.804688 " fill-opacity="1" fill-rule="nonzero"/></svg>