<svg xmlns="http://www.w3.org/2000/svg" xmlns:xlink="http://www.w3.org/1999/xlink" width="580" zoomAndPan="magnify" viewBox="0 0 434.88 434.999989" height="580" preserveAspectRatio="xMidYMid meet" version="1.0"><defs><g/><clipPath id="1e417f5690"><path d="M 80 151 L 314 151 L 314 277 L 80 277 Z M 80 151 " clip-rule="nonzero"/></clipPath><clipPath id="80c22c24e0"><path d="M 43.488281 118.566406 L 381.246094 146.464844 L 367.109375 317.582031 L 29.355469 289.6875 Z M 43.488281 118.566406 " clip-rule="nonzero"/></clipPath><clipPath id="3041cc7594"><path d="M 43.488281 118.566406 L 381.246094 146.464844 L 367.109375 317.582031 L 29.355469 289.6875 Z M 43.488281 118.566406 " clip-rule="nonzero"/></clipPath><clipPath id="45418fd2e1"><path d="M 78 149 L 316 149 L 316 278 L 78 278 Z M 78 149 " clip-rule="nonzero"/></clipPath><clipPath id="0c402bdaaf"><path d="M 43.488281 118.566406 L 381.246094 146.464844 L 367.109375 317.582031 L 29.355469 289.6875 Z M 43.488281 118.566406 " clip-rule="nonzero"/></clipPath><clipPath id="a4ce581a71"><path d="M 43.488281 118.566406 L 381.246094 146.464844 L 367.109375 317.582031 L 29.355469 289.6875 Z M 43.488281 118.566406 " clip-rule="nonzero"/></clipPath><clipPath id="dd24a866f3"><path d="M 67 166 L 82 166 L 82 180 L 67 180 Z M 67 166 " clip-rule="nonzero"/></clipPath><clipPath id="289f1a88f8"><path d="M 43.488281 118.566406 L 381.246094 146.464844 L 367.109375 317.582031 L 29.355469 289.6875 Z M 43.488281 118.566406 " clip-rule="nonzero"/></clipPath><clipPath id="2f9043b647"><path d="M 43.488281 118.566406 L 381.246094 146.464844 L 367.109375 317.582031 L 29.355469 289.6875 Z M 43.488281 118.566406 " clip-rule="nonzero"/></clipPath><clipPath id="23e0b67806"><path d="M 360 218 L 375 218 L 375 233 L 360 233 Z M 360 218 " clip-rule="nonzero"/></clipPath><clipPath id="fd5ebe06cb"><path d="M 43.488281 118.566406 L 381.246094 146.464844 L 367.109375 317.582031 L 29.355469 289.6875 Z M 43.488281 118.566406 " clip-rule="nonzero"/></clipPath><clipPath id="1e35d216be"><path d="M 43.488281 118.566406 L 381.246094 146.464844 L 367.109375 317.582031 L 29.355469 289.6875 Z M 43.488281 118.566406 " clip-rule="nonzero"/></clipPath><clipPath id="eef1855758"><path d="M 352 145 L 362 145 L 362 155 L 352 155 Z M 352 145 " clip-rule="nonzero"/></clipPath><clipPath id="87a00762e4"><path d="M 43.488281 118.566406 L 381.246094 146.464844 L 367.109375 317.582031 L 29.355469 289.6875 Z M 43.488281 118.566406 " clip-rule="nonzero"/></clipPath><clipPath id="c6cb14f968"><path d="M 43.488281 118.566406 L 381.246094 146.464844 L 367.109375 317.582031 L 29.355469 289.6875 Z M 43.488281 118.566406 " clip-rule="nonzero"/></clipPath><clipPath id="5d29fe9750"><path d="M 364 145 L 373 145 L 373 155 L 364 155 Z M 364 145 " clip-rule="nonzero"/></clipPath><clipPath id="97cdc091d2"><path d="M 43.488281 118.566406 L 381.246094 146.464844 L 367.109375 317.582031 L 29.355469 289.6875 Z M 43.488281 118.566406 " clip-rule="nonzero"/></clipPath><clipPath id="287126e8b0"><path d="M 43.488281 118.566406 L 381.246094 146.464844 L 367.109375 317.582031 L 29.355469 289.6875 Z M 43.488281 118.566406 " clip-rule="nonzero"/></clipPath><clipPath id="6c8f32aa26"><path d="M 341 145 L 350 145 L 350 154 L 341 154 Z M 341 145 " clip-rule="nonzero"/></clipPath><clipPath id="7fd35d5f4b"><path d="M 43.488281 118.566406 L 381.246094 146.464844 L 367.109375 317.582031 L 29.355469 289.6875 Z M 43.488281 118.566406 " clip-rule="nonzero"/></clipPath><clipPath id="04e97086a6"><path d="M 43.488281 118.566406 L 381.246094 146.464844 L 367.109375 317.582031 L 29.355469 289.6875 Z M 43.488281 118.566406 " clip-rule="nonzero"/></clipPath><clipPath id="d3447d8eb9"><path d="M 55 276 L 71 276 L 71 292 L 55 292 Z M 55 276 " clip-rule="nonzero"/></clipPath><clipPath id="86f0f27bf2"><path d="M 43.488281 118.566406 L 381.246094 146.464844 L 367.109375 317.582031 L 29.355469 289.6875 Z M 43.488281 118.566406 " clip-rule="nonzero"/></clipPath><clipPath id="18ca2fc69f"><path d="M 43.488281 118.566406 L 381.246094 146.464844 L 367.109375 317.582031 L 29.355469 289.6875 Z M 43.488281 118.566406 " clip-rule="nonzero"/></clipPath><clipPath id="77f1e08129"><path d="M 75 280 L 127 280 L 127 285 L 75 285 Z M 75 280 " clip-rule="nonzero"/></clipPath><clipPath id="ff3b23a8d7"><path d="M 43.488281 118.566406 L 381.246094 146.464844 L 367.109375 317.582031 L 29.355469 289.6875 Z M 43.488281 118.566406 " clip-rule="nonzero"/></clipPath><clipPath id="78e6c0d2a1"><path d="M 43.488281 118.566406 L 381.246094 146.464844 L 367.109375 317.582031 L 29.355469 289.6875 Z M 43.488281 118.566406 " clip-rule="nonzero"/></clipPath><clipPath id="a4560b750e"><path d="M 283 147 L 335 147 L 335 152 L 283 152 Z M 283 147 " clip-rule="nonzero"/></clipPath><clipPath id="931224db75"><path d="M 43.488281 118.566406 L 381.246094 146.464844 L 367.109375 317.582031 L 29.355469 289.6875 Z M 43.488281 118.566406 " clip-rule="nonzero"/></clipPath><clipPath id="56e9a603ef"><path d="M 43.488281 118.566406 L 381.246094 146.464844 L 367.109375 317.582031 L 29.355469 289.6875 Z M 43.488281 118.566406 " clip-rule="nonzero"/></clipPath><clipPath id="94a6a58ad8"><path d="M 129 282 L 133 282 L 133 286 L 129 286 Z M 129 282 " clip-rule="nonzero"/></clipPath><clipPath id="7aaf94ab40"><path d="M 43.488281 118.566406 L 381.246094 146.464844 L 367.109375 317.582031 L 29.355469 289.6875 Z M 43.488281 118.566406 " clip-rule="nonzero"/></clipPath><clipPath id="8cacb8d30b"><path d="M 43.488281 118.566406 L 381.246094 146.464844 L 367.109375 317.582031 L 29.355469 289.6875 Z M 43.488281 118.566406 " clip-rule="nonzero"/></clipPath><clipPath id="697da75160"><path d="M 122 143 L 126 143 L 126 147 L 122 147 Z M 122 143 " clip-rule="nonzero"/></clipPath><clipPath id="5f1a4ec999"><path d="M 43.488281 118.566406 L 381.246094 146.464844 L 367.109375 317.582031 L 29.355469 289.6875 Z M 43.488281 118.566406 " clip-rule="nonzero"/></clipPath><clipPath id="d4891a0ceb"><path d="M 43.488281 118.566406 L 381.246094 146.464844 L 367.109375 317.582031 L 29.355469 289.6875 Z M 43.488281 118.566406 " clip-rule="nonzero"/></clipPath><clipPath id="4ccda73859"><path d="M 33 212 L 48 212 L 48 245 L 33 245 Z M 33 212 " clip-rule="nonzero"/></clipPath><clipPath id="d5772af3fa"><path d="M 43.488281 118.566406 L 381.246094 146.464844 L 367.109375 317.582031 L 29.355469 289.6875 Z M 43.488281 118.566406 " clip-rule="nonzero"/></clipPath><clipPath id="885208565c"><path d="M 43.488281 118.566406 L 381.246094 146.464844 L 367.109375 317.582031 L 29.355469 289.6875 Z M 43.488281 118.566406 " clip-rule="nonzero"/></clipPath><clipPath id="6d0289c339"><path d="M 300 280 L 314 280 L 314 295 L 300 295 Z M 300 280 " clip-rule="nonzero"/></clipPath><clipPath id="b263baff0e"><path d="M 43.488281 118.566406 L 381.246094 146.464844 L 367.109375 317.582031 L 29.355469 289.6875 Z M 43.488281 118.566406 " clip-rule="nonzero"/></clipPath><clipPath id="6b6f74e64b"><path d="M 43.488281 118.566406 L 381.246094 146.464844 L 367.109375 317.582031 L 29.355469 289.6875 Z M 43.488281 118.566406 " clip-rule="nonzero"/></clipPath><clipPath id="88d2cb687d"><path d="M 80 151 L 374 151 L 374 216 L 80 216 Z M 80 151 " clip-rule="nonzero"/></clipPath><clipPath id="afecf7946c"><path d="M 43.488281 118.566406 L 381.246094 146.464844 L 367.109375 317.582031 L 29.355469 289.6875 Z M 43.488281 118.566406 " clip-rule="nonzero"/></clipPath><clipPath id="3b8b676676"><path d="M 43.488281 118.566406 L 381.246094 146.464844 L 367.109375 317.582031 L 29.355469 289.6875 Z M 43.488281 118.566406 " clip-rule="nonzero"/></clipPath><clipPath id="9687c19c83"><path d="M 78 149 L 375 149 L 375 217 L 78 217 Z M 78 149 " clip-rule="nonzero"/></clipPath><clipPath id="863d9c80ab"><path d="M 43.488281 118.566406 L 381.246094 146.464844 L 367.109375 317.582031 L 29.355469 289.6875 Z M 43.488281 118.566406 " clip-rule="nonzero"/></clipPath><clipPath id="21e05e99ef"><path d="M 43.488281 118.566406 L 381.246094 146.464844 L 367.109375 317.582031 L 29.355469 289.6875 Z M 43.488281 118.566406 " clip-rule="nonzero"/></clipPath><clipPath id="16323116f0"><path d="M 42 214 L 314 214 L 314 278 L 42 278 Z M 42 214 " clip-rule="nonzero"/></clipPath><clipPath id="a0726dccea"><path d="M 43.488281 118.566406 L 381.246094 146.464844 L 367.109375 317.582031 L 29.355469 289.6875 Z M 43.488281 118.566406 " clip-rule="nonzero"/></clipPath><clipPath id="79c8d5d000"><path d="M 43.488281 118.566406 L 381.246094 146.464844 L 367.109375 317.582031 L 29.355469 289.6875 Z M 43.488281 118.566406 " clip-rule="nonzero"/></clipPath><clipPath id="fc09b632fc"><path d="M 40 213 L 315 213 L 315 280 L 40 280 Z M 40 213 " clip-rule="nonzero"/></clipPath><clipPath id="bdc2004d32"><path d="M 43.488281 118.566406 L 381.246094 146.464844 L 367.109375 317.582031 L 29.355469 289.6875 Z M 43.488281 118.566406 " clip-rule="nonzero"/></clipPath><clipPath id="0034cc0834"><path d="M 43.488281 118.566406 L 381.246094 146.464844 L 367.109375 317.582031 L 29.355469 289.6875 Z M 43.488281 118.566406 " clip-rule="nonzero"/></clipPath><clipPath id="35a7751784"><path d="M 79 130 L 117 130 L 117 189 L 79 189 Z M 79 130 " clip-rule="nonzero"/></clipPath><clipPath id="9d2cd6a40a"><path d="M 43.488281 118.566406 L 381.246094 146.464844 L 367.109375 317.582031 L 29.355469 289.6875 Z M 43.488281 118.566406 " clip-rule="nonzero"/></clipPath><clipPath id="cbaaba909a"><path d="M 43.488281 118.566406 L 381.246094 146.464844 L 367.109375 317.582031 L 29.355469 289.6875 Z M 43.488281 118.566406 " clip-rule="nonzero"/></clipPath><clipPath id="b050271e5e"><path d="M 78 128 L 119 128 L 119 190 L 78 190 Z M 78 128 " clip-rule="nonzero"/></clipPath><clipPath id="82d5a4e773"><path d="M 43.488281 118.566406 L 381.246094 146.464844 L 367.109375 317.582031 L 29.355469 289.6875 Z M 43.488281 118.566406 " clip-rule="nonzero"/></clipPath><clipPath id="3765ed6cd6"><path d="M 43.488281 118.566406 L 381.246094 146.464844 L 367.109375 317.582031 L 29.355469 289.6875 Z M 43.488281 118.566406 " clip-rule="nonzero"/></clipPath></defs><g clip-path="url(#1e417f5690)"><g clip-path="url(#80c22c24e0)"><g clip-path="url(#3041cc7594)"><path fill="#ffffff" d="M 296.71875 276.164062 C 296.050781 276.109375 295.410156 275.914062 294.820312 275.585938 L 82.742188 207.480469 C 82.621094 207.441406 82.503906 207.386719 82.394531 207.320312 C 80.605469 206.222656 79.757812 204.125 80.289062 202.09375 C 87.703125 173.703125 92.609375 154.339844 92.816406 152.664062 C 92.832031 152.246094 93.015625 151.839844 93.320312 151.550781 C 93.679688 151.214844 94.140625 151.066406 94.6875 151.109375 C 98.253906 151.40625 154.097656 168.582031 199.765625 183.164062 C 230.3125 192.917969 302.316406 216.203125 311.191406 221.761719 C 312.933594 222.851562 313.761719 224.929688 313.257812 226.925781 L 301.699219 272.605469 C 301.132812 274.855469 299.035156 276.351562 296.71875 276.160156 Z M 296.71875 276.164062 " fill-opacity="1" fill-rule="nonzero"/></g></g></g><g clip-path="url(#45418fd2e1)"><g clip-path="url(#0c402bdaaf)"><g clip-path="url(#a4ce581a71)"><path fill="#ffffff" d="M 94.558594 152.707031 C 100.621094 153.207031 295.820312 214.019531 310.339844 223.117188 C 311.492188 223.839844 312.039062 225.21875 311.707031 226.535156 L 300.148438 272.214844 C 299.753906 273.765625 298.308594 274.691406 296.851562 274.570312 C 296.382812 274.53125 295.910156 274.382812 295.476562 274.117188 L 83.230469 205.957031 C 82.054688 205.238281 81.488281 203.835938 81.835938 202.5 C 84.394531 192.703125 94.441406 154.113281 94.414062 152.730469 C 94.414062 152.707031 94.460938 152.699219 94.558594 152.707031 M 94.820312 149.519531 C 93.484375 149.410156 92.621094 150.015625 92.226562 150.390625 C 91.640625 150.941406 91.28125 151.699219 91.222656 152.496094 C 90.882812 154.640625 86.003906 173.875 78.742188 201.691406 C 78.035156 204.40625 79.167969 207.21875 81.5625 208.683594 C 81.777344 208.820312 82.011719 208.925781 82.253906 209.003906 L 294.195312 277.066406 C 294.941406 277.449219 295.757812 277.6875 296.589844 277.757812 C 299.683594 278.011719 302.488281 276.011719 303.25 273 L 314.808594 227.320312 C 315.484375 224.648438 314.371094 221.867188 312.039062 220.40625 C 303.335938 214.957031 238.265625 193.78125 200.25 181.640625 C 153.464844 166.703125 98.65625 149.832031 94.820312 149.515625 Z M 94.820312 149.519531 " fill-opacity="1" fill-rule="nonzero"/></g></g></g><g clip-path="url(#dd24a866f3)"><g clip-path="url(#289f1a88f8)"><g clip-path="url(#2f9043b647)"><path fill="#ffffff" d="M 75.316406 166.023438 C 71.519531 165.710938 68.175781 168.542969 67.863281 172.339844 C 67.550781 176.136719 70.382812 179.480469 74.179688 179.792969 C 77.976562 180.109375 81.320312 177.273438 81.632812 173.476562 C 81.949219 169.683594 79.113281 166.335938 75.316406 166.023438 Z M 74.375 177.40625 C 71.898438 177.203125 70.046875 175.019531 70.25 172.539062 C 70.457031 170.058594 72.640625 168.207031 75.121094 168.410156 C 77.597656 168.617188 79.449219 170.800781 79.246094 173.28125 C 79.039062 175.761719 76.855469 177.613281 74.375 177.40625 Z M 74.375 177.40625 " fill-opacity="1" fill-rule="nonzero"/></g></g></g><g clip-path="url(#23e0b67806)"><g clip-path="url(#fd5ebe06cb)"><g clip-path="url(#1e35d216be)"><path fill="#ffffff" d="M 368.371094 218.25 C 364.574219 217.9375 361.230469 220.769531 360.917969 224.566406 C 360.601562 228.363281 363.4375 231.707031 367.234375 232.019531 C 371.03125 232.335938 374.375 229.5 374.6875 225.703125 C 375.003906 221.90625 372.167969 218.5625 368.371094 218.25 Z M 367.429688 229.632812 C 364.953125 229.429688 363.101562 227.246094 363.304688 224.765625 C 363.511719 222.28125 365.695312 220.433594 368.175781 220.636719 C 370.652344 220.84375 372.503906 223.027344 372.300781 225.507812 C 372.09375 227.988281 369.910156 229.839844 367.429688 229.632812 Z M 367.429688 229.632812 " fill-opacity="1" fill-rule="nonzero"/></g></g></g><g clip-path="url(#eef1855758)"><g clip-path="url(#87a00762e4)"><g clip-path="url(#c6cb14f968)"><path fill="#ffffff" d="M 355.457031 149.800781 L 353.09375 152.078125 C 352.640625 152.511719 352.625 153.238281 353.0625 153.691406 C 353.5 154.148438 354.226562 154.160156 354.679688 153.722656 L 357.042969 151.449219 L 359.316406 153.8125 C 359.753906 154.265625 360.480469 154.28125 360.933594 153.84375 C 361.152344 153.632812 361.277344 153.347656 361.28125 153.042969 C 361.289062 152.734375 361.175781 152.445312 360.964844 152.226562 L 358.6875 149.863281 L 361.054688 147.589844 C 361.273438 147.378906 361.398438 147.09375 361.402344 146.785156 C 361.410156 146.480469 361.296875 146.191406 361.085938 145.972656 C 360.660156 145.53125 359.910156 145.519531 359.46875 145.941406 L 357.105469 148.21875 L 354.828125 145.851562 C 354.617188 145.632812 354.332031 145.507812 354.027344 145.5 C 353.722656 145.496094 353.433594 145.609375 353.214844 145.820312 C 352.996094 146.035156 352.871094 146.316406 352.863281 146.621094 C 352.855469 146.925781 352.96875 147.21875 353.183594 147.4375 Z M 355.457031 149.800781 " fill-opacity="1" fill-rule="nonzero"/></g></g></g><g clip-path="url(#5d29fe9750)"><g clip-path="url(#97cdc091d2)"><g clip-path="url(#287126e8b0)"><path fill="#ffffff" d="M 366.863281 150.023438 L 364.496094 152.296875 C 364.042969 152.734375 364.03125 153.457031 364.464844 153.914062 C 364.902344 154.367188 365.628906 154.378906 366.082031 153.941406 L 368.445312 151.667969 L 370.722656 154.03125 C 371.160156 154.488281 371.882812 154.5 372.335938 154.066406 C 372.558594 153.851562 372.683594 153.566406 372.6875 153.261719 C 372.691406 152.957031 372.578125 152.667969 372.367188 152.449219 L 370.09375 150.085938 L 372.457031 147.808594 C 372.679688 147.597656 372.804688 147.3125 372.808594 147.007812 C 372.8125 146.703125 372.699219 146.414062 372.488281 146.195312 C 372.066406 145.753906 371.3125 145.738281 370.875 146.164062 L 368.507812 148.4375 L 366.234375 146.074219 C 366.023438 145.851562 365.738281 145.726562 365.433594 145.722656 C 365.125 145.714844 364.839844 145.828125 364.617188 146.042969 C 364.398438 146.253906 364.273438 146.539062 364.269531 146.84375 C 364.261719 147.148438 364.375 147.4375 364.585938 147.65625 L 366.859375 150.019531 Z M 366.863281 150.023438 " fill-opacity="1" fill-rule="nonzero"/></g></g></g><g clip-path="url(#6c8f32aa26)"><g clip-path="url(#7fd35d5f4b)"><g clip-path="url(#04e97086a6)"><path fill="#ffffff" d="M 341.339844 152.65625 C 341.335938 152.964844 341.449219 153.253906 341.660156 153.472656 C 342.097656 153.925781 342.824219 153.941406 343.277344 153.503906 L 345.640625 151.230469 L 347.914062 153.59375 C 348.351562 154.046875 349.078125 154.058594 349.53125 153.625 C 349.75 153.414062 349.875 153.128906 349.878906 152.824219 C 349.886719 152.515625 349.773438 152.226562 349.5625 152.007812 L 347.285156 149.644531 L 349.652344 147.371094 C 349.871094 147.160156 349.996094 146.875 350 146.566406 C 350.007812 146.261719 349.894531 145.972656 349.683594 145.753906 C 349.257812 145.3125 348.503906 145.300781 348.066406 145.722656 L 345.703125 148 L 343.425781 145.632812 C 343.214844 145.414062 342.929688 145.289062 342.625 145.28125 C 342.320312 145.277344 342.03125 145.390625 341.8125 145.601562 C 341.59375 145.8125 341.46875 146.097656 341.460938 146.402344 C 341.457031 146.710938 341.570312 147 341.78125 147.21875 L 344.054688 149.582031 L 341.691406 151.855469 C 341.472656 152.070312 341.347656 152.351562 341.339844 152.660156 Z M 341.339844 152.65625 " fill-opacity="1" fill-rule="nonzero"/></g></g></g><g clip-path="url(#d3447d8eb9)"><g clip-path="url(#86f0f27bf2)"><g clip-path="url(#18ca2fc69f)"><path fill="#ffffff" d="M 69.105469 276.625 L 56.445312 276.425781 C 55.792969 276.414062 55.257812 276.9375 55.246094 277.585938 L 55.046875 290.246094 C 55.039062 290.898438 55.558594 291.433594 56.207031 291.445312 L 68.871094 291.644531 C 69.519531 291.652344 70.054688 291.132812 70.066406 290.484375 L 70.265625 277.824219 C 70.277344 277.171875 69.753906 276.636719 69.105469 276.625 Z M 67.726562 289.269531 L 57.425781 289.105469 L 57.585938 278.804688 L 67.890625 278.964844 Z M 67.726562 289.269531 " fill-opacity="1" fill-rule="nonzero"/></g></g></g><g clip-path="url(#77f1e08129)"><g clip-path="url(#ff3b23a8d7)"><g clip-path="url(#78e6c0d2a1)"><path fill="#ffffff" d="M 77.007812 283.667969 L 124.96875 284.914062 C 125.773438 284.9375 126.441406 284.300781 126.464844 283.496094 C 126.484375 282.691406 125.847656 282.019531 125.042969 282 L 77.082031 280.75 C 76.28125 280.730469 75.609375 281.367188 75.585938 282.171875 C 75.566406 282.972656 76.203125 283.644531 77.007812 283.667969 Z M 77.007812 283.667969 " fill-opacity="1" fill-rule="nonzero"/></g></g></g><g clip-path="url(#a4560b750e)"><g clip-path="url(#931224db75)"><g clip-path="url(#56e9a603ef)"><path fill="#ffffff" d="M 285.191406 150.347656 L 333.152344 151.59375 C 333.957031 151.617188 334.628906 150.980469 334.648438 150.175781 C 334.671875 149.371094 334.03125 148.699219 333.230469 148.679688 L 285.269531 147.429688 C 284.464844 147.410156 283.792969 148.046875 283.773438 148.851562 C 283.75 149.65625 284.390625 150.324219 285.191406 150.347656 Z M 285.191406 150.347656 " fill-opacity="1" fill-rule="nonzero"/></g></g></g><g clip-path="url(#94a6a58ad8)"><g clip-path="url(#7aaf94ab40)"><g clip-path="url(#8cacb8d30b)"><path fill="#ffffff" d="M 132.558594 283.734375 C 132.542969 283.929688 132.492188 284.109375 132.402344 284.285156 C 132.3125 284.457031 132.195312 284.605469 132.046875 284.730469 C 131.898438 284.855469 131.734375 284.945312 131.550781 285.007812 C 131.363281 285.066406 131.175781 285.085938 130.984375 285.070312 C 130.789062 285.054688 130.605469 285.003906 130.433594 284.914062 C 130.261719 284.824219 130.113281 284.707031 129.988281 284.558594 C 129.863281 284.410156 129.769531 284.246094 129.710938 284.0625 C 129.652344 283.875 129.632812 283.6875 129.648438 283.496094 C 129.664062 283.300781 129.714844 283.121094 129.804688 282.945312 C 129.894531 282.773438 130.011719 282.625 130.160156 282.5 C 130.304688 282.375 130.472656 282.285156 130.65625 282.222656 C 130.839844 282.164062 131.03125 282.144531 131.222656 282.160156 C 131.417969 282.175781 131.597656 282.226562 131.769531 282.316406 C 131.941406 282.40625 132.09375 282.523438 132.21875 282.671875 C 132.34375 282.820312 132.433594 282.984375 132.492188 283.167969 C 132.554688 283.355469 132.574219 283.542969 132.558594 283.734375 Z M 132.558594 283.734375 " fill-opacity="1" fill-rule="nonzero"/></g></g></g><g clip-path="url(#697da75160)"><g clip-path="url(#5f1a4ec999)"><g clip-path="url(#d4891a0ceb)"><path fill="#ffffff" d="M 125.085938 144.992188 C 125.070312 145.183594 125.019531 145.367188 124.929688 145.539062 C 124.839844 145.710938 124.722656 145.859375 124.574219 145.984375 C 124.425781 146.109375 124.261719 146.203125 124.078125 146.261719 C 123.890625 146.320312 123.703125 146.339844 123.511719 146.324219 C 123.316406 146.308594 123.136719 146.257812 122.960938 146.167969 C 122.789062 146.082031 122.640625 145.960938 122.515625 145.8125 C 122.390625 145.667969 122.300781 145.5 122.238281 145.316406 C 122.179688 145.132812 122.160156 144.941406 122.175781 144.75 C 122.191406 144.558594 122.242188 144.375 122.332031 144.203125 C 122.421875 144.03125 122.539062 143.882812 122.6875 143.757812 C 122.835938 143.628906 123 143.539062 123.183594 143.480469 C 123.371094 143.421875 123.558594 143.398438 123.75 143.414062 C 123.945312 143.429688 124.125 143.484375 124.300781 143.570312 C 124.472656 143.660156 124.621094 143.777344 124.746094 143.925781 C 124.871094 144.074219 124.960938 144.238281 125.023438 144.425781 C 125.082031 144.609375 125.101562 144.796875 125.085938 144.992188 Z M 125.085938 144.992188 " fill-opacity="1" fill-rule="nonzero"/></g></g></g><g clip-path="url(#4ccda73859)"><g clip-path="url(#d5772af3fa)"><g clip-path="url(#885208565c)"><path fill="#ffffff" d="M 41.871094 243.15625 C 41.902344 242.859375 41.816406 242.570312 41.632812 242.339844 L 36.757812 236.289062 L 43.976562 233.628906 C 44.300781 233.511719 44.554688 233.242188 44.660156 232.902344 L 44.660156 232.898438 C 44.75 232.5625 44.691406 232.210938 44.496094 231.9375 L 39.652344 225.226562 L 47.0625 222.304688 C 47.382812 222.179688 47.628906 221.910156 47.726562 221.566406 C 47.808594 221.226562 47.746094 220.878906 47.546875 220.613281 L 41.828125 212.898438 C 41.464844 212.40625 40.769531 212.304688 40.277344 212.667969 C 39.800781 213.019531 39.695312 213.746094 40.046875 214.21875 L 44.90625 220.773438 L 37.511719 223.6875 C 37.195312 223.8125 36.949219 224.082031 36.855469 224.402344 C 36.757812 224.722656 36.808594 225.078125 37.019531 225.371094 L 41.839844 232.054688 L 34.542969 234.742188 C 34.207031 234.863281 33.953125 235.140625 33.863281 235.46875 C 33.855469 235.484375 33.851562 235.503906 33.84375 235.523438 C 33.757812 235.851562 33.832031 236.195312 34.0625 236.476562 L 39.902344 243.734375 C 40.089844 243.964844 40.355469 244.109375 40.648438 244.140625 C 40.941406 244.171875 41.234375 244.085938 41.464844 243.902344 C 41.695312 243.71875 41.839844 243.453125 41.871094 243.15625 Z M 41.871094 243.15625 " fill-opacity="1" fill-rule="nonzero"/></g></g></g><g clip-path="url(#6d0289c339)"><g clip-path="url(#b263baff0e)"><g clip-path="url(#6b6f74e64b)"><path fill="#ffffff" d="M 312.296875 286.503906 L 308.199219 286.164062 L 308.539062 282.066406 C 308.597656 281.34375 308.058594 280.710938 307.339844 280.652344 C 306.621094 280.59375 305.988281 281.128906 305.925781 281.847656 L 305.589844 285.949219 L 301.488281 285.609375 C 300.769531 285.550781 300.136719 286.089844 300.078125 286.808594 C 300.015625 287.527344 300.554688 288.160156 301.273438 288.222656 L 305.371094 288.558594 L 305.035156 292.65625 C 304.976562 293.378906 305.511719 294.011719 306.230469 294.070312 C 306.953125 294.132812 307.585938 293.59375 307.644531 292.875 L 307.984375 288.773438 L 312.082031 289.113281 C 312.804688 289.171875 313.4375 288.636719 313.496094 287.914062 C 313.554688 287.195312 313.019531 286.5625 312.296875 286.503906 Z M 312.296875 286.503906 " fill-opacity="1" fill-rule="nonzero"/></g></g></g><g clip-path="url(#88d2cb687d)"><g clip-path="url(#afecf7946c)"><g clip-path="url(#3b8b676676)"><path fill="#ff81cf" d="M 84.847656 206.445312 C 83.460938 206.332031 82.203125 205.617188 81.390625 204.480469 C 80.582031 203.347656 80.3125 201.921875 80.65625 200.570312 L 92.246094 154.777344 C 92.785156 152.640625 94.777344 151.140625 96.980469 151.207031 L 368.792969 159.773438 C 368.875 159.773438 368.957031 159.78125 369.039062 159.785156 C 370.425781 159.902344 371.6875 160.617188 372.496094 161.75 C 373.308594 162.886719 373.574219 164.308594 373.234375 165.660156 L 361.644531 211.457031 C 361.09375 213.628906 359.148438 215.09375 356.910156 215.027344 L 85.09375 206.460938 C 85.011719 206.457031 84.929688 206.453125 84.847656 206.445312 Z M 84.847656 206.445312 " fill-opacity="1" fill-rule="nonzero"/></g></g></g><g clip-path="url(#9687c19c83)"><g clip-path="url(#863d9c80ab)"><g clip-path="url(#21e05e99ef)"><path fill="#ffffff" d="M 368.910156 161.382812 C 370.824219 161.539062 372.160156 163.386719 371.683594 165.273438 L 360.09375 211.066406 C 359.734375 212.492188 358.429688 213.476562 356.960938 213.429688 L 85.144531 204.863281 C 85.089844 204.863281 85.035156 204.859375 84.980469 204.855469 C 83.066406 204.695312 81.726562 202.851562 82.203125 200.964844 L 93.792969 155.167969 C 94.152344 153.742188 95.457031 152.761719 96.925781 152.804688 L 368.742188 161.371094 C 368.796875 161.375 368.851562 161.375 368.90625 161.382812 M 369.171875 158.195312 C 369.0625 158.183594 368.953125 158.179688 368.84375 158.175781 L 97.03125 149.609375 C 94.082031 149.515625 91.417969 151.523438 90.695312 154.382812 L 79.105469 200.179688 C 78.648438 201.988281 79.007812 203.894531 80.089844 205.410156 C 81.175781 206.929688 82.859375 207.886719 84.71875 208.039062 C 84.824219 208.046875 84.9375 208.054688 85.046875 208.058594 L 356.859375 216.625 C 359.808594 216.714844 362.472656 214.707031 363.195312 211.847656 L 374.785156 166.054688 C 375.242188 164.246094 374.882812 162.339844 373.796875 160.824219 C 372.714844 159.304688 371.027344 158.347656 369.171875 158.191406 Z M 369.171875 158.195312 " fill-opacity="1" fill-rule="nonzero"/></g></g></g><g clip-path="url(#16323116f0)"><g clip-path="url(#a0726dccea)"><g clip-path="url(#79c8d5d000)"><path fill="#ff81cf" d="M 46.566406 270.210938 C 45.179688 270.097656 43.921875 269.382812 43.113281 268.246094 C 42.300781 267.113281 42.03125 265.6875 42.375 264.335938 L 53.964844 218.542969 C 54.511719 216.378906 56.453125 214.910156 58.6875 214.972656 L 308.414062 222.613281 C 308.5 222.617188 308.582031 222.621094 308.667969 222.628906 C 310.054688 222.742188 311.3125 223.460938 312.125 224.59375 C 312.933594 225.726562 313.203125 227.152344 312.859375 228.503906 L 301.273438 274.296875 C 300.722656 276.464844 298.78125 277.929688 296.546875 277.867188 L 46.820312 270.226562 C 46.738281 270.222656 46.652344 270.21875 46.566406 270.210938 Z M 46.566406 270.210938 " fill-opacity="1" fill-rule="nonzero"/></g></g></g><g clip-path="url(#fc09b632fc)"><g clip-path="url(#bdc2004d32)"><g clip-path="url(#0034cc0834)"><path fill="#ffffff" d="M 308.535156 224.222656 C 310.449219 224.378906 311.785156 226.226562 311.308594 228.113281 L 299.71875 273.90625 C 299.359375 275.328125 298.058594 276.308594 296.59375 276.269531 L 46.871094 268.628906 C 46.8125 268.628906 46.753906 268.625 46.699219 268.621094 C 44.785156 268.460938 43.445312 266.617188 43.925781 264.730469 L 55.511719 218.9375 C 55.871094 217.511719 57.171875 216.53125 58.640625 216.574219 L 308.363281 224.210938 C 308.421875 224.214844 308.476562 224.214844 308.535156 224.222656 M 308.796875 221.035156 C 308.683594 221.023438 308.570312 221.019531 308.457031 221.015625 L 58.738281 213.375 C 55.746094 213.289062 53.144531 215.253906 52.414062 218.152344 L 40.824219 263.945312 C 40.367188 265.753906 40.726562 267.660156 41.808594 269.175781 C 42.894531 270.695312 44.578125 271.652344 46.433594 271.804688 C 46.546875 271.816406 46.664062 271.820312 46.777344 271.824219 L 296.496094 279.464844 C 299.488281 279.550781 302.085938 277.585938 302.820312 274.691406 L 314.410156 228.894531 C 314.867188 227.085938 314.507812 225.179688 313.425781 223.664062 C 312.339844 222.144531 310.652344 221.1875 308.796875 221.035156 Z M 308.796875 221.035156 " fill-opacity="1" fill-rule="nonzero"/></g></g></g><g clip-path="url(#35a7751784)"><g clip-path="url(#9d2cd6a40a)"><g clip-path="url(#cbaaba909a)"><path fill="#44b7e6" d="M 85.414062 188.078125 C 84.480469 188 83.636719 187.472656 83.15625 186.667969 C 82.6875 185.878906 82.632812 184.933594 83.011719 184.074219 L 92.371094 162.699219 L 82.410156 161.875 C 81.476562 161.800781 80.640625 161.269531 80.167969 160.460938 C 79.703125 159.648438 79.660156 158.660156 80.058594 157.816406 L 92.300781 131.667969 C 92.804688 130.59375 93.9375 129.933594 95.125 130.03125 L 113.984375 131.589844 C 114.910156 131.667969 115.742188 132.191406 116.210938 132.988281 C 116.683594 133.789062 116.734375 134.773438 116.347656 135.617188 L 109.234375 151.285156 L 113.945312 151.675781 C 115.039062 151.765625 115.964844 152.457031 116.367188 153.480469 C 116.769531 154.5 116.558594 155.640625 115.816406 156.449219 L 87.738281 187.144531 C 87.132812 187.808594 86.285156 188.144531 85.414062 188.074219 Z M 85.414062 188.078125 " fill-opacity="1" fill-rule="nonzero"/></g></g></g><g clip-path="url(#b050271e5e)"><g clip-path="url(#82d5a4e773)"><g clip-path="url(#3765ed6cd6)"><path fill="#ffffff" d="M 113.851562 133.1875 C 114.71875 133.257812 115.253906 134.167969 114.894531 134.960938 L 107.574219 151.070312 C 107.214844 151.863281 107.75 152.769531 108.617188 152.84375 L 113.8125 153.273438 C 114.851562 153.359375 115.339844 154.605469 114.636719 155.375 L 86.558594 186.070312 C 86.261719 186.394531 85.894531 186.511719 85.546875 186.484375 C 84.769531 186.417969 84.082031 185.613281 84.476562 184.714844 L 94.027344 162.90625 C 94.375 162.113281 93.839844 161.21875 92.976562 161.148438 L 82.539062 160.285156 C 81.664062 160.210938 81.132812 159.292969 81.503906 158.496094 L 93.75 132.351562 C 93.972656 131.871094 94.46875 131.585938 94.992188 131.628906 L 113.851562 133.1875 M 114.113281 130 L 95.253906 128.441406 C 93.40625 128.289062 91.636719 129.3125 90.851562 130.992188 L 78.609375 157.140625 C 77.988281 158.460938 78.054688 160.003906 78.789062 161.265625 C 79.519531 162.527344 80.824219 163.351562 82.277344 163.472656 L 90.007812 164.109375 L 81.546875 183.433594 C 80.960938 184.773438 81.046875 186.25 81.785156 187.488281 C 82.53125 188.734375 83.839844 189.550781 85.285156 189.671875 C 86.652344 189.785156 87.976562 189.257812 88.917969 188.226562 L 116.996094 157.535156 C 118.152344 156.269531 118.484375 154.496094 117.859375 152.902344 C 117.234375 151.304688 115.785156 150.226562 114.074219 150.085938 L 111.628906 149.886719 L 117.804688 136.285156 C 118.40625 134.96875 118.324219 133.433594 117.59375 132.1875 C 116.859375 130.9375 115.558594 130.121094 114.117188 130 Z M 114.113281 130 " fill-opacity="1" fill-rule="nonzero"/></g></g></g><g fill="#000000" fill-opacity="1"><g transform="translate(138.47164, 191.03374)"><g><path d="M 7.5 0.21875 C 7.601562 -1.769531 7.6875 -3.757812 7.75 -5.75 C 7.820312 -7.75 7.882812 -9.71875 7.9375 -11.65625 C 7.988281 -13.269531 8.03125 -14.894531 8.0625 -16.53125 C 8.101562 -18.175781 8.140625 -19.742188 8.171875 -21.234375 C 7.035156 -21.265625 5.796875 -21.296875 4.453125 -21.328125 C 3.117188 -21.359375 1.820312 -21.378906 0.5625 -21.390625 L 0.640625 -24 L 19.203125 -23.453125 L 19.125 -20.84375 C 17.894531 -20.90625 16.617188 -20.957031 15.296875 -21 C 13.984375 -21.050781 12.738281 -21.09375 11.5625 -21.125 C 11.507812 -20.207031 11.457031 -19.160156 11.40625 -17.984375 C 11.363281 -16.804688 11.320312 -15.628906 11.28125 -14.453125 C 11.238281 -13.273438 11.203125 -12.238281 11.171875 -11.34375 C 11.054688 -7.414062 10.972656 -3.523438 10.921875 0.328125 Z M 7.5 0.21875 "/></g></g></g><g fill="#000000" fill-opacity="1"><g transform="translate(156.917549, 191.577768)"><g><path d="M 2.609375 0.078125 C 2.648438 -0.609375 2.695312 -1.460938 2.75 -2.484375 C 2.800781 -3.503906 2.851562 -4.582031 2.90625 -5.71875 C 2.957031 -6.851562 3.003906 -7.957031 3.046875 -9.03125 C 3.085938 -10.113281 3.125 -11.066406 3.15625 -11.890625 C 3.175781 -12.722656 3.195312 -13.6875 3.21875 -14.78125 C 3.238281 -15.875 3.253906 -16.988281 3.265625 -18.125 C 3.285156 -19.257812 3.296875 -20.335938 3.296875 -21.359375 C 3.304688 -22.378906 3.3125 -23.234375 3.3125 -23.921875 L 20.390625 -23.421875 L 20.328125 -20.875 L 6.65625 -21.28125 L 6.40625 -13.203125 L 19.265625 -12.90625 L 19.203125 -10.671875 L 6.34375 -11.15625 L 6.09375 -2.375 L 20.03125 -1.953125 L 19.953125 0.59375 Z M 2.609375 0.078125 "/></g></g></g><g fill="#000000" fill-opacity="1"><g transform="translate(178.164971, 192.204422)"><g><path d="M 0.5 0.015625 C 1.445312 -1.421875 2.546875 -3.039062 3.796875 -4.84375 C 5.054688 -6.65625 6.304688 -8.484375 7.546875 -10.328125 C 7.753906 -10.660156 8.113281 -11.007812 8.625 -11.375 C 9.132812 -11.738281 9.675781 -11.910156 10.25 -11.890625 L 10.265625 -12.234375 C 9.671875 -12.253906 9.140625 -12.429688 8.671875 -12.765625 C 8.210938 -13.109375 7.894531 -13.484375 7.71875 -13.890625 C 6.71875 -15.640625 5.707031 -17.378906 4.6875 -19.109375 C 3.664062 -20.847656 2.726562 -22.46875 1.875 -23.96875 L 5.609375 -23.859375 L 11.59375 -13.046875 L 12.203125 -13.03125 L 18.765625 -23.46875 L 22.53125 -23.359375 C 21.613281 -21.890625 20.601562 -20.332031 19.5 -18.6875 C 18.394531 -17.050781 17.28125 -15.378906 16.15625 -13.671875 C 15.925781 -13.234375 15.582031 -12.867188 15.125 -12.578125 C 14.675781 -12.285156 14.144531 -12.140625 13.53125 -12.140625 L 13.515625 -11.796875 C 14.085938 -11.785156 14.617188 -11.585938 15.109375 -11.203125 C 15.597656 -10.816406 15.925781 -10.398438 16.09375 -9.953125 C 16.800781 -8.796875 17.546875 -7.550781 18.328125 -6.21875 C 19.117188 -4.894531 19.878906 -3.625 20.609375 -2.40625 C 21.335938 -1.195312 21.96875 -0.175781 22.5 0.65625 L 18.75 0.546875 L 12.140625 -10.859375 L 11.53125 -10.875 L 4.25 0.125 Z M 0.5 0.015625 "/></g></g></g><g fill="#000000" fill-opacity="1"><g transform="translate(201.175143, 192.883065)"><g><path d="M 7.5 0.21875 C 7.601562 -1.769531 7.6875 -3.757812 7.75 -5.75 C 7.820312 -7.75 7.882812 -9.71875 7.9375 -11.65625 C 7.988281 -13.269531 8.03125 -14.894531 8.0625 -16.53125 C 8.101562 -18.175781 8.140625 -19.742188 8.171875 -21.234375 C 7.035156 -21.265625 5.796875 -21.296875 4.453125 -21.328125 C 3.117188 -21.359375 1.820312 -21.378906 0.5625 -21.390625 L 0.640625 -24 L 19.203125 -23.453125 L 19.125 -20.84375 C 17.894531 -20.90625 16.617188 -20.957031 15.296875 -21 C 13.984375 -21.050781 12.738281 -21.09375 11.5625 -21.125 C 11.507812 -20.207031 11.457031 -19.160156 11.40625 -17.984375 C 11.363281 -16.804688 11.320312 -15.628906 11.28125 -14.453125 C 11.238281 -13.273438 11.203125 -12.238281 11.171875 -11.34375 C 11.054688 -7.414062 10.972656 -3.523438 10.921875 0.328125 Z M 7.5 0.21875 "/></g></g></g><g fill="#000000" fill-opacity="1"><g transform="translate(219.621052, 193.427093)"><g/></g></g><g fill="#000000" fill-opacity="1"><g transform="translate(227.175693, 193.649904)"><g><path d="M 22.65625 -23.359375 C 22.613281 -22.441406 22.5625 -21.3125 22.5 -19.96875 C 22.4375 -18.625 22.382812 -17.203125 22.34375 -15.703125 C 22.300781 -14.210938 22.257812 -12.765625 22.21875 -11.359375 C 22.1875 -10.410156 22.15625 -9.382812 22.125 -8.28125 C 22.09375 -7.175781 22.0625 -6.070312 22.03125 -4.96875 C 22.007812 -3.875 21.988281 -2.835938 21.96875 -1.859375 C 21.957031 -0.878906 21.953125 -0.046875 21.953125 0.640625 L 18.53125 0.546875 C 18.570312 -0.234375 18.617188 -1.148438 18.671875 -2.203125 C 18.722656 -3.265625 18.769531 -4.367188 18.8125 -5.515625 C 18.863281 -6.660156 18.90625 -7.75 18.9375 -8.78125 C 18.96875 -9.820312 18.992188 -10.703125 19.015625 -11.421875 L 6.375 -11.796875 C 6.34375 -11.015625 6.3125 -10.09375 6.28125 -9.03125 C 6.25 -7.976562 6.222656 -6.882812 6.203125 -5.75 C 6.179688 -4.613281 6.160156 -3.523438 6.140625 -2.484375 C 6.117188 -1.453125 6.097656 -0.566406 6.078125 0.171875 L 2.609375 0.078125 C 2.710938 -1.910156 2.804688 -3.914062 2.890625 -5.9375 C 2.984375 -7.96875 3.0625 -9.960938 3.125 -11.921875 C 3.175781 -13.867188 3.21875 -15.851562 3.25 -17.875 C 3.28125 -19.894531 3.300781 -21.910156 3.3125 -23.921875 L 6.78125 -23.828125 C 6.71875 -22.359375 6.65625 -20.738281 6.59375 -18.96875 C 6.53125 -17.207031 6.476562 -15.550781 6.4375 -14 L 19.078125 -13.625 C 19.117188 -15.113281 19.15625 -16.738281 19.1875 -18.5 C 19.21875 -20.269531 19.234375 -21.921875 19.234375 -23.453125 Z M 22.65625 -23.359375 "/></g></g></g><g fill="#000000" fill-opacity="1"><g transform="translate(251.759752, 194.374966)"><g><path d="M 2.609375 0.078125 C 2.648438 -0.609375 2.695312 -1.460938 2.75 -2.484375 C 2.800781 -3.503906 2.851562 -4.582031 2.90625 -5.71875 C 2.957031 -6.851562 3.003906 -7.957031 3.046875 -9.03125 C 3.085938 -10.113281 3.125 -11.066406 3.15625 -11.890625 C 3.175781 -12.722656 3.195312 -13.6875 3.21875 -14.78125 C 3.238281 -15.875 3.253906 -16.988281 3.265625 -18.125 C 3.285156 -19.257812 3.296875 -20.335938 3.296875 -21.359375 C 3.304688 -22.378906 3.3125 -23.234375 3.3125 -23.921875 L 20.390625 -23.421875 L 20.328125 -20.875 L 6.65625 -21.28125 L 6.40625 -13.203125 L 19.265625 -12.90625 L 19.203125 -10.671875 L 6.34375 -11.15625 L 6.09375 -2.375 L 20.03125 -1.953125 L 19.953125 0.59375 Z M 2.609375 0.078125 "/></g></g></g><g fill="#000000" fill-opacity="1"><g transform="translate(273.007174, 195.00162)"><g><path d="M 2.609375 0.078125 C 2.648438 -0.742188 2.695312 -1.664062 2.75 -2.6875 C 2.800781 -3.71875 2.851562 -4.785156 2.90625 -5.890625 C 2.957031 -6.992188 3.003906 -8.0625 3.046875 -9.09375 C 3.085938 -10.132812 3.125 -11.066406 3.15625 -11.890625 C 3.175781 -12.703125 3.195312 -13.640625 3.21875 -14.703125 C 3.238281 -15.765625 3.253906 -16.851562 3.265625 -17.96875 C 3.273438 -19.082031 3.285156 -20.160156 3.296875 -21.203125 C 3.304688 -22.242188 3.3125 -23.148438 3.3125 -23.921875 L 12.765625 -23.640625 C 14.816406 -23.578125 16.519531 -23.34375 17.875 -22.9375 C 19.238281 -22.539062 20.257812 -21.859375 20.9375 -20.890625 C 21.613281 -19.929688 21.925781 -18.601562 21.875 -16.90625 C 21.8125 -14.707031 21.160156 -13.117188 19.921875 -12.140625 C 18.679688 -11.171875 17.019531 -10.691406 14.9375 -10.703125 L 14.921875 -10.328125 C 16.660156 -10.160156 17.984375 -9.660156 18.890625 -8.828125 C 19.796875 -8.003906 20.484375 -6.695312 20.953125 -4.90625 C 21.066406 -4.507812 21.21875 -3.953125 21.40625 -3.234375 C 21.59375 -2.515625 21.789062 -1.796875 22 -1.078125 C 22.21875 -0.359375 22.394531 0.222656 22.53125 0.671875 L 18.96875 0.5625 C 18.851562 0.09375 18.707031 -0.476562 18.53125 -1.15625 C 18.351562 -1.832031 18.179688 -2.507812 18.015625 -3.1875 C 17.847656 -3.863281 17.707031 -4.445312 17.59375 -4.9375 C 17.269531 -5.96875 16.890625 -6.828125 16.453125 -7.515625 C 16.023438 -8.203125 15.460938 -8.722656 14.765625 -9.078125 C 14.078125 -9.441406 13.179688 -9.640625 12.078125 -9.671875 L 6.3125 -9.84375 C 6.28125 -8.789062 6.242188 -7.679688 6.203125 -6.515625 C 6.171875 -5.347656 6.132812 -4.1875 6.09375 -3.03125 C 6.050781 -1.882812 6.015625 -0.816406 5.984375 0.171875 Z M 6.328125 -11.703125 L 11.90625 -11.53125 C 14.25 -11.46875 15.914062 -11.828125 16.90625 -12.609375 C 17.894531 -13.398438 18.414062 -14.625 18.46875 -16.28125 C 18.5 -17.550781 18.300781 -18.539062 17.875 -19.25 C 17.445312 -19.957031 16.765625 -20.457031 15.828125 -20.75 C 14.898438 -21.050781 13.710938 -21.222656 12.265625 -21.265625 L 6.625 -21.4375 L 6.375 -13.234375 C 6.375 -12.984375 6.367188 -12.726562 6.359375 -12.46875 C 6.347656 -12.207031 6.335938 -11.953125 6.328125 -11.703125 Z M 6.328125 -11.703125 "/></g></g></g><g fill="#000000" fill-opacity="1"><g transform="translate(296.83576, 195.7044)"><g><path d="M 2.609375 0.078125 C 2.648438 -0.609375 2.695312 -1.460938 2.75 -2.484375 C 2.800781 -3.503906 2.851562 -4.582031 2.90625 -5.71875 C 2.957031 -6.851562 3.003906 -7.957031 3.046875 -9.03125 C 3.085938 -10.113281 3.125 -11.066406 3.15625 -11.890625 C 3.175781 -12.722656 3.195312 -13.6875 3.21875 -14.78125 C 3.238281 -15.875 3.253906 -16.988281 3.265625 -18.125 C 3.285156 -19.257812 3.296875 -20.335938 3.296875 -21.359375 C 3.304688 -22.378906 3.3125 -23.234375 3.3125 -23.921875 L 20.390625 -23.421875 L 20.328125 -20.875 L 6.65625 -21.28125 L 6.40625 -13.203125 L 19.265625 -12.90625 L 19.203125 -10.671875 L 6.34375 -11.15625 L 6.09375 -2.375 L 20.03125 -1.953125 L 19.953125 0.59375 Z M 2.609375 0.078125 "/></g></g></g><g fill="#000000" fill-opacity="1"><g transform="translate(115.238319, 255.353274)"><g><path d="M 7.5 0.21875 C 7.601562 -1.769531 7.6875 -3.757812 7.75 -5.75 C 7.820312 -7.75 7.882812 -9.71875 7.9375 -11.65625 C 7.988281 -13.269531 8.03125 -14.894531 8.0625 -16.53125 C 8.101562 -18.175781 8.140625 -19.742188 8.171875 -21.234375 C 7.035156 -21.265625 5.796875 -21.296875 4.453125 -21.328125 C 3.117188 -21.359375 1.820312 -21.378906 0.5625 -21.390625 L 0.640625 -24 L 19.203125 -23.453125 L 19.125 -20.84375 C 17.894531 -20.90625 16.617188 -20.957031 15.296875 -21 C 13.984375 -21.050781 12.738281 -21.09375 11.5625 -21.125 C 11.507812 -20.207031 11.457031 -19.160156 11.40625 -17.984375 C 11.363281 -16.804688 11.320312 -15.628906 11.28125 -14.453125 C 11.238281 -13.273438 11.203125 -12.238281 11.171875 -11.34375 C 11.054688 -7.414062 10.972656 -3.523438 10.921875 0.328125 Z M 7.5 0.21875 "/></g></g></g><g fill="#000000" fill-opacity="1"><g transform="translate(133.684228, 255.897302)"><g><path d="M 2.609375 0.078125 C 2.648438 -0.609375 2.695312 -1.460938 2.75 -2.484375 C 2.800781 -3.503906 2.851562 -4.582031 2.90625 -5.71875 C 2.957031 -6.851562 3.003906 -7.957031 3.046875 -9.03125 C 3.085938 -10.113281 3.125 -11.066406 3.15625 -11.890625 C 3.175781 -12.722656 3.195312 -13.6875 3.21875 -14.78125 C 3.238281 -15.875 3.253906 -16.988281 3.265625 -18.125 C 3.285156 -19.257812 3.296875 -20.335938 3.296875 -21.359375 C 3.304688 -22.378906 3.3125 -23.234375 3.3125 -23.921875 L 20.390625 -23.421875 L 20.328125 -20.875 L 6.65625 -21.28125 L 6.40625 -13.203125 L 19.265625 -12.90625 L 19.203125 -10.671875 L 6.34375 -11.15625 L 6.09375 -2.375 L 20.03125 -1.953125 L 19.953125 0.59375 Z M 2.609375 0.078125 "/></g></g></g><g fill="#000000" fill-opacity="1"><g transform="translate(154.93165, 256.523956)"><g><path d="M 0.5 0.015625 C 1.445312 -1.421875 2.546875 -3.039062 3.796875 -4.84375 C 5.054688 -6.65625 6.304688 -8.484375 7.546875 -10.328125 C 7.753906 -10.660156 8.113281 -11.007812 8.625 -11.375 C 9.132812 -11.738281 9.675781 -11.910156 10.25 -11.890625 L 10.265625 -12.234375 C 9.671875 -12.253906 9.140625 -12.429688 8.671875 -12.765625 C 8.210938 -13.109375 7.894531 -13.484375 7.71875 -13.890625 C 6.71875 -15.640625 5.707031 -17.378906 4.6875 -19.109375 C 3.664062 -20.847656 2.726562 -22.46875 1.875 -23.96875 L 5.609375 -23.859375 L 11.59375 -13.046875 L 12.203125 -13.03125 L 18.765625 -23.46875 L 22.53125 -23.359375 C 21.613281 -21.890625 20.601562 -20.332031 19.5 -18.6875 C 18.394531 -17.050781 17.28125 -15.378906 16.15625 -13.671875 C 15.925781 -13.234375 15.582031 -12.867188 15.125 -12.578125 C 14.675781 -12.285156 14.144531 -12.140625 13.53125 -12.140625 L 13.515625 -11.796875 C 14.085938 -11.785156 14.617188 -11.585938 15.109375 -11.203125 C 15.597656 -10.816406 15.925781 -10.398438 16.09375 -9.953125 C 16.800781 -8.796875 17.546875 -7.550781 18.328125 -6.21875 C 19.117188 -4.894531 19.878906 -3.625 20.609375 -2.40625 C 21.335938 -1.195312 21.96875 -0.175781 22.5 0.65625 L 18.75 0.546875 L 12.140625 -10.859375 L 11.53125 -10.875 L 4.25 0.125 Z M 0.5 0.015625 "/></g></g></g><g fill="#000000" fill-opacity="1"><g transform="translate(177.941822, 257.202599)"><g><path d="M 7.5 0.21875 C 7.601562 -1.769531 7.6875 -3.757812 7.75 -5.75 C 7.820312 -7.75 7.882812 -9.71875 7.9375 -11.65625 C 7.988281 -13.269531 8.03125 -14.894531 8.0625 -16.53125 C 8.101562 -18.175781 8.140625 -19.742188 8.171875 -21.234375 C 7.035156 -21.265625 5.796875 -21.296875 4.453125 -21.328125 C 3.117188 -21.359375 1.820312 -21.378906 0.5625 -21.390625 L 0.640625 -24 L 19.203125 -23.453125 L 19.125 -20.84375 C 17.894531 -20.90625 16.617188 -20.957031 15.296875 -21 C 13.984375 -21.050781 12.738281 -21.09375 11.5625 -21.125 C 11.507812 -20.207031 11.457031 -19.160156 11.40625 -17.984375 C 11.363281 -16.804688 11.320312 -15.628906 11.28125 -14.453125 C 11.238281 -13.273438 11.203125 -12.238281 11.171875 -11.34375 C 11.054688 -7.414062 10.972656 -3.523438 10.921875 0.328125 Z M 7.5 0.21875 "/></g></g></g><g fill="#000000" fill-opacity="1"><g transform="translate(196.387731, 257.746627)"><g/></g></g><g fill="#000000" fill-opacity="1"><g transform="translate(203.942373, 257.969438)"><g><path d="M 22.65625 -23.359375 C 22.613281 -22.441406 22.5625 -21.3125 22.5 -19.96875 C 22.4375 -18.625 22.382812 -17.203125 22.34375 -15.703125 C 22.300781 -14.210938 22.257812 -12.765625 22.21875 -11.359375 C 22.1875 -10.410156 22.15625 -9.382812 22.125 -8.28125 C 22.09375 -7.175781 22.0625 -6.070312 22.03125 -4.96875 C 22.007812 -3.875 21.988281 -2.835938 21.96875 -1.859375 C 21.957031 -0.878906 21.953125 -0.046875 21.953125 0.640625 L 18.53125 0.546875 C 18.570312 -0.234375 18.617188 -1.148438 18.671875 -2.203125 C 18.722656 -3.265625 18.769531 -4.367188 18.8125 -5.515625 C 18.863281 -6.660156 18.90625 -7.75 18.9375 -8.78125 C 18.96875 -9.820312 18.992188 -10.703125 19.015625 -11.421875 L 6.375 -11.796875 C 6.34375 -11.015625 6.3125 -10.09375 6.28125 -9.03125 C 6.25 -7.976562 6.222656 -6.882812 6.203125 -5.75 C 6.179688 -4.613281 6.160156 -3.523438 6.140625 -2.484375 C 6.117188 -1.453125 6.097656 -0.566406 6.078125 0.171875 L 2.609375 0.078125 C 2.710938 -1.910156 2.804688 -3.914062 2.890625 -5.9375 C 2.984375 -7.96875 3.0625 -9.960938 3.125 -11.921875 C 3.175781 -13.867188 3.21875 -15.851562 3.25 -17.875 C 3.28125 -19.894531 3.300781 -21.910156 3.3125 -23.921875 L 6.78125 -23.828125 C 6.71875 -22.359375 6.65625 -20.738281 6.59375 -18.96875 C 6.53125 -17.207031 6.476562 -15.550781 6.4375 -14 L 19.078125 -13.625 C 19.117188 -15.113281 19.15625 -16.738281 19.1875 -18.5 C 19.21875 -20.269531 19.234375 -21.921875 19.234375 -23.453125 Z M 22.65625 -23.359375 "/></g></g></g><g fill="#000000" fill-opacity="1"><g transform="translate(228.526431, 258.6945)"><g><path d="M 2.609375 0.078125 C 2.648438 -0.609375 2.695312 -1.460938 2.75 -2.484375 C 2.800781 -3.503906 2.851562 -4.582031 2.90625 -5.71875 C 2.957031 -6.851562 3.003906 -7.957031 3.046875 -9.03125 C 3.085938 -10.113281 3.125 -11.066406 3.15625 -11.890625 C 3.175781 -12.722656 3.195312 -13.6875 3.21875 -14.78125 C 3.238281 -15.875 3.253906 -16.988281 3.265625 -18.125 C 3.285156 -19.257812 3.296875 -20.335938 3.296875 -21.359375 C 3.304688 -22.378906 3.3125 -23.234375 3.3125 -23.921875 L 20.390625 -23.421875 L 20.328125 -20.875 L 6.65625 -21.28125 L 6.40625 -13.203125 L 19.265625 -12.90625 L 19.203125 -10.671875 L 6.34375 -11.15625 L 6.09375 -2.375 L 20.03125 -1.953125 L 19.953125 0.59375 Z M 2.609375 0.078125 "/></g></g></g><g fill="#000000" fill-opacity="1"><g transform="translate(249.773853, 259.321153)"><g><path d="M 2.609375 0.078125 C 2.648438 -0.742188 2.695312 -1.664062 2.75 -2.6875 C 2.800781 -3.71875 2.851562 -4.785156 2.90625 -5.890625 C 2.957031 -6.992188 3.003906 -8.0625 3.046875 -9.09375 C 3.085938 -10.132812 3.125 -11.066406 3.15625 -11.890625 C 3.175781 -12.703125 3.195312 -13.640625 3.21875 -14.703125 C 3.238281 -15.765625 3.253906 -16.851562 3.265625 -17.96875 C 3.273438 -19.082031 3.285156 -20.160156 3.296875 -21.203125 C 3.304688 -22.242188 3.3125 -23.148438 3.3125 -23.921875 L 12.765625 -23.640625 C 14.816406 -23.578125 16.519531 -23.34375 17.875 -22.9375 C 19.238281 -22.539062 20.257812 -21.859375 20.9375 -20.890625 C 21.613281 -19.929688 21.925781 -18.601562 21.875 -16.90625 C 21.8125 -14.707031 21.160156 -13.117188 19.921875 -12.140625 C 18.679688 -11.171875 17.019531 -10.691406 14.9375 -10.703125 L 14.921875 -10.328125 C 16.660156 -10.160156 17.984375 -9.660156 18.890625 -8.828125 C 19.796875 -8.003906 20.484375 -6.695312 20.953125 -4.90625 C 21.066406 -4.507812 21.21875 -3.953125 21.40625 -3.234375 C 21.59375 -2.515625 21.789062 -1.796875 22 -1.078125 C 22.21875 -0.359375 22.394531 0.222656 22.53125 0.671875 L 18.96875 0.5625 C 18.851562 0.09375 18.707031 -0.476562 18.53125 -1.15625 C 18.351562 -1.832031 18.179688 -2.507812 18.015625 -3.1875 C 17.847656 -3.863281 17.707031 -4.445312 17.59375 -4.9375 C 17.269531 -5.96875 16.890625 -6.828125 16.453125 -7.515625 C 16.023438 -8.203125 15.460938 -8.722656 14.765625 -9.078125 C 14.078125 -9.441406 13.179688 -9.640625 12.078125 -9.671875 L 6.3125 -9.84375 C 6.28125 -8.789062 6.242188 -7.679688 6.203125 -6.515625 C 6.171875 -5.347656 6.132812 -4.1875 6.09375 -3.03125 C 6.050781 -1.882812 6.015625 -0.816406 5.984375 0.171875 Z M 6.328125 -11.703125 L 11.90625 -11.53125 C 14.25 -11.46875 15.914062 -11.828125 16.90625 -12.609375 C 17.894531 -13.398438 18.414062 -14.625 18.46875 -16.28125 C 18.5 -17.550781 18.300781 -18.539062 17.875 -19.25 C 17.445312 -19.957031 16.765625 -20.457031 15.828125 -20.75 C 14.898438 -21.050781 13.710938 -21.222656 12.265625 -21.265625 L 6.625 -21.4375 L 6.375 -13.234375 C 6.375 -12.984375 6.367188 -12.726562 6.359375 -12.46875 C 6.347656 -12.207031 6.335938 -11.953125 6.328125 -11.703125 Z M 6.328125 -11.703125 "/></g></g></g><g fill="#000000" fill-opacity="1"><g transform="translate(273.60244, 260.023934)"><g><path d="M 2.609375 0.078125 C 2.648438 -0.609375 2.695312 -1.460938 2.75 -2.484375 C 2.800781 -3.503906 2.851562 -4.582031 2.90625 -5.71875 C 2.957031 -6.851562 3.003906 -7.957031 3.046875 -9.03125 C 3.085938 -10.113281 3.125 -11.066406 3.15625 -11.890625 C 3.175781 -12.722656 3.195312 -13.6875 3.21875 -14.78125 C 3.238281 -15.875 3.253906 -16.988281 3.265625 -18.125 C 3.285156 -19.257812 3.296875 -20.335938 3.296875 -21.359375 C 3.304688 -22.378906 3.3125 -23.234375 3.3125 -23.921875 L 20.390625 -23.421875 L 20.328125 -20.875 L 6.65625 -21.28125 L 6.40625 -13.203125 L 19.265625 -12.90625 L 19.203125 -10.671875 L 6.34375 -11.15625 L 6.09375 -2.375 L 20.03125 -1.953125 L 19.953125 0.59375 Z M 2.609375 0.078125 "/></g></g></g></svg>