<svg xmlns="http://www.w3.org/2000/svg" xmlns:xlink="http://www.w3.org/1999/xlink" width="580" zoomAndPan="magnify" viewBox="0 0 434.88 434.999989" height="580" preserveAspectRatio="xMidYMid meet" version="1.0"><defs><clipPath id="437f19e1e8"><path d="M 293.253906 138.230469 L 326 138.230469 L 326 238.589844 L 293.253906 238.589844 Z M 293.253906 138.230469 " clip-rule="nonzero"/></clipPath><clipPath id="24b7c25951"><path d="M 293.726562 138.589844 C 300.480469 159.148438 305.769531 176.890625 307.902344 215.453125 C 308.347656 223.488281 308.203125 231.171875 307.902344 238.453125 L 325.9375 238.453125 L 325.9375 138.589844 Z M 293.726562 138.589844 " clip-rule="nonzero"/></clipPath><clipPath id="b413e70380"><path d="M 0.679688 0.5 L 33 0.5 L 33 100.554688 L 0.679688 100.554688 Z M 0.679688 0.5 " clip-rule="nonzero"/></clipPath><clipPath id="8d4f54d222"><path d="M 0.726562 0.589844 C 7.480469 21.148438 12.769531 38.890625 14.902344 77.453125 C 15.347656 85.488281 15.203125 93.171875 14.902344 100.453125 L 32.9375 100.453125 L 32.9375 0.589844 Z M 0.726562 0.589844 " clip-rule="nonzero"/></clipPath><clipPath id="8c8974e23d"><rect x="0" width="33" y="0" height="101"/></clipPath><clipPath id="c6ca8b2e92"><path d="M 200.613281 138.230469 L 233 138.230469 L 233 238.589844 L 200.613281 238.589844 Z M 200.613281 138.230469 " clip-rule="nonzero"/></clipPath><clipPath id="013d7cc0f3"><path d="M 214.878906 215.453125 C 215.324219 223.488281 215.175781 231.171875 214.878906 238.460938 L 232.910156 238.460938 L 232.910156 138.589844 L 200.699219 138.589844 C 207.449219 159.148438 212.746094 176.890625 214.878906 215.453125 " clip-rule="nonzero"/></clipPath><clipPath id="21f6c00414"><path d="M 0.613281 0.5 L 32.976562 0.5 L 32.976562 100.554688 L 0.613281 100.554688 Z M 0.613281 0.5 " clip-rule="nonzero"/></clipPath><clipPath id="3a39dea7b4"><path d="M 14.878906 77.453125 C 15.324219 85.488281 15.175781 93.171875 14.878906 100.460938 L 32.910156 100.460938 L 32.910156 0.589844 L 0.699219 0.589844 C 7.449219 21.148438 12.746094 38.890625 14.878906 77.453125 " clip-rule="nonzero"/></clipPath><clipPath id="855ae59686"><rect x="0" width="33" y="0" height="101"/></clipPath><clipPath id="fa8d64c2ca"><path d="M 206.128906 187.304688 L 262.925781 187.304688 L 262.925781 258.441406 L 206.128906 258.441406 Z M 206.128906 187.304688 " clip-rule="nonzero"/></clipPath><clipPath id="78fa84756f"><path d="M 206.390625 258.199219 C 214.625 255.667969 223.425781 253.207031 230.917969 248.503906 C 248.261719 237.601562 245.96875 210.328125 243.050781 191.972656 C 242.753906 190.085938 242.480469 188.542969 242.199219 187.3125 L 256.285156 187.3125 L 257.664062 191.628906 C 264.070312 211.703125 264.070312 233.816406 257.664062 253.890625 L 256.285156 258.207031 Z M 206.390625 258.199219 " clip-rule="nonzero"/></clipPath><clipPath id="ceee0a1c41"><path d="M 0.34375 0.304688 L 56.925781 0.304688 L 56.925781 71.230469 L 0.34375 71.230469 Z M 0.34375 0.304688 " clip-rule="nonzero"/></clipPath><clipPath id="a28958c286"><path d="M 0.390625 71.199219 C 8.625 68.667969 17.425781 66.207031 24.917969 61.503906 C 42.261719 50.601562 39.96875 23.328125 37.050781 4.972656 C 36.753906 3.085938 36.480469 1.542969 36.199219 0.3125 L 50.285156 0.3125 L 51.664062 4.628906 C 58.070312 24.703125 58.070312 46.816406 51.664062 66.890625 L 50.285156 71.207031 Z M 0.390625 71.199219 " clip-rule="nonzero"/></clipPath><clipPath id="9ba71c4653"><rect x="0" width="57" y="0" height="72"/></clipPath><clipPath id="9dee8cb572"><path d="M 300.421875 248 L 326 248 L 326 272.777344 L 300.421875 272.777344 Z M 300.421875 248 " clip-rule="nonzero"/></clipPath><clipPath id="78361e232a"><path d="M 323.179688 249.425781 L 316.132812 249.425781 C 310.699219 249.425781 306.289062 254.285156 306.289062 260.261719 C 306.289062 260.773438 306.335938 261.273438 306.398438 261.765625 L 300.789062 261.765625 L 300.789062 272.414062 L 303.546875 272.414062 L 303.546875 271.09375 L 325.9375 271.09375 L 325.9375 260.445312 L 323.179688 260.445312 L 323.179688 261.765625 L 316.132812 261.765625 C 315.378906 261.765625 314.765625 261.089844 314.765625 260.261719 C 314.765625 259.4375 315.378906 258.765625 316.132812 258.765625 L 325.9375 258.765625 L 325.9375 248.097656 L 323.179688 248.097656 Z M 323.179688 249.425781 " clip-rule="nonzero"/></clipPath><clipPath id="c9f3e523b9"><path d="M 0.636719 0 L 26 0 L 26 24.625 L 0.636719 24.625 Z M 0.636719 0 " clip-rule="nonzero"/></clipPath><clipPath id="334e904335"><path d="M 23.179688 1.425781 L 16.132812 1.425781 C 10.699219 1.425781 6.289062 6.285156 6.289062 12.261719 C 6.289062 12.773438 6.335938 13.273438 6.398438 13.765625 L 0.789062 13.765625 L 0.789062 24.414062 L 3.546875 24.414062 L 3.546875 23.09375 L 25.9375 23.09375 L 25.9375 12.445312 L 23.179688 12.445312 L 23.179688 13.765625 L 16.132812 13.765625 C 15.378906 13.765625 14.765625 13.089844 14.765625 12.261719 C 14.765625 11.4375 15.378906 10.765625 16.132812 10.765625 L 25.9375 10.765625 L 25.9375 0.0976562 L 23.179688 0.0976562 Z M 23.179688 1.425781 " clip-rule="nonzero"/></clipPath><clipPath id="eb6157695a"><rect x="0" width="26" y="0" height="25"/></clipPath><clipPath id="8428380fc8"><path d="M 87.570312 158.082031 L 202.820312 158.082031 L 202.820312 258.441406 L 87.570312 258.441406 Z M 87.570312 158.082031 " clip-rule="nonzero"/></clipPath><clipPath id="fa54741659"><path d="M 174.222656 158.328125 C 174.222656 158.328125 181.1875 181.492188 183.023438 191.933594 C 184.683594 201.34375 185.46875 210.988281 184.550781 220.554688 C 184.21875 224.03125 184.0625 228.105469 182.417969 231.277344 C 179.867188 236.195312 174.875 238.511719 170.011719 239.277344 C 161.140625 240.679688 128.980469 239.175781 121.769531 238.328125 C 104.960938 236.371094 92.164062 220.691406 87.59375 214.535156 L 87.59375 258.191406 L 202.578125 258.191406 L 202.578125 158.328125 Z M 174.222656 158.328125 " clip-rule="nonzero"/></clipPath><clipPath id="e515be320a"><path d="M 0.574219 0.175781 L 115.742188 0.175781 L 115.742188 100.230469 L 0.574219 100.230469 Z M 0.574219 0.175781 " clip-rule="nonzero"/></clipPath><clipPath id="e38d458f08"><path d="M 87.222656 0.328125 C 87.222656 0.328125 94.1875 23.492188 96.023438 33.933594 C 97.683594 43.34375 98.46875 52.988281 97.550781 62.554688 C 97.21875 66.03125 97.0625 70.105469 95.417969 73.277344 C 92.867188 78.195312 87.875 80.511719 83.011719 81.277344 C 74.140625 82.679688 41.980469 81.175781 34.769531 80.328125 C 17.960938 78.371094 5.164062 62.691406 0.59375 56.535156 L 0.59375 100.191406 L 115.578125 100.191406 L 115.578125 0.328125 Z M 87.222656 0.328125 " clip-rule="nonzero"/></clipPath><clipPath id="35a3ae3604"><rect x="0" width="116" y="0" height="101"/></clipPath><clipPath id="a12f21d68c"><path d="M 112 183 L 156.5 183 L 156.5 223 L 112 223 Z M 112 183 " clip-rule="nonzero"/></clipPath><clipPath id="81dd459f6f"><path d="M 150.664062 183.332031 L 150.664062 185.25 L 135.429688 185.25 C 130.039062 185.25 125.648438 190.050781 125.59375 195.964844 L 125.59375 196.992188 C 125.648438 202.914062 130.046875 207.707031 135.429688 207.707031 L 136.386719 207.707031 L 145.234375 207.714844 L 146.195312 207.714844 C 146.929688 207.714844 147.535156 208.355469 147.5625 209.15625 L 147.5625 210.078125 C 147.535156 210.871094 146.929688 211.519531 146.195312 211.519531 L 112.117188 211.519531 L 112.117188 222.953125 L 117.492188 222.953125 L 117.492188 220.855469 L 146.207031 220.855469 C 151.597656 220.855469 155.988281 216.054688 156.042969 210.136719 L 156.042969 209.109375 C 155.988281 203.1875 151.597656 198.394531 146.207031 198.394531 L 145.242188 198.394531 L 136.394531 198.386719 L 135.429688 198.386719 C 134.695312 198.386719 134.089844 197.75 134.0625 196.949219 L 134.0625 196.015625 C 134.089844 195.222656 134.695312 194.578125 135.429688 194.578125 L 156.035156 194.578125 L 156.035156 183.332031 Z M 150.664062 183.332031 " clip-rule="nonzero"/></clipPath><clipPath id="1ac3b8c7db"><path d="M 0.0507812 0.128906 L 44.195312 0.128906 L 44.195312 39.957031 L 0.0507812 39.957031 Z M 0.0507812 0.128906 " clip-rule="nonzero"/></clipPath><clipPath id="5a6ff5cbba"><path d="M 38.664062 0.332031 L 38.664062 2.25 L 23.429688 2.25 C 18.039062 2.25 13.648438 7.050781 13.59375 12.964844 L 13.59375 13.992188 C 13.648438 19.914062 18.046875 24.707031 23.429688 24.707031 L 24.386719 24.707031 L 33.234375 24.714844 L 34.195312 24.714844 C 34.929688 24.714844 35.535156 25.355469 35.5625 26.15625 L 35.5625 27.078125 C 35.535156 27.871094 34.929688 28.519531 34.195312 28.519531 L 0.117188 28.519531 L 0.117188 39.953125 L 5.492188 39.953125 L 5.492188 37.855469 L 34.207031 37.855469 C 39.597656 37.855469 43.988281 33.054688 44.042969 27.136719 L 44.042969 26.109375 C 43.988281 20.1875 39.597656 15.394531 34.207031 15.394531 L 33.242188 15.394531 L 24.394531 15.386719 L 23.429688 15.386719 C 22.695312 15.386719 22.089844 14.75 22.0625 13.949219 L 22.0625 13.015625 C 22.089844 12.222656 22.695312 11.578125 23.429688 11.578125 L 44.035156 11.578125 L 44.035156 0.332031 Z M 38.664062 0.332031 " clip-rule="nonzero"/></clipPath><clipPath id="2fc07b3987"><rect x="0" width="45" y="0" height="40"/></clipPath><clipPath id="9262d6813f"><path d="M 264.027344 196 L 296.5625 196 L 296.5625 258.441406 L 264.027344 258.441406 Z M 264.027344 196 " clip-rule="nonzero"/></clipPath><clipPath id="888ed38b04"><path d="M 264.179688 258.199219 C 265.371094 256.898438 266.828125 255.21875 268.621094 253.046875 C 273.886719 246.675781 277.289062 240.921875 279.347656 234.933594 C 280.972656 230.199219 281.234375 225.542969 280.128906 221.109375 C 277.894531 212.15625 273.464844 204.15625 270.328125 198.921875 C 269.648438 197.785156 269.046875 196.832031 268.507812 196.023438 L 296.265625 196.023438 L 296.265625 258.199219 Z M 264.179688 258.199219 " clip-rule="nonzero"/></clipPath><clipPath id="2144539543"><path d="M 0.167969 0 L 32.316406 0 L 32.316406 62.230469 L 0.167969 62.230469 Z M 0.167969 0 " clip-rule="nonzero"/></clipPath><clipPath id="c107f3f46d"><path d="M 0.179688 62.199219 C 1.371094 60.898438 2.828125 59.21875 4.621094 57.046875 C 9.886719 50.675781 13.289062 44.921875 15.347656 38.933594 C 16.972656 34.199219 17.234375 29.542969 16.128906 25.109375 C 13.894531 16.15625 9.464844 8.15625 6.328125 2.921875 C 5.648438 1.785156 5.046875 0.832031 4.507812 0.0234375 L 32.265625 0.0234375 L 32.265625 62.199219 Z M 0.179688 62.199219 " clip-rule="nonzero"/></clipPath><clipPath id="0b3ae1890b"><rect x="0" width="33" y="0" height="63"/></clipPath></defs><g clip-path="url(#437f19e1e8)"><g clip-path="url(#24b7c25951)"><g transform="matrix(1, 0, 0, 1, 293, 138)"><g clip-path="url(#8c8974e23d)"><g clip-path="url(#b413e70380)"><g clip-path="url(#8d4f54d222)"><rect x="-388.6736" width="626.2272" fill="#181717" height="626.399984" y="-233.699998" fill-opacity="1"/></g></g></g></g></g></g><g clip-path="url(#c6ca8b2e92)"><g clip-path="url(#013d7cc0f3)"><g transform="matrix(1, 0, 0, 1, 200, 138)"><g clip-path="url(#855ae59686)"><g clip-path="url(#21f6c00414)"><g clip-path="url(#3a39dea7b4)"><rect x="-295.6736" width="626.2272" fill="#181717" height="626.399984" y="-233.699998" fill-opacity="1"/></g></g></g></g></g></g><g clip-path="url(#fa8d64c2ca)"><g clip-path="url(#78fa84756f)"><g transform="matrix(1, 0, 0, 1, 206, 187)"><g clip-path="url(#9ba71c4653)"><g clip-path="url(#ceee0a1c41)"><g clip-path="url(#a28958c286)"><rect x="-301.6736" width="626.2272" fill="#181717" height="626.399984" y="-282.699998" fill-opacity="1"/></g></g></g></g></g></g><g clip-path="url(#9dee8cb572)"><g clip-path="url(#78361e232a)"><g transform="matrix(1, 0, 0, 1, 300, 248)"><g clip-path="url(#eb6157695a)"><g clip-path="url(#c9f3e523b9)"><g clip-path="url(#334e904335)"><rect x="-395.6736" width="626.2272" fill="#181717" height="626.399984" y="-343.699998" fill-opacity="1"/></g></g></g></g></g></g><g clip-path="url(#8428380fc8)"><g clip-path="url(#fa54741659)"><g transform="matrix(1, 0, 0, 1, 87, 158)"><g clip-path="url(#35a3ae3604)"><g clip-path="url(#e515be320a)"><g clip-path="url(#e38d458f08)"><rect x="-182.6736" width="626.2272" fill="#181717" height="626.399984" y="-253.699998" fill-opacity="1"/></g></g></g></g></g></g><g clip-path="url(#a12f21d68c)"><g clip-path="url(#81dd459f6f)"><g transform="matrix(1, 0, 0, 1, 112, 183)"><g clip-path="url(#2fc07b3987)"><g clip-path="url(#1ac3b8c7db)"><g clip-path="url(#5a6ff5cbba)"><rect x="-207.6736" width="626.2272" fill="#181717" height="626.399984" y="-278.699998" fill-opacity="1"/></g></g></g></g></g></g><g clip-path="url(#9262d6813f)"><g clip-path="url(#888ed38b04)"><g transform="matrix(1, 0, 0, 1, 264, 196)"><g clip-path="url(#0b3ae1890b)"><g clip-path="url(#2144539543)"><g clip-path="url(#c107f3f46d)"><rect x="-359.6736" width="626.2272" fill="#181717" height="626.399984" y="-291.699998" fill-opacity="1"/></g></g></g></g></g></g></svg>