<svg xmlns="http://www.w3.org/2000/svg" xmlns:xlink="http://www.w3.org/1999/xlink" width="580" zoomAndPan="magnify" viewBox="0 0 434.88 434.999989" height="580" preserveAspectRatio="xMidYMid meet" version="1.0"><defs><g/><clipPath id="f128a5ecba"><path d="M 293.253906 138.230469 L 326 138.230469 L 326 238.589844 L 293.253906 238.589844 Z M 293.253906 138.230469 " clip-rule="nonzero"/></clipPath><clipPath id="4a17997950"><path d="M 293.726562 138.589844 C 300.480469 159.148438 305.769531 176.890625 307.902344 215.453125 C 308.347656 223.488281 308.203125 231.171875 307.902344 238.453125 L 325.9375 238.453125 L 325.9375 138.589844 Z M 293.726562 138.589844 " clip-rule="nonzero"/></clipPath><clipPath id="ccbb5ea41f"><path d="M 0.679688 0.5 L 33 0.5 L 33 100.554688 L 0.679688 100.554688 Z M 0.679688 0.5 " clip-rule="nonzero"/></clipPath><clipPath id="5c83a72b68"><path d="M 0.726562 0.589844 C 7.480469 21.148438 12.769531 38.890625 14.902344 77.453125 C 15.347656 85.488281 15.203125 93.171875 14.902344 100.453125 L 32.9375 100.453125 L 32.9375 0.589844 Z M 0.726562 0.589844 " clip-rule="nonzero"/></clipPath><clipPath id="5b7359bb84"><rect x="0" width="33" y="0" height="101"/></clipPath><clipPath id="90cab45685"><path d="M 200.613281 138.230469 L 233 138.230469 L 233 238.589844 L 200.613281 238.589844 Z M 200.613281 138.230469 " clip-rule="nonzero"/></clipPath><clipPath id="7be9c1cf94"><path d="M 214.878906 215.453125 C 215.324219 223.488281 215.175781 231.171875 214.878906 238.460938 L 232.910156 238.460938 L 232.910156 138.589844 L 200.699219 138.589844 C 207.449219 159.148438 212.746094 176.890625 214.878906 215.453125 " clip-rule="nonzero"/></clipPath><clipPath id="637fd842a5"><path d="M 0.613281 0.5 L 32.976562 0.5 L 32.976562 100.554688 L 0.613281 100.554688 Z M 0.613281 0.5 " clip-rule="nonzero"/></clipPath><clipPath id="ebf70c080a"><path d="M 14.878906 77.453125 C 15.324219 85.488281 15.175781 93.171875 14.878906 100.460938 L 32.910156 100.460938 L 32.910156 0.589844 L 0.699219 0.589844 C 7.449219 21.148438 12.746094 38.890625 14.878906 77.453125 " clip-rule="nonzero"/></clipPath><clipPath id="946f64d820"><rect x="0" width="33" y="0" height="101"/></clipPath><clipPath id="0b29cdb2c3"><path d="M 206.128906 187.304688 L 262.925781 187.304688 L 262.925781 258.441406 L 206.128906 258.441406 Z M 206.128906 187.304688 " clip-rule="nonzero"/></clipPath><clipPath id="1a3069cdf5"><path d="M 206.390625 258.199219 C 214.625 255.667969 223.425781 253.207031 230.917969 248.503906 C 248.261719 237.601562 245.96875 210.328125 243.050781 191.972656 C 242.753906 190.085938 242.480469 188.542969 242.199219 187.3125 L 256.285156 187.3125 L 257.664062 191.628906 C 264.070312 211.703125 264.070312 233.816406 257.664062 253.890625 L 256.285156 258.207031 Z M 206.390625 258.199219 " clip-rule="nonzero"/></clipPath><clipPath id="cf241ffd23"><path d="M 0.34375 0.304688 L 56.925781 0.304688 L 56.925781 71.230469 L 0.34375 71.230469 Z M 0.34375 0.304688 " clip-rule="nonzero"/></clipPath><clipPath id="06aa2f07a3"><path d="M 0.390625 71.199219 C 8.625 68.667969 17.425781 66.207031 24.917969 61.503906 C 42.261719 50.601562 39.96875 23.328125 37.050781 4.972656 C 36.753906 3.085938 36.480469 1.542969 36.199219 0.3125 L 50.285156 0.3125 L 51.664062 4.628906 C 58.070312 24.703125 58.070312 46.816406 51.664062 66.890625 L 50.285156 71.207031 Z M 0.390625 71.199219 " clip-rule="nonzero"/></clipPath><clipPath id="7aa24258e8"><rect x="0" width="57" y="0" height="72"/></clipPath><clipPath id="0189ee252b"><path d="M 300.421875 248 L 326 248 L 326 272.777344 L 300.421875 272.777344 Z M 300.421875 248 " clip-rule="nonzero"/></clipPath><clipPath id="e0f00343c6"><path d="M 323.179688 249.425781 L 316.132812 249.425781 C 310.699219 249.425781 306.289062 254.285156 306.289062 260.261719 C 306.289062 260.773438 306.335938 261.273438 306.398438 261.765625 L 300.789062 261.765625 L 300.789062 272.414062 L 303.546875 272.414062 L 303.546875 271.09375 L 325.9375 271.09375 L 325.9375 260.445312 L 323.179688 260.445312 L 323.179688 261.765625 L 316.132812 261.765625 C 315.378906 261.765625 314.765625 261.089844 314.765625 260.261719 C 314.765625 259.4375 315.378906 258.765625 316.132812 258.765625 L 325.9375 258.765625 L 325.9375 248.097656 L 323.179688 248.097656 Z M 323.179688 249.425781 " clip-rule="nonzero"/></clipPath><clipPath id="dbafef7ecb"><path d="M 0.636719 0 L 26 0 L 26 24.625 L 0.636719 24.625 Z M 0.636719 0 " clip-rule="nonzero"/></clipPath><clipPath id="9ccaf070f2"><path d="M 23.179688 1.425781 L 16.132812 1.425781 C 10.699219 1.425781 6.289062 6.285156 6.289062 12.261719 C 6.289062 12.773438 6.335938 13.273438 6.398438 13.765625 L 0.789062 13.765625 L 0.789062 24.414062 L 3.546875 24.414062 L 3.546875 23.09375 L 25.9375 23.09375 L 25.9375 12.445312 L 23.179688 12.445312 L 23.179688 13.765625 L 16.132812 13.765625 C 15.378906 13.765625 14.765625 13.089844 14.765625 12.261719 C 14.765625 11.4375 15.378906 10.765625 16.132812 10.765625 L 25.9375 10.765625 L 25.9375 0.0976562 L 23.179688 0.0976562 Z M 23.179688 1.425781 " clip-rule="nonzero"/></clipPath><clipPath id="bab46b4218"><rect x="0" width="26" y="0" height="25"/></clipPath><clipPath id="c4169b58f9"><path d="M 87.570312 158.082031 L 202.820312 158.082031 L 202.820312 258.441406 L 87.570312 258.441406 Z M 87.570312 158.082031 " clip-rule="nonzero"/></clipPath><clipPath id="8ce36488d2"><path d="M 174.222656 158.328125 C 174.222656 158.328125 181.1875 181.492188 183.023438 191.933594 C 184.683594 201.34375 185.46875 210.988281 184.550781 220.554688 C 184.21875 224.03125 184.0625 228.105469 182.417969 231.277344 C 179.867188 236.195312 174.875 238.511719 170.011719 239.277344 C 161.140625 240.679688 128.980469 239.175781 121.769531 238.328125 C 104.960938 236.371094 92.164062 220.691406 87.59375 214.535156 L 87.59375 258.191406 L 202.578125 258.191406 L 202.578125 158.328125 Z M 174.222656 158.328125 " clip-rule="nonzero"/></clipPath><clipPath id="9e210bd2f0"><path d="M 0.574219 0.175781 L 115.742188 0.175781 L 115.742188 100.230469 L 0.574219 100.230469 Z M 0.574219 0.175781 " clip-rule="nonzero"/></clipPath><clipPath id="bab02d7c4f"><path d="M 87.222656 0.328125 C 87.222656 0.328125 94.1875 23.492188 96.023438 33.933594 C 97.683594 43.34375 98.46875 52.988281 97.550781 62.554688 C 97.21875 66.03125 97.0625 70.105469 95.417969 73.277344 C 92.867188 78.195312 87.875 80.511719 83.011719 81.277344 C 74.140625 82.679688 41.980469 81.175781 34.769531 80.328125 C 17.960938 78.371094 5.164062 62.691406 0.59375 56.535156 L 0.59375 100.191406 L 115.578125 100.191406 L 115.578125 0.328125 Z M 87.222656 0.328125 " clip-rule="nonzero"/></clipPath><clipPath id="fd1fdb3b8b"><rect x="0" width="116" y="0" height="101"/></clipPath><clipPath id="195b971d4e"><path d="M 112 183 L 156.5 183 L 156.5 223 L 112 223 Z M 112 183 " clip-rule="nonzero"/></clipPath><clipPath id="9b48bd301b"><path d="M 150.664062 183.332031 L 150.664062 185.25 L 135.429688 185.25 C 130.039062 185.25 125.648438 190.050781 125.59375 195.964844 L 125.59375 196.992188 C 125.648438 202.914062 130.046875 207.707031 135.429688 207.707031 L 136.386719 207.707031 L 145.234375 207.714844 L 146.195312 207.714844 C 146.929688 207.714844 147.535156 208.355469 147.5625 209.15625 L 147.5625 210.078125 C 147.535156 210.871094 146.929688 211.519531 146.195312 211.519531 L 112.117188 211.519531 L 112.117188 222.953125 L 117.492188 222.953125 L 117.492188 220.855469 L 146.207031 220.855469 C 151.597656 220.855469 155.988281 216.054688 156.042969 210.136719 L 156.042969 209.109375 C 155.988281 203.1875 151.597656 198.394531 146.207031 198.394531 L 145.242188 198.394531 L 136.394531 198.386719 L 135.429688 198.386719 C 134.695312 198.386719 134.089844 197.75 134.0625 196.949219 L 134.0625 196.015625 C 134.089844 195.222656 134.695312 194.578125 135.429688 194.578125 L 156.035156 194.578125 L 156.035156 183.332031 Z M 150.664062 183.332031 " clip-rule="nonzero"/></clipPath><clipPath id="679753ed86"><path d="M 0.0507812 0.128906 L 44.195312 0.128906 L 44.195312 39.957031 L 0.0507812 39.957031 Z M 0.0507812 0.128906 " clip-rule="nonzero"/></clipPath><clipPath id="95679a996a"><path d="M 38.664062 0.332031 L 38.664062 2.25 L 23.429688 2.25 C 18.039062 2.25 13.648438 7.050781 13.59375 12.964844 L 13.59375 13.992188 C 13.648438 19.914062 18.046875 24.707031 23.429688 24.707031 L 24.386719 24.707031 L 33.234375 24.714844 L 34.195312 24.714844 C 34.929688 24.714844 35.535156 25.355469 35.5625 26.15625 L 35.5625 27.078125 C 35.535156 27.871094 34.929688 28.519531 34.195312 28.519531 L 0.117188 28.519531 L 0.117188 39.953125 L 5.492188 39.953125 L 5.492188 37.855469 L 34.207031 37.855469 C 39.597656 37.855469 43.988281 33.054688 44.042969 27.136719 L 44.042969 26.109375 C 43.988281 20.1875 39.597656 15.394531 34.207031 15.394531 L 33.242188 15.394531 L 24.394531 15.386719 L 23.429688 15.386719 C 22.695312 15.386719 22.089844 14.75 22.0625 13.949219 L 22.0625 13.015625 C 22.089844 12.222656 22.695312 11.578125 23.429688 11.578125 L 44.035156 11.578125 L 44.035156 0.332031 Z M 38.664062 0.332031 " clip-rule="nonzero"/></clipPath><clipPath id="b30a1a3d65"><rect x="0" width="45" y="0" height="40"/></clipPath><clipPath id="91e28fe8af"><path d="M 264.027344 196 L 296.5625 196 L 296.5625 258.441406 L 264.027344 258.441406 Z M 264.027344 196 " clip-rule="nonzero"/></clipPath><clipPath id="23a34fd70f"><path d="M 264.179688 258.199219 C 265.371094 256.898438 266.828125 255.21875 268.621094 253.046875 C 273.886719 246.675781 277.289062 240.921875 279.347656 234.933594 C 280.972656 230.199219 281.234375 225.542969 280.128906 221.109375 C 277.894531 212.15625 273.464844 204.15625 270.328125 198.921875 C 269.648438 197.785156 269.046875 196.832031 268.507812 196.023438 L 296.265625 196.023438 L 296.265625 258.199219 Z M 264.179688 258.199219 " clip-rule="nonzero"/></clipPath><clipPath id="27b6a244df"><path d="M 0.167969 0 L 32.316406 0 L 32.316406 62.230469 L 0.167969 62.230469 Z M 0.167969 0 " clip-rule="nonzero"/></clipPath><clipPath id="08ea6f465c"><path d="M 0.179688 62.199219 C 1.371094 60.898438 2.828125 59.21875 4.621094 57.046875 C 9.886719 50.675781 13.289062 44.921875 15.347656 38.933594 C 16.972656 34.199219 17.234375 29.542969 16.128906 25.109375 C 13.894531 16.15625 9.464844 8.15625 6.328125 2.921875 C 5.648438 1.785156 5.046875 0.832031 4.507812 0.0234375 L 32.265625 0.0234375 L 32.265625 62.199219 Z M 0.179688 62.199219 " clip-rule="nonzero"/></clipPath><clipPath id="e33eba4412"><rect x="0" width="33" y="0" height="63"/></clipPath></defs><g clip-path="url(#f128a5ecba)"><g clip-path="url(#4a17997950)"><g transform="matrix(1, 0, 0, 1, 293, 138)"><g clip-path="url(#5b7359bb84)"><g clip-path="url(#ccbb5ea41f)"><g clip-path="url(#5c83a72b68)"><rect x="-388.6736" width="626.2272" fill="#181717" height="626.399984" y="-233.699998" fill-opacity="1"/></g></g></g></g></g></g><g clip-path="url(#90cab45685)"><g clip-path="url(#7be9c1cf94)"><g transform="matrix(1, 0, 0, 1, 200, 138)"><g clip-path="url(#946f64d820)"><g clip-path="url(#637fd842a5)"><g clip-path="url(#ebf70c080a)"><rect x="-295.6736" width="626.2272" fill="#181717" height="626.399984" y="-233.699998" fill-opacity="1"/></g></g></g></g></g></g><g clip-path="url(#0b29cdb2c3)"><g clip-path="url(#1a3069cdf5)"><g transform="matrix(1, 0, 0, 1, 206, 187)"><g clip-path="url(#7aa24258e8)"><g clip-path="url(#cf241ffd23)"><g clip-path="url(#06aa2f07a3)"><rect x="-301.6736" width="626.2272" fill="#181717" height="626.399984" y="-282.699998" fill-opacity="1"/></g></g></g></g></g></g><g clip-path="url(#0189ee252b)"><g clip-path="url(#e0f00343c6)"><g transform="matrix(1, 0, 0, 1, 300, 248)"><g clip-path="url(#bab46b4218)"><g clip-path="url(#dbafef7ecb)"><g clip-path="url(#9ccaf070f2)"><rect x="-395.6736" width="626.2272" fill="#181717" height="626.399984" y="-343.699998" fill-opacity="1"/></g></g></g></g></g></g><g clip-path="url(#c4169b58f9)"><g clip-path="url(#8ce36488d2)"><g transform="matrix(1, 0, 0, 1, 87, 158)"><g clip-path="url(#fd1fdb3b8b)"><g clip-path="url(#9e210bd2f0)"><g clip-path="url(#bab02d7c4f)"><rect x="-182.6736" width="626.2272" fill="#181717" height="626.399984" y="-253.699998" fill-opacity="1"/></g></g></g></g></g></g><g clip-path="url(#195b971d4e)"><g clip-path="url(#9b48bd301b)"><g transform="matrix(1, 0, 0, 1, 112, 183)"><g clip-path="url(#b30a1a3d65)"><g clip-path="url(#679753ed86)"><g clip-path="url(#95679a996a)"><rect x="-207.6736" width="626.2272" fill="#181717" height="626.399984" y="-278.699998" fill-opacity="1"/></g></g></g></g></g></g><g clip-path="url(#91e28fe8af)"><g clip-path="url(#23a34fd70f)"><g transform="matrix(1, 0, 0, 1, 264, 196)"><g clip-path="url(#e33eba4412)"><g clip-path="url(#27b6a244df)"><g clip-path="url(#08ea6f465c)"><rect x="-359.6736" width="626.2272" fill="#181717" height="626.399984" y="-291.699998" fill-opacity="1"/></g></g></g></g></g></g><g fill="#181717" fill-opacity="1"><g transform="translate(86.820721, 294.531559)"><g><path d="M 1.3125 0 C 1.320312 -0.375 1.328125 -0.863281 1.328125 -1.46875 C 1.335938 -2.070312 1.347656 -2.710938 1.359375 -3.390625 C 1.378906 -4.078125 1.390625 -4.726562 1.390625 -5.34375 C 1.398438 -5.957031 1.40625 -6.457031 1.40625 -6.84375 C 1.40625 -7.28125 1.398438 -7.789062 1.390625 -8.375 C 1.390625 -8.957031 1.378906 -9.566406 1.359375 -10.203125 C 1.347656 -10.835938 1.335938 -11.457031 1.328125 -12.0625 C 1.328125 -12.675781 1.320312 -13.234375 1.3125 -13.734375 L 7.203125 -13.734375 C 8.378906 -13.734375 9.378906 -13.640625 10.203125 -13.453125 C 11.023438 -13.265625 11.644531 -12.929688 12.0625 -12.453125 C 12.488281 -11.972656 12.703125 -11.28125 12.703125 -10.375 C 12.703125 -9.363281 12.382812 -8.601562 11.75 -8.09375 C 11.125 -7.582031 10.023438 -7.28125 8.453125 -7.1875 L 8.453125 -6.953125 C 10.109375 -6.847656 11.285156 -6.546875 11.984375 -6.046875 C 12.679688 -5.554688 13.03125 -4.773438 13.03125 -3.703125 C 13.03125 -2.785156 12.832031 -2.050781 12.4375 -1.5 C 12.039062 -0.957031 11.429688 -0.570312 10.609375 -0.34375 C 9.796875 -0.113281 8.753906 0 7.484375 0 Z M 4.015625 -7.703125 L 6.90625 -7.703125 C 7.988281 -7.703125 8.765625 -7.878906 9.234375 -8.234375 C 9.703125 -8.597656 9.9375 -9.128906 9.9375 -9.828125 C 9.9375 -10.640625 9.679688 -11.195312 9.171875 -11.5 C 8.671875 -11.8125 7.925781 -11.96875 6.9375 -11.96875 L 4.015625 -11.96875 L 4.015625 -8.125 C 4.015625 -8.050781 4.015625 -7.976562 4.015625 -7.90625 C 4.015625 -7.84375 4.015625 -7.773438 4.015625 -7.703125 Z M 4.015625 -1.96875 L 7.078125 -1.96875 C 8.253906 -1.96875 9.085938 -2.132812 9.578125 -2.46875 C 10.066406 -2.800781 10.3125 -3.367188 10.3125 -4.171875 C 10.3125 -4.929688 10.035156 -5.488281 9.484375 -5.84375 C 8.929688 -6.207031 8.070312 -6.390625 6.90625 -6.390625 L 4.015625 -6.390625 L 4.015625 -2.40625 C 4.015625 -2.332031 4.015625 -2.253906 4.015625 -2.171875 C 4.015625 -2.097656 4.015625 -2.03125 4.015625 -1.96875 Z M 4.015625 -1.96875 "/></g></g></g><g fill="#181717" fill-opacity="1"><g transform="translate(103.016211, 294.531559)"><g><path d="M 8.953125 -13.734375 L 11.84375 -13.734375 L 7.09375 -0.125 C 7.070312 -0.0703125 6.988281 -0.0351562 6.84375 -0.015625 C 6.695312 -0.00390625 6.429688 0 6.046875 0 L 4.015625 0 L 5.671875 -4.25 L 6.3125 -5.46875 L 5.96875 -5.46875 C 5.851562 -5.207031 5.660156 -5 5.390625 -4.84375 C 5.117188 -4.6875 4.859375 -4.609375 4.609375 -4.609375 L 3.59375 -4.609375 C 2.988281 -6.128906 2.378906 -7.648438 1.765625 -9.171875 C 1.148438 -10.691406 0.535156 -12.210938 -0.078125 -13.734375 L 2.796875 -13.734375 L 5.84375 -5.9375 L 6.140625 -5.9375 Z M 8.953125 -13.734375 "/></g></g></g><g fill="#181717" fill-opacity="1"><g transform="translate(117.898063, 294.531559)"><g/></g></g><g fill="#181717" fill-opacity="1"><g transform="translate(125.329991, 294.531559)"><g><path d="M 1.3125 0 C 1.320312 -0.65625 1.335938 -1.390625 1.359375 -2.203125 C 1.378906 -3.015625 1.394531 -3.820312 1.40625 -4.625 C 1.414062 -5.4375 1.421875 -6.175781 1.421875 -6.84375 C 1.421875 -7.5 1.414062 -8.238281 1.40625 -9.0625 C 1.394531 -9.894531 1.378906 -10.722656 1.359375 -11.546875 C 1.335938 -12.367188 1.320312 -13.097656 1.3125 -13.734375 L 7.15625 -13.734375 C 8.363281 -13.734375 9.375 -13.628906 10.1875 -13.421875 C 11 -13.210938 11.613281 -12.835938 12.03125 -12.296875 C 12.457031 -11.765625 12.671875 -11.007812 12.671875 -10.03125 C 12.671875 -8.71875 12.316406 -7.785156 11.609375 -7.234375 C 10.910156 -6.691406 9.90625 -6.410156 8.59375 -6.390625 L 8.59375 -6.15625 C 9.78125 -6.101562 10.65625 -5.835938 11.21875 -5.359375 C 11.789062 -4.890625 12.195312 -4.160156 12.4375 -3.171875 C 12.488281 -2.953125 12.566406 -2.632812 12.671875 -2.21875 C 12.773438 -1.8125 12.882812 -1.398438 13 -0.984375 C 13.125 -0.566406 13.226562 -0.238281 13.3125 0 L 10.40625 0 C 10.34375 -0.289062 10.265625 -0.617188 10.171875 -0.984375 C 10.078125 -1.347656 9.984375 -1.71875 9.890625 -2.09375 C 9.796875 -2.46875 9.726562 -2.804688 9.6875 -3.109375 C 9.53125 -3.640625 9.34375 -4.082031 9.125 -4.4375 C 8.914062 -4.789062 8.640625 -5.0625 8.296875 -5.25 C 7.953125 -5.4375 7.488281 -5.53125 6.90625 -5.53125 L 4.046875 -5.53125 L 4.046875 0 Z M 4.03125 -6.9375 L 6.734375 -6.9375 C 7.859375 -6.9375 8.664062 -7.140625 9.15625 -7.546875 C 9.65625 -7.953125 9.90625 -8.570312 9.90625 -9.40625 C 9.90625 -10.375 9.640625 -11.019531 9.109375 -11.34375 C 8.585938 -11.675781 7.800781 -11.84375 6.75 -11.84375 L 4.03125 -11.84375 L 4.03125 -7.53125 C 4.03125 -7.425781 4.03125 -7.320312 4.03125 -7.21875 C 4.03125 -7.125 4.03125 -7.03125 4.03125 -6.9375 Z M 4.03125 -6.9375 "/></g></g></g><g fill="#181717" fill-opacity="1"><g transform="translate(142.425229, 294.531559)"><g><path d="M 13.03125 0 L 10.1875 0 C 10.070312 -0.40625 9.921875 -0.898438 9.734375 -1.484375 C 9.554688 -2.066406 9.359375 -2.707031 9.140625 -3.40625 L 6.46875 -3.40625 C 5.976562 -3.40625 5.515625 -3.40625 5.078125 -3.40625 C 4.640625 -3.40625 4.21875 -3.40625 3.8125 -3.40625 L 2.75 0 L -0.078125 0 C 0.160156 -0.769531 0.425781 -1.617188 0.71875 -2.546875 C 1.019531 -3.472656 1.332031 -4.441406 1.65625 -5.453125 C 1.976562 -6.460938 2.296875 -7.460938 2.609375 -8.453125 C 2.921875 -9.453125 3.210938 -10.398438 3.484375 -11.296875 C 3.765625 -12.203125 4.007812 -13.015625 4.21875 -13.734375 L 8.734375 -13.734375 C 8.929688 -13.015625 9.164062 -12.207031 9.4375 -11.3125 C 9.71875 -10.425781 10.007812 -9.488281 10.3125 -8.5 C 10.625 -7.519531 10.9375 -6.53125 11.25 -5.53125 C 11.570312 -4.53125 11.882812 -3.554688 12.1875 -2.609375 C 12.5 -1.671875 12.78125 -0.800781 13.03125 0 Z M 4.296875 -5.046875 L 8.625 -5.046875 C 8.351562 -5.941406 8.082031 -6.847656 7.8125 -7.765625 C 7.550781 -8.679688 7.304688 -9.566406 7.078125 -10.421875 C 6.859375 -11.273438 6.679688 -12.03125 6.546875 -12.6875 L 6.359375 -12.6875 C 6.046875 -11.394531 5.710938 -10.097656 5.359375 -8.796875 C 5.003906 -7.503906 4.648438 -6.253906 4.296875 -5.046875 Z M 4.296875 -5.046875 "/></g></g></g><g fill="#181717" fill-opacity="1"><g transform="translate(157.756962, 294.531559)"><g><path d="M 8.953125 -13.734375 L 11.84375 -13.734375 L 7.09375 -0.125 C 7.070312 -0.0703125 6.988281 -0.0351562 6.84375 -0.015625 C 6.695312 -0.00390625 6.429688 0 6.046875 0 L 4.015625 0 L 5.671875 -4.25 L 6.3125 -5.46875 L 5.96875 -5.46875 C 5.851562 -5.207031 5.660156 -5 5.390625 -4.84375 C 5.117188 -4.6875 4.859375 -4.609375 4.609375 -4.609375 L 3.59375 -4.609375 C 2.988281 -6.128906 2.378906 -7.648438 1.765625 -9.171875 C 1.148438 -10.691406 0.535156 -12.210938 -0.078125 -13.734375 L 2.796875 -13.734375 L 5.84375 -5.9375 L 6.140625 -5.9375 Z M 8.953125 -13.734375 "/></g></g></g><g fill="#181717" fill-opacity="1"><g transform="translate(171.145224, 294.531559)"><g><path d="M 13.03125 0 L 10.1875 0 C 10.070312 -0.40625 9.921875 -0.898438 9.734375 -1.484375 C 9.554688 -2.066406 9.359375 -2.707031 9.140625 -3.40625 L 6.46875 -3.40625 C 5.976562 -3.40625 5.515625 -3.40625 5.078125 -3.40625 C 4.640625 -3.40625 4.21875 -3.40625 3.8125 -3.40625 L 2.75 0 L -0.078125 0 C 0.160156 -0.769531 0.425781 -1.617188 0.71875 -2.546875 C 1.019531 -3.472656 1.332031 -4.441406 1.65625 -5.453125 C 1.976562 -6.460938 2.296875 -7.460938 2.609375 -8.453125 C 2.921875 -9.453125 3.210938 -10.398438 3.484375 -11.296875 C 3.765625 -12.203125 4.007812 -13.015625 4.21875 -13.734375 L 8.734375 -13.734375 C 8.929688 -13.015625 9.164062 -12.207031 9.4375 -11.3125 C 9.71875 -10.425781 10.007812 -9.488281 10.3125 -8.5 C 10.625 -7.519531 10.9375 -6.53125 11.25 -5.53125 C 11.570312 -4.53125 11.882812 -3.554688 12.1875 -2.609375 C 12.5 -1.671875 12.78125 -0.800781 13.03125 0 Z M 4.296875 -5.046875 L 8.625 -5.046875 C 8.351562 -5.941406 8.082031 -6.847656 7.8125 -7.765625 C 7.550781 -8.679688 7.304688 -9.566406 7.078125 -10.421875 C 6.859375 -11.273438 6.679688 -12.03125 6.546875 -12.6875 L 6.359375 -12.6875 C 6.046875 -11.394531 5.710938 -10.097656 5.359375 -8.796875 C 5.003906 -7.503906 4.648438 -6.253906 4.296875 -5.046875 Z M 4.296875 -5.046875 "/></g></g></g><g fill="#181717" fill-opacity="1"><g transform="translate(187.214748, 294.531559)"><g/></g></g><g fill="#181717" fill-opacity="1"><g transform="translate(194.646676, 294.531559)"><g><path d="M 13.03125 0 L 10.1875 0 C 10.070312 -0.40625 9.921875 -0.898438 9.734375 -1.484375 C 9.554688 -2.066406 9.359375 -2.707031 9.140625 -3.40625 L 6.46875 -3.40625 C 5.976562 -3.40625 5.515625 -3.40625 5.078125 -3.40625 C 4.640625 -3.40625 4.21875 -3.40625 3.8125 -3.40625 L 2.75 0 L -0.078125 0 C 0.160156 -0.769531 0.425781 -1.617188 0.71875 -2.546875 C 1.019531 -3.472656 1.332031 -4.441406 1.65625 -5.453125 C 1.976562 -6.460938 2.296875 -7.460938 2.609375 -8.453125 C 2.921875 -9.453125 3.210938 -10.398438 3.484375 -11.296875 C 3.765625 -12.203125 4.007812 -13.015625 4.21875 -13.734375 L 8.734375 -13.734375 C 8.929688 -13.015625 9.164062 -12.207031 9.4375 -11.3125 C 9.71875 -10.425781 10.007812 -9.488281 10.3125 -8.5 C 10.625 -7.519531 10.9375 -6.53125 11.25 -5.53125 C 11.570312 -4.53125 11.882812 -3.554688 12.1875 -2.609375 C 12.5 -1.671875 12.78125 -0.800781 13.03125 0 Z M 4.296875 -5.046875 L 8.625 -5.046875 C 8.351562 -5.941406 8.082031 -6.847656 7.8125 -7.765625 C 7.550781 -8.679688 7.304688 -9.566406 7.078125 -10.421875 C 6.859375 -11.273438 6.679688 -12.03125 6.546875 -12.6875 L 6.359375 -12.6875 C 6.046875 -11.394531 5.710938 -10.097656 5.359375 -8.796875 C 5.003906 -7.503906 4.648438 -6.253906 4.296875 -5.046875 Z M 4.296875 -5.046875 "/></g></g></g><g fill="#181717" fill-opacity="1"><g transform="translate(210.716201, 294.531559)"><g><path d="M 1.3125 0 C 1.320312 -0.375 1.328125 -0.863281 1.328125 -1.46875 C 1.335938 -2.070312 1.347656 -2.710938 1.359375 -3.390625 C 1.378906 -4.078125 1.390625 -4.726562 1.390625 -5.34375 C 1.398438 -5.957031 1.40625 -6.457031 1.40625 -6.84375 C 1.40625 -7.28125 1.398438 -7.789062 1.390625 -8.375 C 1.390625 -8.957031 1.378906 -9.566406 1.359375 -10.203125 C 1.347656 -10.835938 1.335938 -11.457031 1.328125 -12.0625 C 1.328125 -12.675781 1.320312 -13.234375 1.3125 -13.734375 L 7.203125 -13.734375 C 8.378906 -13.734375 9.378906 -13.640625 10.203125 -13.453125 C 11.023438 -13.265625 11.644531 -12.929688 12.0625 -12.453125 C 12.488281 -11.972656 12.703125 -11.28125 12.703125 -10.375 C 12.703125 -9.363281 12.382812 -8.601562 11.75 -8.09375 C 11.125 -7.582031 10.023438 -7.28125 8.453125 -7.1875 L 8.453125 -6.953125 C 10.109375 -6.847656 11.285156 -6.546875 11.984375 -6.046875 C 12.679688 -5.554688 13.03125 -4.773438 13.03125 -3.703125 C 13.03125 -2.785156 12.832031 -2.050781 12.4375 -1.5 C 12.039062 -0.957031 11.429688 -0.570312 10.609375 -0.34375 C 9.796875 -0.113281 8.753906 0 7.484375 0 Z M 4.015625 -7.703125 L 6.90625 -7.703125 C 7.988281 -7.703125 8.765625 -7.878906 9.234375 -8.234375 C 9.703125 -8.597656 9.9375 -9.128906 9.9375 -9.828125 C 9.9375 -10.640625 9.679688 -11.195312 9.171875 -11.5 C 8.671875 -11.8125 7.925781 -11.96875 6.9375 -11.96875 L 4.015625 -11.96875 L 4.015625 -8.125 C 4.015625 -8.050781 4.015625 -7.976562 4.015625 -7.90625 C 4.015625 -7.84375 4.015625 -7.773438 4.015625 -7.703125 Z M 4.015625 -1.96875 L 7.078125 -1.96875 C 8.253906 -1.96875 9.085938 -2.132812 9.578125 -2.46875 C 10.066406 -2.800781 10.3125 -3.367188 10.3125 -4.171875 C 10.3125 -4.929688 10.035156 -5.488281 9.484375 -5.84375 C 8.929688 -6.207031 8.070312 -6.390625 6.90625 -6.390625 L 4.015625 -6.390625 L 4.015625 -2.40625 C 4.015625 -2.332031 4.015625 -2.253906 4.015625 -2.171875 C 4.015625 -2.097656 4.015625 -2.03125 4.015625 -1.96875 Z M 4.015625 -1.96875 "/></g></g></g><g fill="#181717" fill-opacity="1"><g transform="translate(227.523517, 294.531559)"><g><path d="M 1.3125 0 C 1.332031 -0.644531 1.347656 -1.375 1.359375 -2.1875 C 1.378906 -3 1.390625 -3.816406 1.390625 -4.640625 C 1.398438 -5.460938 1.40625 -6.195312 1.40625 -6.84375 C 1.40625 -7.34375 1.398438 -7.894531 1.390625 -8.5 C 1.390625 -9.101562 1.382812 -9.71875 1.375 -10.34375 C 1.375 -10.976562 1.363281 -11.585938 1.34375 -12.171875 C 1.332031 -12.765625 1.320312 -13.285156 1.3125 -13.734375 L 6.078125 -13.734375 C 7.640625 -13.734375 8.9375 -13.515625 9.96875 -13.078125 C 11 -12.640625 11.773438 -11.914062 12.296875 -10.90625 C 12.816406 -9.90625 13.078125 -8.566406 13.078125 -6.890625 C 13.078125 -4.640625 12.578125 -2.929688 11.578125 -1.765625 C 10.585938 -0.609375 9.046875 -0.0195312 6.953125 0 Z M 4.03125 -1.875 L 6.3125 -1.875 C 7.738281 -1.875 8.769531 -2.269531 9.40625 -3.0625 C 10.050781 -3.851562 10.375 -5.109375 10.375 -6.828125 C 10.375 -8.015625 10.238281 -8.972656 9.96875 -9.703125 C 9.695312 -10.441406 9.253906 -10.984375 8.640625 -11.328125 C 8.035156 -11.671875 7.222656 -11.84375 6.203125 -11.84375 L 4.03125 -11.84375 Z M 4.03125 -1.875 "/></g></g></g><g fill="#181717" fill-opacity="1"><g transform="translate(244.384823, 294.531559)"><g/></g></g><g fill="#181717" fill-opacity="1"><g transform="translate(251.816751, 294.531559)"><g><path d="M 13.03125 0 L 10.1875 0 C 10.070312 -0.40625 9.921875 -0.898438 9.734375 -1.484375 C 9.554688 -2.066406 9.359375 -2.707031 9.140625 -3.40625 L 6.46875 -3.40625 C 5.976562 -3.40625 5.515625 -3.40625 5.078125 -3.40625 C 4.640625 -3.40625 4.21875 -3.40625 3.8125 -3.40625 L 2.75 0 L -0.078125 0 C 0.160156 -0.769531 0.425781 -1.617188 0.71875 -2.546875 C 1.019531 -3.472656 1.332031 -4.441406 1.65625 -5.453125 C 1.976562 -6.460938 2.296875 -7.460938 2.609375 -8.453125 C 2.921875 -9.453125 3.210938 -10.398438 3.484375 -11.296875 C 3.765625 -12.203125 4.007812 -13.015625 4.21875 -13.734375 L 8.734375 -13.734375 C 8.929688 -13.015625 9.164062 -12.207031 9.4375 -11.3125 C 9.71875 -10.425781 10.007812 -9.488281 10.3125 -8.5 C 10.625 -7.519531 10.9375 -6.53125 11.25 -5.53125 C 11.570312 -4.53125 11.882812 -3.554688 12.1875 -2.609375 C 12.5 -1.671875 12.78125 -0.800781 13.03125 0 Z M 4.296875 -5.046875 L 8.625 -5.046875 C 8.351562 -5.941406 8.082031 -6.847656 7.8125 -7.765625 C 7.550781 -8.679688 7.304688 -9.566406 7.078125 -10.421875 C 6.859375 -11.273438 6.679688 -12.03125 6.546875 -12.6875 L 6.359375 -12.6875 C 6.046875 -11.394531 5.710938 -10.097656 5.359375 -8.796875 C 5.003906 -7.503906 4.648438 -6.253906 4.296875 -5.046875 Z M 4.296875 -5.046875 "/></g></g></g><g fill="#181717" fill-opacity="1"><g transform="translate(267.886275, 294.531559)"><g><path d="M 1.3125 0 C 1.332031 -1.132812 1.347656 -2.285156 1.359375 -3.453125 C 1.378906 -4.628906 1.390625 -5.765625 1.390625 -6.859375 C 1.390625 -7.960938 1.378906 -9.09375 1.359375 -10.25 C 1.347656 -11.414062 1.332031 -12.578125 1.3125 -13.734375 L 4.109375 -13.734375 C 4.066406 -11.453125 4.046875 -9.257812 4.046875 -7.15625 C 4.046875 -6.3125 4.046875 -5.445312 4.046875 -4.5625 C 4.054688 -3.675781 4.070312 -2.863281 4.09375 -2.125 C 5.09375 -2.125 6.128906 -2.128906 7.203125 -2.140625 C 8.273438 -2.148438 9.296875 -2.160156 10.265625 -2.171875 L 10.078125 0 Z M 1.3125 0 "/></g></g></g><g fill="#181717" fill-opacity="1"><g transform="translate(281.184577, 294.531559)"><g><path d="M 12.890625 -13.734375 C 12.878906 -13.210938 12.863281 -12.570312 12.84375 -11.8125 C 12.832031 -11.0625 12.828125 -10.257812 12.828125 -9.40625 C 12.828125 -8.550781 12.828125 -7.703125 12.828125 -6.859375 C 12.828125 -6.085938 12.828125 -5.269531 12.828125 -4.40625 C 12.828125 -3.539062 12.832031 -2.722656 12.84375 -1.953125 C 12.863281 -1.179688 12.878906 -0.53125 12.890625 0 L 10.140625 0 C 10.148438 -0.445312 10.160156 -0.960938 10.171875 -1.546875 C 10.179688 -2.140625 10.1875 -2.742188 10.1875 -3.359375 C 10.195312 -3.984375 10.203125 -4.578125 10.203125 -5.140625 C 10.203125 -5.710938 10.203125 -6.203125 10.203125 -6.609375 L 4.046875 -6.609375 C 4.046875 -6.160156 4.046875 -5.640625 4.046875 -5.046875 C 4.046875 -4.460938 4.046875 -3.863281 4.046875 -3.25 C 4.054688 -2.632812 4.066406 -2.039062 4.078125 -1.46875 C 4.085938 -0.894531 4.09375 -0.40625 4.09375 0 L 1.3125 0 C 1.332031 -1.132812 1.351562 -2.285156 1.375 -3.453125 C 1.394531 -4.628906 1.40625 -5.765625 1.40625 -6.859375 C 1.40625 -7.960938 1.394531 -9.09375 1.375 -10.25 C 1.351562 -11.414062 1.332031 -12.578125 1.3125 -13.734375 L 4.09375 -13.734375 C 4.070312 -12.898438 4.054688 -12.015625 4.046875 -11.078125 C 4.046875 -10.140625 4.046875 -9.210938 4.046875 -8.296875 L 10.203125 -8.296875 C 10.203125 -9.128906 10.195312 -10.019531 10.1875 -10.96875 C 10.175781 -11.914062 10.160156 -12.835938 10.140625 -13.734375 Z M 12.890625 -13.734375 "/></g></g></g><g fill="#181717" fill-opacity="1"><g transform="translate(298.49574, 294.531559)"><g><path d="M 13.03125 0 L 10.1875 0 C 10.070312 -0.40625 9.921875 -0.898438 9.734375 -1.484375 C 9.554688 -2.066406 9.359375 -2.707031 9.140625 -3.40625 L 6.46875 -3.40625 C 5.976562 -3.40625 5.515625 -3.40625 5.078125 -3.40625 C 4.640625 -3.40625 4.21875 -3.40625 3.8125 -3.40625 L 2.75 0 L -0.078125 0 C 0.160156 -0.769531 0.425781 -1.617188 0.71875 -2.546875 C 1.019531 -3.472656 1.332031 -4.441406 1.65625 -5.453125 C 1.976562 -6.460938 2.296875 -7.460938 2.609375 -8.453125 C 2.921875 -9.453125 3.210938 -10.398438 3.484375 -11.296875 C 3.765625 -12.203125 4.007812 -13.015625 4.21875 -13.734375 L 8.734375 -13.734375 C 8.929688 -13.015625 9.164062 -12.207031 9.4375 -11.3125 C 9.71875 -10.425781 10.007812 -9.488281 10.3125 -8.5 C 10.625 -7.519531 10.9375 -6.53125 11.25 -5.53125 C 11.570312 -4.53125 11.882812 -3.554688 12.1875 -2.609375 C 12.5 -1.671875 12.78125 -0.800781 13.03125 0 Z M 4.296875 -5.046875 L 8.625 -5.046875 C 8.351562 -5.941406 8.082031 -6.847656 7.8125 -7.765625 C 7.550781 -8.679688 7.304688 -9.566406 7.078125 -10.421875 C 6.859375 -11.273438 6.679688 -12.03125 6.546875 -12.6875 L 6.359375 -12.6875 C 6.046875 -11.394531 5.710938 -10.097656 5.359375 -8.796875 C 5.003906 -7.503906 4.648438 -6.253906 4.296875 -5.046875 Z M 4.296875 -5.046875 "/></g></g></g><g fill="#181717" fill-opacity="1"><g transform="translate(313.827485, 294.531559)"><g><path d="M 8.953125 -13.734375 L 11.84375 -13.734375 L 7.09375 -0.125 C 7.070312 -0.0703125 6.988281 -0.0351562 6.84375 -0.015625 C 6.695312 -0.00390625 6.429688 0 6.046875 0 L 4.015625 0 L 5.671875 -4.25 L 6.3125 -5.46875 L 5.96875 -5.46875 C 5.851562 -5.207031 5.660156 -5 5.390625 -4.84375 C 5.117188 -4.6875 4.859375 -4.609375 4.609375 -4.609375 L 3.59375 -4.609375 C 2.988281 -6.128906 2.378906 -7.648438 1.765625 -9.171875 C 1.148438 -10.691406 0.535156 -12.210938 -0.078125 -13.734375 L 2.796875 -13.734375 L 5.84375 -5.9375 L 6.140625 -5.9375 Z M 8.953125 -13.734375 "/></g></g></g><g fill="#181717" fill-opacity="1"><g transform="translate(87.655798, 274.487071)"><g><path d="M 5.03125 0.171875 C 3.601562 0.171875 2.535156 -0.0976562 1.828125 -0.640625 C 1.117188 -1.179688 0.703125 -2.003906 0.578125 -3.109375 L 2.125 -3.21875 C 2.207031 -2.769531 2.347656 -2.367188 2.546875 -2.015625 C 2.753906 -1.671875 3.054688 -1.398438 3.453125 -1.203125 C 3.859375 -1.003906 4.394531 -0.90625 5.0625 -0.90625 C 5.507812 -0.90625 5.929688 -0.941406 6.328125 -1.015625 C 6.734375 -1.097656 7.054688 -1.210938 7.296875 -1.359375 C 7.441406 -1.597656 7.554688 -1.84375 7.640625 -2.09375 C 7.734375 -2.351562 7.785156 -2.632812 7.796875 -2.9375 C 7.796875 -3.300781 7.707031 -3.625 7.53125 -3.90625 C 7.363281 -4.1875 7.070312 -4.421875 6.65625 -4.609375 C 6.238281 -4.796875 5.648438 -4.929688 4.890625 -5.015625 C 3.585938 -5.148438 2.59375 -5.4375 1.90625 -5.875 C 1.21875 -6.3125 0.875 -6.984375 0.875 -7.890625 C 0.875 -8.546875 1.050781 -9.09375 1.40625 -9.53125 C 1.757812 -9.96875 2.242188 -10.289062 2.859375 -10.5 C 3.484375 -10.707031 4.191406 -10.8125 4.984375 -10.8125 C 5.847656 -10.8125 6.5625 -10.6875 7.125 -10.4375 C 7.6875 -10.1875 8.128906 -9.816406 8.453125 -9.328125 C 8.773438 -8.847656 9.003906 -8.269531 9.140625 -7.59375 L 7.703125 -7.4375 C 7.585938 -7.90625 7.4375 -8.304688 7.25 -8.640625 C 7.0625 -8.972656 6.78125 -9.234375 6.40625 -9.421875 C 6.039062 -9.609375 5.535156 -9.703125 4.890625 -9.703125 C 4.554688 -9.703125 4.195312 -9.671875 3.8125 -9.609375 C 3.425781 -9.546875 3.125 -9.457031 2.90625 -9.34375 C 2.757812 -9.164062 2.628906 -8.941406 2.515625 -8.671875 C 2.398438 -8.410156 2.34375 -8.117188 2.34375 -7.796875 C 2.34375 -7.390625 2.4375 -7.0625 2.625 -6.8125 C 2.8125 -6.5625 3.109375 -6.359375 3.515625 -6.203125 C 3.921875 -6.054688 4.457031 -5.925781 5.125 -5.8125 C 6.207031 -5.695312 7.046875 -5.507812 7.640625 -5.25 C 8.242188 -5 8.660156 -4.679688 8.890625 -4.296875 C 9.128906 -3.910156 9.242188 -3.4375 9.234375 -2.875 C 9.222656 -2.238281 9.046875 -1.691406 8.703125 -1.234375 C 8.359375 -0.773438 7.875 -0.425781 7.25 -0.1875 C 6.625 0.0507812 5.882812 0.171875 5.03125 0.171875 Z M 5.03125 0.171875 "/></g></g></g><g fill="#181717" fill-opacity="1"><g transform="translate(99.21113, 274.487071)"><g><path d="M 1 0 C 1.03125 -0.6875 1.046875 -1.394531 1.046875 -2.125 C 1.054688 -2.851562 1.0625 -3.601562 1.0625 -4.375 C 1.0625 -5.113281 1.054688 -5.851562 1.046875 -6.59375 C 1.046875 -7.34375 1.035156 -8.066406 1.015625 -8.765625 L 2.5625 -8.765625 L 2.34375 -6.625 L 2.484375 -6.625 C 2.773438 -7.351562 3.144531 -7.921875 3.59375 -8.328125 C 4.050781 -8.742188 4.671875 -8.957031 5.453125 -8.96875 C 6.253906 -8.96875 6.851562 -8.75 7.25 -8.3125 C 7.644531 -7.875 7.875 -7.3125 7.9375 -6.625 L 8.0625 -6.625 C 8.269531 -7.34375 8.644531 -7.910156 9.1875 -8.328125 C 9.726562 -8.742188 10.359375 -8.953125 11.078125 -8.953125 C 11.734375 -8.953125 12.242188 -8.800781 12.609375 -8.5 C 12.972656 -8.195312 13.234375 -7.78125 13.390625 -7.25 C 13.546875 -6.71875 13.628906 -6.109375 13.640625 -5.421875 C 13.648438 -5.179688 13.65625 -4.863281 13.65625 -4.46875 C 13.65625 -4.070312 13.65625 -3.644531 13.65625 -3.1875 C 13.65625 -2.726562 13.65625 -2.28125 13.65625 -1.84375 C 13.664062 -1.414062 13.671875 -1.035156 13.671875 -0.703125 C 13.679688 -0.367188 13.691406 -0.132812 13.703125 0 L 12.1875 0 C 12.195312 -0.707031 12.203125 -1.3125 12.203125 -1.8125 C 12.210938 -2.3125 12.21875 -2.769531 12.21875 -3.1875 C 12.21875 -3.601562 12.21875 -4.035156 12.21875 -4.484375 C 12.21875 -4.804688 12.207031 -5.160156 12.1875 -5.546875 C 12.175781 -5.929688 12.117188 -6.300781 12.015625 -6.65625 C 11.910156 -7.007812 11.738281 -7.300781 11.5 -7.53125 C 11.257812 -7.769531 10.914062 -7.890625 10.46875 -7.890625 C 10.09375 -7.898438 9.75 -7.796875 9.4375 -7.578125 C 9.125 -7.367188 8.851562 -7.085938 8.625 -6.734375 C 8.40625 -6.378906 8.21875 -6 8.0625 -5.59375 L 8.0625 -3.21875 C 8.082031 -2.625 8.097656 -2.035156 8.109375 -1.453125 C 8.117188 -0.878906 8.128906 -0.394531 8.140625 0 L 6.59375 0 C 6.601562 -0.257812 6.609375 -0.570312 6.609375 -0.9375 C 6.617188 -1.3125 6.625 -1.703125 6.625 -2.109375 C 6.632812 -2.523438 6.640625 -2.929688 6.640625 -3.328125 C 6.640625 -3.722656 6.640625 -4.082031 6.640625 -4.40625 C 6.648438 -5.664062 6.515625 -6.5625 6.234375 -7.09375 C 5.953125 -7.625 5.484375 -7.890625 4.828125 -7.890625 C 4.472656 -7.890625 4.144531 -7.785156 3.84375 -7.578125 C 3.539062 -7.367188 3.273438 -7.085938 3.046875 -6.734375 C 2.828125 -6.378906 2.640625 -6 2.484375 -5.59375 L 2.484375 -4.0625 C 2.484375 -3.320312 2.488281 -2.632812 2.5 -2 C 2.507812 -1.375 2.53125 -0.707031 2.5625 0 Z M 1 0 "/></g></g></g><g fill="#181717" fill-opacity="1"><g transform="translate(115.676362, 274.487071)"><g><path d="M 3.09375 0.203125 C 2.570312 0.203125 2.113281 0.101562 1.71875 -0.09375 C 1.332031 -0.289062 1.03125 -0.554688 0.8125 -0.890625 C 0.601562 -1.234375 0.5 -1.613281 0.5 -2.03125 C 0.5 -2.5 0.609375 -2.90625 0.828125 -3.25 C 1.054688 -3.59375 1.363281 -3.867188 1.75 -4.078125 C 2.144531 -4.296875 2.585938 -4.457031 3.078125 -4.5625 C 3.566406 -4.664062 4.078125 -4.71875 4.609375 -4.71875 C 4.773438 -4.71875 5.023438 -4.707031 5.359375 -4.6875 C 5.703125 -4.675781 6.097656 -4.660156 6.546875 -4.640625 L 6.546875 -4.828125 C 6.546875 -5.378906 6.488281 -5.878906 6.375 -6.328125 C 6.257812 -6.773438 6.039062 -7.125 5.71875 -7.375 C 5.394531 -7.632812 4.910156 -7.765625 4.265625 -7.765625 C 4.003906 -7.765625 3.75 -7.71875 3.5 -7.625 C 3.25 -7.539062 3.035156 -7.445312 2.859375 -7.34375 C 2.453125 -6.9375 2.171875 -6.320312 2.015625 -5.5 L 0.59375 -5.765625 C 0.800781 -6.765625 1.210938 -7.535156 1.828125 -8.078125 C 2.441406 -8.628906 3.347656 -8.90625 4.546875 -8.90625 C 5.773438 -8.90625 6.648438 -8.550781 7.171875 -7.84375 C 7.703125 -7.144531 7.972656 -6.113281 7.984375 -4.75 C 7.984375 -4.25 7.984375 -3.804688 7.984375 -3.421875 C 7.992188 -3.046875 8.003906 -2.632812 8.015625 -2.1875 C 8.023438 -1.75 8.03125 -1.347656 8.03125 -0.984375 C 8.03125 -0.628906 8.03125 -0.300781 8.03125 0 L 6.515625 0 L 6.75 -2.546875 L 6.609375 -2.546875 C 6.492188 -2.097656 6.273438 -1.660156 5.953125 -1.234375 C 5.640625 -0.816406 5.238281 -0.472656 4.75 -0.203125 C 4.269531 0.0664062 3.71875 0.203125 3.09375 0.203125 Z M 3.703125 -0.953125 C 4.054688 -0.953125 4.390625 -1.035156 4.703125 -1.203125 C 5.015625 -1.367188 5.296875 -1.578125 5.546875 -1.828125 C 5.804688 -2.078125 6.019531 -2.328125 6.1875 -2.578125 C 6.363281 -2.835938 6.488281 -3.050781 6.5625 -3.21875 L 6.5625 -3.984375 C 6.320312 -4.003906 6.0625 -4.015625 5.78125 -4.015625 C 5.5 -4.023438 5.238281 -4.03125 5 -4.03125 C 4.769531 -4.03125 4.484375 -4.015625 4.140625 -3.984375 C 3.804688 -3.953125 3.46875 -3.882812 3.125 -3.78125 C 2.78125 -3.675781 2.492188 -3.507812 2.265625 -3.28125 C 2.046875 -3.0625 1.9375 -2.753906 1.9375 -2.359375 C 1.9375 -1.847656 2.085938 -1.484375 2.390625 -1.265625 C 2.703125 -1.054688 3.140625 -0.953125 3.703125 -0.953125 Z M 3.703125 -0.953125 "/></g></g></g><g fill="#181717" fill-opacity="1"><g transform="translate(126.462337, 274.487071)"><g><path d="M 5.3125 -8.953125 C 6.101562 -8.953125 6.71875 -8.671875 7.15625 -8.109375 C 7.59375 -7.546875 7.890625 -6.644531 8.046875 -5.40625 L 6.59375 -5.21875 C 6.46875 -6.070312 6.25 -6.726562 5.9375 -7.1875 C 5.632812 -7.644531 5.203125 -7.875 4.640625 -7.875 C 4.316406 -7.875 4.019531 -7.765625 3.75 -7.546875 C 3.488281 -7.335938 3.253906 -7.054688 3.046875 -6.703125 C 2.835938 -6.359375 2.648438 -5.984375 2.484375 -5.578125 C 2.492188 -5.304688 2.492188 -5.039062 2.484375 -4.78125 C 2.484375 -4.519531 2.484375 -4.257812 2.484375 -4 C 2.484375 -3.238281 2.484375 -2.546875 2.484375 -1.921875 C 2.492188 -1.304688 2.515625 -0.664062 2.546875 0 L 1 0 C 1.03125 -0.6875 1.046875 -1.394531 1.046875 -2.125 C 1.054688 -2.851562 1.0625 -3.601562 1.0625 -4.375 C 1.0625 -5.113281 1.054688 -5.851562 1.046875 -6.59375 C 1.046875 -7.34375 1.035156 -8.066406 1.015625 -8.765625 L 2.546875 -8.765625 L 2.34375 -6.609375 L 2.46875 -6.609375 C 2.707031 -7.359375 3.078125 -7.9375 3.578125 -8.34375 C 4.078125 -8.75 4.65625 -8.953125 5.3125 -8.953125 Z M 5.3125 -8.953125 "/></g></g></g><g fill="#181717" fill-opacity="1"><g transform="translate(136.422998, 274.487071)"><g><path d="M 4.140625 0.125 C 3.535156 0.125 3.0625 0.0234375 2.71875 -0.171875 C 2.375 -0.367188 2.125 -0.648438 1.96875 -1.015625 C 1.8125 -1.378906 1.710938 -1.804688 1.671875 -2.296875 C 1.628906 -2.796875 1.609375 -3.34375 1.609375 -3.9375 L 1.609375 -7.6875 L 0.25 -7.65625 L 0.25 -8.78125 C 0.445312 -8.78125 0.664062 -8.773438 0.90625 -8.765625 C 1.15625 -8.765625 1.382812 -8.757812 1.59375 -8.75 L 1.59375 -10.78125 C 2.082031 -10.78125 2.578125 -10.796875 3.078125 -10.828125 C 3.078125 -10.503906 3.078125 -10.226562 3.078125 -10 C 3.078125 -9.78125 3.078125 -9.578125 3.078125 -9.390625 C 3.078125 -9.203125 3.070312 -8.988281 3.0625 -8.75 C 3.476562 -8.75 3.945312 -8.753906 4.46875 -8.765625 C 5 -8.773438 5.519531 -8.785156 6.03125 -8.796875 C 6 -8.597656 5.984375 -8.40625 5.984375 -8.21875 C 5.984375 -8.125 5.976562 -8.03125 5.96875 -7.9375 C 5.96875 -7.84375 5.96875 -7.75 5.96875 -7.65625 L 3.046875 -7.6875 C 3.046875 -7.25 3.046875 -6.753906 3.046875 -6.203125 C 3.046875 -5.660156 3.046875 -5.117188 3.046875 -4.578125 C 3.046875 -4.035156 3.046875 -3.53125 3.046875 -3.0625 C 3.046875 -2.707031 3.070312 -2.367188 3.125 -2.046875 C 3.1875 -1.734375 3.300781 -1.476562 3.46875 -1.28125 C 3.644531 -1.09375 3.90625 -1 4.25 -1 C 4.5625 -1 4.851562 -1.023438 5.125 -1.078125 C 5.394531 -1.128906 5.648438 -1.195312 5.890625 -1.28125 C 5.890625 -1.144531 5.882812 -0.957031 5.875 -0.71875 C 5.863281 -0.476562 5.859375 -0.28125 5.859375 -0.125 C 5.597656 -0.0625 5.328125 -0.00390625 5.046875 0.046875 C 4.765625 0.0976562 4.460938 0.125 4.140625 0.125 Z M 4.140625 0.125 "/></g></g></g><g fill="#181717" fill-opacity="1"><g transform="translate(144.663102, 274.487071)"><g/></g></g><g fill="#181717" fill-opacity="1"><g transform="translate(149.76982, 274.487071)"><g><path d="M 1.15625 0 C 1.175781 -0.882812 1.1875 -1.773438 1.1875 -2.671875 C 1.195312 -3.578125 1.203125 -4.460938 1.203125 -5.328125 C 1.203125 -6.191406 1.195312 -7.070312 1.1875 -7.96875 C 1.1875 -8.875 1.175781 -9.773438 1.15625 -10.671875 L 2.703125 -10.671875 C 2.671875 -8.898438 2.65625 -7.171875 2.65625 -5.484375 C 2.65625 -4.753906 2.65625 -4.019531 2.65625 -3.28125 C 2.664062 -2.550781 2.675781 -1.847656 2.6875 -1.171875 C 3.539062 -1.171875 4.40625 -1.175781 5.28125 -1.1875 C 6.15625 -1.207031 7.007812 -1.222656 7.84375 -1.234375 L 7.75 0 Z M 1.15625 0 "/></g></g></g><g fill="#181717" fill-opacity="1"><g transform="translate(158.73719, 274.487071)"><g><path d="M 6.5 -1.46875 C 6.625 -1.6875 6.726562 -1.941406 6.8125 -2.234375 C 6.90625 -2.535156 6.976562 -2.832031 7.03125 -3.125 L 8.46875 -3.09375 C 8.289062 -2.019531 7.875 -1.207031 7.21875 -0.65625 C 6.570312 -0.101562 5.675781 0.171875 4.53125 0.171875 C 3.207031 0.171875 2.203125 -0.222656 1.515625 -1.015625 C 0.835938 -1.804688 0.5 -2.914062 0.5 -4.34375 C 0.5 -5.820312 0.859375 -6.957031 1.578125 -7.75 C 2.296875 -8.550781 3.320312 -8.953125 4.65625 -8.953125 C 5.882812 -8.953125 6.820312 -8.578125 7.46875 -7.828125 C 8.113281 -7.078125 8.46875 -6.007812 8.53125 -4.625 L 8.515625 -4.625 L 1.9375 -4.203125 C 1.957031 -3.179688 2.207031 -2.375 2.6875 -1.78125 C 3.175781 -1.195312 3.816406 -0.90625 4.609375 -0.90625 C 4.984375 -0.90625 5.332031 -0.957031 5.65625 -1.0625 C 5.988281 -1.175781 6.269531 -1.3125 6.5 -1.46875 Z M 4.5625 -7.875 C 4.132812 -7.875 3.726562 -7.789062 3.34375 -7.625 C 2.96875 -7.46875 2.660156 -7.257812 2.421875 -7 C 2.273438 -6.71875 2.164062 -6.398438 2.09375 -6.046875 C 2.019531 -5.703125 1.972656 -5.328125 1.953125 -4.921875 L 7.0625 -5.21875 C 6.945312 -6.039062 6.679688 -6.6875 6.265625 -7.15625 C 5.847656 -7.632812 5.28125 -7.875 4.5625 -7.875 Z M 4.5625 -7.875 "/></g></g></g><g fill="#181717" fill-opacity="1"><g transform="translate(169.537158, 274.487071)"><g><path d="M 3.09375 0.203125 C 2.570312 0.203125 2.113281 0.101562 1.71875 -0.09375 C 1.332031 -0.289062 1.03125 -0.554688 0.8125 -0.890625 C 0.601562 -1.234375 0.5 -1.613281 0.5 -2.03125 C 0.5 -2.5 0.609375 -2.90625 0.828125 -3.25 C 1.054688 -3.59375 1.363281 -3.867188 1.75 -4.078125 C 2.144531 -4.296875 2.585938 -4.457031 3.078125 -4.5625 C 3.566406 -4.664062 4.078125 -4.71875 4.609375 -4.71875 C 4.773438 -4.71875 5.023438 -4.707031 5.359375 -4.6875 C 5.703125 -4.675781 6.097656 -4.660156 6.546875 -4.640625 L 6.546875 -4.828125 C 6.546875 -5.378906 6.488281 -5.878906 6.375 -6.328125 C 6.257812 -6.773438 6.039062 -7.125 5.71875 -7.375 C 5.394531 -7.632812 4.910156 -7.765625 4.265625 -7.765625 C 4.003906 -7.765625 3.75 -7.71875 3.5 -7.625 C 3.25 -7.539062 3.035156 -7.445312 2.859375 -7.34375 C 2.453125 -6.9375 2.171875 -6.320312 2.015625 -5.5 L 0.59375 -5.765625 C 0.800781 -6.765625 1.210938 -7.535156 1.828125 -8.078125 C 2.441406 -8.628906 3.347656 -8.90625 4.546875 -8.90625 C 5.773438 -8.90625 6.648438 -8.550781 7.171875 -7.84375 C 7.703125 -7.144531 7.972656 -6.113281 7.984375 -4.75 C 7.984375 -4.25 7.984375 -3.804688 7.984375 -3.421875 C 7.992188 -3.046875 8.003906 -2.632812 8.015625 -2.1875 C 8.023438 -1.75 8.03125 -1.347656 8.03125 -0.984375 C 8.03125 -0.628906 8.03125 -0.300781 8.03125 0 L 6.515625 0 L 6.75 -2.546875 L 6.609375 -2.546875 C 6.492188 -2.097656 6.273438 -1.660156 5.953125 -1.234375 C 5.640625 -0.816406 5.238281 -0.472656 4.75 -0.203125 C 4.269531 0.0664062 3.71875 0.203125 3.09375 0.203125 Z M 3.703125 -0.953125 C 4.054688 -0.953125 4.390625 -1.035156 4.703125 -1.203125 C 5.015625 -1.367188 5.296875 -1.578125 5.546875 -1.828125 C 5.804688 -2.078125 6.019531 -2.328125 6.1875 -2.578125 C 6.363281 -2.835938 6.488281 -3.050781 6.5625 -3.21875 L 6.5625 -3.984375 C 6.320312 -4.003906 6.0625 -4.015625 5.78125 -4.015625 C 5.5 -4.023438 5.238281 -4.03125 5 -4.03125 C 4.769531 -4.03125 4.484375 -4.015625 4.140625 -3.984375 C 3.804688 -3.953125 3.46875 -3.882812 3.125 -3.78125 C 2.78125 -3.675781 2.492188 -3.507812 2.265625 -3.28125 C 2.046875 -3.0625 1.9375 -2.753906 1.9375 -2.359375 C 1.9375 -1.847656 2.085938 -1.484375 2.390625 -1.265625 C 2.703125 -1.054688 3.140625 -0.953125 3.703125 -0.953125 Z M 3.703125 -0.953125 "/></g></g></g><g fill="#181717" fill-opacity="1"><g transform="translate(180.323133, 274.487071)"><g><path d="M 5.3125 -8.953125 C 6.101562 -8.953125 6.71875 -8.671875 7.15625 -8.109375 C 7.59375 -7.546875 7.890625 -6.644531 8.046875 -5.40625 L 6.59375 -5.21875 C 6.46875 -6.070312 6.25 -6.726562 5.9375 -7.1875 C 5.632812 -7.644531 5.203125 -7.875 4.640625 -7.875 C 4.316406 -7.875 4.019531 -7.765625 3.75 -7.546875 C 3.488281 -7.335938 3.253906 -7.054688 3.046875 -6.703125 C 2.835938 -6.359375 2.648438 -5.984375 2.484375 -5.578125 C 2.492188 -5.304688 2.492188 -5.039062 2.484375 -4.78125 C 2.484375 -4.519531 2.484375 -4.257812 2.484375 -4 C 2.484375 -3.238281 2.484375 -2.546875 2.484375 -1.921875 C 2.492188 -1.304688 2.515625 -0.664062 2.546875 0 L 1 0 C 1.03125 -0.6875 1.046875 -1.394531 1.046875 -2.125 C 1.054688 -2.851562 1.0625 -3.601562 1.0625 -4.375 C 1.0625 -5.113281 1.054688 -5.851562 1.046875 -6.59375 C 1.046875 -7.34375 1.035156 -8.066406 1.015625 -8.765625 L 2.546875 -8.765625 L 2.34375 -6.609375 L 2.46875 -6.609375 C 2.707031 -7.359375 3.078125 -7.9375 3.578125 -8.34375 C 4.078125 -8.75 4.65625 -8.953125 5.3125 -8.953125 Z M 5.3125 -8.953125 "/></g></g></g><g fill="#181717" fill-opacity="1"><g transform="translate(190.283793, 274.487071)"><g><path d="M 1 0 C 1.03125 -0.6875 1.046875 -1.394531 1.046875 -2.125 C 1.054688 -2.851562 1.0625 -3.601562 1.0625 -4.375 C 1.0625 -5.113281 1.054688 -5.851562 1.046875 -6.59375 C 1.046875 -7.34375 1.035156 -8.066406 1.015625 -8.765625 L 2.546875 -8.765625 L 2.34375 -6.609375 L 2.46875 -6.609375 C 2.769531 -7.367188 3.207031 -7.945312 3.78125 -8.34375 C 4.363281 -8.75 5.050781 -8.953125 5.84375 -8.953125 C 6.519531 -8.953125 7.046875 -8.804688 7.421875 -8.515625 C 7.796875 -8.222656 8.0625 -7.8125 8.21875 -7.28125 C 8.382812 -6.75 8.476562 -6.113281 8.5 -5.375 C 8.507812 -5.144531 8.515625 -4.84375 8.515625 -4.46875 C 8.515625 -4.09375 8.515625 -3.679688 8.515625 -3.234375 C 8.523438 -2.796875 8.53125 -2.359375 8.53125 -1.921875 C 8.539062 -1.484375 8.546875 -1.09375 8.546875 -0.75 C 8.554688 -0.414062 8.566406 -0.164062 8.578125 0 L 7.046875 0 C 7.066406 -0.613281 7.078125 -1.160156 7.078125 -1.640625 C 7.078125 -2.117188 7.078125 -2.585938 7.078125 -3.046875 C 7.078125 -3.515625 7.078125 -4.023438 7.078125 -4.578125 C 7.078125 -4.898438 7.0625 -5.25 7.03125 -5.625 C 7.007812 -6 6.941406 -6.359375 6.828125 -6.703125 C 6.722656 -7.046875 6.546875 -7.328125 6.296875 -7.546875 C 6.054688 -7.765625 5.71875 -7.875 5.28125 -7.875 C 4.644531 -7.875 4.09375 -7.664062 3.625 -7.25 C 3.15625 -6.84375 2.773438 -6.269531 2.484375 -5.53125 L 2.484375 -3.625 C 2.484375 -3.125 2.484375 -2.6875 2.484375 -2.3125 C 2.484375 -1.9375 2.488281 -1.566406 2.5 -1.203125 C 2.507812 -0.847656 2.523438 -0.445312 2.546875 0 Z M 1 0 "/></g></g></g><g fill="#181717" fill-opacity="1"><g transform="translate(201.615318, 274.487071)"><g><path d="M 1.75 -9.65625 C 1.394531 -9.65625 1.148438 -9.722656 1.015625 -9.859375 C 0.878906 -9.992188 0.8125 -10.195312 0.8125 -10.46875 C 0.8125 -10.71875 0.878906 -10.90625 1.015625 -11.03125 C 1.148438 -11.164062 1.394531 -11.234375 1.75 -11.234375 C 2.101562 -11.234375 2.347656 -11.164062 2.484375 -11.03125 C 2.617188 -10.90625 2.6875 -10.71875 2.6875 -10.46875 C 2.6875 -10.195312 2.617188 -9.992188 2.484375 -9.859375 C 2.347656 -9.722656 2.101562 -9.65625 1.75 -9.65625 Z M 1 0 C 1.007812 -0.726562 1.019531 -1.425781 1.03125 -2.09375 C 1.039062 -2.769531 1.046875 -3.453125 1.046875 -4.140625 C 1.046875 -4.878906 1.039062 -5.660156 1.03125 -6.484375 C 1.019531 -7.304688 1.007812 -8.078125 1 -8.796875 C 1.09375 -8.796875 1.203125 -8.789062 1.328125 -8.78125 C 1.460938 -8.769531 1.601562 -8.765625 1.75 -8.765625 C 1.90625 -8.765625 2.046875 -8.769531 2.171875 -8.78125 C 2.304688 -8.789062 2.421875 -8.796875 2.515625 -8.796875 C 2.503906 -8.378906 2.492188 -7.898438 2.484375 -7.359375 C 2.484375 -6.828125 2.476562 -6.28125 2.46875 -5.71875 C 2.46875 -5.15625 2.46875 -4.628906 2.46875 -4.140625 C 2.46875 -3.429688 2.472656 -2.722656 2.484375 -2.015625 C 2.492188 -1.304688 2.503906 -0.632812 2.515625 0 Z M 1 0 "/></g></g></g><g fill="#181717" fill-opacity="1"><g transform="translate(206.889886, 274.487071)"><g><path d="M 1 0 C 1.03125 -0.6875 1.046875 -1.394531 1.046875 -2.125 C 1.054688 -2.851562 1.0625 -3.601562 1.0625 -4.375 C 1.0625 -5.113281 1.054688 -5.851562 1.046875 -6.59375 C 1.046875 -7.34375 1.035156 -8.066406 1.015625 -8.765625 L 2.546875 -8.765625 L 2.34375 -6.609375 L 2.46875 -6.609375 C 2.769531 -7.367188 3.207031 -7.945312 3.78125 -8.34375 C 4.363281 -8.75 5.050781 -8.953125 5.84375 -8.953125 C 6.519531 -8.953125 7.046875 -8.804688 7.421875 -8.515625 C 7.796875 -8.222656 8.0625 -7.8125 8.21875 -7.28125 C 8.382812 -6.75 8.476562 -6.113281 8.5 -5.375 C 8.507812 -5.144531 8.515625 -4.84375 8.515625 -4.46875 C 8.515625 -4.09375 8.515625 -3.679688 8.515625 -3.234375 C 8.523438 -2.796875 8.53125 -2.359375 8.53125 -1.921875 C 8.539062 -1.484375 8.546875 -1.09375 8.546875 -0.75 C 8.554688 -0.414062 8.566406 -0.164062 8.578125 0 L 7.046875 0 C 7.066406 -0.613281 7.078125 -1.160156 7.078125 -1.640625 C 7.078125 -2.117188 7.078125 -2.585938 7.078125 -3.046875 C 7.078125 -3.515625 7.078125 -4.023438 7.078125 -4.578125 C 7.078125 -4.898438 7.0625 -5.25 7.03125 -5.625 C 7.007812 -6 6.941406 -6.359375 6.828125 -6.703125 C 6.722656 -7.046875 6.546875 -7.328125 6.296875 -7.546875 C 6.054688 -7.765625 5.71875 -7.875 5.28125 -7.875 C 4.644531 -7.875 4.09375 -7.664062 3.625 -7.25 C 3.15625 -6.84375 2.773438 -6.269531 2.484375 -5.53125 L 2.484375 -3.625 C 2.484375 -3.125 2.484375 -2.6875 2.484375 -2.3125 C 2.484375 -1.9375 2.488281 -1.566406 2.5 -1.203125 C 2.507812 -0.847656 2.523438 -0.445312 2.546875 0 Z M 1 0 "/></g></g></g><g fill="#181717" fill-opacity="1"><g transform="translate(218.221411, 274.487071)"><g><path d="M 7.15625 -6.328125 C 7.1875 -6.816406 7.28125 -7.265625 7.4375 -7.671875 C 7.59375 -8.078125 7.820312 -8.398438 8.125 -8.640625 C 8.4375 -8.878906 8.828125 -9 9.296875 -9 L 9.265625 -7.46875 C 8.929688 -7.476562 8.640625 -7.398438 8.390625 -7.234375 C 8.148438 -7.078125 7.945312 -6.867188 7.78125 -6.609375 C 7.613281 -6.359375 7.476562 -6.09375 7.375 -5.8125 C 7.375 -5.25 7.222656 -4.753906 6.921875 -4.328125 C 6.628906 -3.910156 6.234375 -3.585938 5.734375 -3.359375 C 5.234375 -3.128906 4.660156 -3.015625 4.015625 -3.015625 C 3.773438 -3.015625 3.546875 -3.03125 3.328125 -3.0625 C 3.117188 -3.09375 2.921875 -3.128906 2.734375 -3.171875 C 2.566406 -2.921875 2.398438 -2.6875 2.234375 -2.46875 C 2.066406 -2.257812 1.910156 -2.082031 1.765625 -1.9375 L 1.78125 -1.765625 C 2.195312 -1.816406 2.640625 -1.867188 3.109375 -1.921875 C 3.578125 -1.984375 4.117188 -2.03125 4.734375 -2.0625 C 5.347656 -2.09375 6.0625 -2.109375 6.875 -2.109375 C 7.175781 -2.128906 7.453125 -2.066406 7.703125 -1.921875 C 7.960938 -1.773438 8.171875 -1.570312 8.328125 -1.3125 C 8.492188 -1.0625 8.578125 -0.78125 8.578125 -0.46875 C 8.578125 0.0625 8.410156 0.53125 8.078125 0.9375 C 7.742188 1.34375 7.28125 1.664062 6.6875 1.90625 C 6.101562 2.144531 5.414062 2.265625 4.625 2.265625 C 3.800781 2.265625 3.050781 2.128906 2.375 1.859375 C 1.707031 1.597656 1.160156 1.226562 0.734375 0.75 L 1.5625 -0.09375 C 2 0.289062 2.476562 0.59375 3 0.8125 C 3.53125 1.03125 4.148438 1.140625 4.859375 1.140625 C 5.210938 1.140625 5.550781 1.109375 5.875 1.046875 C 6.195312 0.984375 6.507812 0.875 6.8125 0.71875 C 7.050781 0.351562 7.171875 -0.00390625 7.171875 -0.359375 C 7.171875 -0.640625 7.0625 -0.851562 6.84375 -1 C 6.625 -1.144531 6.328125 -1.207031 5.953125 -1.1875 L 1.28125 -1.015625 L 0.84375 -1.828125 C 1.050781 -2.078125 1.25 -2.347656 1.4375 -2.640625 C 1.625 -2.929688 1.789062 -3.222656 1.9375 -3.515625 C 1.195312 -3.992188 0.828125 -4.832031 0.828125 -6.03125 C 0.828125 -6.914062 1.109375 -7.625 1.671875 -8.15625 C 2.234375 -8.6875 3.03125 -8.953125 4.0625 -8.953125 C 4.695312 -8.953125 5.238281 -8.832031 5.6875 -8.59375 C 6.144531 -8.363281 6.492188 -8.050781 6.734375 -7.65625 C 6.972656 -7.257812 7.078125 -6.816406 7.046875 -6.328125 Z M 5.59375 -4.390625 C 5.90625 -4.796875 6.0625 -5.328125 6.0625 -5.984375 C 6.0625 -6.535156 5.882812 -7.003906 5.53125 -7.390625 C 5.175781 -7.773438 4.6875 -7.96875 4.0625 -7.96875 C 3.789062 -7.96875 3.53125 -7.9375 3.28125 -7.875 C 3.03125 -7.8125 2.832031 -7.726562 2.6875 -7.625 C 2.507812 -7.4375 2.367188 -7.203125 2.265625 -6.921875 C 2.171875 -6.648438 2.125 -6.34375 2.125 -6 C 2.125 -5.375 2.300781 -4.878906 2.65625 -4.515625 C 3.019531 -4.148438 3.53125 -3.96875 4.1875 -3.96875 C 4.445312 -3.96875 4.703125 -4.003906 4.953125 -4.078125 C 5.203125 -4.160156 5.414062 -4.265625 5.59375 -4.390625 Z M 5.59375 -4.390625 "/></g></g></g><g fill="#181717" fill-opacity="1"><g transform="translate(229.594901, 274.487071)"><g/></g></g><g fill="#181717" fill-opacity="1"><g transform="translate(234.701619, 274.487071)"><g><path d="M 5.390625 0.1875 C 3.816406 0.1875 2.617188 -0.28125 1.796875 -1.21875 C 0.984375 -2.164062 0.578125 -3.535156 0.578125 -5.328125 C 0.578125 -7.109375 0.984375 -8.46875 1.796875 -9.40625 C 2.617188 -10.34375 3.816406 -10.8125 5.390625 -10.8125 C 6.765625 -10.8125 7.816406 -10.46875 8.546875 -9.78125 C 9.273438 -9.101562 9.738281 -8.140625 9.9375 -6.890625 L 8.484375 -6.71875 C 8.117188 -8.695312 7.035156 -9.6875 5.234375 -9.6875 C 4.828125 -9.6875 4.410156 -9.632812 3.984375 -9.53125 C 3.554688 -9.4375 3.191406 -9.296875 2.890625 -9.109375 C 2.335938 -8.203125 2.0625 -6.90625 2.0625 -5.21875 C 2.0625 -3.820312 2.363281 -2.757812 2.96875 -2.03125 C 3.570312 -1.300781 4.429688 -0.9375 5.546875 -0.9375 C 5.898438 -0.9375 6.285156 -0.972656 6.703125 -1.046875 C 7.117188 -1.128906 7.453125 -1.234375 7.703125 -1.359375 C 7.867188 -1.640625 8.015625 -1.941406 8.140625 -2.265625 C 8.265625 -2.585938 8.347656 -2.953125 8.390625 -3.359375 L 9.859375 -3.359375 C 9.628906 -2.234375 9.148438 -1.359375 8.421875 -0.734375 C 7.691406 -0.117188 6.679688 0.1875 5.390625 0.1875 Z M 5.390625 0.1875 "/></g></g></g><g fill="#181717" fill-opacity="1"><g transform="translate(246.970362, 274.487071)"><g><path d="M 6.5 -1.46875 C 6.625 -1.6875 6.726562 -1.941406 6.8125 -2.234375 C 6.90625 -2.535156 6.976562 -2.832031 7.03125 -3.125 L 8.46875 -3.09375 C 8.289062 -2.019531 7.875 -1.207031 7.21875 -0.65625 C 6.570312 -0.101562 5.675781 0.171875 4.53125 0.171875 C 3.207031 0.171875 2.203125 -0.222656 1.515625 -1.015625 C 0.835938 -1.804688 0.5 -2.914062 0.5 -4.34375 C 0.5 -5.820312 0.859375 -6.957031 1.578125 -7.75 C 2.296875 -8.550781 3.320312 -8.953125 4.65625 -8.953125 C 5.882812 -8.953125 6.820312 -8.578125 7.46875 -7.828125 C 8.113281 -7.078125 8.46875 -6.007812 8.53125 -4.625 L 8.515625 -4.625 L 1.9375 -4.203125 C 1.957031 -3.179688 2.207031 -2.375 2.6875 -1.78125 C 3.175781 -1.195312 3.816406 -0.90625 4.609375 -0.90625 C 4.984375 -0.90625 5.332031 -0.957031 5.65625 -1.0625 C 5.988281 -1.175781 6.269531 -1.3125 6.5 -1.46875 Z M 4.5625 -7.875 C 4.132812 -7.875 3.726562 -7.789062 3.34375 -7.625 C 2.96875 -7.46875 2.660156 -7.257812 2.421875 -7 C 2.273438 -6.71875 2.164062 -6.398438 2.09375 -6.046875 C 2.019531 -5.703125 1.972656 -5.328125 1.953125 -4.921875 L 7.0625 -5.21875 C 6.945312 -6.039062 6.679688 -6.6875 6.265625 -7.15625 C 5.847656 -7.632812 5.28125 -7.875 4.5625 -7.875 Z M 4.5625 -7.875 "/></g></g></g><g fill="#181717" fill-opacity="1"><g transform="translate(257.77033, 274.487071)"><g><path d="M 1 0 C 1.03125 -0.6875 1.046875 -1.394531 1.046875 -2.125 C 1.054688 -2.851562 1.0625 -3.601562 1.0625 -4.375 C 1.0625 -5.113281 1.054688 -5.851562 1.046875 -6.59375 C 1.046875 -7.34375 1.035156 -8.066406 1.015625 -8.765625 L 2.546875 -8.765625 L 2.34375 -6.609375 L 2.46875 -6.609375 C 2.769531 -7.367188 3.207031 -7.945312 3.78125 -8.34375 C 4.363281 -8.75 5.050781 -8.953125 5.84375 -8.953125 C 6.519531 -8.953125 7.046875 -8.804688 7.421875 -8.515625 C 7.796875 -8.222656 8.0625 -7.8125 8.21875 -7.28125 C 8.382812 -6.75 8.476562 -6.113281 8.5 -5.375 C 8.507812 -5.144531 8.515625 -4.84375 8.515625 -4.46875 C 8.515625 -4.09375 8.515625 -3.679688 8.515625 -3.234375 C 8.523438 -2.796875 8.53125 -2.359375 8.53125 -1.921875 C 8.539062 -1.484375 8.546875 -1.09375 8.546875 -0.75 C 8.554688 -0.414062 8.566406 -0.164062 8.578125 0 L 7.046875 0 C 7.066406 -0.613281 7.078125 -1.160156 7.078125 -1.640625 C 7.078125 -2.117188 7.078125 -2.585938 7.078125 -3.046875 C 7.078125 -3.515625 7.078125 -4.023438 7.078125 -4.578125 C 7.078125 -4.898438 7.0625 -5.25 7.03125 -5.625 C 7.007812 -6 6.941406 -6.359375 6.828125 -6.703125 C 6.722656 -7.046875 6.546875 -7.328125 6.296875 -7.546875 C 6.054688 -7.765625 5.71875 -7.875 5.28125 -7.875 C 4.644531 -7.875 4.09375 -7.664062 3.625 -7.25 C 3.15625 -6.84375 2.773438 -6.269531 2.484375 -5.53125 L 2.484375 -3.625 C 2.484375 -3.125 2.484375 -2.6875 2.484375 -2.3125 C 2.484375 -1.9375 2.488281 -1.566406 2.5 -1.203125 C 2.507812 -0.847656 2.523438 -0.445312 2.546875 0 Z M 1 0 "/></g></g></g><g fill="#181717" fill-opacity="1"><g transform="translate(269.101855, 274.487071)"><g><path d="M 4.140625 0.125 C 3.535156 0.125 3.0625 0.0234375 2.71875 -0.171875 C 2.375 -0.367188 2.125 -0.648438 1.96875 -1.015625 C 1.8125 -1.378906 1.710938 -1.804688 1.671875 -2.296875 C 1.628906 -2.796875 1.609375 -3.34375 1.609375 -3.9375 L 1.609375 -7.6875 L 0.25 -7.65625 L 0.25 -8.78125 C 0.445312 -8.78125 0.664062 -8.773438 0.90625 -8.765625 C 1.15625 -8.765625 1.382812 -8.757812 1.59375 -8.75 L 1.59375 -10.78125 C 2.082031 -10.78125 2.578125 -10.796875 3.078125 -10.828125 C 3.078125 -10.503906 3.078125 -10.226562 3.078125 -10 C 3.078125 -9.78125 3.078125 -9.578125 3.078125 -9.390625 C 3.078125 -9.203125 3.070312 -8.988281 3.0625 -8.75 C 3.476562 -8.75 3.945312 -8.753906 4.46875 -8.765625 C 5 -8.773438 5.519531 -8.785156 6.03125 -8.796875 C 6 -8.597656 5.984375 -8.40625 5.984375 -8.21875 C 5.984375 -8.125 5.976562 -8.03125 5.96875 -7.9375 C 5.96875 -7.84375 5.96875 -7.75 5.96875 -7.65625 L 3.046875 -7.6875 C 3.046875 -7.25 3.046875 -6.753906 3.046875 -6.203125 C 3.046875 -5.660156 3.046875 -5.117188 3.046875 -4.578125 C 3.046875 -4.035156 3.046875 -3.53125 3.046875 -3.0625 C 3.046875 -2.707031 3.070312 -2.367188 3.125 -2.046875 C 3.1875 -1.734375 3.300781 -1.476562 3.46875 -1.28125 C 3.644531 -1.09375 3.90625 -1 4.25 -1 C 4.5625 -1 4.851562 -1.023438 5.125 -1.078125 C 5.394531 -1.128906 5.648438 -1.195312 5.890625 -1.28125 C 5.890625 -1.144531 5.882812 -0.957031 5.875 -0.71875 C 5.863281 -0.476562 5.859375 -0.28125 5.859375 -0.125 C 5.597656 -0.0625 5.328125 -0.00390625 5.046875 0.046875 C 4.765625 0.0976562 4.460938 0.125 4.140625 0.125 Z M 4.140625 0.125 "/></g></g></g><g fill="#181717" fill-opacity="1"><g transform="translate(277.341959, 274.487071)"><g><path d="M 6.5 -1.46875 C 6.625 -1.6875 6.726562 -1.941406 6.8125 -2.234375 C 6.90625 -2.535156 6.976562 -2.832031 7.03125 -3.125 L 8.46875 -3.09375 C 8.289062 -2.019531 7.875 -1.207031 7.21875 -0.65625 C 6.570312 -0.101562 5.675781 0.171875 4.53125 0.171875 C 3.207031 0.171875 2.203125 -0.222656 1.515625 -1.015625 C 0.835938 -1.804688 0.5 -2.914062 0.5 -4.34375 C 0.5 -5.820312 0.859375 -6.957031 1.578125 -7.75 C 2.296875 -8.550781 3.320312 -8.953125 4.65625 -8.953125 C 5.882812 -8.953125 6.820312 -8.578125 7.46875 -7.828125 C 8.113281 -7.078125 8.46875 -6.007812 8.53125 -4.625 L 8.515625 -4.625 L 1.9375 -4.203125 C 1.957031 -3.179688 2.207031 -2.375 2.6875 -1.78125 C 3.175781 -1.195312 3.816406 -0.90625 4.609375 -0.90625 C 4.984375 -0.90625 5.332031 -0.957031 5.65625 -1.0625 C 5.988281 -1.175781 6.269531 -1.3125 6.5 -1.46875 Z M 4.5625 -7.875 C 4.132812 -7.875 3.726562 -7.789062 3.34375 -7.625 C 2.96875 -7.46875 2.660156 -7.257812 2.421875 -7 C 2.273438 -6.71875 2.164062 -6.398438 2.09375 -6.046875 C 2.019531 -5.703125 1.972656 -5.328125 1.953125 -4.921875 L 7.0625 -5.21875 C 6.945312 -6.039062 6.679688 -6.6875 6.265625 -7.15625 C 5.847656 -7.632812 5.28125 -7.875 4.5625 -7.875 Z M 4.5625 -7.875 "/></g></g></g><g fill="#181717" fill-opacity="1"><g transform="translate(288.141926, 274.487071)"><g><path d="M 5.3125 -8.953125 C 6.101562 -8.953125 6.71875 -8.671875 7.15625 -8.109375 C 7.59375 -7.546875 7.890625 -6.644531 8.046875 -5.40625 L 6.59375 -5.21875 C 6.46875 -6.070312 6.25 -6.726562 5.9375 -7.1875 C 5.632812 -7.644531 5.203125 -7.875 4.640625 -7.875 C 4.316406 -7.875 4.019531 -7.765625 3.75 -7.546875 C 3.488281 -7.335938 3.253906 -7.054688 3.046875 -6.703125 C 2.835938 -6.359375 2.648438 -5.984375 2.484375 -5.578125 C 2.492188 -5.304688 2.492188 -5.039062 2.484375 -4.78125 C 2.484375 -4.519531 2.484375 -4.257812 2.484375 -4 C 2.484375 -3.238281 2.484375 -2.546875 2.484375 -1.921875 C 2.492188 -1.304688 2.515625 -0.664062 2.546875 0 L 1 0 C 1.03125 -0.6875 1.046875 -1.394531 1.046875 -2.125 C 1.054688 -2.851562 1.0625 -3.601562 1.0625 -4.375 C 1.0625 -5.113281 1.054688 -5.851562 1.046875 -6.59375 C 1.046875 -7.34375 1.035156 -8.066406 1.015625 -8.765625 L 2.546875 -8.765625 L 2.34375 -6.609375 L 2.46875 -6.609375 C 2.707031 -7.359375 3.078125 -7.9375 3.578125 -8.34375 C 4.078125 -8.75 4.65625 -8.953125 5.3125 -8.953125 Z M 5.3125 -8.953125 "/></g></g></g></svg>